<?xml version="1.0" encoding="UTF-8"?>
<svg version="1.1" xmlns="http://www.w3.org/2000/svg" width="310" height="163">
<path d="M0 0 C102.3 0 204.6 0 310 0 C310 53.79 310 107.58 310 163 C207.7 163 105.4 163 0 163 C0 109.21 0 55.42 0 0 Z " fill="#103262" transform="translate(0,0)"/>
<path d="M0 0 C102.3 0 204.6 0 310 0 C310 24.75 310 49.5 310 75 C207.7 75 105.4 75 0 75 C0 50.25 0 25.5 0 0 Z " fill="#FBF6F7" transform="translate(0,88)"/>
<path d="M0 0 C61.38 0 122.76 0 186 0 C186 20.79 186 41.58 186 63 C124.62 63 63.24 63 0 63 C0 42.21 0 21.42 0 0 Z " fill="#B52048" transform="translate(124,12)"/>
<path d="M0 0 C102.3 0 204.6 0 310 0 C310 12.21 310 24.42 310 37 C207.7 37 105.4 37 0 37 C0 24.79 0 12.58 0 0 Z " fill="#B52048" transform="translate(0,88)"/>
<path d="M0 0 C61.38 0 122.76 0 186 0 C186 8.25 186 16.5 186 25 C124.62 25 63.24 25 0 25 C0 16.75 0 8.5 0 0 Z " fill="#B52048" transform="translate(124,50)"/>
<path d="M0 0 C102.3 0 204.6 0 310 0 C310 4.29 310 8.58 310 13 C207.7 13 105.4 13 0 13 C0 8.71 0 4.42 0 0 Z " fill="#B52048" transform="translate(0,125)"/>
<path d="M0 0 C102.3 0 204.6 0 310 0 C310 3.96 310 7.92 310 12 C207.7 12 105.4 12 0 12 C0 8.04 0 4.08 0 0 Z " fill="#B31942" transform="translate(0,151)"/>
<path d="M0 0 C102.3 0 204.6 0 310 0 C310 3.96 310 7.92 310 12 C207.7 12 105.4 12 0 12 C0 8.04 0 4.08 0 0 Z " fill="#FFFFFF" transform="translate(0,113)"/>
<path d="M0 0 C102.3 0 204.6 0 310 0 C310 3.96 310 7.92 310 12 C207.7 12 105.4 12 0 12 C0 8.04 0 4.08 0 0 Z " fill="#FFFFFF" transform="translate(0,88)"/>
<path d="M0 0 C61.38 0 122.76 0 186 0 C186 4.29 186 8.58 186 13 C124.62 13 63.24 13 0 13 C0 8.71 0 4.42 0 0 Z " fill="#FCF7F8" transform="translate(124,12)"/>
<path d="M0 0 C61.38 0 122.76 0 186 0 C186 3.96 186 7.92 186 12 C124.62 12 63.24 12 0 12 C0 8.04 0 4.08 0 0 Z " fill="#B31B44" transform="translate(124,75)"/>
<path d="M0 0 C61.38 0 122.76 0 186 0 C186 3.96 186 7.92 186 12 C124.62 12 63.24 12 0 12 C0 8.04 0 4.08 0 0 Z " fill="#FFFFFF" transform="translate(124,63)"/>
<path d="M0 0 C61.38 0 122.76 0 186 0 C186 3.96 186 7.92 186 12 C124.62 12 63.24 12 0 12 C0 8.04 0 4.08 0 0 Z " fill="#FFFFFF" transform="translate(124,38)"/>
<path d="M0 0 C61.38 0 122.76 0 186 0 C186 3.96 186 7.92 186 12 C124.62 12 63.24 12 0 12 C0 8.04 0 4.08 0 0 Z " fill="#B21641" transform="translate(124,0)"/>
<path d="M0 0 C0.66 0 1.32 0 2 0 C2 0.66 2 1.32 2 2 C3.32 2.33 4.64 2.66 6 3 C5.01 3.33 4.02 3.66 3 4 C3.33 5.32 3.66 6.64 4 8 C2.02 8 0.04 8 -2 8 C-1.67 6.68 -1.34 5.36 -1 4 C-1.99 3.67 -2.98 3.34 -4 3 C-2.68 2.67 -1.36 2.34 0 2 C0 1.34 0 0.68 0 0 Z " fill="#C6CCD5" transform="translate(61,66)"/>
<path d="M0 0 C2.475 0.99 2.475 0.99 5 2 C5 2.66 5 3.32 5 4 C4.34 4 3.68 4 3 4 C3.33 5.32 3.66 6.64 4 8 C3.38125 7.814375 2.7625 7.62875 2.125 7.4375 C-0.04160178 6.76313824 -0.04160178 6.76313824 -2 8 C-2.66 6.02 -3.32 4.04 -4 2 C-2.68 2 -1.36 2 0 2 C0 1.34 0 0.68 0 0 Z " fill="#CCD1DA" transform="translate(82,66)"/>
<path d="M0 0 C2.475 0.99 2.475 0.99 5 2 C5 2.66 5 3.32 5 4 C4.34 4 3.68 4 3 4 C3.33 5.32 3.66 6.64 4 8 C3.38125 7.814375 2.7625 7.62875 2.125 7.4375 C-0.04160178 6.76313824 -0.04160178 6.76313824 -2 8 C-2.66 6.02 -3.32 4.04 -4 2 C-2.68 2 -1.36 2 0 2 C0 1.34 0 0.68 0 0 Z " fill="#CCD1DA" transform="translate(20,66)"/>
<path d="M0 0 C0.33 0.66 0.66 1.32 1 2 C3.02463255 2.65213292 3.02463255 2.65213292 5 3 C4.34 4.65 3.68 6.3 3 8 C2.01 7.67 1.02 7.34 0 7 C-0.99 7 -1.98 7 -3 7 C-2.67 6.01 -2.34 5.02 -2 4 C-2.66 4 -3.32 4 -4 4 C-4 3.34 -4 2.68 -4 2 C-2.68 1.34 -1.36 0.68 0 0 Z " fill="#CED2DB" transform="translate(103,31)"/>
<path d="M0 0 C0.33 0.66 0.66 1.32 1 2 C3.02463255 2.65213292 3.02463255 2.65213292 5 3 C4.34 4.65 3.68 6.3 3 8 C2.01 7.67 1.02 7.34 0 7 C-0.99 7 -1.98 7 -3 7 C-2.67 6.01 -2.34 5.02 -2 4 C-2.66 4 -3.32 4 -4 4 C-4 3.34 -4 2.68 -4 2 C-2.68 1.34 -1.36 0.68 0 0 Z " fill="#CED2DB" transform="translate(41,31)"/>
<path d="M0 0 C0.66 0 1.32 0 2 0 C2 0.66 2 1.32 2 2 C3.32 2.33 4.64 2.66 6 3 C5.01 3.33 4.02 3.66 3 4 C3.33 5.32 3.66 6.64 4 8 C3.38125 7.814375 2.7625 7.62875 2.125 7.4375 C-0.04160178 6.76313824 -0.04160178 6.76313824 -2 8 C-1.67 6.68 -1.34 5.36 -1 4 C-1.99 3.67 -2.98 3.34 -4 3 C-2.68 2.67 -1.36 2.34 0 2 C0 1.34 0 0.68 0 0 Z " fill="#CED3DB" transform="translate(61,31)"/>
<path d="M0 0 C1.65 1.32 3.3 2.64 5 4 C4.3125 5.9375 4.3125 5.9375 3 8 C0.375 8.75 0.375 8.75 -2 9 C-2.66 7.02 -3.32 5.04 -4 3 C-2.68 3 -1.36 3 0 3 C0 2.01 0 1.02 0 0 Z " fill="#D5DAE1" transform="translate(113,74)"/>
<path d="M0 0 C0.33 0.99 0.66 1.98 1 3 C3.01508358 3.73323796 3.01508358 3.73323796 5 4 C4.34 5.65 3.68 7.3 3 9 C0.625 8.8125 0.625 8.8125 -2 8 C-3.3125 5.4375 -3.3125 5.4375 -4 3 C-3.01 2.67 -2.02 2.34 -1 2 C-0.67 1.34 -0.34 0.68 0 0 Z " fill="#D5DAE1" transform="translate(72,74)"/>
<path d="M0 0 C1.65 1.32 3.3 2.64 5 4 C4.3125 5.9375 4.3125 5.9375 3 8 C0.375 8.75 0.375 8.75 -2 9 C-2.66 7.02 -3.32 5.04 -4 3 C-2.68 3 -1.36 3 0 3 C0 2.01 0 1.02 0 0 Z " fill="#D5DAE1" transform="translate(51,74)"/>
<path d="M0 0 C0.33 0.99 0.66 1.98 1 3 C3.01508358 3.73323796 3.01508358 3.73323796 5 4 C4.34 5.65 3.68 7.3 3 9 C0.625 8.8125 0.625 8.8125 -2 8 C-3.3125 5.4375 -3.3125 5.4375 -4 3 C-3.01 2.67 -2.02 2.34 -1 2 C-0.67 1.34 -0.34 0.68 0 0 Z " fill="#D5DAE1" transform="translate(10,74)"/>
<path d="M0 0 C2.475 0.99 2.475 0.99 5 2 C5 2.66 5 3.32 5 4 C4.34 4 3.68 4 3 4 C3 4.99 3 5.98 3 7 C1.35 7.33 -0.3 7.66 -2 8 C-2.66 6.02 -3.32 4.04 -4 2 C-2.68 2 -1.36 2 0 2 C0 1.34 0 0.68 0 0 Z " fill="#D2D6DE" transform="translate(82,31)"/>
<path d="M0 0 C2.475 0.99 2.475 0.99 5 2 C5 2.66 5 3.32 5 4 C4.34 4 3.68 4 3 4 C3 4.99 3 5.98 3 7 C1.35 7.33 -0.3 7.66 -2 8 C-2.66 6.02 -3.32 4.04 -4 2 C-2.68 2 -1.36 2 0 2 C0 1.34 0 0.68 0 0 Z " fill="#D2D6DE" transform="translate(20,31)"/>
<path d="M0 0 C0.66 0 1.32 0 2 0 C2 0.66 2 1.32 2 2 C2.99 2 3.98 2 5 2 C5 2.66 5 3.32 5 4 C4.34 4 3.68 4 3 4 C3.33 5.32 3.66 6.64 4 8 C3.38125 7.814375 2.7625 7.62875 2.125 7.4375 C-0.04160178 6.76313824 -0.04160178 6.76313824 -2 8 C-1.67 6.68 -1.34 5.36 -1 4 C-1.66 4 -2.32 4 -3 4 C-3 3.34 -3 2.68 -3 2 C-2.01 2 -1.02 2 0 2 C0 1.34 0 0.68 0 0 Z " fill="#D9DDE3" transform="translate(92,75)"/>
<path d="M0 0 C0.66 0 1.32 0 2 0 C2 0.66 2 1.32 2 2 C2.99 2 3.98 2 5 2 C5 2.66 5 3.32 5 4 C4.34 4 3.68 4 3 4 C3.33 5.32 3.66 6.64 4 8 C3.38125 7.814375 2.7625 7.62875 2.125 7.4375 C-0.04160178 6.76313824 -0.04160178 6.76313824 -2 8 C-1.67 6.68 -1.34 5.36 -1 4 C-1.66 4 -2.32 4 -3 4 C-3 3.34 -3 2.68 -3 2 C-2.01 2 -1.02 2 0 2 C0 1.34 0 0.68 0 0 Z " fill="#D9DDE3" transform="translate(30,75)"/>
<path d="M0 0 C0.66 0 1.32 0 2 0 C2 0.99 2 1.98 2 3 C2.99 3.33 3.98 3.66 5 4 C4.67 5.32 4.34 6.64 4 8 C2.02 8 0.04 8 -2 8 C-2.33 6.35 -2.66 4.7 -3 3 C-2.01 3 -1.02 3 0 3 C0 2.01 0 1.02 0 0 Z " fill="#D8DCE2" transform="translate(92,57)"/>
<path d="M0 0 C0.66 0 1.32 0 2 0 C2 0.99 2 1.98 2 3 C2.99 3.33 3.98 3.66 5 4 C4.67 5.32 4.34 6.64 4 8 C2.02 8 0.04 8 -2 8 C-2.33 6.35 -2.66 4.7 -3 3 C-2.01 3 -1.02 3 0 3 C0 2.01 0 1.02 0 0 Z " fill="#D8DCE2" transform="translate(30,57)"/>
<path d="M0 0 C1.65 1.32 3.3 2.64 5 4 C2.53846154 7.81538462 2.53846154 7.81538462 -0.1875 8.75 C-1.0846875 8.87375 -1.0846875 8.87375 -2 9 C-2.66 7.02 -3.32 5.04 -4 3 C-2.68 3 -1.36 3 0 3 C0 2.01 0 1.02 0 0 Z " fill="#DADEE4" transform="translate(113,39)"/>
<path d="M0 0 C0.33 0.99 0.66 1.98 1 3 C3.01508358 3.73323796 3.01508358 3.73323796 5 4 C4.34 5.32 3.68 6.64 3 8 C1.35 8 -0.3 8 -2 8 C-2.66 6.35 -3.32 4.7 -4 3 C-3.01 2.67 -2.02 2.34 -1 2 C-0.67 1.34 -0.34 0.68 0 0 Z " fill="#D9DDE3" transform="translate(72,39)"/>
<path d="M0 0 C1.65 1.32 3.3 2.64 5 4 C2.53846154 7.81538462 2.53846154 7.81538462 -0.1875 8.75 C-1.0846875 8.87375 -1.0846875 8.87375 -2 9 C-2.66 7.02 -3.32 5.04 -4 3 C-2.68 3 -1.36 3 0 3 C0 2.01 0 1.02 0 0 Z " fill="#DADEE4" transform="translate(51,39)"/>
<path d="M0 0 C0.33 0.99 0.66 1.98 1 3 C3.01508358 3.73323796 3.01508358 3.73323796 5 4 C4.34 5.32 3.68 6.64 3 8 C1.35 8 -0.3 8 -2 8 C-2.66 6.35 -3.32 4.7 -4 3 C-3.01 2.67 -2.02 2.34 -1 2 C-0.67 1.34 -0.34 0.68 0 0 Z " fill="#D9DDE3" transform="translate(10,39)"/>
<path d="M0 0 C0.66 0 1.32 0 2 0 C2 0.99 2 1.98 2 3 C2.99 3.33 3.98 3.66 5 4 C4.67 5.32 4.34 6.64 4 8 C2.02 8 0.04 8 -2 8 C-2.33 6.35 -2.66 4.7 -3 3 C-2.01 3 -1.02 3 0 3 C0 2.01 0 1.02 0 0 Z " fill="#D3D7DF" transform="translate(92,22)"/>
<path d="M0 0 C0.66 0 1.32 0 2 0 C2 0.99 2 1.98 2 3 C2.99 3.33 3.98 3.66 5 4 C4.67 5.32 4.34 6.64 4 8 C2.02 8 0.04 8 -2 8 C-2.33 6.35 -2.66 4.7 -3 3 C-2.01 3 -1.02 3 0 3 C0 2.01 0 1.02 0 0 Z " fill="#D3D7DF" transform="translate(30,22)"/>
<path d="M0 0 C1.65 1.32 3.3 2.64 5 4 C2.53846154 7.81538462 2.53846154 7.81538462 -0.1875 8.75 C-1.0846875 8.87375 -1.0846875 8.87375 -2 9 C-2.66 7.02 -3.32 5.04 -4 3 C-2.68 3 -1.36 3 0 3 C0 2.01 0 1.02 0 0 Z " fill="#DADEE4" transform="translate(113,4)"/>
<path d="M0 0 C1.65 1.32 3.3 2.64 5 4 C2.53846154 7.81538462 2.53846154 7.81538462 -0.1875 8.75 C-1.0846875 8.87375 -1.0846875 8.87375 -2 9 C-2.66 7.02 -3.32 5.04 -4 3 C-2.68 3 -1.36 3 0 3 C0 2.01 0 1.02 0 0 Z " fill="#DADEE4" transform="translate(51,4)"/>
<path d="M0 0 C0.33 0.99 0.66 1.98 1 3 C1.99 3.33 2.98 3.66 4 4 C3.34 5.32 2.68 6.64 2 8 C-1 8 -1 8 -3 7 C-2.67 6.01 -2.34 5.02 -2 4 C-2.66 4 -3.32 4 -4 4 C-4 3.34 -4 2.68 -4 2 C-2.68 1.34 -1.36 0.68 0 0 Z " fill="#D5D9E0" transform="translate(103,66)"/>
<path d="M0 0 C0.33 0.99 0.66 1.98 1 3 C1.99 3.33 2.98 3.66 4 4 C3.34 5.32 2.68 6.64 2 8 C-1 8 -1 8 -3 7 C-2.67 6.01 -2.34 5.02 -2 4 C-2.66 4 -3.32 4 -4 4 C-4 3.34 -4 2.68 -4 2 C-2.68 1.34 -1.36 0.68 0 0 Z " fill="#D5D9E0" transform="translate(41,66)"/>
<path d="M0 0 C0.33 0.99 0.66 1.98 1 3 C3.01508358 3.73323796 3.01508358 3.73323796 5 4 C4.34 5.32 3.68 6.64 3 8 C1.35 8 -0.3 8 -2 8 C-2.66 6.35 -3.32 4.7 -4 3 C-3.01 2.67 -2.02 2.34 -1 2 C-0.67 1.34 -0.34 0.68 0 0 Z " fill="#DDE1E6" transform="translate(72,4)"/>
<path d="M0 0 C0.33 0.99 0.66 1.98 1 3 C3.01508358 3.73323796 3.01508358 3.73323796 5 4 C4.34 5.32 3.68 6.64 3 8 C1.35 8 -0.3 8 -2 8 C-2.66 6.35 -3.32 4.7 -4 3 C-3.01 2.67 -2.02 2.34 -1 2 C-0.67 1.34 -0.34 0.68 0 0 Z " fill="#DDE1E6" transform="translate(10,4)"/>
<path d="M0 0 C0.66 0 1.32 0 2 0 C2 0.99 2 1.98 2 3 C2.99 3.33 3.98 3.66 5 4 C4.67 5.32 4.34 6.64 4 8 C2.02 8 0.04 8 -2 8 C-2.33 6.35 -2.66 4.7 -3 3 C-2.01 3 -1.02 3 0 3 C0 2.01 0 1.02 0 0 Z " fill="#E4E7EC" transform="translate(61,48)"/>
<path d="M0 0 C0.66 0 1.32 0 2 0 C2 0.66 2 1.32 2 2 C2.99 2.33 3.98 2.66 5 3 C4.67 4.65 4.34 6.3 4 8 C3.38125 7.814375 2.7625 7.62875 2.125 7.4375 C-0.04160178 6.76313824 -0.04160178 6.76313824 -2 8 C-2.33 6.02 -2.66 4.04 -3 2 C-2.01 2 -1.02 2 0 2 C0 1.34 0 0.68 0 0 Z " fill="#E4E7EB" transform="translate(92,40)"/>
<path d="M0 0 C0.66 0 1.32 0 2 0 C2 0.66 2 1.32 2 2 C2.99 2.33 3.98 2.66 5 3 C4.67 4.65 4.34 6.3 4 8 C3.38125 7.814375 2.7625 7.62875 2.125 7.4375 C-0.04160178 6.76313824 -0.04160178 6.76313824 -2 8 C-2.33 6.02 -2.66 4.04 -3 2 C-2.01 2 -1.02 2 0 2 C0 1.34 0 0.68 0 0 Z " fill="#E4E7EB" transform="translate(30,40)"/>
<path d="M0 0 C0.66 0 1.32 0 2 0 C2 0.99 2 1.98 2 3 C2.99 3.33 3.98 3.66 5 4 C4.67 5.32 4.34 6.64 4 8 C2.02 8 0.04 8 -2 8 C-2.33 6.35 -2.66 4.7 -3 3 C-2.01 3 -1.02 3 0 3 C0 2.01 0 1.02 0 0 Z " fill="#E3E5EA" transform="translate(61,13)"/>
<path d="M0 0 C0.66 0 1.32 0 2 0 C2 0.66 2 1.32 2 2 C2.99 2.33 3.98 2.66 5 3 C4.67 4.65 4.34 6.3 4 8 C3.38125 7.814375 2.7625 7.62875 2.125 7.4375 C-0.04160178 6.76313824 -0.04160178 6.76313824 -2 8 C-2.33 6.02 -2.66 4.04 -3 2 C-2.01 2 -1.02 2 0 2 C0 1.34 0 0.68 0 0 Z " fill="#E4E7EB" transform="translate(92,5)"/>
<path d="M0 0 C0.66 0 1.32 0 2 0 C2 0.66 2 1.32 2 2 C2.99 2.33 3.98 2.66 5 3 C4.67 4.65 4.34 6.3 4 8 C3.38125 7.814375 2.7625 7.62875 2.125 7.4375 C-0.04160178 6.76313824 -0.04160178 6.76313824 -2 8 C-2.33 6.02 -2.66 4.04 -3 2 C-2.01 2 -1.02 2 0 2 C0 1.34 0 0.68 0 0 Z " fill="#E4E7EB" transform="translate(30,5)"/>
<path d="M0 0 C0.33 0.99 0.66 1.98 1 3 C3.01508358 3.73323796 3.01508358 3.73323796 5 4 C4.34 4.66 3.68 5.32 3 6 C3 6.66 3 7.32 3 8 C1.35 8 -0.3 8 -2 8 C-2.66 6.35 -3.32 4.7 -4 3 C-3.01 2.67 -2.02 2.34 -1 2 C-0.67 1.34 -0.34 0.68 0 0 Z " fill="#E7E9ED" transform="translate(103,48)"/>
<path d="M0 0 C1.65 1.32 3.3 2.64 5 4 C3.75 6 3.75 6 2 8 C0.68 8 -0.64 8 -2 8 C-2 7.01 -2 6.02 -2 5 C-2.66 4.34 -3.32 3.68 -4 3 C-2.68 3 -1.36 3 0 3 C0 2.01 0 1.02 0 0 Z " fill="#E6E8ED" transform="translate(82,48)"/>
<path d="M0 0 C0.33 0.99 0.66 1.98 1 3 C3.01508358 3.73323796 3.01508358 3.73323796 5 4 C4.34 4.66 3.68 5.32 3 6 C3 6.66 3 7.32 3 8 C1.35 8 -0.3 8 -2 8 C-2.66 6.35 -3.32 4.7 -4 3 C-3.01 2.67 -2.02 2.34 -1 2 C-0.67 1.34 -0.34 0.68 0 0 Z " fill="#E7E9ED" transform="translate(41,48)"/>
<path d="M0 0 C1.65 1.32 3.3 2.64 5 4 C3.75 6 3.75 6 2 8 C0.68 8 -0.64 8 -2 8 C-2 7.01 -2 6.02 -2 5 C-2.66 4.34 -3.32 3.68 -4 3 C-2.68 3 -1.36 3 0 3 C0 2.01 0 1.02 0 0 Z " fill="#E6E8ED" transform="translate(20,48)"/>
<path d="M0 0 C1.65 1.32 3.3 2.64 5 4 C3.75 6 3.75 6 2 8 C0.68 8 -0.64 8 -2 8 C-2 7.01 -2 6.02 -2 5 C-2.66 4.34 -3.32 3.68 -4 3 C-2.68 3 -1.36 3 0 3 C0 2.01 0 1.02 0 0 Z " fill="#E5E7EC" transform="translate(82,13)"/>
<path d="M0 0 C1.65 1.32 3.3 2.64 5 4 C3.75 6 3.75 6 2 8 C0.68 8 -0.64 8 -2 8 C-2 7.01 -2 6.02 -2 5 C-2.66 4.34 -3.32 3.68 -4 3 C-2.68 3 -1.36 3 0 3 C0 2.01 0 1.02 0 0 Z " fill="#E5E7EC" transform="translate(20,13)"/>
<path d="M0 0 C0.33 0.99 0.66 1.98 1 3 C3.01508358 3.73323796 3.01508358 3.73323796 5 4 C4.34 4.66 3.68 5.32 3 6 C2.67 6.66 2.34 7.32 2 8 C0.68 8 -0.64 8 -2 8 C-2.66 6.35 -3.32 4.7 -4 3 C-3.01 2.67 -2.02 2.34 -1 2 C-0.67 1.34 -0.34 0.68 0 0 Z " fill="#E8EBEE" transform="translate(103,13)"/>
<path d="M0 0 C0.33 0.99 0.66 1.98 1 3 C3.01508358 3.73323796 3.01508358 3.73323796 5 4 C4.34 4.66 3.68 5.32 3 6 C2.67 6.66 2.34 7.32 2 8 C0.68 8 -0.64 8 -2 8 C-2.66 6.35 -3.32 4.7 -4 3 C-3.01 2.67 -2.02 2.34 -1 2 C-0.67 1.34 -0.34 0.68 0 0 Z " fill="#E8EBEE" transform="translate(41,13)"/>
<path d="M0 0 C0.66 0.33 1.32 0.66 2 1 C2 1.66 2 2.32 2 3 C2.99 3.33 3.98 3.66 5 4 C4.34 4 3.68 4 3 4 C2.67 5.32 2.34 6.64 2 8 C0.68 8 -0.64 8 -2 8 C-2.33 6.35 -2.66 4.7 -3 3 C-2.01 3 -1.02 3 0 3 C0 2.01 0 1.02 0 0 Z " fill="#E8EAEE" transform="translate(113,57)"/>
<path d="M0 0 C0.33 0.99 0.66 1.98 1 3 C1.99 3.33 2.98 3.66 4 4 C3.34 5.32 2.68 6.64 2 8 C0.68 8 -0.64 8 -2 8 C-2 6.68 -2 5.36 -2 4 C-2.66 3.67 -3.32 3.34 -4 3 C-3.01 3 -2.02 3 -1 3 C-0.67 2.01 -0.34 1.02 0 0 Z " fill="#E8EAEE" transform="translate(72,57)"/>
<path d="M0 0 C0.66 0.33 1.32 0.66 2 1 C2 1.66 2 2.32 2 3 C2.99 3.33 3.98 3.66 5 4 C4.34 4 3.68 4 3 4 C2.67 5.32 2.34 6.64 2 8 C0.68 8 -0.64 8 -2 8 C-2.33 6.35 -2.66 4.7 -3 3 C-2.01 3 -1.02 3 0 3 C0 2.01 0 1.02 0 0 Z " fill="#E8EAEE" transform="translate(51,57)"/>
<path d="M0 0 C0.33 0.99 0.66 1.98 1 3 C1.99 3.33 2.98 3.66 4 4 C3.34 5.32 2.68 6.64 2 8 C0.68 8 -0.64 8 -2 8 C-2 6.68 -2 5.36 -2 4 C-2.66 3.67 -3.32 3.34 -4 3 C-3.01 3 -2.02 3 -1 3 C-0.67 2.01 -0.34 1.02 0 0 Z " fill="#E8EAEE" transform="translate(10,57)"/>
<path d="M0 0 C0.33 0.99 0.66 1.98 1 3 C1.99 3.33 2.98 3.66 4 4 C3.34 5.32 2.68 6.64 2 8 C0.35 8 -1.3 8 -3 8 C-3 6.35 -3 4.7 -3 3 C-2.34 3 -1.68 3 -1 3 C-0.67 2.01 -0.34 1.02 0 0 Z " fill="#E5E8EC" transform="translate(72,22)"/>
<path d="M0 0 C0.33 0.99 0.66 1.98 1 3 C1.99 3.33 2.98 3.66 4 4 C3.34 5.32 2.68 6.64 2 8 C0.35 8 -1.3 8 -3 8 C-3 6.35 -3 4.7 -3 3 C-2.34 3 -1.68 3 -1 3 C-0.67 2.01 -0.34 1.02 0 0 Z " fill="#E5E8EC" transform="translate(10,22)"/>
<path d="M0 0 C0.33 0.99 0.66 1.98 1 3 C1.99 3.33 2.98 3.66 4 4 C4 5.32 4 6.64 4 8 C2.02 8 0.04 8 -2 8 C-2.33 6.35 -2.66 4.7 -3 3 C-2.01 3 -1.02 3 0 3 C0 2.01 0 1.02 0 0 Z " fill="#E9EBEF" transform="translate(113,22)"/>
<path d="M0 0 C0.33 0.99 0.66 1.98 1 3 C1.99 3.33 2.98 3.66 4 4 C4 5.32 4 6.64 4 8 C2.02 8 0.04 8 -2 8 C-2.33 6.35 -2.66 4.7 -3 3 C-2.01 3 -1.02 3 0 3 C0 2.01 0 1.02 0 0 Z " fill="#E9EBEF" transform="translate(51,22)"/>
</svg>
