<?xml version="1.0" encoding="UTF-8"?>
<svg version="1.1" xmlns="http://www.w3.org/2000/svg" width="299" height="169">
<path d="M0 0 C98.67 0 197.34 0 299 0 C299 55.77 299 111.54 299 169 C200.33 169 101.66 169 0 169 C0 113.23 0 57.46 0 0 Z " fill="#FCFCFD" transform="translate(0,0)"/>
<path d="M0 0 C98.67 0 197.34 0 299 0 C299 18.48 299 36.96 299 56 C200.33 56 101.66 56 0 56 C0 37.52 0 19.04 0 0 Z " fill="#0046AA" transform="translate(0,113)"/>
<path d="M0 0 C98.67 0 197.34 0 299 0 C299 18.48 299 36.96 299 56 C200.33 56 101.66 56 0 56 C0 37.52 0 19.04 0 0 Z " fill="#0046AA" transform="translate(0,0)"/>
<path d="M0 0 C0.36644578 1.55966592 0.71760862 3.12292651 1.0625 4.6875 C1.25972656 5.55761719 1.45695313 6.42773438 1.66015625 7.32421875 C2.02032279 10.16001276 1.70909969 12.24789982 1 15 C0.67 14.01 0.34 13.02 0 12 C-0.66 12 -1.32 12 -2 12 C-1.67 13.65 -1.34 15.3 -1 17 C-0.32582031 16.49855469 0.34835938 15.99710938 1.04296875 15.48046875 C4.80378344 13.59757738 7.15975157 13.88558194 11.3125 14.3125 C12.56675781 14.43238281 13.82101563 14.55226563 15.11328125 14.67578125 C16.06589844 14.78277344 17.01851562 14.88976562 18 15 C16.9790625 13.329375 16.9790625 13.329375 15.9375 11.625 C14.77734375 9.7265625 14.77734375 9.7265625 14 8 C14.33 7.34 14.66 6.68 15 6 C15.66 6.33 16.32 6.66 17 7 C17 7.99 17 8.98 17 10 C17.66 10 18.32 10 19 10 C18.95875 8.906875 18.9175 7.81375 18.875 6.6875 C19 3 19 3 21 0 C21.66 0 22.32 0 23 0 C26 3.46153846 26 3.46153846 26 6 C24.68 5.67 23.36 5.34 22 5 C22.020625 6.0725 22.04125 7.145 22.0625 8.25 C22.01345128 11.1929232 21.71872873 13.22776061 21 16 C21.495 16.99 21.495 16.99 22 18 C22.12375 16.9275 22.2475 15.855 22.375 14.75 C22.89643936 11.62136385 23.40088254 9.66519576 25 7 C25.99 7 26.98 7 28 7 C28 7.99 28 8.98 28 10 C27.34 10 26.68 10 26 10 C26 10.66 26 11.32 26 12 C27.65 11.67 29.3 11.34 31 11 C30.6875 12.9375 30.6875 12.9375 30 15 C29.01 15.33 28.02 15.66 27 16 C28.32 16.33 29.64 16.66 31 17 C31 17.99 31 18.98 31 20 C29.68 20.33 28.36 20.66 27 21 C27.99 21.99 28.98 22.98 30 24 C29.34 24.99 28.68 25.98 28 27 C27.34 27 26.68 27 26 27 C25.505 29.475 25.505 29.475 25 32 C22.525 32.495 22.525 32.495 20 33 C20 33.99 20 34.98 20 36 C14.62694301 37.67357513 14.62694301 37.67357513 12 38 C10 36.625 10 36.625 9 35 C8.67 35.66 8.34 36.32 8 37 C4.535 36.505 4.535 36.505 1 36 C1 35.01 1 34.02 1 33 C1.66 33 2.32 33 3 33 C3.2165625 31.824375 3.2165625 31.824375 3.4375 30.625 C4 28 4 28 5 26 C0.545 25.01 0.545 25.01 -4 24 C-2.0745356 26.2236068 -2.0745356 26.2236068 1 27 C0.67 28.65 0.34 30.3 0 32 C-1.65 32 -3.3 32 -5 32 C-5 30.35 -5 28.7 -5 27 C-6.32 26.34 -7.64 25.68 -9 25 C-9 24.01 -9 23.02 -9 22 C-9.33 21.175 -9.66 20.35 -10 19.5 C-11.40185194 15.99537015 -10.97476443 13.53352107 -10 10 C-9.34 10 -8.68 10 -8 10 C-8 9.01 -8 8.02 -8 7 C-7.34 7 -6.68 7 -6 7 C-5.8453125 6.1028125 -5.8453125 6.1028125 -5.6875 5.1875 C-4.71993159 2.10887325 -3.39245825 0 0 0 Z " fill="#95A157" transform="translate(139,70)"/>
<path d="M0 0 C3.62484999 -0.08681476 7.24943443 -0.14032721 10.875 -0.1875 C12.42380859 -0.22520508 12.42380859 -0.22520508 14.00390625 -0.26367188 C14.99003906 -0.27333984 15.97617188 -0.28300781 16.9921875 -0.29296875 C17.90339355 -0.3086792 18.81459961 -0.32438965 19.75341797 -0.34057617 C20.49479004 -0.22818604 21.23616211 -0.1157959 22 0 C24 3 24 3 23.625 5.6875 C23.315625 6.8321875 23.315625 6.8321875 23 8 C21.35 8.33 19.7 8.66 18 9 C18 9.99 18 10.98 18 12 C12.62694301 13.67357513 12.62694301 13.67357513 10 14 C8 12.625 8 12.625 7 11 C6.67 11.66 6.34 12.32 6 13 C3.69 12.67 1.38 12.34 -1 12 C-1 11.01 -1 10.02 -1 9 C-0.34 9 0.32 9 1 9 C1.2165625 7.824375 1.2165625 7.824375 1.4375 6.625 C2 4 2 4 3 2 C2.01 1.34 1.02 0.68 0 0 Z " fill="#A9B6CE" transform="translate(141,94)"/>
<path d="M0 0 C0.103125 0.556875 0.20625 1.11375 0.3125 1.6875 C1.13569086 4.45641471 2.50518116 6.52779961 4 9 C5.76857147 12.9616001 7.39260043 16.97115301 9 21 C7.97519531 20.89300781 6.95039063 20.78601563 5.89453125 20.67578125 C4.53393374 20.55379665 3.17325169 20.43275247 1.8125 20.3125 C1.13896484 20.23966797 0.46542969 20.16683594 -0.22851562 20.09179688 C-4.8195227 19.71107922 -7.29517576 20.28591972 -11 23 C-11.33 23 -11.66 23 -12 23 C-12 21.02 -12 19.04 -12 17 C-11.34 17 -10.68 17 -10 17 C-9.67 17.66 -9.34 18.32 -9 19 C-9 15.7 -9 12.4 -9 9 C-8.01 9.33 -7.02 9.66 -6 10 C-6 10.66 -6 11.32 -6 12 C-5.34 12 -4.68 12 -4 12 C-3.79503906 11.21753906 -3.59007812 10.43507813 -3.37890625 9.62890625 C-3.10949219 8.61699219 -2.84007812 7.60507813 -2.5625 6.5625 C-2.29566406 5.55316406 -2.02882812 4.54382813 -1.75390625 3.50390625 C-1 1 -1 1 0 0 Z " fill="#EAD2D0" transform="translate(149,65)"/>
<path d="M0 0 C1.5 1.375 1.5 1.375 3 3 C3 3.66 3 4.32 3 5 C3.928125 5.4640625 3.928125 5.4640625 4.875 5.9375 C6.25 6.625 7.625 7.3125 9 8 C9 9.65 9 11.3 9 13 C10.65 12.67 12.3 12.34 14 12 C13.67 10.68 13.34 9.36 13 8 C12.01 8.33 11.02 8.66 10 9 C10 7.68 10 6.36 10 5 C13.3 5.33 16.6 5.66 20 6 C19.01 8.64 18.02 11.28 17 14 C16.34 14 15.68 14 15 14 C15 15.65 15 17.3 15 19 C11.23312136 19 10.08809695 18.76462683 7 17 C7 16.34 7 15.68 7 15 C6.01 15 5.02 15 4 15 C3.87625 14.195625 3.7525 13.39125 3.625 12.5625 C3.41875 11.716875 3.2125 10.87125 3 10 C2.34 9.67 1.68 9.34 1 9 C0.27840576 7.35636866 -0.39351421 5.68949614 -1 4 C-0.34 3.34 0.32 2.68 1 2 C0.34 1.67 -0.32 1.34 -1 1 C-0.67 0.67 -0.34 0.34 0 0 Z " fill="#F7EEC8" transform="translate(125,89)"/>
<path d="M0 0 C0.66 0 1.32 0 2 0 C5 3.46153846 5 3.46153846 5 6 C3.68 5.67 2.36 5.34 1 5 C1.020625 6.0725 1.04125 7.145 1.0625 8.25 C1 12 1 12 0.375 14 C-0.3167763 16.86647634 -0.3167763 16.86647634 2 23 C-6.58 23 -15.16 23 -24 23 C-22 20 -22 20 -19.93701172 19.56762695 C-19.10959473 19.54144287 -18.28217773 19.51525879 -17.4296875 19.48828125 C-16.53378906 19.45283203 -15.63789063 19.41738281 -14.71484375 19.38085938 C-13.30912109 19.34702148 -13.30912109 19.34702148 -11.875 19.3125 C-10.45767578 19.26125977 -10.45767578 19.26125977 -9.01171875 19.20898438 C-6.67459747 19.12635888 -4.33785809 19.05726012 -2 19 C-2 18.34 -2 17.68 -2 17 C-2.66 16.67 -3.32 16.34 -4 16 C-4 15.01 -4 14.02 -4 13 C-4.515625 12.154375 -5.03125 11.30875 -5.5625 10.4375 C-6.036875 9.633125 -6.51125 8.82875 -7 8 C-6.67 7.34 -6.34 6.68 -6 6 C-5.34 6.33 -4.68 6.66 -4 7 C-4 7.99 -4 8.98 -4 10 C-3.34 10 -2.68 10 -2 10 C-2.04125 8.906875 -2.0825 7.81375 -2.125 6.6875 C-2 3 -2 3 0 0 Z " fill="#3587CB" transform="translate(160,70)"/>
<path d="M0 0 C0.99 0 1.98 0 3 0 C3 0.99 3 1.98 3 3 C2.34 3 1.68 3 1 3 C1 3.66 1 4.32 1 5 C2.65 4.67 4.3 4.34 6 4 C5.6875 5.9375 5.6875 5.9375 5 8 C4.01 8.33 3.02 8.66 2 9 C3.32 9.33 4.64 9.66 6 10 C6 10.99 6 11.98 6 13 C4.68 13.33 3.36 13.66 2 14 C2.99 14.99 3.98 15.98 5 17 C4.34 17.99 3.68 18.98 3 20 C1.68 19.67 0.36 19.34 -1 19 C-2.87544075 12.71175748 -3.66692396 7.82411967 -0.9375 1.5625 C-0.628125 1.046875 -0.31875 0.53125 0 0 Z " fill="#195C6A" transform="translate(164,77)"/>
<path d="M0 0 C1.70736328 0.30164063 1.70736328 0.30164063 3.44921875 0.609375 C6.3125 1.25 6.3125 1.25 8.3125 2.25 C8.3125 2.91 8.3125 3.57 8.3125 4.25 C6.08413736 5.36418132 4.72322093 5.42874437 2.25 5.53125 C1.45335937 5.56863281 0.65671875 5.60601562 -0.1640625 5.64453125 C-1.84635417 5.71484375 -3.52864583 5.78515625 -5.2109375 5.85546875 C-6.00757813 5.89285156 -6.80421875 5.93023437 -7.625 5.96875 C-8.35589844 5.99904297 -9.08679688 6.02933594 -9.83984375 6.06054688 C-11.7813577 6.14957573 -11.7813577 6.14957573 -13.6875 7.25 C-12.7731051 4.17430807 -12.06746748 2.55109336 -9.5234375 0.53515625 C-5.90408352 -1.10501932 -3.87467065 -0.72456783 0 0 Z " fill="#037F2C" transform="translate(149.6875,84.75)"/>
<path d="M0 0 C0.66 0 1.32 0 2 0 C2.36644578 1.55966592 2.71760862 3.12292651 3.0625 4.6875 C3.25972656 5.55761719 3.45695313 6.42773438 3.66015625 7.32421875 C4.02032279 10.16001276 3.70909969 12.24789982 3 15 C2.67 14.01 2.34 13.02 2 12 C1.34 12 0.68 12 0 12 C0.061875 13.918125 0.061875 13.918125 0.125 15.875 C0.1953125 18.0546875 0.1953125 18.0546875 0 20 C-0.66 20.66 -1.32 21.32 -2 22 C-3 21 -3 21 -3.09765625 17.62109375 C-3.09098369 16.22652923 -3.07902532 14.83198257 -3.0625 13.4375 C-3.05798828 12.72658203 -3.05347656 12.01566406 -3.04882812 11.28320312 C-3.03700864 9.52209987 -3.01907263 7.76103964 -3 6 C-2.34 6 -1.68 6 -1 6 C-0.67 4.02 -0.34 2.04 0 0 Z " fill="#C9CCCD" transform="translate(137,70)"/>
<path d="M0 0 C0.66 0.33 1.32 0.66 2 1 C1.67 2.65 1.34 4.3 1 6 C0.34 6 -0.32 6 -1 6 C-1.433125 7.2065625 -1.433125 7.2065625 -1.875 8.4375 C-3 11 -3 11 -5 12 C-5.99 12.33 -6.98 12.66 -8 13 C-8 13.66 -8 14.32 -8 15 C-9.9375 15.5625 -9.9375 15.5625 -12 16 C-13 15 -13 15 -13.0625 12.4375 C-13.041875 11.633125 -13.02125 10.82875 -13 10 C-12.29875 9.814375 -11.5975 9.62875 -10.875 9.4375 C-7.40517005 7.70258502 -5.70274509 5.56733611 -3.33203125 2.55859375 C-2 1 -2 1 0 0 Z " fill="#FEEEB9" transform="translate(172,93)"/>
<path d="M0 0 C2 3 2 3 1.625 5.6875 C1.41875 6.450625 1.2125 7.21375 1 8 C-0.98 8.66 -2.96 9.32 -5 10 C-6.485 7.03 -6.485 7.03 -8 4 C-9.65 4 -11.3 4 -13 4 C-12.34 3.01 -11.68 2.02 -11 1 C-8 0.875 -8 0.875 -5 1 C-3 0 -3 0 0 0 Z " fill="#E4E8E3" transform="translate(163,94)"/>
<path d="M0 0 C0.66 0 1.32 0 2 0 C5 3.46153846 5 3.46153846 5 6 C3.68 5.67 2.36 5.34 1 5 C1.020625 6.0725 1.04125 7.145 1.0625 8.25 C0.9991441 12.05135429 0.68093332 14.63813335 -1 18 C-1.99 17.34 -2.98 16.68 -4 16 C-4 15.01 -4 14.02 -4 13 C-4.515625 12.154375 -5.03125 11.30875 -5.5625 10.4375 C-6.2740625 9.2309375 -6.2740625 9.2309375 -7 8 C-6.67 7.34 -6.34 6.68 -6 6 C-5.34 6.33 -4.68 6.66 -4 7 C-4 7.99 -4 8.98 -4 10 C-3.34 10 -2.68 10 -2 10 C-2.04125 8.906875 -2.0825 7.81375 -2.125 6.6875 C-2 3 -2 3 0 0 Z " fill="#5B8086" transform="translate(160,70)"/>
<path d="M0 0 C0.99 0.33 1.98 0.66 3 1 C3 2.98 3 4.96 3 7 C3.99 6.01 4.98 5.02 6 4 C7.5 5.3125 7.5 5.3125 9 7 C9 7.99 9 8.98 9 10 C7.4221875 10.433125 7.4221875 10.433125 5.8125 10.875 C2.77181289 11.77225193 -0.08712344 12.76423419 -3 14 C-3 12.02 -3 10.04 -3 8 C-2.34 8 -1.68 8 -1 8 C-0.67 8.66 -0.34 9.32 0 10 C0 6.7 0 3.4 0 0 Z " fill="#E4DBD1" transform="translate(140,74)"/>
<path d="M0 0 C1.58144783 2.51171127 2.05266163 3.63136862 1.625 6.625 C1.41875 7.40875 1.2125 8.1925 1 9 C1 9.66 1 10.32 1 11 C-0.65 11 -2.3 11 -4 11 C-4 10.01 -4 9.02 -4 8 C-5.65 7.67 -7.3 7.34 -9 7 C-8.67 6.34 -8.34 5.68 -8 5 C-7.401875 4.87625 -6.80375 4.7525 -6.1875 4.625 C-3.29805668 3.79944477 -1.98392064 2.19648357 0 0 Z M-10 10 C-7.03 10.495 -7.03 10.495 -4 11 C-4.99 12.485 -4.99 12.485 -6 14 C-7.32 13.34 -8.64 12.68 -10 12 C-10 11.34 -10 10.68 -10 10 Z " fill="#DEE2D9" transform="translate(174,79)"/>
<path d="M0 0 C2 1 2 1 4 4 C4.99 4.33 5.98 4.66 7 5 C6.67 6.65 6.34 8.3 6 10 C4.35 10 2.7 10 1 10 C1 8.35 1 6.7 1 5 C-0.32 4.34 -1.64 3.68 -3 3 C-2.01 2.01 -1.02 1.02 0 0 Z " fill="#158916" transform="translate(133,92)"/>
<path d="M0 0 C2.3125 1.375 2.3125 1.375 4.3125 4.375 C0.3525 4.375 -3.6075 4.375 -7.6875 4.375 C-8.0175 5.365 -8.3475 6.355 -8.6875 7.375 C-9.0175 6.715 -9.3475 6.055 -9.6875 5.375 C-7.12200004 1.52675007 -4.83141359 -1.12358456 0 0 Z " fill="#1F950D" transform="translate(145.6875,84.625)"/>
<path d="M0 0 C-0.99 0.495 -0.99 0.495 -2 1 C-2.33 1.99 -2.66 2.98 -3 4 C-4.32467746 4.6837045 -5.65863633 5.34964186 -7 6 C-7.99 7.485 -7.99 7.485 -9 9 C-10.32 8.34 -11.64 7.68 -13 7 C-12.01 7 -11.02 7 -10 7 C-10.33 6.01 -10.66 5.02 -11 4 C-10.34 4 -9.68 4 -9 4 C-9 3.34 -9 2.68 -9 2 C-3.375 -1.125 -3.375 -1.125 0 0 Z " fill="#FFE89F" transform="translate(141,63)"/>
<path d="M0 0 C3.3 0.33 6.6 0.66 10 1 C9.01 3.64 8.02 6.28 7 9 C4 7 4 7 3.3125 4.875 C3.209375 4.25625 3.10625 3.6375 3 3 C2.01 3.33 1.02 3.66 0 4 C0 2.68 0 1.36 0 0 Z " fill="#B0BECA" transform="translate(135,94)"/>
<path d="M0 0 C1.65 0 3.3 0 5 0 C5 0.66 5 1.32 5 2 C4.34 2 3.68 2 3 2 C2.87882813 2.77085938 2.75765625 3.54171875 2.6328125 4.3359375 C2.38144531 5.84027344 2.38144531 5.84027344 2.125 7.375 C1.96257812 8.37273437 1.80015625 9.37046875 1.6328125 10.3984375 C1 13 1 13 -1 15 C-1.38063221 12.6739143 -1.71269945 10.33944736 -2 8 C-1.67 7.67 -1.34 7.34 -1 7 C-0.63239269 4.67182036 -0.29758419 2.3381615 0 0 Z " fill="#E8E4E0" transform="translate(161,75)"/>
<path d="M0 0 C0.99 0.33 1.98 0.66 3 1 C4.1875 4.0625 4.1875 4.0625 5 7 C2.69 7 0.38 7 -2 7 C-1.125 1.125 -1.125 1.125 0 0 Z " fill="#0C850C" transform="translate(154,99)"/>
<path d="M0 0 C2.0625 1.75 2.0625 1.75 4 4 C3.75 6.25 3.75 6.25 3 8 C0.03 7.505 0.03 7.505 -3 7 C-3 6.01 -3 5.02 -3 4 C-2.34 4 -1.68 4 -1 4 C-0.67 2.68 -0.34 1.36 0 0 Z " fill="#068206" transform="translate(143,99)"/>
<path d="M0 0 C0.33 0.99 0.66 1.98 1 3 C1.99 3.33 2.98 3.66 4 4 C4 6.31 4 8.62 4 11 C2.35 11 0.7 11 -1 11 C0.32 10.67 1.64 10.34 3 10 C3 9.01 3 8.02 3 7 C1.68 6.34 0.36 5.68 -1 5 C-1.99 5.99 -2.98 6.98 -4 8 C-3.67 6.35 -3.34 4.7 -3 3 C-2.34 3 -1.68 3 -1 3 C-0.67 2.01 -0.34 1.02 0 0 Z " fill="#CEAF85" transform="translate(146,74)"/>
<path d="M0 0 C1.4540625 0.0309375 1.4540625 0.0309375 2.9375 0.0625 C2.6075 1.7125 2.2775 3.3625 1.9375 5.0625 C3.2575 5.3925 4.5775 5.7225 5.9375 6.0625 C3.625 6.75 3.625 6.75 0.9375 7.0625 C-0.875 5.625 -0.875 5.625 -2.0625 4.0625 C-2.3925 4.7225 -2.7225 5.3825 -3.0625 6.0625 C-3.44468767 4.40635343 -3.77645102 2.73792976 -4.0625 1.0625 C-3.0625 0.0625 -3.0625 0.0625 0 0 Z " fill="#5B7696" transform="translate(150.0625,100.9375)"/>
<path d="M0 0 C2.55723956 2.22368658 3.30503854 3.7237531 4 7 C4.63654342 8.3479743 5.29605388 9.68596724 6 11 C5.01 11.33 4.02 11.66 3 12 C3 11.34 3 10.68 3 10 C2.34 9.67 1.68 9.34 1 9 C0.27840576 7.35636866 -0.39351421 5.68949614 -1 4 C-0.34 3.34 0.32 2.68 1 2 C0.34 1.67 -0.32 1.34 -1 1 C-0.67 0.67 -0.34 0.34 0 0 Z " fill="#FFE48D" transform="translate(125,89)"/>
<path d="M0 0 C0.33 0.66 0.66 1.32 1 2 C1.66 2 2.32 2 3 2 C3 3.32 3 4.64 3 6 C1.02 6 -0.96 6 -3 6 C-2.625 3.5625 -2.625 3.5625 -2 1 C-1.34 0.67 -0.68 0.34 0 0 Z " fill="#128610" transform="translate(161,96)"/>
<path d="M0 0 C0.66 0 1.32 0 2 0 C2.22162329 1.62324086 2.42689803 3.248721 2.625 4.875 C2.74101562 5.77992187 2.85703125 6.68484375 2.9765625 7.6171875 C2.98429688 8.40351562 2.99203125 9.18984375 3 10 C2.34 10.66 1.68 11.32 1 12 C0 11 0 11 -0.09765625 8.49609375 C-0.08605469 7.48675781 -0.07445312 6.47742188 -0.0625 5.4375 C-0.05347656 4.42558594 -0.04445312 3.41367188 -0.03515625 2.37109375 C-0.02355469 1.58863281 -0.01195312 0.80617188 0 0 Z " fill="#08389F" transform="translate(134,80)"/>
<path d="M0 0 C0.99 0.33 1.98 0.66 3 1 C3 1.99 3 2.98 3 4 C3.66 4 4.32 4 5 4 C5 4.66 5 5.32 5 6 C5.66 6.33 6.32 6.66 7 7 C7 8.65 7 10.3 7 12 C5.68 11.34 4.36 10.68 3 10 C3 9.01 3 8.02 3 7 C2.01810813 5.32260138 1.01866229 3.65532623 0 2 C0 1.34 0 0.68 0 0 Z " fill="#9B9875" transform="translate(153,76)"/>
<path d="M0 0 C0.103125 0.556875 0.20625 1.11375 0.3125 1.6875 C0.93498888 4.15132842 0.93498888 4.15132842 2.625 6.625 C3.07875 7.40875 3.5325 8.1925 4 9 C3.67 9.66 3.34 10.32 3 11 C0.525 10.01 0.525 10.01 -2 9 C-1.125 1.125 -1.125 1.125 0 0 Z " fill="#ABA067" transform="translate(149,65)"/>
<path d="M0 0 C2.1640625 -0.29296875 2.1640625 -0.29296875 4.625 -0.1875 C5.44226563 -0.16042969 6.25953125 -0.13335937 7.1015625 -0.10546875 C8.04128906 -0.05326172 8.04128906 -0.05326172 9 0 C8.67 0.99 8.34 1.98 8 3 C4.7 3 1.4 3 -2 3 C-1.34 2.01 -0.68 1.02 0 0 Z " fill="#4194D8" transform="translate(138,90)"/>
<path d="M0 0 C0.99 0.495 0.99 0.495 2 1 C2.4140625 3.50390625 2.4140625 3.50390625 2.625 6.5625 C2.69976562 7.57441406 2.77453125 8.58632812 2.8515625 9.62890625 C2.92503906 10.80259766 2.92503906 10.80259766 3 12 C2.01 12.495 2.01 12.495 1 13 C-0.00496852 9.98509443 -0.10335303 7.95818308 -0.0625 4.8125 C-0.05347656 3.91144531 -0.04445312 3.01039062 -0.03515625 2.08203125 C-0.02355469 1.39496094 -0.01195312 0.70789063 0 0 Z " fill="#0C389C" transform="translate(138,72)"/>
<path d="M0 0 C2.475 0.99 2.475 0.99 5 2 C4.34 3.32 3.68 4.64 3 6 C1.68 5.67 0.36 5.34 -1 5 C-0.67 3.35 -0.34 1.7 0 0 Z " fill="#1F871B" transform="translate(164,91)"/>
<path d="M0 0 C2.475 0.495 2.475 0.495 5 1 C5 1.66 5 2.32 5 3 C3.35 3 1.7 3 0 3 C0 2.01 0 1.02 0 0 Z M-6 2 C-3.03 2.495 -3.03 2.495 0 3 C-0.99 4.485 -0.99 4.485 -2 6 C-3.32 5.34 -4.64 4.68 -6 4 C-6 3.34 -6 2.68 -6 2 Z " fill="#E4DCBA" transform="translate(170,87)"/>
<path d="M0 0 C1.65 0 3.3 0 5 0 C4.67 1.65 4.34 3.3 4 5 C2.68 4.67 1.36 4.34 0 4 C0 2.68 0 1.36 0 0 Z " fill="#228429" transform="translate(129,86)"/>
<path d="M0 0 C3 0 3 0 5 1 C4.625 3.4375 4.625 3.4375 4 6 C3.01 6.495 3.01 6.495 2 7 C2 6.34 2 5.68 2 5 C1.01 4.67 0.02 4.34 -1 4 C-0.67 2.68 -0.34 1.36 0 0 Z " fill="#F8E08F" transform="translate(146,59)"/>
<path d="M0 0 C0.99 0 1.98 0 3 0 C5 3 5 3 4.625 5.1875 C4.41875 5.785625 4.2125 6.38375 4 7 C4 6.01 4 5.02 4 4 C2.02 3.34 0.04 2.68 -2 2 C-1.34 1.34 -0.68 0.68 0 0 Z " fill="#BDCDC0" transform="translate(160,94)"/>
<path d="M0 0 C2.475 0.495 2.475 0.495 5 1 C5 1.99 5 2.98 5 4 C3.68 4.33 2.36 4.66 1 5 C0.67 3.35 0.34 1.7 0 0 Z " fill="#188718" transform="translate(165,86)"/>
<path d="M0 0 C0.66 1.32 1.32 2.64 2 4 C1.01 5.485 1.01 5.485 0 7 C-0.66 6.67 -1.32 6.34 -2 6 C-2 4.35 -2 2.7 -2 1 C-1.34 0.67 -0.68 0.34 0 0 Z " fill="#FFE695" transform="translate(174,79)"/>
<path d="M0 0 C0.66 0 1.32 0 2 0 C2.66 1.65 3.32 3.3 4 5 C1.03 4.505 1.03 4.505 -2 4 C-1.34 2.68 -0.68 1.36 0 0 Z " fill="#FBFAF7" transform="translate(154,81)"/>
<path d="M0 0 C0.33 0 0.66 0 1 0 C1 2.31 1 4.62 1 7 C0.01 7 -0.98 7 -2 7 C-2 5.35 -2 3.7 -2 2 C-1.34 2 -0.68 2 0 2 C0 1.34 0 0.68 0 0 Z " fill="#0640A9" transform="translate(160,75)"/>
<path d="M0 0 C1.32 0 2.64 0 4 0 C4 1.65 4 3.3 4 5 C2.68 5 1.36 5 0 5 C0 3.35 0 1.7 0 0 Z " fill="#FFE595" transform="translate(123,80)"/>
<path d="M0 0 C0.66 0 1.32 0 2 0 C2 0.99 2 1.98 2 3 C1.34 3 0.68 3 0 3 C0 4.32 0 5.64 0 7 C-0.99 7 -1.98 7 -3 7 C-3 6.01 -3 5.02 -3 4 C-2.34 4 -1.68 4 -1 4 C-0.67 2.68 -0.34 1.36 0 0 Z " fill="#3D8729" transform="translate(134,73)"/>
</svg>
