<?xml version="1.0" encoding="UTF-8"?>
<svg version="1.1" xmlns="http://www.w3.org/2000/svg" width="275" height="183">
<path d="M0 0 C90.75 0 181.5 0 275 0 C275 60.39 275 120.78 275 183 C184.25 183 93.5 183 0 183 C0 122.61 0 62.22 0 0 Z " fill="#EC1C24" transform="translate(0,0)"/>
<path d="M0 0 C90.75 0 181.5 0 275 0 C275 30.36 275 60.72 275 92 C239.69 92 204.38 92 168 92 C168 98.93 168 105.86 168 113 C164 121 164 121 161 123 C158.84375 123.265625 158.84375 123.265625 156.5 123.25 C155.33984375 123.25773437 155.33984375 123.25773437 154.15625 123.265625 C152 123 152 123 149 121 C149 120.34 149 119.68 149 119 C151.31 119 153.62 119 156 119 C155.67 118.01 155.34 117.02 155 116 C155.598125 115.278125 156.19625 114.55625 156.8125 113.8125 C161.66302901 107.57610556 161.28955026 99.93746158 161.1875 92.375 C161.18685547 91.45976563 161.18621094 90.54453125 161.18554688 89.6015625 C161.15536931 84.96092434 160.94756614 80.56347854 160 76 C158.68 75.67 157.36 75.34 156 75 C156.33 74.01 156.66 73.02 157 72 C153.68539295 73.70892499 153.68539295 73.70892499 153.3125 77.125 C153.1578125 78.548125 153.1578125 78.548125 153 80 C152.608125 79.46375 152.21625 78.9275 151.8125 78.375 C148.15355346 73.58051833 144.31991085 69.19648483 140 65 C140.5625 63.1875 140.5625 63.1875 142 61 C145.3125 59.375 145.3125 59.375 149 58 C149.72960937 57.67515625 150.45921875 57.3503125 151.2109375 57.015625 C154.8523903 55.68960577 158.50338525 55.04219079 162.3125 54.375 C163.05306641 54.2409375 163.79363281 54.106875 164.55664062 53.96875 C166.37025044 53.64113016 168.18501524 53.31991506 170 53 C164.64701055 50.40525744 159.96169059 49.36349552 154.0625 48.8125 C153.28326172 48.73064453 152.50402344 48.64878906 151.70117188 48.56445312 C149.80179203 48.36635829 147.90101238 48.18176159 146 48 C145.67 48.99 145.34 49.98 145 51 C142.03 51.495 142.03 51.495 139 52 C139 53.98 139 55.96 139 58 C135.50765756 58.09978121 132.40562852 57.77842938 129 57 C129 56.01 129 55.02 129 54 C129.66 53.67 130.32 53.34 131 53 C128.87570017 50.46891936 127.66226763 49.1338312 124.37109375 48.46875 C116.86885573 48.54866732 110.86241893 49.97405149 104 53 C105.16917969 53.09796875 106.33835937 53.1959375 107.54296875 53.296875 C109.09123404 53.44700982 110.6394067 53.59810205 112.1875 53.75 C112.95642578 53.811875 113.72535156 53.87375 114.51757812 53.9375 C119.56086354 54.45698004 122.17986768 55.45668886 126 59 C129.17921787 60.25556887 129.17921787 60.25556887 132 61 C131.34206835 62.67013418 130.67276716 64.3357865 130 66 C129.54625 67.134375 129.0925 68.26875 128.625 69.4375 C127.00446773 72.99020536 125.29681432 75.86102043 123 79 C122.67 79 122.34 79 122 79 C122 77.02 122 75.04 122 73 C123.32 72.67 124.64 72.34 126 72 C126 71.01 126 70.02 126 69 C125.34 68.67 124.68 68.34 124 68 C123.505 69.485 123.505 69.485 123 71 C121.515 70.01 121.515 70.01 120 69 C120.66 69 121.32 69 122 69 C122 68.01 122 67.02 122 66 C120.02 66.99 120.02 66.99 118 68 C118 69.98 118 71.96 118 74 C117.01 74.495 117.01 74.495 116 75 C116 73.35 116 71.7 116 70 C115.67 70.66 115.34 71.32 115 72 C114.34 72 113.68 72 113 72 C113 69.03 113 66.06 113 63 C111.35 62.34 109.7 61.68 108 61 C108.33 61.99 108.66 62.98 109 64 C109.66 64.33 110.32 64.66 111 65 C110.67 68.3 110.34 71.6 110 75 C109.67 74.34 109.34 73.68 109 73 C106.47266765 72.34444881 106.47266765 72.34444881 104 72 C104 71.34 104 70.68 104 70 C102.02 69.505 102.02 69.505 100 69 C100.34786708 70.97536745 100.34786708 70.97536745 101 73 C101.66 73.33 102.32 73.66 103 74 C102.34 74 101.68 74 101 74 C101.99 74.99 102.98 75.98 104 77 C104.33 76.34 104.66 75.68 105 75 C106 76 106 76 106.125 79.6875 C106.08693698 83.20832979 105.69181295 86.54093525 105 90 C105.99 90 106.98 90 108 90 C108 85.38 108 80.76 108 76 C109.65 76 111.3 76 113 76 C113.01458252 76.76554199 113.02916504 77.53108398 113.04418945 78.31982422 C113.11934702 81.83868569 113.21578236 85.3566677 113.3125 88.875 C113.33505859 90.07898438 113.35761719 91.28296875 113.38085938 92.5234375 C113.64873151 101.48497805 114.19365158 109.82297593 120 117 C118.515 117.495 118.515 117.495 117 118 C120.86763446 119.87543354 120.86763446 119.87543354 125 119 C125 119.99 125 120.98 125 122 C121.24755277 123.25081574 117.8689788 123.912495 114 123 C110.54382069 120.23357321 108.39424152 117.18272455 107 113 C107 106.07 107 99.14 107 92 C71.69 92 36.38 92 0 92 C0 61.64 0 31.28 0 0 Z " fill="#FEDC00" transform="translate(0,0)"/>
<path d="M0 0 C35.31 0 70.62 0 107 0 C107 14.85 107 29.7 107 45 C89.56310536 45.06766018 72.12632232 45.12294853 54.68933296 45.15543652 C46.59345941 45.17092063 38.49767306 45.1920395 30.40185547 45.22631836 C23.34743407 45.25617362 16.2930758 45.27556376 9.23859298 45.28226548 C5.50155377 45.28618436 1.76469522 45.29542594 -1.97228622 45.31719017 C-6.1389958 45.34126142 -10.30538915 45.3419725 -14.47216797 45.34057617 C-16.34088058 45.35675491 -16.34088058 45.35675491 -18.24734497 45.3732605 C-19.37759094 45.36913651 -20.50783691 45.36501251 -21.67233276 45.36076355 C-22.65865126 45.36352893 -23.64496975 45.36629431 -24.66117668 45.36914349 C-25.43298838 45.24732614 -26.20480007 45.12550879 -27 45 C-29.35119399 41.47320901 -29.21443452 39.97120515 -29.125 35.8125 C-29.10695312 34.72582031 -29.08890625 33.63914063 -29.0703125 32.51953125 C-29.04710937 31.68808594 -29.02390625 30.85664062 -29 30 C-26.3144406 32.6855594 -25.93950026 35.37621328 -25 39 C-24.34 38.34 -23.68 37.68 -23 37 C-22.01 37 -21.02 37 -20 37 C-20.99 33.535 -20.99 33.535 -22 30 C-20.95199219 30.01160156 -19.90398437 30.02320312 -18.82421875 30.03515625 C-17.44531428 30.04453655 -16.06640789 30.0536365 -14.6875 30.0625 C-13.99720703 30.07087891 -13.30691406 30.07925781 -12.59570312 30.08789062 C-9.4516975 30.10307906 -7.00579981 30.00193327 -4 29 C-2.81608777 26.62374655 -2.81608777 26.62374655 -2 24 C-1.67 23.01 -1.34 22.02 -1 21 C-0.67 14.07 -0.34 7.14 0 0 Z " fill="#034EA2" transform="translate(168,92)"/>
<path d="M0 0 C35.31 0 70.62 0 107 0 C107.495 10.395 107.495 10.395 108 21 C110.25013105 26.31033914 110.25013105 26.31033914 114 30 C117.43080118 30.36398618 117.43080118 30.36398618 121.1875 30.1875 C122.45980469 30.16042969 123.73210937 30.13335937 125.04296875 30.10546875 C126.01878906 30.07066406 126.99460937 30.03585938 128 30 C126.125 34.75 126.125 34.75 125 37 C126.65 37 128.3 37 130 37 C130.33 37.66 130.66 38.32 131 39 C131.99 36.03 132.98 33.06 134 30 C134.33 30 134.66 30 135 30 C135.05406122 31.93719378 135.09282025 33.87481921 135.125 35.8125 C135.14820313 36.89144531 135.17140625 37.97039062 135.1953125 39.08203125 C135 42 135 42 133 45 C130.67679405 45.36914349 130.67679405 45.36914349 127.71029663 45.36076355 C126.0275489 45.36694954 126.0275489 45.36694954 124.31080627 45.3732605 C123.0743486 45.36247467 121.83789093 45.35168884 120.56396484 45.34057617 C119.26644791 45.34101425 117.96893097 45.34145233 116.63209534 45.34190369 C113.06815404 45.34276652 109.50451396 45.32509452 105.94064283 45.30418181 C102.21838872 45.28546281 98.49612815 45.28366836 94.77383423 45.28010559 C87.72251494 45.27077103 80.67133474 45.24613828 73.62007678 45.21605712 C65.59360056 45.18255689 57.56711779 45.16603814 49.54058909 45.15097082 C33.02696508 45.11958983 16.5135327 45.0645603 0 45 C0 30.15 0 15.3 0 0 Z " fill="#034EA2" transform="translate(0,92)"/>
<path d="M0 0 C2.23046875 1.90234375 2.23046875 1.90234375 4 4 C4.66 4.66 5.32 5.32 6 6 C4.02 6.99 4.02 6.99 2 8 C3.66666667 8.33333333 5.33333333 8.66666667 7 9 C8.66666667 9.33333333 10.33333333 9.66666667 12 10 C12 8.02 12 6.04 12 4 C12.969375 3.71125 13.93875 3.4225 14.9375 3.125 C18.10664203 2.35785318 18.10664203 2.35785318 19 0 C28.36353285 -0.30478045 35.48156352 1.17539586 44 5 C44 5.33 44 5.66 44 6 C42.31583984 6.25523438 42.31583984 6.25523438 40.59765625 6.515625 C29.78072865 8.1886797 29.78072865 8.1886797 19.6640625 12.23046875 C18 13 18 13 15 13 C14.11418626 15.28748742 14.11418626 15.28748742 14 18 C15.78406485 20.21703095 15.78406485 20.21703095 18.3125 22.0625 C21.40782547 24.51640794 23.50829266 26.29957682 25 30 C25.268125 29.195625 25.53625 28.39125 25.8125 27.5625 C26.4003125 26.2940625 26.4003125 26.2940625 27 25 C27.99 24.67 28.98 24.34 30 24 C30 24.99 30 25.98 30 27 C31.32 27.33 32.64 27.66 34 28 C35.11491482 33.4307141 35.21859281 38.73018637 35.25 44.25 C35.270625 45.14074219 35.29125 46.03148437 35.3125 46.94921875 C35.35504787 54.27808858 34.4329555 61.47640927 30.1875 67.625 C27.33128234 69.42033681 25.30891661 69.3008106 22 69 C22 64.77679562 24.07094271 63.92905729 27 61 C30.09327902 56.06096723 30.38598016 52.25369365 30.1875 46.625 C30.17396484 45.88894531 30.16042969 45.15289062 30.14648438 44.39453125 C30.11144869 42.59603257 30.05765288 40.79791578 30 39 C28.61280723 43.77254138 28.61280723 43.77254138 27.39453125 48.58984375 C25.81113561 54.97656041 23.13768456 59.76831573 18 64 C12.66650046 65.9025309 6.92187827 65.81310234 1.75 63.625 C-4.42405062 57.73158804 -6.48113233 50.41952647 -7.640625 42.15234375 C-7.78164999 40.02468378 -7.78164999 40.02468378 -9 39 C-9.69133057 52.03069661 -9.69133057 52.03069661 -5 64 C-5.99 64.99 -5.99 64.99 -7 66 C-7 66.99 -7 67.98 -7 69 C-14.62970016 60.96873667 -14.34388429 52.15897082 -14.625 41.5 C-14.66367188 40.29601562 -14.70234375 39.09203125 -14.7421875 37.8515625 C-14.83585016 34.90118881 -14.92157524 31.95081144 -15 29 C-16.32 28.67 -17.64 28.34 -19 28 C-19 32.62 -19 37.24 -19 42 C-19.99 42 -20.98 42 -22 42 C-22 37.38 -22 32.76 -22 28 C-23.32 28 -24.64 28 -26 28 C-26.33 25.69 -26.66 23.38 -27 21 C-25.68 21.33 -24.36 21.66 -23 22 C-23 22.66 -23 23.32 -23 24 C-21.35 24.33 -19.7 24.66 -18 25 C-17.34 22.36 -16.68 19.72 -16 17 C-16.99 16.67 -17.98 16.34 -19 16 C-19 15.01 -19 14.02 -19 13 C-17.35 13.33 -15.7 13.66 -14 14 C-13.04975021 17.69541586 -13.04975021 20.30458414 -14 24 C-13.34 24 -12.68 24 -12 24 C-11.67 23.01 -11.34 22.02 -11 21 C-10.67 22.32 -10.34 23.64 -10 25 C-9.9071875 23.8553125 -9.9071875 23.8553125 -9.8125 22.6875 C-9 20 -9 20 -6.4375 18.1875 C-5.633125 17.795625 -4.82875 17.40375 -4 17 C-4.33 18.65 -4.66 20.3 -5 22 C-3.68 21.34 -2.36 20.68 -1 20 C-0.67 20.66 -0.34 21.32 0 22 C-0.33 22.66 -0.66 23.32 -1 24 C-1.99 24.33 -2.98 24.66 -4 25 C-4 26.32 -4 27.64 -4 29 C-0.16149948 24.75023156 1.82051401 20.20825526 4 15 C4.33 14.34 4.66 13.68 5 13 C4.071875 12.87625 3.14375 12.7525 2.1875 12.625 C-1 12 -1 12 -4 10 C-4 9.34 -4 8.68 -4 8 C-4.60585937 7.93941406 -5.21171875 7.87882812 -5.8359375 7.81640625 C-10.43229167 7.35677083 -15.02864583 6.89713542 -19.625 6.4375 C-20.46289062 6.35371094 -21.30078125 6.26992188 -22.1640625 6.18359375 C-22.76992187 6.12300781 -23.37578125 6.06242187 -24 6 C-18.26010882 -0.3836173 -8.10683816 -1.48996881 0 0 Z " fill="#587378" transform="translate(127,48)"/>
<path d="M0 0 C1.65 0.33 3.3 0.66 5 1 C5.95024979 4.69541586 5.95024979 7.30458414 5 11 C5.66 11 6.32 11 7 11 C7.33 10.01 7.66 9.02 8 8 C8.33 9.32 8.66 10.64 9 12 C9.0928125 10.8553125 9.0928125 10.8553125 9.1875 9.6875 C10 7 10 7 12.5625 5.1875 C13.7690625 4.5996875 13.7690625 4.5996875 15 4 C14.67 5.65 14.34 7.3 14 9 C15.32 8.34 16.64 7.68 18 7 C18.33 7.66 18.66 8.32 19 9 C18.67 9.66 18.34 10.32 18 11 C17.01 11.33 16.02 11.66 15 12 C15 13.32 15 14.64 15 16 C15.29390625 15.4946875 15.5878125 14.989375 15.890625 14.46875 C18.17998945 11.15311873 19.80083681 9.27200935 23.82421875 8.359375 C28.93145 8.17994906 32.95445839 8.45298188 37.25 11.375 C38.1575 12.24125 39.065 13.1075 40 14 C40 14.66 40 15.32 40 16 C35.71 15.01 31.42 14.02 27 13 C27.495 15.475 27.495 15.475 28 18 C28.87011719 17.94779297 28.87011719 17.94779297 29.7578125 17.89453125 C35.00218151 17.71279569 38.4196754 18.13729712 43 21 C44 22 44 22 44.0625 24.5625 C44.041875 25.366875 44.02125 26.17125 44 27 C37.08729651 28.01386318 30.86536919 27.83869133 23.9375 27.0625 C22.97650391 26.96259766 22.01550781 26.86269531 21.02539062 26.75976562 C18.6825545 26.5149917 16.34100586 26.26160604 14 26 C14.31358564 34.52952952 15.64159625 40.63407513 20.875 47.4375 C23.54369698 49.39977719 25.73669103 49.70333555 29 50 C28.01 50.66 27.02 51.32 26 52 C21.48031245 50.92954769 18.88714672 48.55341135 16 45 C12.96922996 39.11077794 11.59559275 33.55152023 11 27 C10.67 26.67 10.34 26.34 10 26 C9.30866943 39.03069661 9.30866943 39.03069661 14 51 C13.34 51.66 12.68 52.32 12 53 C12 53.99 12 54.98 12 56 C4.37029984 47.96873667 4.65611571 39.15897082 4.375 28.5 C4.33632812 27.29601562 4.29765625 26.09203125 4.2578125 24.8515625 C4.16414984 21.90118881 4.07842476 18.95081144 4 16 C2.68 15.67 1.36 15.34 0 15 C0 19.62 0 24.24 0 29 C-0.99 29 -1.98 29 -3 29 C-3 24.38 -3 19.76 -3 15 C-4.32 15 -5.64 15 -7 15 C-7.33 12.69 -7.66 10.38 -8 8 C-6.68 8.33 -5.36 8.66 -4 9 C-4 9.66 -4 10.32 -4 11 C-2.35 11.33 -0.7 11.66 1 12 C1.66 9.36 2.32 6.72 3 4 C2.01 3.67 1.02 3.34 0 3 C0 2.01 0 1.02 0 0 Z " fill="#93968A" transform="translate(108,61)"/>
<path d="M0 0 C3 2 3 2 3.5546875 4.25 C3.66039063 5.1575 3.76609375 6.065 3.875 7 C4.96839124 13.86758133 7.12747168 20.12747168 12.125 25.125 C16.78665555 26.54376473 21.18438937 26.73650516 26 26 C31.29944076 22.91668901 34.04241806 18.6913114 36 13 C36.58176861 10.1106794 37.04761166 7.24511046 37.41015625 4.3203125 C38 2 38 2 41 0 C41.8024055 19.61435662 41.8024055 19.61435662 35.48828125 26.6953125 C34 28 34 28 32 28 C32 28.99 32 29.98 32 31 C34.31 31 36.62 31 39 31 C39 31.66 39 32.32 39 33 C36.69 33 34.38 33 32 33 C32.33 33.99 32.66 34.98 33 36 C31.68 36 30.36 36 29 36 C29.515625 36.763125 30.03125 37.52625 30.5625 38.3125 C31.036875 39.199375 31.51125 40.08625 32 41 C31.67 41.99 31.34 42.98 31 44 C30.01 44 29.02 44 28 44 C27.34 44.66 26.68 45.32 26 46 C25.01 43.36 24.02 40.72 23 38 C22.34 38.99 21.68 39.98 21 41 C21 39.35 21 37.7 21 36 C20.34 36 19.68 36 19 36 C19 37.65 19 39.3 19 41 C18.34 40.34 17.68 39.68 17 39 C16.01 41.31 15.02 43.62 14 46 C13.505 44.515 13.505 44.515 13 43 C11.35 43 9.7 43 8 43 C9.875 38.25 9.875 38.25 11 36 C10.01 36 9.02 36 8 36 C8 35.01 8 34.02 8 33 C6.68 33.66 5.36 34.32 4 35 C4 34.34 4 33.68 4 33 C2.35 33 0.7 33 -1 33 C-0.67 32.34 -0.34 31.68 0 31 C1.32 31 2.64 31 4 31 C3.34 29.68 2.68 28.36 2 27 C2.66 26.34 3.32 25.68 4 25 C3.34 24.030625 2.68 23.06125 2 22.0625 C-1.45768763 15.354099 -0.29962241 7.32410339 0 0 Z " fill="#A4722B" transform="translate(117,86)"/>
<path d="M0 0 C0.66 0.33 1.32 0.66 2 1 C1.67 1.99 1.34 2.98 1 4 C0.34 4 -0.32 4 -1 4 C-0.34 6.64 0.32 9.28 1 12 C2.65 11.67 4.3 11.34 6 11 C6 10.34 6 9.68 6 9 C7.32 8.67 8.64 8.34 10 8 C9.67 10.31 9.34 12.62 9 15 C7.68 15 6.36 15 5 15 C5 19.62 5 24.24 5 29 C39.65 29.33 74.3 29.66 110 30 C110 30.33 110 30.66 110 31 C74.69 31 39.38 31 3 31 C3 37.93 3 44.86 3 52 C-1 60 -1 60 -4 62 C-6.15625 62.265625 -6.15625 62.265625 -8.5 62.25 C-9.66015625 62.25773437 -9.66015625 62.25773437 -10.84375 62.265625 C-13 62 -13 62 -16 60 C-16 59.34 -16 58.68 -16 58 C-13.69 58 -11.38 58 -9 58 C-9.495 56.515 -9.495 56.515 -10 55 C-9.401875 54.278125 -8.80375 53.55625 -8.1875 52.8125 C-3.33697099 46.57610556 -3.71044974 38.93746158 -3.8125 31.375 C-3.81314453 30.45976563 -3.81378906 29.54453125 -3.81445312 28.6015625 C-3.84463069 23.96092434 -4.05243386 19.56347854 -5 15 C-6.32 14.67 -7.64 14.34 -9 14 C-8.67 13.01 -8.34 12.02 -8 11 C-9.65 11.66 -11.3 12.32 -13 13 C-14.125 8.25 -14.125 8.25 -13 6 C-11.3125 5.1875 -11.3125 5.1875 -9 5 C-5.75 6.4375 -5.75 6.4375 -3 8 C-3.33 6.02 -3.66 4.04 -4 2 C-2.125 0.9375 -2.125 0.9375 0 0 Z " fill="#E5CC1C" transform="translate(165,61)"/>
<path d="M0 0 C2.23046875 1.90234375 2.23046875 1.90234375 4 4 C4.66 4.66 5.32 5.32 6 6 C4.02 6.99 4.02 6.99 2 8 C3.66666667 8.33333333 5.33333333 8.66666667 7 9 C8.66666667 9.33333333 10.33333333 9.66666667 12 10 C12 8.02 12 6.04 12 4 C12.969375 3.71125 13.93875 3.4225 14.9375 3.125 C18.10664203 2.35785318 18.10664203 2.35785318 19 0 C28.36353285 -0.30478045 35.48156352 1.17539586 44 5 C44 5.33 44 5.66 44 6 C42.31583984 6.25523438 42.31583984 6.25523438 40.59765625 6.515625 C29.78072865 8.1886797 29.78072865 8.1886797 19.6640625 12.23046875 C18 13 18 13 15 13 C14.773125 13.61875 14.54625 14.2375 14.3125 14.875 C12.57302536 17.69129228 11.09791214 17.89852013 8 19 C5.62625747 20.27059247 3.3214676 21.63443082 1 23 C2.1094072 19.51329166 3.26337666 16.22515763 5 13 C4.071875 12.87625 3.14375 12.7525 2.1875 12.625 C-1 12 -1 12 -4 10 C-4 9.34 -4 8.68 -4 8 C-4.60585937 7.93941406 -5.21171875 7.87882812 -5.8359375 7.81640625 C-12.73046875 7.12695312 -12.73046875 7.12695312 -19.625 6.4375 C-20.46289062 6.35371094 -21.30078125 6.26992188 -22.1640625 6.18359375 C-22.76992187 6.12300781 -23.37578125 6.06242187 -24 6 C-18.26010882 -0.3836173 -8.10683816 -1.48996881 0 0 Z " fill="#412921" transform="translate(127,48)"/>
<path d="M0 0 C1.65 0 3.3 0 5 0 C5.01458252 0.76554199 5.02916504 1.53108398 5.04418945 2.31982422 C5.11934702 5.83868569 5.21578236 9.3566677 5.3125 12.875 C5.33505859 14.07898438 5.35761719 15.28296875 5.38085938 16.5234375 C5.64873151 25.48497805 6.19365158 33.82297593 12 41 C10.515 41.495 10.515 41.495 9 42 C12.86763446 43.87543354 12.86763446 43.87543354 17 43 C17 43.99 17 44.98 17 46 C13.24755277 47.25081574 9.8689788 47.912495 6 47 C2.54382069 44.23357321 0.39424152 41.18272455 -1 37 C-1 30.07 -1 23.14 -1 16 C-36.31 16 -71.62 16 -108 16 C-108 15.67 -108 15.34 -108 15 C-72.69 14.67 -37.38 14.34 -1 14 C-0.67 9.38 -0.34 4.76 0 0 Z " fill="#E5CC1C" transform="translate(108,76)"/>
<path d="M0 0 C1.65 0.33 3.3 0.66 5 1 C5.95024979 4.69541586 5.95024979 7.30458414 5 11 C5.66 11 6.32 11 7 11 C7.33 10.01 7.66 9.02 8 8 C8.33 9.32 8.66 10.64 9 12 C9.0928125 10.8553125 9.0928125 10.8553125 9.1875 9.6875 C10 7 10 7 12.5625 5.1875 C13.7690625 4.5996875 13.7690625 4.5996875 15 4 C14.67 5.65 14.34 7.3 14 9 C15.32 8.34 16.64 7.68 18 7 C18.33 7.66 18.66 8.32 19 9 C18.67 9.66 18.34 10.32 18 11 C17.01 11.33 16.02 11.66 15 12 C13.29144978 15.00007271 13.29144978 15.00007271 12 18 C11.34 18 10.68 18 10 18 C9.88254756 21.81223512 9.81233397 25.62399682 9.75 29.4375 C9.71648437 30.50677734 9.68296875 31.57605469 9.6484375 32.67773438 C9.5623456 39.71574688 10.51271252 44.85203405 14 51 C13.34 51.66 12.68 52.32 12 53 C12 53.99 12 54.98 12 56 C4.37029984 47.96873667 4.65611571 39.15897082 4.375 28.5 C4.33632812 27.29601562 4.29765625 26.09203125 4.2578125 24.8515625 C4.16414984 21.90118881 4.07842476 18.95081144 4 16 C2.68 15.67 1.36 15.34 0 15 C0 19.62 0 24.24 0 29 C-0.99 29 -1.98 29 -3 29 C-3 24.38 -3 19.76 -3 15 C-4.32 15 -5.64 15 -7 15 C-7.33 12.69 -7.66 10.38 -8 8 C-6.68 8.33 -5.36 8.66 -4 9 C-4 9.66 -4 10.32 -4 11 C-2.35 11.33 -0.7 11.66 1 12 C1.66 9.36 2.32 6.72 3 4 C2.01 3.67 1.02 3.34 0 3 C0 2.01 0 1.02 0 0 Z " fill="#6F9545" transform="translate(108,61)"/>
<path d="M0 0 C0.66 0 1.32 0 2 0 C2 0.99 2 1.98 2 3 C3.32 3.33 4.64 3.66 6 4 C7.11491482 9.4307141 7.21859281 14.73018637 7.25 20.25 C7.270625 21.14074219 7.29125 22.03148438 7.3125 22.94921875 C7.35504787 30.27808858 6.4329555 37.47640927 2.1875 43.625 C-0.66871766 45.42033681 -2.69108339 45.3008106 -6 45 C-6 40.77679562 -3.92905729 39.92905729 -1 37 C2.09327902 32.06096723 2.38598016 28.25369365 2.1875 22.625 C2.17396484 21.88894531 2.16042969 21.15289062 2.14648438 20.39453125 C2.11144869 18.59603257 2.05765288 16.79791578 2 15 C1.34 17.31 0.68 19.62 0 22 C-0.33 22 -0.66 22 -1 22 C-1.69952106 15.31707557 -2.32004767 8.72100114 -2 2 C-1.34 1.34 -0.68 0.68 0 0 Z " fill="#054CA1" transform="translate(155,72)"/>
<path d="M0 0 C1.53202706 0.25195908 3.05257128 0.57596777 4.5625 0.9375 C5.80193359 1.22947266 5.80193359 1.22947266 7.06640625 1.52734375 C7.70449219 1.68332031 8.34257812 1.83929688 9 2 C8.67 2.66 8.34 3.32 8 4 C9.98 4.66 11.96 5.32 14 6 C11.29690722 12.22886598 11.29690722 12.22886598 7.9765625 14.203125 C4.08765638 15.66312389 1.41407473 16.04830872 -2.75 15.5625 C-6.81224074 13.60949965 -8.39463945 11.63171471 -11 8 C-9.68 7.01 -8.36 6.02 -7 5 C-7.66 4.34 -8.32 3.68 -9 3 C-7 1 -7 1 -3.9375 0.9375 C-2.4834375 0.9684375 -2.4834375 0.9684375 -1 1 C-0.67 0.67 -0.34 0.34 0 0 Z " fill="#0874AB" transform="translate(136,96)"/>
<path d="M0 0 C0.69029297 -0.01611328 1.38058594 -0.03222656 2.09179688 -0.04882812 C6.83161634 -0.05332084 10.01803689 0.87347263 14.0625 3.3125 C15.0625 4.3125 15.0625 4.3125 15.125 6.875 C15.104375 7.679375 15.08375 8.48375 15.0625 9.3125 C8.30339492 10.29576758 2.26799842 10.17444809 -4.5 9.375 C-5.41330078 9.27509766 -6.32660156 9.17519531 -7.26757812 9.07226562 C-9.49201004 8.82769458 -11.71504442 8.57432353 -13.9375 8.3125 C-13.75 5.4375 -13.75 5.4375 -12.9375 2.3125 C-9.02095127 -0.25657828 -4.54839317 -0.02111603 0 0 Z " fill="#6DC3DD" transform="translate(136.9375,78.6875)"/>
<path d="M0 0 C5 0 5 0 7.25 2.0625 C8.17488739 3.0339054 9.09085235 4.01384804 10 5 C10.51304687 5.54269531 11.02609375 6.08539063 11.5546875 6.64453125 C12.33199219 7.50111328 12.33199219 7.50111328 13.125 8.375 C13.60195312 8.89835937 14.07890625 9.42171875 14.5703125 9.9609375 C18.37203743 15.38306978 19.53724422 20.37951359 19.4375 26.9375 C19.42920166 27.64116699 19.42090332 28.34483398 19.41235352 29.06982422 C19.15882759 36.85243861 17.08531409 41.24468119 11.5625 46.5625 C9.00140747 48.6102701 8.4479526 49.01906181 5.0625 48.875 C4.381875 48.58625 3.70125 48.2975 3 48 C7 46 7 46 8.97265625 45.203125 C11.51657201 43.69344089 12.3175389 42.22662959 13.6875 39.625 C14.10386719 38.85414062 14.52023438 38.08328125 14.94921875 37.2890625 C17.46812795 31.80177331 17.5378378 26.59140031 16.3125 20.6875 C15.23346056 17.90527551 15.23346056 17.90527551 12.9375 16.625 C9.51450038 15.89670221 6.37719984 15.89457683 2.890625 16.02734375 C1 16 1 16 0 15 C-0.04063832 13.33382885 -0.042721 11.66611905 0 10 C4.571279 10.54855348 8.67435795 11.41744803 13 13 C9.04515752 8.4996301 9.04515752 8.4996301 3.6171875 6.90234375 C2.25980469 6.91974609 2.25980469 6.91974609 0.875 6.9375 C-0.03507813 6.94652344 -0.94515625 6.95554687 -1.8828125 6.96484375 C-2.93082031 6.98224609 -2.93082031 6.98224609 -4 7 C-4.33 6.34 -4.66 5.68 -5 5 C-3.35 4.34 -1.7 3.68 0 3 C0 2.01 0 1.02 0 0 Z " fill="#98977C" transform="translate(135,64)"/>
<path d="M0 0 C2.50364695 0.20395707 4.95152603 0.47506863 7.4375 0.8125 C8.47874023 0.9372168 8.47874023 0.9372168 9.54101562 1.06445312 C14.7560948 1.7560948 14.7560948 1.7560948 17 4 C17.66 3.67 18.32 3.34 19 3 C19 6.96 19 10.92 19 15 C18.67 15 18.34 15 18 15 C18 13.35 18 11.7 18 10 C17.34 10 16.68 10 16 10 C16 11.65 16 13.3 16 15 C15.34 14.34 14.68 13.68 14 13 C13.01 15.31 12.02 17.62 11 20 C10.67 19.01 10.34 18.02 10 17 C8.35 17 6.7 17 5 17 C6.875 12.25 6.875 12.25 8 10 C7.01 10 6.02 10 5 10 C5 9.01 5 8.02 5 7 C3.02 7.99 3.02 7.99 1 9 C1 8.34 1 7.68 1 7 C-0.65 7 -2.3 7 -4 7 C-3.67 6.34 -3.34 5.68 -3 5 C-1.68 5 -0.36 5 1 5 C0.34 3.68 -0.32 2.36 -1 1 C-0.67 0.67 -0.34 0.34 0 0 Z " fill="#A26125" transform="translate(120,112)"/>
<path d="M0 0 C0.33 0 0.66 0 1 0 C1.77229784 18.87839175 1.77229784 18.87839175 -4.3125 26.68359375 C-6.65472701 28.51074769 -8.2586878 28.30160957 -11.1875 28.1875 C-12.53908203 28.14689453 -12.53908203 28.14689453 -13.91796875 28.10546875 C-14.60503906 28.07066406 -15.29210937 28.03585938 -16 28 C-15.29875 27.505 -14.5975 27.01 -13.875 26.5 C-6.57281399 20.15027304 -4.24022216 14.55363782 -2.640625 4.9765625 C-2 2 -2 2 0 0 Z " fill="#DE2024" transform="translate(157,86)"/>
<path d="M0 0 C1.65 0.33 3.3 0.66 5 1 C5.95024979 4.69541586 5.95024979 7.30458414 5 11 C5.66 11 6.32 11 7 11 C7.33 10.01 7.66 9.02 8 8 C8.93065133 10.60582371 9.14917407 11.64198224 8.0625 14.25 C7.711875 14.8275 7.36125 15.405 7 16 C4 16 4 16 0 15 C0 19.62 0 24.24 0 29 C-0.99 29 -1.98 29 -3 29 C-3 24.38 -3 19.76 -3 15 C-4.32 15 -5.64 15 -7 15 C-7.33 12.69 -7.66 10.38 -8 8 C-6.68 8.33 -5.36 8.66 -4 9 C-4 9.66 -4 10.32 -4 11 C-2.35 11.33 -0.7 11.66 1 12 C1.66 9.36 2.32 6.72 3 4 C2.01 3.67 1.02 3.34 0 3 C0 2.01 0 1.02 0 0 Z " fill="#B0A718" transform="translate(108,61)"/>
<path d="M0 0 C3 2 3 2 3.5546875 4.25 C3.66039063 5.1575 3.76609375 6.065 3.875 7 C4.91263488 13.41983857 6.59707342 20.26777472 11.8828125 24.51171875 C13.97271781 25.76705614 13.97271781 25.76705614 17 27 C17 27.33 17 27.66 17 28 C13.54724539 28.49130105 10.43483957 28.68082513 7 28 C3.45241339 24.97432474 1.46069006 21.38207019 0 17 C-0.07973476 15.66474283 -0.10771338 14.32587917 -0.09765625 12.98828125 C-0.09443359 12.23095703 -0.09121094 11.47363281 -0.08789062 10.69335938 C-0.07951172 9.90767578 -0.07113281 9.12199219 -0.0625 8.3125 C-0.05798828 7.51521484 -0.05347656 6.71792969 -0.04882812 5.89648438 C-0.0370585 3.93095743 -0.01912348 1.96546915 0 0 Z " fill="#E02024" transform="translate(117,86)"/>
<path d="M0 0 C-0.66 2.97 -1.32 5.94 -2 9 C-4.64 8.67 -7.28 8.34 -10 8 C-9.67 7.34 -9.34 6.68 -9 6 C-10.60875 5.814375 -10.60875 5.814375 -12.25 5.625 C-15.4073666 5.09877223 -17.38533942 4.74310705 -20 3 C-20.66 2.01 -21.32 1.02 -22 0 C-14.83171158 -1.91154358 -7.22751457 -1.25695906 0 0 Z " fill="#69B844" transform="translate(153,93)"/>
<path d="M0 0 C1.09054688 0.02320313 2.18109375 0.04640625 3.3046875 0.0703125 C4.40039062 0.08835938 5.49609375 0.10640625 6.625 0.125 C7.46804687 0.14820313 8.31109375 0.17140625 9.1796875 0.1953125 C9.5096875 1.8453125 9.8396875 3.4953125 10.1796875 5.1953125 C14.7996875 4.8653125 19.4196875 4.5353125 24.1796875 4.1953125 C24.5096875 2.8753125 24.8396875 1.5553125 25.1796875 0.1953125 C27.28447354 0.30940932 29.38853327 0.43696611 31.4921875 0.5703125 C32.66394531 0.63992187 33.83570313 0.70953125 35.04296875 0.78125 C38.1796875 1.1953125 38.1796875 1.1953125 41.1796875 3.1953125 C36.2296875 2.8653125 31.2796875 2.5353125 26.1796875 2.1953125 C25.8496875 3.1853125 25.5196875 4.1753125 25.1796875 5.1953125 C23.1996875 5.5253125 21.2196875 5.8553125 19.1796875 6.1953125 C19.1796875 8.1753125 19.1796875 10.1553125 19.1796875 12.1953125 C15.68734506 12.29509371 12.58531602 11.97374188 9.1796875 11.1953125 C9.1796875 10.2053125 9.1796875 9.2153125 9.1796875 8.1953125 C9.8396875 7.8653125 10.4996875 7.5353125 11.1796875 7.1953125 C8.91850712 4.45116155 7.70374258 3.30120964 4.1640625 2.5859375 C2.56304687 2.51632813 2.56304687 2.51632813 0.9296875 2.4453125 C-0.14796875 2.38859375 -1.225625 2.331875 -2.3359375 2.2734375 C-3.56570312 2.23476563 -3.56570312 2.23476563 -4.8203125 2.1953125 C-2.8203125 0.1953125 -2.8203125 0.1953125 0 0 Z " fill="#B5B3A8" transform="translate(119.8203125,45.8046875)"/>
<path d="M0 0 C0 0.33 0 0.66 0 1 C-2.68539415 1.53466228 -5.37232628 2.05294683 -8.0625 2.5625 C-8.81466797 2.71396484 -9.56683594 2.86542969 -10.34179688 3.02148438 C-15.2334119 3.93204475 -19.1155508 3.9794845 -24 3 C-23.01 2.01 -22.02 1.02 -21 0 C-21.33 -0.66 -21.66 -1.32 -22 -2 C-21 -4 -21 -4 -19.203125 -4.63671875 C-11.99202045 -5.82578386 -6.1896908 -3.48873482 0 0 Z " fill="#3B231F" transform="translate(171,53)"/>
<path d="M0 0 C0.66 0 1.32 0 2 0 C2 0.99 2 1.98 2 3 C3.32 3.33 4.64 3.66 6 4 C7.20484722 9.63526965 7.1129643 15.14536115 7.0625 20.875 C7.05798828 21.84953125 7.05347656 22.8240625 7.04882812 23.828125 C7.03710906 26.21881434 7.02070219 28.6093744 7 31 C6.67 31 6.34 31 6 31 C5.67 24.73 5.34 18.46 5 12 C0.96314468 16.03685532 0.47887356 16.7323908 0 22 C-0.33 22 -0.66 22 -1 22 C-1.69952106 15.31707557 -2.32004767 8.72100114 -2 2 C-1.34 1.34 -0.68 0.68 0 0 Z " fill="#387A5A" transform="translate(155,72)"/>
<path d="M0 0 C1.485 0.99 1.485 0.99 3 2 C3.28222145 4.90242483 3.41221892 7.65721018 3.4375 10.5625 C3.63819407 17.62105725 4.42155116 22.76657299 8 29 C7.34 29.66 6.68 30.32 6 31 C6 31.99 6 32.98 6 34 C1.22221504 28.60967851 -0.13657645 25.67637176 -0.09765625 18.359375 C-0.09443359 17.28945312 -0.09121094 16.21953125 -0.08789062 15.1171875 C-0.07951172 14.00601563 -0.07113281 12.89484375 -0.0625 11.75 C-0.05798828 10.62335938 -0.05347656 9.49671875 -0.04882812 8.3359375 C-0.03705397 5.55723783 -0.0206084 2.77864591 0 0 Z " fill="#054CA1" transform="translate(114,83)"/>
<path d="M0 0 C0.66 0.33 1.32 0.66 2 1 C1.67 1.99 1.34 2.98 1 4 C0.34 4 -0.32 4 -1 4 C-0.67 7.63 -0.34 11.26 0 15 C-3.76624671 16.25541557 -5.37188934 15.37061958 -9 14 C-8.67 13.01 -8.34 12.02 -8 11 C-9.65 11.66 -11.3 12.32 -13 13 C-14.125 8.25 -14.125 8.25 -13 6 C-11.3125 5.1875 -11.3125 5.1875 -9 5 C-5.75 6.4375 -5.75 6.4375 -3 8 C-3.33 6.02 -3.66 4.04 -4 2 C-2.125 0.9375 -2.125 0.9375 0 0 Z " fill="#C19D2B" transform="translate(165,61)"/>
<path d="M0 0 C3.63078127 0.85818466 6.26029453 2.51194293 9.36328125 4.55859375 C9.36328125 4.88859375 9.36328125 5.21859375 9.36328125 5.55859375 C6.82154148 5.58576199 4.2800971 5.60551344 1.73828125 5.62109375 C0.66900391 5.63366211 0.66900391 5.63366211 -0.421875 5.64648438 C-4.61016313 5.66569671 -8.50956495 5.38532645 -12.63671875 4.55859375 C-8.40285183 0.12311412 -5.95046064 -0.78884994 0 0 Z " fill="#F7F7F8" transform="translate(135.63671875,82.44140625)"/>
<path d="M0 0 C2.60433695 1.36032357 4.92153286 2.91521533 7 5 C7 5.66 7 6.32 7 7 C6.40832031 6.84402344 5.81664062 6.68804687 5.20703125 6.52734375 C0.74327518 5.42778883 -2.49695005 4.72990899 -7 6 C-9.66184069 6.38026296 -12.32959706 6.68317253 -15 7 C-7.34935014 -0.85742418 -7.34935014 -0.85742418 0 0 Z " fill="#24A4C9" transform="translate(141,70)"/>
<path d="M0 0 C2.64 0 5.28 0 8 0 C8 0.66 8 1.32 8 2 C9.65 2 11.3 2 13 2 C11.421875 4.48046875 11.421875 4.48046875 9 7 C5.765625 7.48828125 5.765625 7.48828125 2.25 7.3125 C1.07953125 7.26738281 -0.0909375 7.22226563 -1.296875 7.17578125 C-2.18890625 7.11777344 -3.0809375 7.05976562 -4 7 C-4.33 6.34 -4.66 5.68 -5 5 C-3.68 4.67 -2.36 4.34 -1 4 C-0.67 2.68 -0.34 1.36 0 0 Z " fill="#5E7F87" transform="translate(135,99)"/>
<path d="M0 0 C2.64 0 5.28 0 8 0 C6.68 0.33 5.36 0.66 4 1 C4.165 1.7425 4.33 2.485 4.5 3.25 C5 6 5 6 5 10 C-0.625 13 -0.625 13 -4 13 C-4 11.35 -4 9.7 -4 8 C-3.01 8.66 -2.02 9.32 -1 10 C-1.33 8.68 -1.66 7.36 -2 6 C-3.65 6 -5.3 6 -7 6 C-7 5.34 -7 4.68 -7 4 C-6.030625 3.71125 -5.06125 3.4225 -4.0625 3.125 C-0.89335797 2.35785318 -0.89335797 2.35785318 0 0 Z " fill="#39221D" transform="translate(146,48)"/>
<path d="M0 0 C1.98 0 3.96 0 6 0 C6.33 0.99 6.66 1.98 7 3 C7.99 3.33 8.98 3.66 10 4 C8.8125 6.9375 8.8125 6.9375 7 10 C4.3125 10.875 4.3125 10.875 2 11 C0.19769832 7.17010894 -0.19622241 4.21878192 0 0 Z " fill="#6AB444" transform="translate(122,92)"/>
<path d="M0 0 C0.33 0 0.66 0 1 0 C1.47630586 9.42027148 1.81351224 16.60475998 -4.6484375 23.84765625 C-6.36566159 25.49364179 -7.92909297 26.83049224 -10 28 C-12.9375 27.875 -12.9375 27.875 -15 27 C-11 25 -11 25 -9.0234375 24.1640625 C-5.12960021 21.9239785 -3.57400656 18.07684384 -2 14 C-1.04558811 9.35519548 -0.44970743 4.71857199 0 0 Z " fill="#AAAEAA" transform="translate(153,85)"/>
<path d="M0 0 C1.66666667 0 3.33333333 0 5 0 C6.7143618 1.95927063 8.38405168 3.95880212 10 6 C9.34 6.66 8.68 7.32 8 8 C7.34 7.67 6.68 7.34 6 7 C4.29297265 6.93003986 2.58331997 6.91559846 0.875 6.9375 C-0.03507813 6.94652344 -0.94515625 6.95554687 -1.8828125 6.96484375 C-2.93082031 6.98224609 -2.93082031 6.98224609 -4 7 C-4.33 6.34 -4.66 5.68 -5 5 C-3.35 4.34 -1.7 3.68 0 3 C0 2.01 0 1.02 0 0 Z " fill="#AE8334" transform="translate(135,64)"/>
<path d="M0 0 C1.53202706 0.25195908 3.05257128 0.57596777 4.5625 0.9375 C5.38878906 1.13214844 6.21507812 1.32679687 7.06640625 1.52734375 C7.70449219 1.68332031 8.34257812 1.83929688 9 2 C7 4 7 4 3.5 4.0625 C2.345 4.041875 1.19 4.02125 0 4 C-0.99 4.495 -0.99 4.495 -2 5 C-2 5.66 -2 6.32 -2 7 C-1.34 7.33 -0.68 7.66 0 8 C-2.31 8 -4.62 8 -7 8 C-7 7.01 -7 6.02 -7 5 C-7.66 4.34 -8.32 3.68 -9 3 C-7 1 -7 1 -3.9375 0.9375 C-2.4834375 0.9684375 -2.4834375 0.9684375 -1 1 C-0.67 0.67 -0.34 0.34 0 0 Z " fill="#0C799E" transform="translate(136,96)"/>
<path d="M0 0 C3.11954738 0.33724836 4.6209965 0.6209965 6.875 2.875 C7.24625 3.57625 7.6175 4.2775 8 5 C7.67 5.99 7.34 6.98 7 8 C6.01 8 5.02 8 4 8 C3.34 8.66 2.68 9.32 2 10 C0.39644899 6.49223216 -0.22036864 3.85645121 0 0 Z " fill="#ECD110" transform="translate(141,122)"/>
<path d="M0 0 C1.32 0 2.64 0 4 0 C4.36923077 6.52307692 4.36923077 6.52307692 2.5 8.9375 C2.005 9.288125 1.51 9.63875 1 10 C1 9.01 1 8.02 1 7 C-0.65 7 -2.3 7 -4 7 C-2.92598892 4.08482708 -2.22189824 2.22189824 0 0 Z " fill="#EDD00D" transform="translate(129,122)"/>
<path d="M0 0 C1.32 0.33 2.64 0.66 4 1 C4 1.66 4 2.32 4 3 C5.65 3.33 7.3 3.66 9 4 C9 4.66 9 5.32 9 6 C8.34 6 7.68 6 7 6 C7 9.63 7 13.26 7 17 C6.67 17 6.34 17 6 17 C5.67 13.7 5.34 10.4 5 7 C3.68 7 2.36 7 1 7 C0.67 4.69 0.34 2.38 0 0 Z " fill="#8A928E" transform="translate(100,69)"/>
<path d="M0 0 C-0.33 2.31 -0.66 4.62 -1 7 C-2.32 7 -3.64 7 -5 7 C-5.33 10.3 -5.66 13.6 -6 17 C-6.33 17 -6.66 17 -7 17 C-7 13.37 -7 9.74 -7 6 C-7.66 6 -8.32 6 -9 6 C-9 5.34 -9 4.68 -9 4 C-7.35 3.67 -5.7 3.34 -4 3 C-4 2.34 -4 1.68 -4 1 C-2 0 -2 0 0 0 Z " fill="#8A928E" transform="translate(175,69)"/>
<path d="M0 0 C0 1.65 0 3.3 0 5 C-3.49234244 5.09978121 -6.59437148 4.77842938 -10 4 C-10 3.01 -10 2.02 -10 1 C-3.71428571 -1.42857143 -3.71428571 -1.42857143 0 0 Z " fill="#DAD9D7" transform="translate(139,53)"/>
<path d="M0 0 C3.69230769 0.69230769 3.69230769 0.69230769 5 2 C5.04063832 3.66617115 5.042721 5.33388095 5 7 C3.02 7.99 3.02 7.99 1 9 C1 8.34 1 7.68 1 7 C-0.65 7 -2.3 7 -4 7 C-3.67 6.34 -3.34 5.68 -3 5 C-1.68 5 -0.36 5 1 5 C0.34 3.68 -0.32 2.36 -1 1 C-0.67 0.67 -0.34 0.34 0 0 Z " fill="#8B9CA6" transform="translate(120,112)"/>
<path d="M0 0 C0.33 0 0.66 0 1 0 C1.2475 1.175625 1.495 2.35125 1.75 3.5625 C3.06049137 8.80446549 5.41460433 14.82549531 10 18 C13.10839021 18.7269226 13.10839021 18.7269226 16 19 C15.01 19.66 14.02 20.32 13 21 C8.50285006 19.93488554 5.93471727 17.47532308 3 14 C0.38978457 9.13959885 -0.33643576 5.4951174 0 0 Z " fill="#A2A49A" transform="translate(121,92)"/>
<path d="M0 0 C7.42857143 -0.14285714 7.42857143 -0.14285714 11 1 C11 1.99 11 2.98 11 4 C6.545 4.495 6.545 4.495 2 5 C1.34 3.35 0.68 1.7 0 0 Z " fill="#95CFE1" transform="translate(141,84)"/>
<path d="M0 0 C1.4540625 0.0309375 1.4540625 0.0309375 2.9375 0.0625 C1.7516763 3.43753669 0.66176311 5.70972731 -2.0625 8.0625 C-3.0525 7.7325 -4.0425 7.4025 -5.0625 7.0625 C-4.02286585 0.0820993 -4.02286585 0.0820993 0 0 Z " fill="#AD761B" transform="translate(130.0625,114.9375)"/>
<path d="M0 0 C2.97 0.495 2.97 0.495 6 1 C6.33 2.32 6.66 3.64 7 5 C7.66 5 8.32 5 9 5 C8.67 6.32 8.34 7.64 8 9 C7.01 8.67 6.02 8.34 5 8 C5.33 7.01 5.66 6.02 6 5 C4.35 5.66 2.7 6.32 1 7 C0 2.25 0 2.25 0 0 Z " fill="#90A427" transform="translate(151,67)"/>
<path d="M0 0 C1.48199902 0.44909061 2.96055236 0.90956564 4.4375 1.375 C5.26121094 1.63023438 6.08492187 1.88546875 6.93359375 2.1484375 C9 3 9 3 10 5 C5.71 5.66 1.42 6.32 -3 7 C-2.34 6.67 -1.68 6.34 -1 6 C-0.34227572 2.97065509 -0.34227572 2.97065509 0 0 Z " fill="#503A28" transform="translate(161,49)"/>
<path d="M0 0 C2.31 0.33 4.62 0.66 7 1 C5.55007731 5.10811428 3.54592427 8.46855666 1 12 C0.67 12 0.34 12 0 12 C0 10.02 0 8.04 0 6 C1.32 5.67 2.64 5.34 4 5 C4 4.01 4 3.02 4 2 C3.34 1.67 2.68 1.34 2 1 C1.67 1.99 1.34 2.98 1 4 C0.01 3.34 -0.98 2.68 -2 2 C-1.34 2 -0.68 2 0 2 C0 1.34 0 0.68 0 0 Z " fill="#E3B809" transform="translate(122,67)"/>
<path d="M0 0 C1.09054688 0.02320313 2.18109375 0.04640625 3.3046875 0.0703125 C4.40039062 0.08835938 5.49609375 0.10640625 6.625 0.125 C7.46804687 0.14820313 8.31109375 0.17140625 9.1796875 0.1953125 C9.3034375 0.9996875 9.4271875 1.8040625 9.5546875 2.6328125 C9.7609375 3.4784375 9.9671875 4.3240625 10.1796875 5.1953125 C10.8396875 5.5253125 11.4996875 5.8553125 12.1796875 6.1953125 C10.2421875 5.8203125 10.2421875 5.8203125 8.1796875 5.1953125 C7.8496875 4.5353125 7.5196875 3.8753125 7.1796875 3.1953125 C4.3637026 2.72632287 4.3637026 2.72632287 1.1171875 2.5703125 C-0.53990234 2.45816406 -0.53990234 2.45816406 -2.23046875 2.34375 C-3.08511719 2.29476562 -3.93976563 2.24578125 -4.8203125 2.1953125 C-2.8203125 0.1953125 -2.8203125 0.1953125 0 0 Z " fill="#C5C4BB" transform="translate(119.8203125,45.8046875)"/>
<path d="M0 0 C2.31 0 4.62 0 7 0 C6.96744792 2.01822917 6.93489583 4.03645833 6.90234375 6.0546875 C6.87350758 8.08185404 6.87350758 8.08185404 8 10 C7.34 10.66 6.68 11.32 6 12 C5.62875 10.3603125 5.62875 10.3603125 5.25 8.6875 C3.94819966 4.84718899 3.27652107 4.07513001 0 2 C0 1.34 0 0.68 0 0 Z " fill="#BC8B25" transform="translate(134,112)"/>
<path d="M0 0 C1.43861294 0.08746284 2.87597508 0.19565348 4.3125 0.3125 C5.11300781 0.37050781 5.91351563 0.42851563 6.73828125 0.48828125 C9.36272334 1.08206694 10.30820672 1.95780294 12 4 C10.58376784 4.05447047 9.16691809 4.09300508 7.75 4.125 C6.96109375 4.14820312 6.1721875 4.17140625 5.359375 4.1953125 C2.79268059 3.9828378 1.2083933 3.28654105 -1 2 C-0.67 1.34 -0.34 0.68 0 0 Z " fill="#4EBBDB" transform="translate(139,79)"/>
<path d="M0 0 C3.3 0 6.6 0 10 0 C9.67 2.31 9.34 4.62 9 7 C7.68 7.33 6.36 7.66 5 8 C5.66 6.02 6.32 4.04 7 2 C6.0409375 2.2784375 6.0409375 2.2784375 5.0625 2.5625 C4.381875 2.706875 3.70125 2.85125 3 3 C2.67 2.67 2.34 2.34 2 2 C1.34 2.66 0.68 3.32 0 4 C0 2.68 0 1.36 0 0 Z " fill="#985714" transform="translate(125,114)"/>
<path d="M0 0 C0.33 1.32 0.66 2.64 1 4 C0.34 4 -0.32 4 -1 4 C-1 4.66 -1 5.32 -1 6 C-2.98 6.66 -4.96 7.32 -7 8 C-6.125 3.25 -6.125 3.25 -5 1 C-2 0 -2 0 0 0 Z " fill="#452E22" transform="translate(161,49)"/>
<path d="M0 0 C1.1875 1.5 1.1875 1.5 2 4 C1.27101296 6.78824238 0.1843275 9.37665092 -1 12 C-1.66 11.67 -2.32 11.34 -3 11 C-3 8.36 -3 5.72 -3 3 C-2.34 3 -1.68 3 -1 3 C-0.67 2.01 -0.34 1.02 0 0 Z " fill="#1B4D8F" transform="translate(121,76)"/>
<path d="M0 0 C2.475 0.495 2.475 0.495 5 1 C5.33 1.99 5.66 2.98 6 4 C5.34 4 4.68 4 4 4 C4 6.97 4 9.94 4 13 C3.67 13 3.34 13 3 13 C3 10.03 3 7.06 3 4 C2.01 3.67 1.02 3.34 0 3 C0 2.01 0 1.02 0 0 Z " fill="#9A6F74" transform="translate(108,61)"/>
<path d="M0 0 C2.475 0.495 2.475 0.495 5 1 C4.67 2.65 4.34 4.3 4 6 C2.68 5.67 1.36 5.34 0 5 C0 3.35 0 1.7 0 0 Z " fill="#D8BF13" transform="translate(135,74)"/>
<path d="M0 0 C0.33 1.32 0.66 2.64 1 4 C-1.20875121 6.19602066 -3.40994275 8.26080867 -6 10 C-8.9375 9.875 -8.9375 9.875 -11 9 C-7 7 -7 7 -4.9375 6.1875 C-2.35311165 4.60352004 -1.39218181 2.64514545 0 0 Z " fill="#959B91" transform="translate(149,103)"/>
<path d="M0 0 C0.66 0 1.32 0 2 0 C2.33 2.97 2.66 5.94 3 9 C3.33 9 3.66 9 4 9 C4 10.98 4 12.96 4 15 C3.01 15 2.02 15 1 15 C0.67 10.05 0.34 5.1 0 0 Z " fill="#D57A0F" transform="translate(166,75)"/>
<path d="M0 0 C0.66 0.33 1.32 0.66 2 1 C1.67 5.62 1.34 10.24 1 15 C0.01 15 -0.98 15 -2 15 C-2 13.02 -2 11.04 -2 9 C-1.67 9 -1.34 9 -1 9 C-0.67 6.03 -0.34 3.06 0 0 Z " fill="#D57A0F" transform="translate(107,75)"/>
<path d="M0 0 C0.66 0 1.32 0 2 0 C1.814375 0.5775 1.62875 1.155 1.4375 1.75 C0.95392021 4.23698179 1.37699581 5.58585878 2 8 C1.67 8.99 1.34 9.98 1 11 C-1.14418558 7.78372163 -1.67582137 5.80909895 -2 2 C-1.34 1.34 -0.68 0.68 0 0 Z " fill="#0A7054" transform="translate(155,72)"/>
<path d="M0 0 C0.99 0.33 1.98 0.66 3 1 C0 4 -3 7 -6 10 C-5.58578031 5.16743695 -3.53586014 3.17320782 0 0 Z " fill="#9EA69F" transform="translate(129,70)"/>
<path d="M0 0 C6.93 0.495 6.93 0.495 14 1 C14 1.66 14 2.32 14 3 C9.71 3 5.42 3 1 3 C0.67 2.01 0.34 1.02 0 0 Z " fill="#75C7E1" transform="translate(138,82)"/>
<path d="M0 0 C0.66 0.66 1.32 1.32 2 2 C0.71937515 3.7074998 -0.61767557 5.37373596 -2 7 C-2.66 7 -3.32 7 -4 7 C-4 5.02 -4 3.04 -4 1 C-2.125 0.375 -2.125 0.375 0 0 Z " fill="#EFCF03" transform="translate(165,75)"/>
<path d="M0 0 C4.20390632 1.50139512 5.89110738 4.17275043 8 8 C7.67 8.99 7.34 9.98 7 11 C6.401875 10.05125 5.80375 9.1025 5.1875 8.125 C3.18437474 4.86035803 3.18437474 4.86035803 0 3 C0 2.01 0 1.02 0 0 Z " fill="#A4A89E" transform="translate(144,70)"/>
<path d="M0 0 C0.99 0.33 1.98 0.66 3 1 C2.67 1.99 2.34 2.98 2 4 C-1.0625 5.1875 -1.0625 5.1875 -4 6 C-4.33 4.68 -4.66 3.36 -5 2 C-3.68 2 -2.36 2 -1 2 C-0.67 1.34 -0.34 0.68 0 0 Z " fill="#87A22D" transform="translate(124,68)"/>
<path d="M0 0 C2.31 0.33 4.62 0.66 7 1 C6.67 1.99 6.34 2.98 6 4 C3.36 3.67 0.72 3.34 -2 3 C-1.34 2.01 -0.68 1.02 0 0 Z " fill="#64BDD8" transform="translate(132,79)"/>
<path d="M0 0 C0.99 0 1.98 0 3 0 C3.6875 1.8125 3.6875 1.8125 4 4 C2.5625 5.75 2.5625 5.75 1 7 C0.34 6.67 -0.32 6.34 -1 6 C-0.67 4.02 -0.34 2.04 0 0 Z " fill="#3E9A3B" transform="translate(113,75)"/>
<path d="M0 0 C2.97 0.495 2.97 0.495 6 1 C6.33 2.32 6.66 3.64 7 5 C4.69 5 2.38 5 0 5 C0 3.35 0 1.7 0 0 Z " fill="#869791" transform="translate(140,75)"/>
<path d="M0 0 C0.99 1.32 1.98 2.64 3 4 C2.01 4.33 1.02 4.66 0 5 C-0.33 5.66 -0.66 6.32 -1 7 C-2.32 6.67 -3.64 6.34 -5 6 C-3.625 4.5 -3.625 4.5 -2 3 C-1.34 3 -0.68 3 0 3 C0 2.01 0 1.02 0 0 Z " fill="#A87D39" transform="translate(135,64)"/>
<path d="M0 0 C2.64 0 5.28 0 8 0 C6.875 1.5 6.875 1.5 5 3 C1.8125 3.1875 1.8125 3.1875 -1 3 C-0.67 2.01 -0.34 1.02 0 0 Z " fill="#CB9761" transform="translate(129,54)"/>
<path d="M0 0 C3.35595828 0.59927826 5.37801226 1.84622436 8 4 C5.6875 4.6875 5.6875 4.6875 3 5 C1.1875 3.6875 1.1875 3.6875 0 2 C0 1.34 0 0.68 0 0 Z " fill="#4D201C" transform="translate(125,50)"/>
<path d="M0 0 C2.64 0 5.28 0 8 0 C7.360625 0.103125 6.72125 0.20625 6.0625 0.3125 C5.381875 0.539375 4.70125 0.76625 4 1 C3.67 1.99 3.34 2.98 3 4 C2.01 3.67 1.02 3.34 0 3 C0 2.01 0 1.02 0 0 Z " fill="#371C13" transform="translate(146,48)"/>
<path d="M0 0 C0.66 0 1.32 0 2 0 C2.33 0.99 2.66 1.98 3 3 C2.34 3 1.68 3 1 3 C1 3.66 1 4.32 1 5 C-0.65 5.33 -2.3 5.66 -4 6 C-3.525625 5.566875 -3.05125 5.13375 -2.5625 4.6875 C-0.76313043 2.97690387 -0.76313043 2.97690387 0 0 Z " fill="#D0A41D" transform="translate(138,64)"/>
<path d="M0 0 C-2.31 1.32 -4.62 2.64 -7 4 C-7.33 3.34 -7.66 2.68 -8 2 C-7 0 -7 0 -5.125 -0.6875 C-3 -1 -3 -1 0 0 Z " fill="#422B25" transform="translate(157,49)"/>
</svg>
