<?xml version="1.0" encoding="UTF-8"?>
<svg version="1.1" xmlns="http://www.w3.org/2000/svg" width="268" height="188">
<path d="M0 0 C88.44 0 176.88 0 268 0 C268 62.04 268 124.08 268 188 C179.56 188 91.12 188 0 188 C0 125.96 0 63.92 0 0 Z " fill="#FDFCFB" transform="translate(0,0)"/>
<path d="M0 0 C28.71 0 57.42 0 87 0 C87 58.08 87 116.16 87 176 C58.29 176 29.58 176 0 176 C0 117.92 0 59.84 0 0 Z " fill="#E91F28" transform="translate(175,6)"/>
<path d="M0 0 C28.71 0 57.42 0 87 0 C87 58.08 87 116.16 87 176 C58.29 176 29.58 176 0 176 C0 117.92 0 59.84 0 0 Z " fill="#EA1E27" transform="translate(6,6)"/>
<path d="M0 0 C0 62.04 0 124.08 0 188 C-29.04 187.67 -58.08 187.34 -88 187 C-88 184 -88 184 -87 183 C-84.50600935 182.87502385 -82.03831671 182.8139712 -79.54272461 182.79467773 C-78.76229294 182.78477814 -77.98186127 182.77487854 -77.17778015 182.76467896 C-74.58599937 182.73297225 -71.99420023 182.7082705 -69.40234375 182.68359375 C-67.61014822 182.66303213 -65.81795763 182.64203587 -64.02577209 182.62062073 C-59.2993468 182.56531824 -54.57287715 182.51594517 -49.84637451 182.46777344 C-45.02709995 182.41761795 -40.20789012 182.36190089 -35.38867188 182.30664062 C-25.92583649 182.19895911 -16.46294501 182.09753649 -7 182 C-6.99761165 181.08632282 -6.99522329 180.17264565 -6.99276257 179.23128128 C-6.93366518 157.01487648 -6.85814894 134.79858063 -6.76428509 112.58229446 C-6.71929078 101.83872711 -6.67988453 91.09519317 -6.65356445 80.3515625 C-6.63061379 70.989052 -6.59724869 61.62664693 -6.55129844 52.26422 C-6.52732662 47.30539549 -6.50862382 42.34667566 -6.50238609 37.38779449 C-6.49635311 32.72236987 -6.47641825 28.05721323 -6.44572449 23.39188766 C-6.43691552 21.67782576 -6.43322757 19.96372887 -6.43499184 18.24964523 C-6.43663831 15.91231373 -6.41999991 13.57580526 -6.39872742 11.23858643 C-6.39411845 9.92964039 -6.38950949 8.62069435 -6.38476086 7.27208328 C-5.84081797 2.64628417 -4.94051655 0 0 0 Z " fill="#FBF3F3" transform="translate(268,0)"/>
<path d="M0 0 C1.875 0.5 1.875 0.5 4 2 C4.98494554 4.65177645 5.45912382 7.20547307 6 10 C6.99 9.67 7.98 9.34 9 9 C8.67 11.31 8.34 13.62 8 16 C8.99 16 9.98 16 11 16 C10.87431641 16.97839844 10.87431641 16.97839844 10.74609375 17.9765625 C10.17445896 22.88249144 9.84688018 27.13127185 11 32 C12.98 32.495 12.98 32.495 15 33 C14.01469421 35.19798983 13.18695263 36.82052548 11.4375 38.5 C9.73683989 40.27460185 9.41205818 41.61006256 9 44 C7.68 44 6.36 44 5 44 C4.67 45.32 4.34 46.64 4 48 C4.66 48 5.32 48 6 48 C5.25675659 50.39489543 4.52942646 51.70777616 2.30859375 52.93359375 C0.55926499 53.67219923 -1.21934149 54.34049685 -3 55 C-3 55.66 -3 56.32 -3 57 C-5.97 57.495 -5.97 57.495 -9 58 C-8.505 59.98 -8.505 59.98 -8 62 C-8.70125 61.505 -9.4025 61.01 -10.125 60.5 C-13.39349956 58.79469588 -15.37161436 58.83873842 -19 59 C-19.99 58.505 -19.99 58.505 -21 58 C-26.36826943 58.14516807 -26.36826943 58.14516807 -30.875 60.5625 C-31.24625 61.036875 -31.6175 61.51125 -32 62 C-32.66 62 -33.32 62 -34 62 C-33.34 60.68 -32.68 59.36 -32 58 C-32.763125 57.731875 -33.52625 57.46375 -34.3125 57.1875 C-37 56 -37 56 -38.38671875 54.5859375 C-40.26814608 52.73639877 -42.17380275 51.67426154 -44.5 50.4375 C-47.10675454 49.04288632 -49.53387992 47.64408005 -52 46 C-51.505 45.505 -51.505 45.505 -51 45 C-51.99 44.34 -52.98 43.68 -54 43 C-53.67 41.68 -53.34 40.36 -53 39 C-55.31 39 -57.62 39 -60 39 C-56.25 35.125 -56.25 35.125 -54 34 C-54.66 33.34 -55.32 32.68 -56 32 C-55.34 31.01 -54.68 30.02 -54 29 C-56.31 28.01 -58.62 27.02 -61 26 C-60.401875 25.87625 -59.80375 25.7525 -59.1875 25.625 C-56.73768652 25.04524015 -56.73768652 25.04524015 -54 23 C-54.66 22.34 -55.32 21.68 -56 21 C-55.34 20.01 -54.68 19.02 -54 18 C-55.65 16.35 -57.3 14.7 -59 13 C-54.25 13.875 -54.25 13.875 -52 15 C-51.34 13.35 -50.68 11.7 -50 10 C-49.01 10.33 -48.02 10.66 -47 11 C-46.67 9.02 -46.34 7.04 -46 5 C-43.33333333 4.33333333 -40.66666667 3.66666667 -38 3 C-38 3.99 -38 4.98 -38 6 C-37.67 6.99 -37.34 7.98 -37 9 C-38.65 10.65 -40.3 12.3 -42 14 C-41.34 14.33 -40.68 14.66 -40 15 C-40.99 16.98 -41.98 18.96 -43 21 C-42.34 20.67 -41.68 20.34 -41 20 C-39.875 23.75 -39.875 23.75 -41 26 C-40.34 26.99 -39.68 27.98 -39 29 C-39.5259375 29.86625 -39.5259375 29.86625 -40.0625 30.75 C-41.20596123 33.49430696 -40.84712733 34.20596601 -40 37 C-39.73703125 37.8765625 -39.4740625 38.753125 -39.203125 39.65625 C-36.80111495 47.05862207 -36.80111495 47.05862207 -31 52 C-29.515 52.495 -29.515 52.495 -28 53 C-27.67 51.68 -27.34 50.36 -27 49 C-24.03824877 49.61277612 -22.61941217 50.25372522 -20 52 C-18.68 51.01 -17.36 50.02 -16 49 C-14.68 49.66 -13.36 50.32 -12 51 C-12 51.66 -12 52.32 -12 53 C-10.0351761 52.4818964 -10.0351761 52.4818964 -8 51 C-6.94952356 48.68895182 -5.94992562 46.35416349 -5 44 C-3.375 42.25 -3.375 42.25 -2 41 C-1.67 40.01 -1.34 39.02 -1 38 C-0.01 38.99 0.98 39.98 2 41 C1.12073491 37.8687917 1.12073491 37.8687917 -1.0625 35.125 C-3.03453282 31.94430191 -3.42709121 30.63027526 -3 27 C-2.34 27 -1.68 27 -1 27 C-1 26.34 -1 25.68 -1 25 C0.32 25.66 1.64 26.32 3 27 C3.33 26.34 3.66 25.68 4 25 C3.195625 24.731875 2.39125 24.46375 1.5625 24.1875 C0.716875 23.795625 -0.12875 23.40375 -1 23 C-1.495 21.515 -1.495 21.515 -2 20 C-1.67 19.34 -1.34 18.68 -1 18 C-0.34 18 0.32 18 1 18 C0.505 15.03 0.505 15.03 0 12 C-0.61875 11.938125 -1.2375 11.87625 -1.875 11.8125 C-4 11 -4 11 -5.375 8.6875 C-6 6 -6 6 -5.125 3.6875 C-4.75375 3.130625 -4.3825 2.57375 -4 2 C-3.01 2.33 -2.02 2.66 -1 3 C-0.67 2.01 -0.34 1.02 0 0 Z " fill="#366D4E" transform="translate(157,66)"/>
<path d="M0 0 C2.09375 0.484375 2.09375 0.484375 4.65625 2.609375 C6.33781942 5.97251384 6.63521969 7.77144001 6.09375 11.484375 C4.59375 14.359375 4.59375 14.359375 3.09375 16.484375 C5.07375 16.154375 7.05375 15.824375 9.09375 15.484375 C9.42375 16.474375 9.75375 17.464375 10.09375 18.484375 C12.09391466 19.69319596 12.09391466 19.69319596 14.09375 20.484375 C13.5678125 21.66 13.5678125 21.66 13.03125 22.859375 C11.72947805 27.8928932 11.71627106 33.72941712 14.09375 38.484375 C14.44955114 42.25586707 14.45645494 44.74169345 12.78125 48.171875 C8.79371486 51.60300989 4.21977985 53.36464649 -0.90625 54.484375 C-4.63095377 54.06403225 -8.06548925 52.85124577 -11.59375 51.609375 C-12.54636719 51.28195313 -13.49898438 50.95453125 -14.48046875 50.6171875 C-16.90625 49.484375 -16.90625 49.484375 -18.90625 46.484375 C-19.13671875 44.29296875 -19.13671875 44.29296875 -19.09375 41.921875 C-19.08730469 41.13683594 -19.08085938 40.35179687 -19.07421875 39.54296875 C-18.90625 37.484375 -18.90625 37.484375 -17.90625 35.484375 C-17.78417129 33.69577989 -17.73076552 31.90209119 -17.71875 30.109375 C-17.70457031 29.15289062 -17.69039063 28.19640625 -17.67578125 27.2109375 C-17.90879428 24.45427483 -18.49704836 22.83490105 -19.90625 20.484375 C-17.84375 17.984375 -17.84375 17.984375 -14.90625 15.484375 C-11.09375 15.171875 -11.09375 15.171875 -7.90625 15.484375 C-8.56625 14.948125 -9.22625 14.411875 -9.90625 13.859375 C-11.90625 11.484375 -11.90625 11.484375 -12.46875 8.546875 C-11.18018221 1.53133926 -6.54881307 -0.39292878 0 0 Z " fill="#C05539" transform="translate(138.90625,59.515625)"/>
<path d="M0 0 C28.71 0 57.42 0 87 0 C87 58.08 87 116.16 87 176 C58.29 176 29.58 176 0 176 C0 175.67 0 175.34 0 175 C27.06 175 54.12 175 82 175 C82 117.58 82 60.16 82 1 C54.94 1 27.88 1 0 1 C0 0.67 0 0.34 0 0 Z " fill="#DF2B33" transform="translate(6,6)"/>
<path d="M0 0 C2.09375 0.484375 2.09375 0.484375 4.65625 2.609375 C6.33781942 5.97251384 6.63521969 7.77144001 6.09375 11.484375 C4.59375 14.359375 4.59375 14.359375 3.09375 16.484375 C5.07375 16.154375 7.05375 15.824375 9.09375 15.484375 C10.71875 17.296875 10.71875 17.296875 12.09375 20.484375 C11.7620727 24.23285501 10.98293616 27.83167501 10.09375 31.484375 C9.18625 31.113125 8.27875 30.741875 7.34375 30.359375 C4.27343689 29.12830787 4.27343689 29.12830787 2.40625 30.421875 C-1.03020159 32.00078519 -4.45252037 31.69444299 -8.15625 31.609375 C-8.90132812 31.60035156 -9.64640625 31.59132813 -10.4140625 31.58203125 C-12.24493059 31.55855858 -14.07563238 31.52269025 -15.90625 31.484375 C-15.90625 29.174375 -15.90625 26.864375 -15.90625 24.484375 C-16.89625 24.154375 -17.88625 23.824375 -18.90625 23.484375 C-19.23625 22.494375 -19.56625 21.504375 -19.90625 20.484375 C-17.84375 17.984375 -17.84375 17.984375 -14.90625 15.484375 C-11.09375 15.171875 -11.09375 15.171875 -7.90625 15.484375 C-8.56625 14.948125 -9.22625 14.411875 -9.90625 13.859375 C-11.90625 11.484375 -11.90625 11.484375 -12.46875 8.546875 C-11.18018221 1.53133926 -6.54881307 -0.39292878 0 0 Z " fill="#9EA37A" transform="translate(138.90625,59.515625)"/>
<path d="M0 0 C1.875 0.5 1.875 0.5 4 2 C4.98494554 4.65177645 5.45912382 7.20547307 6 10 C6.99 9.67 7.98 9.34 9 9 C8.67 11.31 8.34 13.62 8 16 C8.99 16 9.98 16 11 16 C10.87431641 16.97839844 10.87431641 16.97839844 10.74609375 17.9765625 C10.17445896 22.88249144 9.84688018 27.13127185 11 32 C12.32 32.33 13.64 32.66 15 33 C14.01469421 35.19798983 13.18695263 36.82052548 11.4375 38.5 C9.73683989 40.27460185 9.41205818 41.61006256 9 44 C7.68 44 6.36 44 5 44 C4.67 45.32 4.34 46.64 4 48 C4.66 48 5.32 48 6 48 C5.06036805 50.34907988 4.43363659 51.72396046 2.26953125 53.1015625 C-1.23243239 54.48788201 -4.71176655 54.45382722 -8.44140625 54.65625 C-11.2375731 54.84134872 -11.2375731 54.84134872 -14 57 C-15.32 57 -16.64 57 -18 57 C-18 56.01 -18 55.02 -18 54 C-14.97265625 53.26757812 -14.97265625 53.26757812 -11.9453125 52.53515625 C-9.9414343 52.05153008 -9.9414343 52.05153008 -8 51 C-7.525625 49.88625 -7.05125 48.7725 -6.5625 47.625 C-5.19353909 44.4490107 -4.43085892 43.20987175 -2 41 C-1.67 40.01 -1.34 39.02 -1 38 C-0.01 38.99 0.98 39.98 2 41 C1.12073491 37.8687917 1.12073491 37.8687917 -1.0625 35.125 C-3.03453282 31.94430191 -3.42709121 30.63027526 -3 27 C-2.34 27 -1.68 27 -1 27 C-1 26.34 -1 25.68 -1 25 C0.32 25.66 1.64 26.32 3 27 C3.33 26.34 3.66 25.68 4 25 C3.195625 24.731875 2.39125 24.46375 1.5625 24.1875 C0.716875 23.795625 -0.12875 23.40375 -1 23 C-1.33 22.01 -1.66 21.02 -2 20 C-1.67 19.34 -1.34 18.68 -1 18 C-0.34 18 0.32 18 1 18 C0.67 16.02 0.34 14.04 0 12 C-0.61875 11.938125 -1.2375 11.87625 -1.875 11.8125 C-4 11 -4 11 -5.375 8.6875 C-6 6 -6 6 -5.125 3.6875 C-4.568125 2.8521875 -4.568125 2.8521875 -4 2 C-3.01 2.33 -2.02 2.66 -1 3 C-0.67 2.01 -0.34 1.02 0 0 Z " fill="#1E7947" transform="translate(157,66)"/>
<path d="M0 0 C1.3921875 0.3403125 1.3921875 0.3403125 2.8125 0.6875 C1.8225 1.1825 1.8225 1.1825 0.8125 1.6875 C0.1287955 3.01217746 -0.53714186 4.34613633 -1.1875 5.6875 C-1.8475 6.3475 -2.5075 7.0075 -3.1875 7.6875 C-2.1975 9.1725 -2.1975 9.1725 -1.1875 10.6875 C-0.95703125 13.31640625 -0.95703125 13.31640625 -1 16.25 C-1.00966797 17.70599609 -1.00966797 17.70599609 -1.01953125 19.19140625 C-1.1875 21.6875 -1.1875 21.6875 -2.1875 23.6875 C-2.4227732 25.79604036 -2.4227732 25.79604036 -2.4375 28.125 C-2.46328125 28.90746094 -2.4890625 29.68992187 -2.515625 30.49609375 C-2.09694932 33.29224922 -1.44191128 34.00878602 0.8125 35.6875 C3.35554403 36.94793534 3.35554403 36.94793534 6.1875 37.9375 C7.12335938 38.29328125 8.05921875 38.6490625 9.0234375 39.015625 C13.78504627 40.16267921 17.54893443 38.54982968 22 36.8125 C22.85980469 36.48507813 23.71960938 36.15765625 24.60546875 35.8203125 C27.11776735 34.75711751 27.11776735 34.75711751 28.8125 31.6875 C29.18238732 26.78649303 28.37719233 23.28378373 26.8125 18.6875 C26.43935334 14.20974011 27.2183192 10.8722246 28.8125 6.6875 C27.8225 5.6975 26.8325 4.7075 25.8125 3.6875 C26.4725 3.6875 27.1325 3.6875 27.8125 3.6875 C28.1425 2.3675 28.4725 1.0475 28.8125 -0.3125 C29.080625 0.326875 29.34875 0.96625 29.625 1.625 C30.69917752 4.01881686 30.69917752 4.01881686 33.8125 4.6875 C34.3075 7.6575 34.3075 7.6575 34.8125 10.6875 C34.1525 10.6875 33.4925 10.6875 32.8125 10.6875 C33.00078772 13.13230079 33.00078772 13.13230079 33.8125 15.6875 C35.78008273 17.04770151 35.78008273 17.04770151 37.8125 17.6875 C37.3175 19.1725 37.3175 19.1725 36.8125 20.6875 C35.4925 19.6975 34.1725 18.7075 32.8125 17.6875 C32.8125 18.3475 32.8125 19.0075 32.8125 19.6875 C32.1525 19.6875 31.4925 19.6875 30.8125 19.6875 C31.23844588 21.12846586 31.67876633 22.56518712 32.125 24 C32.36863281 24.80050781 32.61226562 25.60101563 32.86328125 26.42578125 C33.86301532 28.80786367 34.99381211 29.90922739 36.8125 31.6875 C37 34.375 37 34.375 36.8125 36.6875 C35.8225 37.1825 35.8225 37.1825 34.8125 37.6875 C34.3175 34.7175 34.3175 34.7175 33.8125 31.6875 C33.565 32.265 33.3175 32.8425 33.0625 33.4375 C31.8125 35.6875 31.8125 35.6875 29.8125 37.625 C27.64678135 39.58183164 27.64678135 39.58183164 26.8125 42.375 C26.4825 43.138125 26.1525 43.90125 25.8125 44.6875 C23.6875 45.5 23.6875 45.5 21.8125 45.6875 C21.1525 44.6975 20.4925 43.7075 19.8125 42.6875 C18.6678125 43.1825 18.6678125 43.1825 17.5 43.6875 C14.8125 44.6875 14.8125 44.6875 11.8125 44.6875 C11.1525 44.0275 10.4925 43.3675 9.8125 42.6875 C8.8225 42.6875 7.8325 42.6875 6.8125 42.6875 C6.4825 43.6775 6.1525 44.6675 5.8125 45.6875 C2.06752546 45.47350145 0.89093077 44.76593077 -1.8125 42.0625 C-4.29601888 38.8347089 -5.74571671 35.48166656 -7.1875 31.6875 C-7.5175 31.6875 -7.8475 31.6875 -8.1875 31.6875 C-8.38372241 27.46871808 -7.98980168 24.51739106 -6.1875 20.6875 C-7.1775 20.6875 -8.1675 20.6875 -9.1875 20.6875 C-8.5275 18.7075 -7.8675 16.7275 -7.1875 14.6875 C-8.1775 14.6875 -9.1675 14.6875 -10.1875 14.6875 C-9.8575 13.924375 -9.5275 13.16125 -9.1875 12.375 C-8.01313314 9.69680865 -8.01313314 9.69680865 -8.1875 6.6875 C-6.39693275 2.27994985 -5.06548656 -0.49661633 0 0 Z " fill="#E9EFE6" transform="translate(123.1875,73.3125)"/>
<path d="M0 0 C1.32 0.66 2.64 1.32 4 2 C3.01 5.96 2.02 9.92 1 14 C-7.91 14 -16.82 14 -26 14 C-26.33 15.98 -26.66 17.96 -27 20 C-27.32635698 21.66804677 -27.65725594 23.33524314 -28 25 C-25.75152907 24.16104598 -25.75152907 24.16104598 -25.125 21.625 C-23.81722017 18.57351373 -22.9230031 17.54269608 -20 16 C-14.46739907 15.2783564 -10.66118885 16.95854006 -6.2890625 20.3125 C-4.83561157 21.51347354 -3.4147515 22.7536713 -2 24 C-5.40931897 25.13643966 -6.00335456 24.86747764 -9.1875 23.5625 C-9.90292969 23.27503906 -10.61835938 22.98757812 -11.35546875 22.69140625 C-11.89816406 22.46324219 -12.44085938 22.23507813 -13 22 C-13.72441384 23.8539508 -13.72441384 23.8539508 -14 26 C-11.64573501 28.77122275 -11.64573501 28.77122275 -9 31 C-9.81984375 30.98839844 -10.6396875 30.97679688 -11.484375 30.96484375 C-12.56203125 30.95582031 -13.6396875 30.94679688 -14.75 30.9375 C-15.81734375 30.92589844 -16.8846875 30.91429688 -17.984375 30.90234375 C-20.90103796 30.88502842 -20.90103796 30.88502842 -23.25 31.58984375 C-25 32 -25 32 -27.25 30.625 C-29.75761306 26.86358041 -29.51901701 23.40739038 -29 19 C-28.67 18.34 -28.34 17.68 -28 17 C-27.7724985 15.12943209 -27.59037189 13.25314042 -27.4375 11.375 C-27.35371094 10.37210938 -27.26992187 9.36921875 -27.18359375 8.3359375 C-27.12300781 7.56507812 -27.06242187 6.79421875 -27 6 C-26.67 6 -26.34 6 -26 6 C-26 8.31 -26 10.62 -26 13 C-16.595 12.505 -16.595 12.505 -7 12 C-6.67 11.01 -6.34 10.02 -6 9 C-5.67 9.66 -5.34 10.32 -5 11 C-2.97536745 11.65213292 -2.97536745 11.65213292 -1 12 C-0.63762737 10.37681021 -0.28534843 8.7513642 0.0625 7.125 C0.25972656 6.22007813 0.45695312 5.31515625 0.66015625 4.3828125 C1.23202157 1.98985875 1.23202157 1.98985875 0 0 Z " fill="#C48A41" transform="translate(149,78)"/>
<path d="M0 0 C1.69141326 2.53711988 2.43307391 4.12657367 3.3125 6.9375 C4.72682778 10.84305489 6.4160674 12.76004213 10 15 C10.99 15.33 11.98 15.66 13 16 C13.33 14.68 13.66 13.36 14 12 C16.96175123 12.61277612 18.38058783 13.25372522 21 15 C22.32 14.01 23.64 13.02 25 12 C26.32 12.66 27.64 13.32 29 14 C29 14.99 29 15.98 29 17 C27.02 17 25.04 17 23 17 C23 17.99 23 18.98 23 20 C24.175625 19.484375 25.35125 18.96875 26.5625 18.4375 C30.84115682 16.8053564 33.58035721 16.98716519 38 18 C38 18.66 38 19.32 38 20 C35.03 20.495 35.03 20.495 32 21 C32.495 22.98 32.495 22.98 33 25 C31.948125 24.2575 31.948125 24.2575 30.875 23.5 C27.60650044 21.79469588 25.62838564 21.83873842 22 22 C21.34 21.67 20.68 21.34 20 21 C14.63173057 21.14516807 14.63173057 21.14516807 10.125 23.5625 C9.75375 24.036875 9.3825 24.51125 9 25 C8.34 25 7.68 25 7 25 C7.66 23.68 8.32 22.36 9 21 C8.236875 20.731875 7.47375 20.46375 6.6875 20.1875 C4 19 4 19 2.61328125 17.5859375 C0.73185392 15.73639877 -1.17380275 14.67426154 -3.5 13.4375 C-6.10675454 12.04288632 -8.53387992 10.64408005 -11 9 C-9.68 8.34 -8.36 7.68 -7 7 C-7 7.66 -7 8.32 -7 9 C-5.02 8.34 -3.04 7.68 -1 7 C-1 7.66 -1 8.32 -1 9 C-0.34 9 0.32 9 1 9 C0.649375 7.88625 0.29875 6.7725 -0.0625 5.625 C-1 2 -1 2 0 0 Z " fill="#376C4E" transform="translate(116,103)"/>
<path d="M0 0 C2.0625 2.25 2.0625 2.25 4 5 C3.75 7.3125 3.75 7.3125 3 9 C1.68 9 0.36 9 -1 9 C-1.33 10.32 -1.66 11.64 -2 13 C-1.34 13 -0.68 13 0 13 C-0.93963195 15.34907988 -1.56636341 16.72396046 -3.73046875 18.1015625 C-7.23243239 19.48788201 -10.71176655 19.45382722 -14.44140625 19.65625 C-17.2375731 19.84134872 -17.2375731 19.84134872 -20 22 C-21.32 22 -22.64 22 -24 22 C-24 21.01 -24 20.02 -24 19 C-20.97265625 18.26757812 -20.97265625 18.26757812 -17.9453125 17.53515625 C-15.9414343 17.05153008 -15.9414343 17.05153008 -14 16 C-13.525625 14.88625 -13.05125 13.7725 -12.5625 12.625 C-11.19353909 9.4490107 -10.43085892 8.20987175 -8 6 C-7.67 5.01 -7.34 4.02 -7 3 C-6.01 3.99 -5.02 4.98 -4 6 C-4 5.01 -4 4.02 -4 3 C-2.68 3.33 -1.36 3.66 0 4 C0 2.68 0 1.36 0 0 Z " fill="#427551" transform="translate(163,101)"/>
<path d="M0 0 C1.3921875 0.3403125 1.3921875 0.3403125 2.8125 0.6875 C1.8225 1.1825 1.8225 1.1825 0.8125 1.6875 C0.1287955 3.01217746 -0.53714186 4.34613633 -1.1875 5.6875 C-1.8475 6.3475 -2.5075 7.0075 -3.1875 7.6875 C-2.1975 9.1725 -2.1975 9.1725 -1.1875 10.6875 C-0.95703125 13.31640625 -0.95703125 13.31640625 -1 16.25 C-1.00966797 17.70599609 -1.00966797 17.70599609 -1.01953125 19.19140625 C-1.1875 21.6875 -1.1875 21.6875 -2.1875 23.6875 C-2.25815617 25.72805005 -2.27171976 27.77084257 -2.25 29.8125 C-2.23646484 31.45605469 -2.23646484 31.45605469 -2.22265625 33.1328125 C-2.21105469 33.97585937 -2.19945313 34.81890625 -2.1875 35.6875 C-3.6725 36.1825 -3.6725 36.1825 -5.1875 36.6875 C-5.8475 35.0375 -6.5075 33.3875 -7.1875 31.6875 C-7.5175 31.6875 -7.8475 31.6875 -8.1875 31.6875 C-8.38372241 27.46871808 -7.98980168 24.51739106 -6.1875 20.6875 C-7.1775 20.6875 -8.1675 20.6875 -9.1875 20.6875 C-8.5275 18.7075 -7.8675 16.7275 -7.1875 14.6875 C-8.1775 14.6875 -9.1675 14.6875 -10.1875 14.6875 C-9.8575 13.924375 -9.5275 13.16125 -9.1875 12.375 C-8.01313314 9.69680865 -8.01313314 9.69680865 -8.1875 6.6875 C-6.39693275 2.27994985 -5.06548656 -0.49661633 0 0 Z " fill="#F4F6F2" transform="translate(123.1875,73.3125)"/>
<path d="M0 0 C4.71914061 0.80362177 8.86422711 2.45874419 13.28125 4.2578125 C17.24224244 5.33911791 19.84950693 4.47703371 23.5625 2.9375 C26 2 26 2 30 2 C29.67 3.65 29.34 5.3 29 7 C28.38511719 7.12117188 27.77023438 7.24234375 27.13671875 7.3671875 C26.32847656 7.53476563 25.52023438 7.70234375 24.6875 7.875 C23.88699219 8.03742188 23.08648437 8.19984375 22.26171875 8.3671875 C19.74698882 8.94478999 19.74698882 8.94478999 17 11 C16.566875 10.505 16.13375 10.01 15.6875 9.5 C14.00259517 7.66781808 14.00259517 7.66781808 11 8 C10.67 8.99 10.34 9.98 10 11 C6.10994871 10.77771136 5.01244362 10.01244362 2.1875 7.1875 C0 4 0 4 0 0 Z " fill="#F6F7F1" transform="translate(119,108)"/>
<path d="M0 0 C0.66 0 1.32 0 2 0 C2 1.32 2 2.64 2 4 C3.65 4 5.3 4 7 4 C7 5.32 7 6.64 7 8 C7.45375 7.175 7.9075 6.35 8.375 5.5 C8.91125 4.675 9.4475 3.85 10 3 C10.66 3 11.32 3 12 3 C12 4.32 12 5.64 12 7 C13.32 7.33 14.64 7.66 16 8 C14.95125002 10.62187494 14.35068687 11.79371361 11.875 13.25 C11.25625 13.4975 10.6375 13.745 10 14 C9.34 13.34 8.68 12.68 8 12 C7.67 12.66 7.34 13.32 7 14 C3.44114781 13.13005835 1.46769346 12.57682194 -0.875 9.6875 C-2.05205769 6.87563996 -2.2582522 5.01294233 -2 2 C-1.34 2 -0.68 2 0 2 C0 1.34 0 0.68 0 0 Z " fill="#127B41" transform="translate(156,91)"/>
<path d="M0 0 C2.1328125 0.37890625 2.1328125 0.37890625 4 1 C3.98839844 1.65226562 3.97679688 2.30453125 3.96484375 2.9765625 C3.91529006 7.7761914 4.00586249 12.27784685 5 17 C4.01 16.67 3.02 16.34 2 16 C-0.63804589 16.39397335 -0.63804589 16.39397335 -3 17 C-3 16.34 -3 15.68 -3 15 C-3.66 15 -4.32 15 -5 15 C-5.5745952 11.26513121 -6 7.78706732 -6 4 C-5.34 4 -4.68 4 -4 4 C-3.38125 3.319375 -2.7625 2.63875 -2.125 1.9375 C-1.42375 1.298125 -0.7225 0.65875 0 0 Z " fill="#146A3B" transform="translate(112,95)"/>
<path d="M0 0 C4.7674663 1.88712208 8.19870532 4.6512404 12 8 C8.59068103 9.13643966 7.99664544 8.86747764 4.8125 7.5625 C4.09707031 7.27503906 3.38164062 6.98757812 2.64453125 6.69140625 C2.10183594 6.46324219 1.55914062 6.23507813 1 6 C0.67 6.99 0.34 7.98 0 9 C-0.99 9.33 -1.98 9.66 -3 10 C-3 9.01 -3 8.02 -3 7 C-4.65 7.33 -6.3 7.66 -8 8 C-8.33 8.99 -8.66 9.98 -9 11 C-9.99 10.67 -10.98 10.34 -12 10 C-10.55395683 3.61330935 -10.55395683 3.61330935 -8.25 1.0625 C-5.23440938 -0.3615289 -3.31113493 -0.39733619 0 0 Z " fill="#DC9D2D" transform="translate(135,94)"/>
<path d="M0 0 C0.66 0.33 1.32 0.66 2 1 C1.54250784 5.1174294 1.23483555 7.35198269 -2 10 C-7.48602951 12.67922372 -11.99027107 13.38686052 -18 12 C-18.969375 11.814375 -19.93875 11.62875 -20.9375 11.4375 C-21.9584375 11.2209375 -21.9584375 11.2209375 -23 11 C-22.67 10.34 -22.34 9.68 -22 9 C-18.7 9 -15.4 9 -12 9 C-13.32 7.68 -14.64 6.36 -16 5 C-15.67 4.34 -15.34 3.68 -15 3 C-10.33333333 3.66666667 -5.66666667 4.33333333 -1 5 C-0.67 3.35 -0.34 1.7 0 0 Z " fill="#CA1925" transform="translate(150,99)"/>
<path d="M0 0 C2.96175123 0.61277612 4.38058783 1.25372522 7 3 C8.32 2.01 9.64 1.02 11 0 C12.32 0.66 13.64 1.32 15 2 C15 2.99 15 3.98 15 5 C13.02 5 11.04 5 9 5 C9 5.99 9 6.98 9 8 C10.175625 7.484375 11.35125 6.96875 12.5625 6.4375 C16.84115682 4.8053564 19.58035721 4.98716519 24 6 C24 6.66 24 7.32 24 8 C22.02 8.33 20.04 8.66 18 9 C18.33 10.32 18.66 11.64 19 13 C18.29875 12.505 17.5975 12.01 16.875 11.5 C13.60650044 9.79469588 11.62838564 9.83873842 8 10 C7.34 9.67 6.68 9.34 6 9 C4.67139075 8.64830932 3.33841672 8.31229724 2 8 C2.66 8 3.32 8 4 8 C4 7.01 4 6.02 4 5 C2.35 5 0.7 5 -1 5 C-0.67 3.35 -0.34 1.7 0 0 Z " fill="#986366" transform="translate(130,115)"/>
<path d="M0 0 C1.875 0.5 1.875 0.5 4 2 C4.98494554 4.65177645 5.45912382 7.20547307 6 10 C6.99 9.67 7.98 9.34 9 9 C8.67 10.32 8.34 11.64 8 13 C7.01 13 6.02 13 5 13 C5 13.66 5 14.32 5 15 C4.34 15 3.68 15 3 15 C3 14.34 3 13.68 3 13 C2.071875 12.938125 1.14375 12.87625 0.1875 12.8125 C-3 12 -3 12 -4.9375 9.75 C-6.14359877 6.62833259 -5.98940097 5.14809399 -5 2 C-3.02 2.495 -3.02 2.495 -1 3 C-0.67 2.01 -0.34 1.02 0 0 Z " fill="#0E773C" transform="translate(157,66)"/>
<path d="M0 0 C0 2.64 0 5.28 0 8 C-0.66 7.34 -1.32 6.68 -2 6 C-5.08347826 5.83318891 -5.08347826 5.83318891 -8 6 C-7.360625 6.391875 -6.72125 6.78375 -6.0625 7.1875 C-3.56221181 9.38472296 -3.35049575 10.75791433 -3 14 C-5.97 14 -8.94 14 -12 14 C-12.27600638 4.61578318 -12.27600638 4.61578318 -10 1 C-6.79497337 -0.37358284 -3.44040362 -0.07819099 0 0 Z " fill="#769BAA" transform="translate(135,77)"/>
<path d="M0 0 C2.09375 0.484375 2.09375 0.484375 4.65625 2.609375 C6.3369265 5.97072801 6.72444292 7.77905407 6.09375 11.484375 C4.21875 13.859375 4.21875 13.859375 2.09375 15.484375 C1.43375 15.484375 0.77375 15.484375 0.09375 15.484375 C0.403125 14.948125 0.7125 14.411875 1.03125 13.859375 C2.27202439 11.0858793 2.6847175 8.48394663 3.09375 5.484375 C0.6365564 3.9372531 -0.538529 3.43953098 -3.46875 3.796875 C-5.29526612 4.31204621 -7.10585942 4.88424481 -8.90625 5.484375 C-7.95691101 8.83870609 -7.00876165 12.17684005 -5.90625 15.484375 C-8.37425047 14.33264145 -9.95408565 13.43653935 -11.90625 11.484375 C-12.51862984 7.54764748 -12.21402434 5.94107241 -9.96875 2.609375 C-6.37617702 0.11656926 -4.28920703 -0.25735242 0 0 Z " fill="#2F6344" transform="translate(138.90625,59.515625)"/>
<path d="M0 0 C0.99 0.66 1.98 1.32 3 2 C3.39907251 5.12606798 3.46880951 7.14511207 1.9375 9.9375 C-1.18348955 11.6490104 -3.64533884 10.79291991 -7 10 C-9 8 -9 8 -9.4375 5.0625 C-9 2 -9 2 -6.75 0.0625 C-3.78521193 -1.0829863 -2.85853109 -1.23869681 0 0 Z " fill="#F3F8F5" transform="translate(139,63)"/>
<path d="M0 0 C0.66 0.33 1.32 0.66 2 1 C2 7 2 7 0 9.1875 C-0.99 10.0846875 -0.99 10.0846875 -2 11 C-1.34 11.33 -0.68 11.66 0 12 C-0.99 13.485 -0.99 13.485 -2 15 C-2.66 15 -3.32 15 -4 15 C-4 14.01 -4 13.02 -4 12 C-4.99 11.67 -5.98 11.34 -7 11 C-7 10.34 -7 9.68 -7 9 C-7.66 9 -8.32 9 -9 9 C-9.33 10.98 -9.66 12.96 -10 15 C-14.31392226 14.5206753 -16.16569547 13.2542015 -19 10 C-14.25 10.875 -14.25 10.875 -12 12 C-11.34 10.35 -10.68 8.7 -10 7 C-9.01 7.33 -8.02 7.66 -7 8 C-6.67 6.02 -6.34 4.04 -6 2 C-5.38125 1.855625 -4.7625 1.71125 -4.125 1.5625 C-1.96741678 1.06847775 -1.96741678 1.06847775 0 0 Z " fill="#2B764D" transform="translate(117,69)"/>
<path d="M0 0 C2.475 0.99 2.475 0.99 5 2 C5 2.66 5 3.32 5 4 C4.01 4 3.02 4 2 4 C2.33 4.99 2.66 5.98 3 7 C2.67 7.99 2.34 8.98 2 10 C4.64 10 7.28 10 10 10 C9.814375 9.401875 9.62875 8.80375 9.4375 8.1875 C9 6 9 6 10 3 C9.01 3.33 8.02 3.66 7 4 C7 3.01 7 2.02 7 1 C9.375 1.25 9.375 1.25 12 2 C13.61067991 4.31277116 14.04765865 5.53571248 13.7578125 8.359375 C13.54898438 9.14828125 13.34015625 9.9371875 13.125 10.75 C12.92132813 11.54921875 12.71765625 12.3484375 12.5078125 13.171875 C12.25644531 14.07679687 12.25644531 14.07679687 12 15 C10.02 14.34 8.04 13.68 6 13 C5.67 13.33 5.34 13.66 5 14 C3.35 14 1.7 14 0 14 C0 9.38 0 4.76 0 0 Z " fill="#F4F6F1" transform="translate(137,76)"/>
<path d="M0 0 C3.11799003 0.75035741 6.18070403 1.63363411 9.25 2.5625 C10.14203125 2.83191406 11.0340625 3.10132812 11.953125 3.37890625 C12.62859375 3.58386719 13.3040625 3.78882812 14 4 C14 4.99 14 5.98 14 7 C12.9275 7.45375 11.855 7.9075 10.75 8.375 C8.11937683 9.50088537 5.53999604 10.67920206 3 12 C3.66 10.68 4.32 9.36 5 8 C2.525 7.01 2.525 7.01 0 6 C0.33 5.34 0.66 4.68 1 4 C0.60061233 1.90178785 0.60061233 1.90178785 0 0 Z " fill="#1D5233" transform="translate(120,116)"/>
<path d="M0 0 C0.33 0.99 0.66 1.98 1 3 C1.66 3.33 2.32 3.66 3 4 C3.33 3.34 3.66 2.68 4 2 C3.83628906 2.69480469 3.67257813 3.38960938 3.50390625 4.10546875 C2.95904004 7.2352816 2.90261517 10.13798083 2.9375 13.3125 C2.95103516 14.91544922 2.95103516 14.91544922 2.96484375 16.55078125 C2.97644531 17.35902344 2.98804687 18.16726562 3 19 C2.01 19.33 1.02 19.66 0 20 C-0.66 18.35 -1.32 16.7 -2 15 C-2.33 15 -2.66 15 -3 15 C-3.19622241 10.78121808 -2.80230168 7.82989106 -1 4 C-1.99 4 -2.98 4 -4 4 C-3.67 3.01 -3.34 2.02 -3 1 C-2.01 0.67 -1.02 0.34 0 0 Z " fill="#CCD3C9" transform="translate(118,90)"/>
<path d="M0 0 C1.32 0.66 2.64 1.32 4 2 C3.01 5.96 2.02 9.92 1 14 C-8.24 14 -17.48 14 -27 14 C-27 11.36 -27 8.72 -27 6 C-26.67 6 -26.34 6 -26 6 C-26 8.31 -26 10.62 -26 13 C-19.73 12.67 -13.46 12.34 -7 12 C-6.67 11.01 -6.34 10.02 -6 9 C-5.67 9.66 -5.34 10.32 -5 11 C-2.97536745 11.65213292 -2.97536745 11.65213292 -1 12 C-0.63762737 10.37681021 -0.28534843 8.7513642 0.0625 7.125 C0.25972656 6.22007813 0.45695312 5.31515625 0.66015625 4.3828125 C1.23202157 1.98985875 1.23202157 1.98985875 0 0 Z " fill="#AA9360" transform="translate(149,78)"/>
<path d="M0 0 C0.66 0 1.32 0 2 0 C2 0.66 2 1.32 2 2 C3.32 2.33 4.64 2.66 6 3 C6 4.32 6 5.64 6 7 C5.34 7 4.68 7 4 7 C3.67 8.98 3.34 10.96 3 13 C2.67 12.34 2.34 11.68 2 11 C1.01 11.33 0.02 11.66 -1 12 C-2.09898702 8.70303895 -1.87124444 7.59505097 -1.0625 4.3125 C-0.86785156 3.50425781 -0.67320313 2.69601563 -0.47265625 1.86328125 C-0.31667969 1.24839844 -0.16070312 0.63351563 0 0 Z " fill="#105C30" transform="translate(108,78)"/>
<path d="M0 0 C0.33 0 0.66 0 1 0 C1 4.29 1 8.58 1 13 C-0.32 13 -1.64 13 -3 13 C-3.33 11.35 -3.66 9.7 -4 8 C-5.65 7.67 -7.3 7.34 -9 7 C-8.67 6.01 -8.34 5.02 -8 4 C-5.03 4.495 -5.03 4.495 -2 5 C-1.34 3.35 -0.68 1.7 0 0 Z " fill="#67A2B4" transform="translate(135,78)"/>
<path d="M0 0 C0 2.64 0 5.28 0 8 C-0.66 7.34 -1.32 6.68 -2 6 C-3.91180549 5.71994942 -3.91180549 5.71994942 -6 5.8125 C-7.051875 5.82216797 -7.051875 5.82216797 -8.125 5.83203125 C-10.09056373 5.89293867 -10.09056373 5.89293867 -12 7 C-11.25 4.0625 -11.25 4.0625 -10 1 C-6.91563503 -0.54218248 -3.39764096 -0.07721911 0 0 Z " fill="#6091A8" transform="translate(135,77)"/>
<path d="M0 0 C0.33 1.32 0.66 2.64 1 4 C2.175625 3.484375 3.35125 2.96875 4.5625 2.4375 C8.84115682 0.8053564 11.58035721 0.98716519 16 2 C16 2.66 16 3.32 16 4 C14.02 4.33 12.04 4.66 10 5 C10.33 6.32 10.66 7.64 11 9 C10.29875 8.505 9.5975 8.01 8.875 7.5 C5.62880281 5.8063319 3.60659844 5.74837685 0 6 C-0.38218767 4.34385343 -0.71395102 2.67542976 -1 1 C-0.67 0.67 -0.34 0.34 0 0 Z " fill="#675B51" transform="translate(138,119)"/>
<path d="M0 0 C2.475 0.99 2.475 0.99 5 2 C5 2.66 5 3.32 5 4 C4.01 4 3.02 4 2 4 C2.33 4.99 2.66 5.98 3 7 C2.67 7.99 2.34 8.98 2 10 C3.98 10 5.96 10 8 10 C6 13 6 13 5 14 C3.35 14 1.7 14 0 14 C0 9.38 0 4.76 0 0 Z " fill="#E1E7DC" transform="translate(137,76)"/>
<path d="M0 0 C0 2.31 0 4.62 0 7 C-2.64 7 -5.28 7 -8 7 C-8 5.02 -8 3.04 -8 1 C-5.07175348 0.02391783 -3.04386724 -0.08226668 0 0 Z " fill="#6C9671" transform="translate(147,79)"/>
<path d="M0 0 C1.3303125 0.4021875 1.3303125 0.4021875 2.6875 0.8125 C1.6975 1.3075 1.6975 1.3075 0.6875 1.8125 C0.0037955 3.13717746 -0.66214186 4.47113633 -1.3125 5.8125 C-1.9725 6.4725 -2.6325 7.1325 -3.3125 7.8125 C-3.3125 8.4725 -3.3125 9.1325 -3.3125 9.8125 C-4.6325 9.4825 -5.9525 9.1525 -7.3125 8.8125 C-8.125 7.125 -8.125 7.125 -8.3125 4.8125 C-5.67597221 1.21723484 -4.57100994 -0.25873641 0 0 Z " fill="#EDF0E8" transform="translate(123.3125,73.1875)"/>
<path d="M0 0 C1.32 0.66 2.64 1.32 4 2 C3.01 2.66 2.02 3.32 1 4 C0.95615553 5.66608987 0.9603287 7.33380554 1 9 C0 11.3125 0 11.3125 -1 13 C-1.66 12.34 -2.32 11.68 -3 11 C-2.67 10.34 -2.34 9.68 -2 9 C-2.99 8.67 -3.98 8.34 -5 8 C-5.6875 5.9375 -5.6875 5.9375 -6 4 C-5.34 4 -4.68 4 -4 4 C-2.62689293 2.70766393 -1.28965176 1.37562854 0 0 Z " fill="#0C542B" transform="translate(112,95)"/>
<path d="M0 0 C0 0.66 0 1.32 0 2 C-0.639375 2.28875 -1.27875 2.5775 -1.9375 2.875 C-4.15206079 3.82823451 -4.15206079 3.82823451 -5 6 C-9.42446714 8.20695378 -14.10809102 9.38851138 -19 10 C-19 9.01 -19 8.02 -19 7 C-17.1128125 6.5978125 -17.1128125 6.5978125 -15.1875 6.1875 C-11.83447751 5.35952072 -10.34023406 4.55298261 -8 2 C-2.84210526 0 -2.84210526 0 0 0 Z " fill="#1C6038" transform="translate(158,113)"/>
<path d="M0 0 C1.65 0.33 3.3 0.66 5 1 C5 1.99 5 2.98 5 4 C5.99 4.33 6.98 4.66 8 5 C3.63883509 7.24666071 0.75110434 6.93325264 -4 6 C-4.969375 5.814375 -5.93875 5.62875 -6.9375 5.4375 C-7.9584375 5.2209375 -7.9584375 5.2209375 -9 5 C-8.67 4.34 -8.34 3.68 -8 3 C-4.7 3 -1.4 3 2 3 C1.34 2.01 0.68 1.02 0 0 Z " fill="#B92D19" transform="translate(136,105)"/>
<path d="M0 0 C0.33 0.66 0.66 1.32 1 2 C2.98 1.67 4.96 1.34 7 1 C7 1.99 7 2.98 7 4 C5.68 3.67 4.36 3.34 3 3 C3 3.66 3 4.32 3 5 C1.02 4.34 -0.96 3.68 -3 3 C-3.33 7.29 -3.66 11.58 -4 16 C-3.34 16.33 -2.68 16.66 -2 17 C-2.99 17 -3.98 17 -5 17 C-5 11.72 -5 6.44 -5 1 C-3.35 0.67 -1.7 0.34 0 0 Z " fill="#BEB993" transform="translate(141,74)"/>
<path d="M0 0 C-0.91513319 2.28783297 -1.65484646 3.73449728 -3.625 5.25 C-7.13853155 6.35953628 -10.32299618 6.12256679 -14 6 C-13.360625 5.896875 -12.72125 5.79375 -12.0625 5.6875 C-11.381875 5.460625 -10.70125 5.23375 -10 5 C-9.67 4.01 -9.34 3.02 -9 2 C-5.99208089 -0.04108797 -3.57804656 -0.19878036 0 0 Z " fill="#2C8B56" transform="translate(163,114)"/>
<path d="M0 0 C1.60080151 4.00200378 0.29279692 7.04556236 -1 11 C-0.01 11.33 0.98 11.66 2 12 C3.38576923 13.62332967 4.72641268 15.28724465 6 17 C4.25 17.75 4.25 17.75 2 18 C-0.25 16.625 -0.25 16.625 -2 14 C-2.76151757 9.01298861 -2.33436735 4.52283675 0 0 Z " fill="#BF5935" transform="translate(122,92)"/>
<path d="M0 0 C0.66 0.33 1.32 0.66 2 1 C2 4.3 2 7.6 2 11 C0.68 10.67 -0.64 10.34 -2 10 C-1.67 8.68 -1.34 7.36 -1 6 C-3.31 6 -5.62 6 -8 6 C-6.25 4 -6.25 4 -4 2 C-2.68 2 -1.36 2 0 2 C0 1.34 0 0.68 0 0 Z " fill="#527D65" transform="translate(105,99)"/>
<path d="M0 0 C3.3 0 6.6 0 10 0 C8.02 0.99 8.02 0.99 6 2 C2.47068939 4.17986832 1.27688895 6.06292575 0 10 C-0.66 10 -1.32 10 -2 10 C-1.54177532 6.53058454 -1.10868317 3.32604951 0 0 Z " fill="#C72524" transform="translate(123,93)"/>
<path d="M0 0 C0.99 0 1.98 0 3 0 C3 2.31 3 4.62 3 7 C-1.82360189 7.19294408 -5.49646738 6.75747614 -10 5 C-10 4.34 -10 3.68 -10 3 C-5.05 3.99 -5.05 3.99 0 5 C-0.66 4.34 -1.32 3.68 -2 3 C-1.34 2.01 -0.68 1.02 0 0 Z " fill="#B9381C" transform="translate(146,97)"/>
<path d="M0 0 C2.0625 2.25 2.0625 2.25 4 5 C3.75 7.3125 3.75 7.3125 3 9 C1.68 9 0.36 9 -1 9 C-1.66 9.66 -2.32 10.32 -3 11 C-3.33 8.36 -3.66 5.72 -4 3 C-2.68 3.33 -1.36 3.66 0 4 C0 2.68 0 1.36 0 0 Z " fill="#466B4E" transform="translate(163,101)"/>
<path d="M0 0 C6.52307692 -0.36923077 6.52307692 -0.36923077 8.9375 1.5 C9.288125 1.995 9.63875 2.49 10 3 C9.67 3.99 9.34 4.98 9 6 C8.67 5.01 8.34 4.02 8 3 C6.35 3.33 4.7 3.66 3 4 C2.67 4.99 2.34 5.98 2 7 C1.01 6.67 0.02 6.34 -1 6 C-0.67 4.02 -0.34 2.04 0 0 Z " fill="#DCBC90" transform="translate(124,98)"/>
<path d="M0 0 C1.65 0 3.3 0 5 0 C5 3.11257569 4.82638376 5.10765685 4 8 C3.34 8 2.68 8 2 8 C2 6.68 2 5.36 2 4 C0.35 4.33 -1.3 4.66 -3 5 C-3 3.68 -3 2.36 -3 1 C-2.34 1.33 -1.68 1.66 -1 2 C-0.67 1.34 -0.34 0.68 0 0 Z " fill="#355D3A" transform="translate(161,91)"/>
<path d="M0 0 C1.98567708 0.5859375 3.97135417 1.171875 5.95703125 1.7578125 C5.95703125 2.4178125 5.95703125 3.0778125 5.95703125 3.7578125 C3.31810949 5.54086774 0.98524262 6.74840871 -2.04296875 7.7578125 C-1.38296875 6.4378125 -0.72296875 5.1178125 -0.04296875 3.7578125 C-2.51796875 2.7678125 -2.51796875 2.7678125 -5.04296875 1.7578125 C-2.04296875 -0.2421875 -2.04296875 -0.2421875 0 0 Z " fill="#3B5F4C" transform="translate(125.04296875,120.2421875)"/>
<path d="M0 0 C1.98 0 3.96 0 6 0 C5.67 0.66 5.34 1.32 5 2 C5.33 2.33 5.66 2.66 6 3 C6.66 3.66 7.32 4.32 8 5 C7.34 5 6.68 5 6 5 C5.67 5.99 5.34 6.98 5 8 C3.02 7.01 1.04 6.02 -1 5 C-0.67 4.01 -0.34 3.02 0 2 C0 1.67 0 1.34 0 1 C0 0.67 0 0.34 0 0 Z " fill="#AD7D26" transform="translate(125,101)"/>
<path d="M0 0 C1.65253306 2.47879959 2.58244128 4.31730933 3.5625 7.0625 C4.30051803 9.11594912 5.02350686 11.04701371 6 13 C5.34 13 4.68 13 4 13 C4.33 14.32 4.66 15.64 5 17 C3.68 16.34 2.36 15.68 1 15 C1.1959375 14.43539062 1.391875 13.87078125 1.59375 13.2890625 C2.09285073 10.47682185 1.52533334 9.01788506 0.5 6.375 C-0.40625 4.0234375 -0.40625 4.0234375 -1 2 C-0.67 1.34 -0.34 0.68 0 0 Z " fill="#2E724C" transform="translate(116,103)"/>
<path d="M0 0 C3.96 0 7.92 0 12 0 C12.33 0.99 12.66 1.98 13 3 C12.01 3 11.02 3 10 3 C9.34 4.32 8.68 5.64 8 7 C8 6.01 8 5.02 8 4 C7.34 4 6.68 4 6 4 C6 3.01 6 2.02 6 1 C4.02 1 2.04 1 0 1 C0 0.67 0 0.34 0 0 Z " fill="#CE1627" transform="translate(136,93)"/>
<path d="M0 0 C0.99 0.33 1.98 0.66 3 1 C2.95875 2.0725 2.9175 3.145 2.875 4.25 C2.9885825 7.65747485 3.21273364 9.20739631 5 12 C2.53199953 10.84826645 0.95216435 9.95216435 -1 8 C-1.33333333 2.66666667 -1.33333333 2.66666667 0 0 Z " fill="#25603B" transform="translate(128,63)"/>
<path d="M0 0 C2.475 0.495 2.475 0.495 5 1 C5.33 3.97 5.66 6.94 6 10 C5.01 10.33 4.02 10.66 3 11 C2.34 9.35 1.68 7.7 1 6 C0.67 6 0.34 6 0 6 C0 4.02 0 2.04 0 0 Z " fill="#C4CCBA" transform="translate(115,99)"/>
<path d="M0 0 C0.33 1.65 0.66 3.3 1 5 C-0.6875 5.75 -0.6875 5.75 -3 6 C-5.75 4.0625 -5.75 4.0625 -8 2 C-2.25 0 -2.25 0 0 0 Z " fill="#0D4E26" transform="translate(109,91)"/>
<path d="M0 0 C0.66 0 1.32 0 2 0 C2.33 2.97 2.66 5.94 3 9 C1.68 9 0.36 9 -1 9 C-1.33 6.69 -1.66 4.38 -2 2 C-1.34 2 -0.68 2 0 2 C0 1.34 0 0.68 0 0 Z " fill="#22814D" transform="translate(156,91)"/>
<path d="M0 0 C0.99 0.66 1.98 1.32 3 2 C2.34 2 1.68 2 1 2 C0.67 3.98 0.34 5.96 0 8 C-4.31392226 7.5206753 -6.16569547 6.2542015 -9 3 C-4.25 3.875 -4.25 3.875 -2 5 C-1.34 3.35 -0.68 1.7 0 0 Z " fill="#4B7A60" transform="translate(107,76)"/>
<path d="M0 0 C0.33 0 0.66 0 1 0 C1.33 1.98 1.66 3.96 2 6 C2.99 5.67 3.98 5.34 5 5 C4.67 6.32 4.34 7.64 4 9 C3.01 9 2.02 9 1 9 C1 9.66 1 10.32 1 11 C0.34 11 -0.32 11 -1 11 C-1 10.34 -1 9.68 -1 9 C-1.99 8.67 -2.98 8.34 -4 8 C-2.68 8 -1.36 8 0 8 C0 5.36 0 2.72 0 0 Z " fill="#6F8779" transform="translate(161,70)"/>
<path d="M0 0 C1.22589844 0.01353516 1.22589844 0.01353516 2.4765625 0.02734375 C3.41628906 0.04474609 3.41628906 0.04474609 4.375 0.0625 C3.385 0.5575 3.385 0.5575 2.375 1.0625 C2.045 1.7225 1.715 2.3825 1.375 3.0625 C-1.3946959 3.79136734 -3.75362585 4.0625 -6.625 4.0625 C-6.625 3.0725 -6.625 2.0825 -6.625 1.0625 C-4.21954362 -0.14022819 -2.67503047 -0.03821472 0 0 Z " fill="#366A4C" transform="translate(136.625,59.9375)"/>
<path d="M0 0 C0.66 0.99 1.32 1.98 2 3 C1.01 3.33 0.02 3.66 -1 4 C-1.33 4.99 -1.66 5.98 -2 7 C-4.31 6.67 -6.62 6.34 -9 6 C-8.67 5.01 -8.34 4.02 -8 3 C-5.36 3 -2.72 3 0 3 C0 2.01 0 1.02 0 0 Z " fill="#286A45" transform="translate(110,93)"/>
<path d="M0 0 C-0.61875 0.04125 -1.2375 0.0825 -1.875 0.125 C-2.57625 0.41375 -3.2775 0.7025 -4 1 C-5.3045656 3.99615946 -5.3045656 3.99615946 -6 7 C-6.99 6.67 -7.98 6.34 -9 6 C-9.33 5.01 -9.66 4.02 -10 3 C-6.68152292 -0.06320961 -4.44849969 -0.3033068 0 0 Z " fill="#7FA69C" transform="translate(129,77)"/>
<path d="M0 0 C0.66 0 1.32 0 2 0 C2.33 3.3 2.66 6.6 3 10 C0 9 0 9 -1.25 7.0625 C-1.4975 6.381875 -1.745 5.70125 -2 5 C-1.67 4.34 -1.34 3.68 -1 3 C-0.34 3 0.32 3 1 3 C0.67 2.01 0.34 1.02 0 0 Z " fill="#0D6D38" transform="translate(162,79)"/>
<path d="M0 0 C2.375 0.25 2.375 0.25 5 1 C6.3125 3.0625 6.3125 3.0625 7 5 C6.01 6.485 6.01 6.485 5 8 C4.01 7.01 3.02 6.02 2 5 C2.33 4.01 2.66 3.02 3 2 C2.01 2.33 1.02 2.66 0 3 C0 2.01 0 1.02 0 0 Z " fill="#ECF0E3" transform="translate(144,77)"/>
<path d="M0 0 C0.66 0.33 1.32 0.66 2 1 C2 3 2 5 2 7 C1.01 7.33 0.02 7.66 -1 8 C-1.66 6.02 -2.32 4.04 -3 2 C-2.01 1.34 -1.02 0.68 0 0 Z " fill="#507962" transform="translate(117,69)"/>
<path d="M0 0 C0.99 0.33 1.98 0.66 3 1 C3.33 2.65 3.66 4.3 4 6 C1.69 6 -0.62 6 -3 6 C-3 4.68 -3 3.36 -3 2 C-1.68 2.66 -0.36 3.32 1 4 C1.33 3.34 1.66 2.68 2 2 C1.34 2 0.68 2 0 2 C0 1.34 0 0.68 0 0 Z " fill="#50768B" transform="translate(128,85)"/>
<path d="M0 0 C0.33 1.32 0.66 2.64 1 4 C-2.28696233 4.79953138 -3.71023192 5.09658936 -7 4 C-6.67 3.01 -6.34 2.02 -6 1 C-3.03 1.495 -3.03 1.495 0 2 C0 1.34 0 0.68 0 0 Z " fill="#DDE7E8" transform="translate(133,81)"/>
<path d="M0 0 C2.475 0.99 2.475 0.99 5 2 C5 2.66 5 3.32 5 4 C4.01 4 3.02 4 2 4 C1.67 6.31 1.34 8.62 1 11 C0.67 11 0.34 11 0 11 C0 7.37 0 3.74 0 0 Z " fill="#EBF1E5" transform="translate(137,76)"/>
<path d="M0 0 C1.32 0.99 2.64 1.98 4 3 C3.01 4.485 3.01 4.485 2 6 C-0.31 5.67 -2.62 5.34 -5 5 C-4.67 4.01 -4.34 3.02 -4 2 C-3.01 2.33 -2.02 2.66 -1 3 C-0.67 2.01 -0.34 1.02 0 0 Z " fill="#357E55" transform="translate(157,66)"/>
<path d="M0 0 C2.31 0 4.62 0 7 0 C6.0022242 2.99332739 5.2477975 3.94766315 3 6 C2.34 5.67 1.68 5.34 1 5 C0.375 2.4375 0.375 2.4375 0 0 Z " fill="#E5E6E4" transform="translate(147,123)"/>
<path d="M0 0 C0 0.66 0 1.32 0 2 C-7.625 3.25 -7.625 3.25 -11 1 C-6.8204355 -1.78637633 -4.85331323 -0.79562512 0 0 Z " fill="#907A76" transform="translate(154,121)"/>
<path d="M0 0 C0.99 0.66 1.98 1.32 3 2 C2.67 3.32 2.34 4.64 2 6 C0.35 6 -1.3 6 -3 6 C-1.125 1.125 -1.125 1.125 0 0 Z " fill="#1F804C" transform="translate(153,109)"/>
<path d="M0 0 C0.33 0 0.66 0 1 0 C1.66 3.63 2.32 7.26 3 11 C2.34 11 1.68 11 1 11 C-1.78637633 6.8204355 -0.79562512 4.85331323 0 0 Z " fill="#0A5429" transform="translate(114,101)"/>
<path d="M0 0 C1.32 0.33 2.64 0.66 4 1 C2.95125002 3.62187494 2.35068687 4.79371361 -0.125 6.25 C-0.74375 6.4975 -1.3625 6.745 -2 7 C-2.33 6.01 -2.66 5.02 -3 4 C-2.34 3.67 -1.68 3.34 -1 3 C-0.67 2.01 -0.34 1.02 0 0 Z " fill="#22814D" transform="translate(168,98)"/>
<path d="M0 0 C0.268125 0.5775 0.53625 1.155 0.8125 1.75 C2.01719859 4.0325868 3.40798115 5.9737942 5 8 C2.625 7.8125 2.625 7.8125 0 7 C-1.3125 4.4375 -1.3125 4.4375 -2 2 C-1.34 2 -0.68 2 0 2 C0 1.34 0 0.68 0 0 Z " fill="#227547" transform="translate(153,70)"/>
<path d="M0 0 C1.65 0 3.3 0 5 0 C5 0.99 5 1.98 5 3 C4.21625 3.309375 3.4325 3.61875 2.625 3.9375 C0.07669872 4.92875038 0.07669872 4.92875038 -2 6 C-1.34 4.02 -0.68 2.04 0 0 Z " fill="#52AAE2" transform="translate(125,78)"/>
<path d="M0 0 C1.32 0 2.64 0 4 0 C3.25 1.9375 3.25 1.9375 2 4 C-0.125 4.75 -0.125 4.75 -2 5 C-1.34 3.35 -0.68 1.7 0 0 Z " fill="#267F4D" transform="translate(159,114)"/>
<path d="M0 0 C0.99 0 1.98 0 3 0 C2.67 2.97 2.34 5.94 2 9 C1.67 9 1.34 9 1 9 C1 7.35 1 5.7 1 4 C0.34 4 -0.32 4 -1 4 C-0.67 2.68 -0.34 1.36 0 0 Z " fill="#F7F9F0" transform="translate(117,96)"/>
<path d="M0 0 C5.53846154 -0.36923077 5.53846154 -0.36923077 7.875 1.5 C8.24625 1.995 8.6175 2.49 9 3 C7.68 2.67 6.36 2.34 5 2 C4.67 2.99 4.34 3.98 4 5 C2.68 3.35 1.36 1.7 0 0 Z " fill="#D89B3C" transform="translate(131,98)"/>
<path d="M0 0 C0.99 0 1.98 0 3 0 C3 0.66 3 1.32 3 2 C3.99 1.67 4.98 1.34 6 1 C6 1.66 6 2.32 6 3 C3.8614515 5.1385485 2.86724686 5.42655063 0 6 C0 4.02 0 2.04 0 0 Z " fill="#3C6D4C" transform="translate(157,79)"/>
<path d="M0 0 C0.99 0 1.98 0 3 0 C3 1.65 3 3.3 3 5 C1.35 4.67 -0.3 4.34 -2 4 C-1.34 2.68 -0.68 1.36 0 0 Z " fill="#C2622A" transform="translate(146,97)"/>
<path d="M0 0 C0.928125 0.20625 1.85625 0.4125 2.8125 0.625 C1.8225 1.12 1.8225 1.12 0.8125 1.625 C0.4825 2.285 0.1525 2.945 -0.1875 3.625 C-2.1675 2.965 -4.1475 2.305 -6.1875 1.625 C-3.1875 -0.375 -3.1875 -0.375 0 0 Z " fill="#7C6D66" transform="translate(126.1875,120.375)"/>
</svg>
