<?xml version="1.0" encoding="UTF-8"?>
<svg version="1.1" xmlns="http://www.w3.org/2000/svg" width="284" height="177">
<path d="M0 0 C93.72 0 187.44 0 284 0 C284 58.41 284 116.82 284 177 C190.28 177 96.56 177 0 177 C0 118.59 0 60.18 0 0 Z " fill="#FEFEFE" transform="translate(0,0)"/>
<path d="M0 0 C93.72 0 187.44 0 284 0 C284 19.47 284 38.94 284 59 C190.28 59 96.56 59 0 59 C0 39.53 0 20.06 0 0 Z " fill="#73ABDE" transform="translate(0,118)"/>
<path d="M0 0 C93.72 0 187.44 0 284 0 C284 19.47 284 38.94 284 59 C190.28 59 96.56 59 0 59 C0 39.53 0 20.06 0 0 Z " fill="#73ABDE" transform="translate(0,0)"/>
<path d="M0 0 C0.66 1.32 1.32 2.64 2 4 C2.33 4.33 2.66 4.66 3 5 C3.33 3.35 3.66 1.7 4 0 C4.66 0 5.32 0 6 0 C6.33 2.64 6.66 5.28 7 8 C7.66 5.69 8.32 3.38 9 1 C9.33 1 9.66 1 10 1 C10 3.66666667 10 6.33333333 10 9 C10.99 6.69 11.98 4.38 13 2 C13.66 2.33 14.32 2.66 15 3 C14.34 5.31 13.68 7.62 13 10 C14.65 8.02 16.3 6.04 18 4 C18 7.57575896 16.91159393 9.05295935 15 12 C16.47736982 12.11638731 16.47736982 12.11638731 18.5625 9.5 C19.366875 8.675 20.17125 7.85 21 7 C21.66 7.33 22.32 7.66 23 8 C21.02 9.98 19.04 11.96 17 14 C17.7425 13.690625 18.485 13.38125 19.25 13.0625 C21.50692176 12.1905075 23.6450153 11.52332993 26 11 C23 14 23 14 20 17 C21.1446875 16.4740625 21.1446875 16.4740625 22.3125 15.9375 C25 15 25 15 28 16 C26.02 16.99 24.04 17.98 22 19 C24.31 19 26.62 19 29 19 C29 19.66 29 20.32 29 21 C25.37 21.66 21.74 22.32 18 23 C21.96 23.33 25.92 23.66 30 24 C30 24.33 30 24.66 30 25 C26.7 25.33 23.4 25.66 20 26 C22.64 26.66 25.28 27.32 28 28 C28 28.33 28 28.66 28 29 C25.03 29 22.06 29 19 29 C23.455 30.98 23.455 30.98 28 33 C24.23375329 34.25541557 22.62811066 33.37061958 19 32 C20.98 33.32 22.96 34.64 25 36 C24.505 36.99 24.505 36.99 24 38 C21.33333333 36.66666667 18.66666667 35.33333333 16 34 C18.31 36.31 20.62 38.62 23 41 C19.09161134 41 17.88405893 39.49432124 15 37 C16.32 38.98 17.64 40.96 19 43 C18.505 43.99 18.505 43.99 18 45 C16.35 43.02 14.7 41.04 13 39 C13.66 41.31 14.32 43.62 15 46 C14.01 46.495 14.01 46.495 13 47 C12.01 44.69 11.02 42.38 10 40 C10 42.97 10 45.94 10 49 C9.34 47.68 8.68 46.36 8 45 C7.505 44.505 7.505 44.505 7 44 C6.67 45.65 6.34 47.3 6 49 C5.34 49 4.68 49 4 49 C3.67 46.36 3.34 43.72 3 41 C2.34 43.31 1.68 45.62 1 48 C0.67 48 0.34 48 0 48 C0 45.33333333 0 42.66666667 0 40 C-0.99 42.31 -1.98 44.62 -3 47 C-3.66 46.67 -4.32 46.34 -5 46 C-4.34 43.69 -3.68 41.38 -3 39 C-4.32 40.98 -5.64 42.96 -7 45 C-7.66 44.67 -8.32 44.34 -9 44 C-7.35 41.03 -5.7 38.06 -4 35 C-6.31 37.31 -8.62 39.62 -11 42 C-11.66 41.67 -12.32 41.34 -13 41 C-11.02 39.02 -9.04 37.04 -7 35 C-7.7425 35.309375 -8.485 35.61875 -9.25 35.9375 C-11.50692176 36.8094925 -13.6450153 37.47667007 -16 38 C-13.525 35.525 -13.525 35.525 -11 33 C-14.465 33.495 -14.465 33.495 -18 34 C-16.03617993 32.49440461 -14.21736634 31.10868317 -12 30 C-14.31 30 -16.62 30 -19 30 C-18.67 29.34 -18.34 28.68 -18 28 C-14.70580475 27.08776132 -11.36984798 26.59718825 -8 26 C-11.96 25.67 -15.92 25.34 -20 25 C-20 24.67 -20 24.34 -20 24 C-16.7 23.67 -13.4 23.34 -10 23 C-14.455 22.01 -14.455 22.01 -19 21 C-18.67 20.34 -18.34 19.68 -18 19 C-15.03 19.33 -12.06 19.66 -9 20 C-13.455 18.02 -13.455 18.02 -18 16 C-14.23375329 14.74458443 -12.62811066 15.62938042 -9 17 C-10.98 15.68 -12.96 14.36 -15 13 C-14.67 12.34 -14.34 11.68 -14 11 C-10 13 -10 13 -6 15 C-8.31 12.69 -10.62 10.38 -13 8 C-9.09161134 8 -7.88405893 9.50567876 -5 12 C-6.32 10.02 -7.64 8.04 -9 6 C-8.67 5.34 -8.34 4.68 -8 4 C-5.525 6.97 -5.525 6.97 -3 10 C-3.66 7.69 -4.32 5.38 -5 3 C-4.34 2.67 -3.68 2.34 -3 2 C-2.01 4.31 -1.02 6.62 0 9 C0 6.03 0 3.06 0 0 Z " fill="#B97212" transform="translate(137,64)"/>
<path d="M0 0 C3.55956846 2.04345597 5.50243928 3.16565949 6.5859375 7.16015625 C6.81662528 10.4502034 6.73764431 12.91360549 4.8515625 15.69140625 C2.42942298 17.94053581 0.20843452 18.95657614 -3 19.625 C-6.97264445 18.79736574 -9.72305606 17.35345825 -12 14 C-12.86651581 10.80544504 -12.86651581 8.19455496 -12 5 C-9.06242482 0.67357125 -5.11655407 -1.06594876 0 0 Z " fill="#F4B20D" transform="translate(145,79)"/>
<path d="M0 0 C0.66 0.33 1.32 0.66 2 1 C-0.97 3.97 -0.97 3.97 -4 7 C-3.2575 6.690625 -2.515 6.38125 -1.75 6.0625 C0.50692176 5.1905075 2.6450153 4.52332993 5 4 C2 7 2 7 -1 10 C-0.236875 9.649375 0.52625 9.29875 1.3125 8.9375 C4 8 4 8 7 9 C5.02 9.99 3.04 10.98 1 12 C3.31 12 5.62 12 8 12 C8 12.66 8 13.32 8 14 C4.37 14.66 0.74 15.32 -3 16 C0.96 16.33 4.92 16.66 9 17 C9 17.33 9 17.66 9 18 C4.05 18.495 4.05 18.495 -1 19 C1.64 19.66 4.28 20.32 7 21 C7 21.33 7 21.66 7 22 C4.03 22 1.06 22 -2 22 C2.455 23.98 2.455 23.98 7 26 C3.23375329 27.25541557 1.62811066 26.37061958 -2 25 C-0.02 26.32 1.96 27.64 4 29 C3.67 29.66 3.34 30.32 3 31 C0.33333333 29.66666667 -2.33333333 28.33333333 -5 27 C-2.69 29.31 -0.38 31.62 2 34 C-1 34 -1 34 -2.68359375 32.43359375 C-3.85302377 31.10268342 -5.01969469 29.76934368 -6.18359375 28.43359375 C-6.78300781 27.96050781 -7.38242188 27.48742187 -8 27 C-10.02564787 27.21851377 -10.02564787 27.21851377 -12 28 C-14.33300933 28.03888349 -16.66709801 28.0448635 -19 28 C-19 27.67 -19 27.34 -19 27 C-16.02148438 26.36523438 -16.02148438 26.36523438 -13.04296875 25.73046875 C-10.62232997 24.8649631 -9.5344657 24.06016229 -8 22 C-7.0395666 17.37953662 -7.42323533 13.8831709 -10 9.9375 C-10.66 9.298125 -11.32 8.65875 -12 8 C-11.319375 7.979375 -10.63875 7.95875 -9.9375 7.9375 C-5.53084593 6.53112104 -3.05237626 3.3690493 0 0 Z " fill="#B87112" transform="translate(158,71)"/>
<path d="M0 0 C1.65 0 3.3 0 5 0 C5 0.66 5 1.32 5 2 C5.92232422 1.89171875 5.92232422 1.89171875 6.86328125 1.78125 C8.07564453 1.64203125 8.07564453 1.64203125 9.3125 1.5 C10.11300781 1.4071875 10.91351563 1.314375 11.73828125 1.21875 C14 1 14 1 17 1 C17.67408308 2.26691507 18.33900497 3.53870749 19 4.8125 C19.556875 5.87404297 19.556875 5.87404297 20.125 6.95703125 C21 9 21 9 21 12 C19.35 10.02 17.7 8.04 16 6 C16.66 8.31 17.32 10.62 18 13 C17.01 13.495 17.01 13.495 16 14 C15.01 11.69 14.02 9.38 13 7 C13 9.97 13 12.94 13 16 C12.34 14.68 11.68 13.36 11 12 C10.67 11.67 10.34 11.34 10 11 C9.67 12.65 9.34 14.3 9 16 C8.34 16 7.68 16 7 16 C6.67 13.36 6.34 10.72 6 8 C5.34 10.31 4.68 12.62 4 15 C3.67 15 3.34 15 3 15 C3 12.33333333 3 9.66666667 3 7 C2.01 9.31 1.02 11.62 0 14 C-0.66 13.67 -1.32 13.34 -2 13 C-1.34 10.69 -0.68 8.38 0 6 C-1.32 7.98 -2.64 9.96 -4 12 C-4.66 11.67 -5.32 11.34 -6 11 C-4.02 7.37 -2.04 3.74 0 0 Z " fill="#C58730" transform="translate(134,97)"/>
<path d="M0 0 C0.66 1.32 1.32 2.64 2 4 C2.33 4.33 2.66 4.66 3 5 C3.33 3.35 3.66 1.7 4 0 C4.66 0 5.32 0 6 0 C6.33 2.64 6.66 5.28 7 8 C7.66 5.69 8.32 3.38 9 1 C9.33 1 9.66 1 10 1 C10 3.66666667 10 6.33333333 10 9 C10.99 6.69 11.98 4.38 13 2 C13.66 2.33 14.32 2.66 15 3 C14.34 5.31 13.68 7.62 13 10 C14.65 8.02 16.3 6.04 18 4 C18 7.63306931 16.92067933 8.97123644 15 12 C14.31903578 13.32608822 13.64669414 14.65686601 13 16 C11.35 16 9.7 16 8 16 C8 15.34 8 14.68 8 14 C7.07767578 14.10828125 7.07767578 14.10828125 6.13671875 14.21875 C5.32847656 14.3115625 4.52023438 14.404375 3.6875 14.5 C2.88699219 14.5928125 2.08648437 14.685625 1.26171875 14.78125 C-1 15 -1 15 -4 15 C-4.67408308 13.73308493 -5.33900497 12.46129251 -6 11.1875 C-6.556875 10.12595703 -6.556875 10.12595703 -7.125 9.04296875 C-8 7 -8 7 -8 4 C-5.525 6.97 -5.525 6.97 -3 10 C-3.66 7.69 -4.32 5.38 -5 3 C-4.34 2.67 -3.68 2.34 -3 2 C-2.01 4.31 -1.02 6.62 0 9 C0 6.03 0 3.06 0 0 Z " fill="#C78C41" transform="translate(137,64)"/>
<path d="M0 0 C0.99 0.33 1.98 0.66 3 1 C1.7934375 1.9590625 1.7934375 1.9590625 0.5625 2.9375 C-1.2750504 4.40603502 -1.2750504 4.40603502 -3 6 C-2.236875 5.649375 -1.47375 5.29875 -0.6875 4.9375 C2 4 2 4 5 5 C3.02 5.99 1.04 6.98 -1 8 C1.31 8 3.62 8 6 8 C6 8.66 6 9.32 6 10 C5.24074219 10.13277344 4.48148438 10.26554687 3.69921875 10.40234375 C2.70535156 10.57894531 1.71148437 10.75554687 0.6875 10.9375 C-0.29863281 11.11152344 -1.28476563 11.28554687 -2.30078125 11.46484375 C-5.08189213 11.95746847 -5.08189213 11.95746847 -8 13 C-8 11.02 -8 9.04 -8 7 C-8.66 6.67 -9.32 6.34 -10 6 C-8.33333333 5 -6.66666667 4 -5 3 C-4.13375 2.4225 -3.2675 1.845 -2.375 1.25 C-1.59125 0.8375 -0.8075 0.425 0 0 Z " fill="#C48739" transform="translate(160,75)"/>
<path d="M0 0 C0.66 0.33 1.32 0.66 2 1 C2.40729228 3.32156597 2.74438677 5.6568787 3 8 C1.75264433 8.6509259 0.50198168 9.29551669 -0.75 9.9375 C-1.44609375 10.29714844 -2.1421875 10.65679687 -2.859375 11.02734375 C-4.90224433 11.95558182 -6.81115376 12.53166578 -9 13 C-7.35 11.35 -5.7 9.7 -4 8 C-6.31 8.33 -8.62 8.66 -11 9 C-9.03617993 7.49440461 -7.21736634 6.10868317 -5 5 C-7.31 5 -9.62 5 -12 5 C-11.67 4.34 -11.34 3.68 -11 3 C-8.75 2.40234375 -8.75 2.40234375 -6 1.9375 C-2.69940294 1.5954649 -2.69940294 1.5954649 0 0 Z " fill="#C89046" transform="translate(130,89)"/>
<path d="M0 0 C2.03448779 0.41740567 4.05401678 0.90895178 6.0625 1.4375 C7.71958984 1.86869141 7.71958984 1.86869141 9.41015625 2.30859375 C10.26480469 2.53675781 11.11945313 2.76492187 12 3 C12 3.33 12 3.66 12 4 C9.03 4 6.06 4 3 4 C7.455 5.98 7.455 5.98 12 8 C8.23375329 9.25541557 6.62811066 8.37061958 3 7 C4.98 8.32 6.96 9.64 9 11 C8.67 11.66 8.34 12.32 8 13 C3.86873527 11.07848152 0.46741134 8.95749791 -3 6 C-2.34 6 -1.68 6 -1 6 C-1.0309375 4.7934375 -1.0309375 4.7934375 -1.0625 3.5625 C-1 1 -1 1 0 0 Z " fill="#C68528" transform="translate(153,89)"/>
<path d="M0 0 C4.60272162 1.77027754 7.7129243 3.18699218 11 7 C10.25 8.9375 10.25 8.9375 9 11 C5.8037095 12.23365598 3.52397489 11.88099372 0.25 11.0625 C-0.54921875 10.86785156 -1.3484375 10.67320313 -2.171875 10.47265625 C-2.77515625 10.31667969 -3.3784375 10.16070312 -4 10 C-3.67 9.34 -3.34 8.68 -3 8 C-0.03 8.33 2.94 8.66 6 9 C1.545 7.02 1.545 7.02 -3 5 C0.76624671 3.74458443 2.37188934 4.62938042 6 6 C5.01 5.38125 4.02 4.7625 3 4.125 C2.01 3.42375 1.02 2.7225 0 2 C0 1.34 0 0.68 0 0 Z " fill="#C6862D" transform="translate(122,75)"/>
<path d="M0 0 C2.64 0 5.28 0 8 0 C8.33 1.32 8.66 2.64 9 4 C7.68 4 6.36 4 5 4 C5.33 5.98 5.66 7.96 6 10 C4.68 10 3.36 10 2 10 C2.33 8.02 2.66 6.04 3 4 C1.68 4 0.36 4 -1 4 C-0.67 2.68 -0.34 1.36 0 0 Z " fill="#CF8A07" transform="translate(138,84)"/>
<path d="M0 0 C1.32 0 2.64 0 4 0 C3.67 4.62 3.34 9.24 3 14 C2.34 14 1.68 14 1 14 C0.67 9.38 0.34 4.76 0 0 Z " fill="#C6925A" transform="translate(140,99)"/>
<path d="M0 0 C1.1875 1.5625 1.1875 1.5625 2 4 C0.625 7.75 0.625 7.75 -1 11 C-1.66 10.67 -2.32 10.34 -3 10 C-2.34 7.69 -1.68 5.38 -1 3 C-2.98 5.97 -2.98 5.97 -5 9 C-5.66 8.67 -6.32 8.34 -7 8 C-3.375 1.125 -3.375 1.125 0 0 Z " fill="#C8904A" transform="translate(135,100)"/>
<path d="M0 0 C3.70344028 1.23448009 5.30250982 3.23334341 8 6 C8.66 6.33 9.32 6.66 10 7 C9.67 7.66 9.34 8.32 9 9 C4.86873527 7.07848152 1.46741134 4.95749791 -2 2 C-1.34 2 -0.68 2 0 2 C0 1.34 0 0.68 0 0 Z " fill="#C78E44" transform="translate(152,93)"/>
<path d="M0 0 C4.60272162 1.77027754 7.7129243 3.18699218 11 7 C10.34 7.66 9.68 8.32 9 9 C8.51789063 8.57847656 8.03578125 8.15695313 7.5390625 7.72265625 C6.90742188 7.17480469 6.27578125 6.62695312 5.625 6.0625 C4.99851562 5.51722656 4.37203125 4.97195312 3.7265625 4.41015625 C2.04367666 2.93041376 2.04367666 2.93041376 0 2 C0 1.34 0 0.68 0 0 Z " fill="#C98F44" transform="translate(122,75)"/>
<path d="M0 0 C2.52230627 1.26115314 2.88890155 2.37533425 4.125 4.875 C4.47820312 5.57367188 4.83140625 6.27234375 5.1953125 6.9921875 C6 9 6 9 6 12 C5.236875 11.071875 4.47375 10.14375 3.6875 9.1875 C1.88151448 7.01723899 0.0523371 4.94431935 -2 3 C-1 1 -1 1 0 0 Z " fill="#C88F49" transform="translate(149,97)"/>
<path d="M0 0 C3.30562629 2.43572463 5.3229475 4.25888288 7 8 C7.66 8.33 8.32 8.66 9 9 C8.67 9.66 8.34 10.32 8 11 C7.01 11 6.02 11 5 11 C4.35165346 9.730447 3.70642185 8.45930294 3.0625 7.1875 C2.70285156 6.47980469 2.34320313 5.77210937 1.97265625 5.04296875 C1 3 1 3 0 0 Z " fill="#C88F49" transform="translate(128,68)"/>
<path d="M0 0 C0.91007813 0.00902344 1.82015625 0.01804687 2.7578125 0.02734375 C3.45648438 0.03894531 4.15515625 0.05054687 4.875 0.0625 C4.875 0.7225 4.875 1.3825 4.875 2.0625 C0.8936217 3.3896261 -2.97545227 3.13165913 -7.125 3.0625 C-7.125 2.4025 -7.125 1.7425 -7.125 1.0625 C-4.60024538 -0.19987731 -2.81299534 -0.03606404 0 0 Z " fill="#CE9A54" transform="translate(161.125,82.9375)"/>
<path d="M0 0 C2.97 0 5.94 0 9 0 C9 0.99 9 1.98 9 3 C2.25 2.25 2.25 2.25 0 0 Z " fill="#E8DDDA" transform="translate(155,89)"/>
<path d="M0 0 C4.27786748 0.49360009 7.09567131 1.04783565 11 3 C7.7 3 4.4 3 1 3 C0.67 2.01 0.34 1.02 0 0 Z " fill="#E5D7D4" transform="translate(120,85)"/>
</svg>
