<?xml version="1.0" encoding="UTF-8"?>
<svg version="1.1" xmlns="http://www.w3.org/2000/svg" width="297" height="170">
<path d="M0 0 C98.01 0 196.02 0 297 0 C297 56.1 297 112.2 297 170 C198.99 170 100.98 170 0 170 C0 113.9 0 57.8 0 0 Z " fill="#FEFEFE" transform="translate(0,0)"/>
<path d="M0 0 C32.67 0 65.34 0 99 0 C99 56.1 99 112.2 99 170 C66.33 170 33.66 170 0 170 C0 113.9 0 57.8 0 0 Z " fill="#CD1025" transform="translate(198,0)"/>
<path d="M0 0 C32.67 0 65.34 0 99 0 C99 56.1 99 112.2 99 170 C66.33 170 33.66 170 0 170 C0 113.9 0 57.8 0 0 Z " fill="#006746" transform="translate(0,0)"/>
<path d="M0 0 C4.69567131 2.55540462 7.81725983 6.15898886 10.9375 10.4375 C11.38609375 11.04464844 11.8346875 11.65179688 12.296875 12.27734375 C16.06215163 18.3765761 14.89687861 24.59671337 13.9375 31.4375 C12.6175 31.1075 11.2975 30.7775 9.9375 30.4375 C9.4425 28.4575 9.4425 28.4575 8.9375 26.4375 C8.9375 28.0875 8.9375 29.7375 8.9375 31.4375 C7.9475 31.1075 6.9575 30.7775 5.9375 30.4375 C5.25 28.375 5.25 28.375 4.9375 26.4375 C4.2775 26.4375 3.6175 26.4375 2.9375 26.4375 C2.4425 25.4475 2.4425 25.4475 1.9375 24.4375 C0.9475 24.9325 0.9475 24.9325 -0.0625 25.4375 C-0.0625 24.7775 -0.0625 24.1175 -0.0625 23.4375 C-1.0525 23.1075 -2.0425 22.7775 -3.0625 22.4375 C-1.795449 27.52026779 -0.11755199 29.70425621 4.0625 32.8125 C4.97257812 33.50085938 5.88265625 34.18921875 6.8203125 34.8984375 C7.86832031 35.66027344 7.86832031 35.66027344 8.9375 36.4375 C8.4425 37.4275 8.4425 37.4275 7.9375 38.4375 C3.24840292 39.51959933 0.24652834 39.65730248 -4.0625 37.4375 C-3.423125 38.05625 -2.78375 38.675 -2.125 39.3125 C-0.0625 41.4375 -0.0625 41.4375 0.9375 43.4375 C1.9275 42.4475 2.9175 41.4575 3.9375 40.4375 C4.9275 40.9325 4.9275 40.9325 5.9375 41.4375 C5.9375 42.0975 5.9375 42.7575 5.9375 43.4375 C6.5975 43.4375 7.2575 43.4375 7.9375 43.4375 C7.2775 44.7575 6.6175 46.0775 5.9375 47.4375 C1.9775 47.4375 -1.9825 47.4375 -6.0625 47.4375 C-3.7525 48.0975 -1.4425 48.7575 0.9375 49.4375 C0.9375 51.4175 0.9375 53.3975 0.9375 55.4375 C1.9275 55.7675 2.9175 56.0975 3.9375 56.4375 C3.6075 55.4475 3.2775 54.4575 2.9375 53.4375 C3.5975 53.4375 4.2575 53.4375 4.9375 53.4375 C5.4325 55.4175 5.4325 55.4175 5.9375 57.4375 C1.59365263 61.28490767 -1.31824154 62.4375 -7.0625 62.4375 C-7.51625 62.953125 -7.97 63.46875 -8.4375 64 C-8.97375 64.474375 -9.51 64.94875 -10.0625 65.4375 C-12.75 65.125 -12.75 65.125 -15.0625 64.4375 C-15.0625 63.7775 -15.0625 63.1175 -15.0625 62.4375 C-16.0525 63.4275 -16.0525 63.4275 -17.0625 64.4375 C-17.0625 63.7775 -17.0625 63.1175 -17.0625 62.4375 C-19.04817708 62.50260417 -21.03385417 62.56770833 -23.01953125 62.6328125 C-26.24434981 62.32451245 -28.40624696 60.20833536 -31.0625 58.4375 C-31.7225 58.4375 -32.3825 58.4375 -33.0625 58.4375 C-33.3925 57.7775 -33.7225 57.1175 -34.0625 56.4375 C-34.701875 56.169375 -35.34125 55.90125 -36 55.625 C-38.74406708 54.04508259 -39.13140124 52.3859794 -40.0625 49.4375 C-40.7225 49.4375 -41.3825 49.4375 -42.0625 49.4375 C-42.0625 48.7775 -42.0625 48.1175 -42.0625 47.4375 C-43.0215625 46.4784375 -43.0215625 46.4784375 -44 45.5 C-46.0625 43.4375 -46.0625 43.4375 -47.0625 40.4375 C-44.5875 39.9425 -44.5875 39.9425 -42.0625 39.4375 C-41.629375 40.3965625 -41.629375 40.3965625 -41.1875 41.375 C-40.23426549 43.58956079 -40.23426549 43.58956079 -38.0625 44.4375 C-37.7325 45.4275 -37.4025 46.4175 -37.0625 47.4375 C-36.258125 47.89125 -35.45375 48.345 -34.625 48.8125 C-32.0625 50.4375 -32.0625 50.4375 -31.125 53 C-30.25284594 55.74827471 -30.25284594 55.74827471 -27.125 56.75 C-24.09776185 57.54701917 -24.09776185 57.54701917 -21.0625 57.4375 C-19.7425 57.4375 -18.4225 57.4375 -17.0625 57.4375 C-18.031875 57.004375 -19.00125 56.57125 -20 56.125 C-23.0625 54.4375 -23.0625 54.4375 -24.0625 51.4375 C-26.0425 51.4375 -28.0225 51.4375 -30.0625 51.4375 C-30.0625 49.4375 -30.0625 47.4375 -30.0625 45.4375 C-28.0825 45.7675 -26.1025 46.0975 -24.0625 46.4375 C-24.0625 45.7775 -24.0625 45.1175 -24.0625 44.4375 C-25.7125 44.1075 -27.3625 43.7775 -29.0625 43.4375 C-29.3925 42.4475 -29.7225 41.4575 -30.0625 40.4375 C-32.0425 40.1075 -34.0225 39.7775 -36.0625 39.4375 C-37.3825 35.4775 -38.7025 31.5175 -40.0625 27.4375 C-39.4025 27.4375 -38.7425 27.4375 -38.0625 27.4375 C-38.0625 28.0975 -38.0625 28.7575 -38.0625 29.4375 C-37.4025 29.4375 -36.7425 29.4375 -36.0625 29.4375 C-34.4375 30.9375 -34.4375 30.9375 -33.0625 32.4375 C-33.63594937 29.57025314 -33.9239515 28.5760485 -36.0625 26.4375 C-35.6875 23.3125 -35.6875 23.3125 -35.0625 20.4375 C-36.3825 20.1075 -37.7025 19.7775 -39.0625 19.4375 C-39.0625 18.7775 -39.0625 18.1175 -39.0625 17.4375 C-36.6875 17.6875 -36.6875 17.6875 -34.0625 18.4375 C-32.75 20.5 -32.75 20.5 -32.0625 22.4375 C-31.98 21.86 -31.8975 21.2825 -31.8125 20.6875 C-30.85718987 17.8215696 -29.27780827 16.4384236 -27.0625 14.4375 C-27.3925 13.7775 -27.7225 13.1175 -28.0625 12.4375 C-27.7325 11.7775 -27.4025 11.1175 -27.0625 10.4375 C-26.4025 10.4375 -25.7425 10.4375 -25.0625 10.4375 C-25.330625 9.880625 -25.59875 9.32375 -25.875 8.75 C-25.936875 7.986875 -25.99875 7.22375 -26.0625 6.4375 C-23.625 3.6875 -23.625 3.6875 -21.0625 1.4375 C-16.6075 3.4175 -16.6075 3.4175 -12.0625 5.4375 C-13.3825 4.4475 -14.7025 3.4575 -16.0625 2.4375 C-15.75 0.5 -15.75 0.5 -15.0625 -1.5625 C-9.87438771 -3.29187076 -4.90184599 -2.15528637 0 0 Z " fill="#94A06F" transform="translate(161.0625,53.5625)"/>
<path d="M0 0 C4.69567131 2.55540462 7.81725983 6.15898886 10.9375 10.4375 C11.38609375 11.04464844 11.8346875 11.65179688 12.296875 12.27734375 C16.06215163 18.3765761 14.89687861 24.59671337 13.9375 31.4375 C12.6175 31.1075 11.2975 30.7775 9.9375 30.4375 C9.4425 28.4575 9.4425 28.4575 8.9375 26.4375 C8.9375 28.0875 8.9375 29.7375 8.9375 31.4375 C7.4525 30.9425 7.4525 30.9425 5.9375 30.4375 C5.25 28.375 5.25 28.375 4.9375 26.4375 C4.2775 26.4375 3.6175 26.4375 2.9375 26.4375 C2.6075 25.7775 2.2775 25.1175 1.9375 24.4375 C1.2775 24.7675 0.6175 25.0975 -0.0625 25.4375 C-0.0625 24.7775 -0.0625 24.1175 -0.0625 23.4375 C-1.0525 23.1075 -2.0425 22.7775 -3.0625 22.4375 C-1.795449 27.52026779 -0.11755199 29.70425621 4.0625 32.8125 C4.97257812 33.50085938 5.88265625 34.18921875 6.8203125 34.8984375 C7.51898438 35.40632813 8.21765625 35.91421875 8.9375 36.4375 C8.6075 37.0975 8.2775 37.7575 7.9375 38.4375 C3.06962058 39.56085679 0.45210962 39.33838826 -4.0625 37.4375 C-6.7961432 37.73269768 -6.7961432 37.73269768 -9.0625 38.4375 C-10.0525 37.1175 -11.0425 35.7975 -12.0625 34.4375 C-13.5475 34.9325 -13.5475 34.9325 -15.0625 35.4375 C-17.25 35 -17.25 35 -19.0625 34.4375 C-18.7325 33.7775 -18.4025 33.1175 -18.0625 32.4375 C-17.4025 32.4375 -16.7425 32.4375 -16.0625 32.4375 C-16.41036708 30.46213255 -16.41036708 30.46213255 -17.0625 28.4375 C-17.7225 28.1075 -18.3825 27.7775 -19.0625 27.4375 C-19.0625 26.4475 -19.0625 25.4575 -19.0625 24.4375 C-19.7225 24.4375 -20.3825 24.4375 -21.0625 24.4375 C-22.4627792 18.97641111 -21.48955634 14.74473432 -20.0625 9.4375 C-21.0525 8.7775 -22.0425 8.1175 -23.0625 7.4375 C-22.4025 6.7775 -21.7425 6.1175 -21.0625 5.4375 C-20.7325 4.1175 -20.4025 2.7975 -20.0625 1.4375 C-17.4225 2.7575 -14.7825 4.0775 -12.0625 5.4375 C-13.3825 4.4475 -14.7025 3.4575 -16.0625 2.4375 C-15.75 0.5 -15.75 0.5 -15.0625 -1.5625 C-9.87438771 -3.29187076 -4.90184599 -2.15528637 0 0 Z " fill="#8A431F" transform="translate(161.0625,53.5625)"/>
<path d="M0 0 C1.46291304 0.5929915 2.92021513 1.19983823 4.375 1.8125 C5.18710938 2.14894531 5.99921875 2.48539063 6.8359375 2.83203125 C9 4 9 4 11 7 C11.0396713 8.66619446 11.04384447 10.33391013 11 12 C12.1490712 13.2981424 12.1490712 13.2981424 15 14 C14.82408725 19.27738265 14.82408725 19.27738265 14 22 C11 24.375 11 24.375 8 26 C7.67 26.66 7.34 27.32 7 28 C9.47266765 27.65555119 9.47266765 27.65555119 12 27 C12.33 26.34 12.66 25.68 13 25 C13.66 24.01 14.32 23.02 15 22 C18 23 18 23 19.125 25.125 C21.91870697 29.40868402 25.89970853 32.01718839 30 35 C29.67 35.66 29.34 36.32 29 37 C24.13212058 38.12335679 21.51460962 37.90088826 17 36 C14.2663568 36.29519768 14.2663568 36.29519768 12 37 C11.01 35.68 10.02 34.36 9 33 C7.515 33.495 7.515 33.495 6 34 C3.8125 33.5625 3.8125 33.5625 2 33 C2.33 32.34 2.66 31.68 3 31 C3.66 31 4.32 31 5 31 C4.65213292 29.02463255 4.65213292 29.02463255 4 27 C3.34 26.67 2.68 26.34 2 26 C2 25.01 2 24.02 2 23 C1.34 23 0.68 23 0 23 C-1.4002792 17.53891111 -0.42705634 13.30723432 1 8 C0.01 7.34 -0.98 6.68 -2 6 C-1.34 5.34 -0.68 4.68 0 4 C0 2.68 0 1.36 0 0 Z " fill="#623921" transform="translate(140,55)"/>
<path d="M0 0 C0.99 0.99 1.98 1.98 3 3 C2.34 3.66 1.68 4.32 1 5 C1.99 5.66 2.98 6.32 4 7 C3.7834375 8.24716797 3.7834375 8.24716797 3.5625 9.51953125 C3.376875 10.60621094 3.19125 11.69289063 3 12.8125 C2.814375 13.89144531 2.62875 14.97039062 2.4375 16.08203125 C1.92586214 19.00270898 1.92586214 19.00270898 2 22 C2.66 22 3.32 22 4 22 C4 22.99 4 23.98 4 25 C4.99 25.33 5.98 25.66 7 26 C7 27.32 7 28.64 7 30 C6.34 30.66 5.68 31.32 5 32 C6.98 31.67 8.96 31.34 11 31 C12.32 32.65 13.64 34.3 15 36 C11.20313511 38.58186812 8.36433828 37.71416445 4 37 C2.515 37.495 2.515 37.495 1 38 C0.34 37.01 -0.32 36.02 -1 35 C-0.67 34.34 -0.34 33.68 0 33 C-0.99 33 -1.98 33 -3 33 C-3 33.66 -3 34.32 -3 35 C-4.98 35.495 -4.98 35.495 -7 36 C-7.26554688 35.30132812 -7.53109375 34.60265625 -7.8046875 33.8828125 C-8.15789062 32.97273438 -8.51109375 32.06265625 -8.875 31.125 C-9.39707031 29.76761719 -9.39707031 29.76761719 -9.9296875 28.3828125 C-10.88530895 25.87782993 -10.88530895 25.87782993 -13 24 C-12.625 20.875 -12.625 20.875 -12 18 C-13.32 17.67 -14.64 17.34 -16 17 C-16 16.34 -16 15.68 -16 15 C-13.625 15.25 -13.625 15.25 -11 16 C-9.6875 18.0625 -9.6875 18.0625 -9 20 C-8.9175 19.4225 -8.835 18.845 -8.75 18.25 C-7.79468987 15.3840696 -6.21530827 14.0009236 -4 12 C-4.33 11.34 -4.66 10.68 -5 10 C-4.67 9.34 -4.34 8.68 -4 8 C-3.34 8 -2.68 8 -2 8 C-2.226875 7.4225 -2.45375 6.845 -2.6875 6.25 C-3 4 -3 4 -1.5625 1.75 C-1.046875 1.1725 -0.53125 0.595 0 0 Z " fill="#BDBE9D" transform="translate(138,56)"/>
<path d="M0 0 C0.66 0 1.32 0 2 0 C2 0.66 2 1.32 2 2 C2.66 2 3.32 2 4 2 C6.73397536 4.52892721 8.93063422 6.89595133 11 10 C11.99 10 12.98 10 14 10 C14 9.34 14 8.68 14 8 C14.99 8 15.98 8 17 8 C17.33 9.32 17.66 10.64 18 12 C18.680625 11.773125 19.36125 11.54625 20.0625 11.3125 C24.09817372 10.88317301 26.47131456 12.09993861 30 14 C30.33 14.99 30.66 15.98 31 17 C28.93243723 19.7972908 27.85559629 20.02692273 24.3125 20.6875 C23.219375 20.790625 22.12625 20.89375 21 21 C21 22.65 21 24.3 21 26 C19.68 26.33 18.36 26.66 17 27 C16.67 26.01 16.34 25.02 16 24 C14.02 24 12.04 24 10 24 C10 22 10 20 10 18 C11.98 18.33 13.96 18.66 16 19 C16 18.34 16 17.68 16 17 C14.35 16.67 12.7 16.34 11 16 C10.67 15.01 10.34 14.02 10 13 C7.03 12.505 7.03 12.505 4 12 C2.68 8.04 1.36 4.08 0 0 Z " fill="#A3978F" transform="translate(121,81)"/>
<path d="M0 0 C3.35641407 0.59935965 5.42187962 1.77748243 8 4 C8.33 4.66 8.66 5.32 9 6 C9.99 5.01 10.98 4.02 12 3 C12.66 3.33 13.32 3.66 14 4 C14 4.66 14 5.32 14 6 C14.66 6 15.32 6 16 6 C15.34 7.32 14.68 8.64 14 10 C10.04 10 6.08 10 2 10 C2.33 11.65 2.66 13.3 3 15 C2.5625 17.3125 2.5625 17.3125 2 19 C0.04174127 19.02694851 -1.91662226 19.04637218 -3.875 19.0625 C-4.96554688 19.07410156 -6.05609375 19.08570312 -7.1796875 19.09765625 C-10 19 -10 19 -12 18 C-12.04241723 15.66705225 -12.04092937 13.33297433 -12 11 C-11 10 -11 10 -7.4375 9.9375 C-6.303125 9.958125 -5.16875 9.97875 -4 10 C-3.67 9.01 -3.34 8.02 -3 7 C-2.34 7 -1.68 7 -1 7 C-1.99 5.35 -2.98 3.7 -4 2 C-2.68 2 -1.36 2 0 2 C0 1.34 0 0.68 0 0 Z " fill="#E99D4F" transform="translate(153,91)"/>
<path d="M0 0 C0.62648437 0.22816406 1.25296875 0.45632812 1.8984375 0.69140625 C2.71570313 0.97886719 3.53296875 1.26632813 4.375 1.5625 C5.18710938 1.85253906 5.99921875 2.14257812 6.8359375 2.44140625 C9.02767749 3.25973028 9.02767749 3.25973028 11 2 C11 3.98 11 5.96 11 8 C11.33 7.01 11.66 6.02 12 5 C12.33 4.01 12.66 3.02 13 2 C13.33 2.66 13.66 3.32 14 4 C14.66 3.34 15.32 2.68 16 2 C16.144375 3.051875 16.28875 4.10375 16.4375 5.1875 C16.88996108 8.83255148 16.88996108 8.83255148 17.75 11.625 C18.09711093 14.92255388 16.88447077 16.34778187 15 19 C14.34 19.99 13.68 20.98 13 22 C12.01 22 11.02 22 10 22 C9.34 21.34 8.68 20.68 8 20 C7.34 20 6.68 20 6 20 C5.67 20.99 5.34 21.98 5 23 C4.34 22.67 3.68 22.34 3 22 C3 21.34 3 20.68 3 20 C1.70766393 18.62689293 0.37562854 17.28965176 -1 16 C2 16 2 16 4.375 16.5625 C7.22763909 17.03793985 9.21997367 16.71486391 12 16 C9.35593277 13.27816609 6.79445938 10.82746012 3.75 8.5625 C0.62016029 5.64605845 0.19496591 4.19176714 0 0 Z " fill="#DBD8D7" transform="translate(157,75)"/>
<path d="M0 0 C3.36179774 1.44077046 5.59156268 3.24750021 8 6 C8 6.66 8 7.32 8 8 C8.99 8 9.98 8 11 8 C15.25587646 13.95822705 13.85783227 20.03398858 13 27 C11.68 26.67 10.36 26.34 9 26 C8.67 24.68 8.34 23.36 8 22 C8 23.65 8 25.3 8 27 C7.01 26.67 6.02 26.34 5 26 C5.33 23.69 5.66 21.38 6 19 C4.68 18.67 3.36 18.34 2 18 C2.33 16.35 2.66 14.7 3 13 C3.66 13 4.32 13 5 13 C5.33 13.99 5.66 14.98 6 16 C6.66 15.01 7.32 14.02 8 13 C8.33 13.66 8.66 14.32 9 15 C9.33 14.34 9.66 13.68 10 13 C5.93150591 10.28767061 3.83523216 10.69300113 -1 11 C-1.66 11.66 -2.32 12.32 -3 13 C-3 9.05611769 -2.32331967 6.65858967 -1 3 C-0.67 2.01 -0.34 1.02 0 0 Z " fill="#603521" transform="translate(162,58)"/>
<path d="M0 0 C2.64 0.99 5.28 1.98 8 3 C8.27554763 5.77045173 8.52123257 8.53813416 8.75 11.3125 C8.87181641 12.49102539 8.87181641 12.49102539 8.99609375 13.69335938 C9.16199606 15.85930623 9.26434203 17.84320934 9 20 C6.7124168 22.56367083 5.66954688 22.95434908 2.25 23.1875 C1.13625 23.0946875 1.13625 23.0946875 0 23 C-1.4002792 17.53891111 -0.42705634 13.30723432 1 8 C0.01 7.34 -0.98 6.68 -2 6 C-1.34 5.34 -0.68 4.68 0 4 C0 2.68 0 1.36 0 0 Z " fill="#B7834C" transform="translate(140,55)"/>
<path d="M0 0 C0 0.99 0 1.98 0 3 C1.670625 2.9690625 1.670625 2.9690625 3.375 2.9375 C7 3 7 3 9 4 C9.33 3.34 9.66 2.68 10 2 C11.32 3.65 12.64 5.3 14 7 C13.01 7.495 13.01 7.495 12 8 C11.67 8.99 11.34 9.98 11 11 C10.67 10.34 10.34 9.68 10 9 C9.01 9 8.02 9 7 9 C7 8.01 7 7.02 7 6 C6.34 6 5.68 6 5 6 C5.185625 6.639375 5.37125 7.27875 5.5625 7.9375 C5.706875 8.618125 5.85125 9.29875 6 10 C5.67 10.33 5.34 10.66 5 11 C5.66 11.33 6.32 11.66 7 12 C6.67 12.99 6.34 13.98 6 15 C5.34 15 4.68 15 4 15 C3.67 14.34 3.34 13.68 3 13 C2.01 13.495 2.01 13.495 1 14 C1 13.34 1 12.68 1 12 C-0.32 12 -1.64 12 -3 12 C-3.66 12 -4.32 12 -5 12 C-5.268125 12.61875 -5.53625 13.2375 -5.8125 13.875 C-7 16 -7 16 -10 18 C-10.99 18 -11.98 18 -13 18 C-13.33 17.01 -13.66 16.02 -14 15 C-13.4225 14.87625 -12.845 14.7525 -12.25 14.625 C-11.5075 14.41875 -10.765 14.2125 -10 14 C-9.278125 13.814375 -8.55625 13.62875 -7.8125 13.4375 C-5.54407511 11.97603469 -5.54407511 11.97603469 -5.4375 8.125 C-5.38335937 7.41601562 -5.32921875 6.70703125 -5.2734375 5.9765625 C-4.81806887 2.68489785 -3.52122377 0 0 0 Z " fill="#864F2D" transform="translate(160,65)"/>
<path d="M0 0 C0.66 0 1.32 0 2 0 C4.18044585 3.27066878 4.09857402 4.25418727 4 8 C5.1490712 9.2981424 5.1490712 9.2981424 8 10 C7.82408725 15.27738265 7.82408725 15.27738265 7 18 C4 20.375 4 20.375 1 22 C0.67 22.66 0.34 23.32 0 24 C1.32 24 2.64 24 4 24 C5.75 26.5 5.75 26.5 7 29 C2.79495242 30.20144217 -0.79495242 30.20144217 -5 29 C-4.67 28.34 -4.34 27.68 -4 27 C-3.34 27 -2.68 27 -2 27 C-2.34786708 25.02463255 -2.34786708 25.02463255 -3 23 C-3.66 22.67 -4.32 22.34 -5 22 C-5.625 19.9375 -5.625 19.9375 -6 18 C-4.68 18.33 -3.36 18.66 -2 19 C-1.67 18.34 -1.34 17.68 -1 17 C-0.34 16.67 0.32 16.34 1 16 C0.67 10.72 0.34 5.44 0 0 Z " fill="#663B21" transform="translate(147,59)"/>
<path d="M0 0 C1.98 0 3.96 0 6 0 C6 1.98 6 3.96 6 6 C6.99 6.33 7.98 6.66 9 7 C8.67 6.01 8.34 5.02 8 4 C8.66 4 9.32 4 10 4 C10.33 5.32 10.66 6.64 11 8 C6.65615263 11.84740767 3.74425846 13 -2 13 C-2.45375 13.515625 -2.9075 14.03125 -3.375 14.5625 C-3.91125 15.036875 -4.4475 15.51125 -5 16 C-7.6875 15.6875 -7.6875 15.6875 -10 15 C-9.67 13.02 -9.34 11.04 -9 9 C-9.99 8.34 -10.98 7.68 -12 7 C-6.555 6.505 -6.555 6.505 -1 6 C-0.67 4.02 -0.34 2.04 0 0 Z " fill="#DEE8E9" transform="translate(156,103)"/>
<path d="M0 0 C0 0.66 0 1.32 0 2 C1.093125 2 2.18625 2 3.3125 2 C5.54166667 2 7.77083333 2 10 2 C11.6875 4.5 11.6875 4.5 13 7 C8.92325362 7.8532725 6.04075573 7.87367692 2 7 C1.01 7.33 0.02 7.66 -1 8 C-1.66 7.01 -2.32 6.02 -3 5 C-2.67 4.34 -2.34 3.68 -2 3 C-2.99 3 -3.98 3 -5 3 C-5 3.66 -5 4.32 -5 5 C-6.32 5.33 -7.64 5.66 -9 6 C-9.66 4.35 -10.32 2.7 -11 1 C-3.375 0 -3.375 0 0 0 Z " fill="#F7F5F3" transform="translate(140,86)"/>
<path d="M0 0 C8.46529096 0.60466364 14.22814311 2.72601983 20 9.125 C23 12.67410714 23 12.67410714 23 15 C22.34 15 21.68 15 21 15 C19.5625 13.50390625 19.5625 13.50390625 18 11.5625 C15.85474956 8.84811762 15.85474956 8.84811762 13 7 C12.67 9.31 12.34 11.62 12 14 C9.8614515 11.8614515 9.57344937 10.86724686 9 8 C9.66 7.67 10.32 7.34 11 7 C7.3321148 5.03810791 4.12751449 3.60698743 0 3 C0 2.01 0 1.02 0 0 Z " fill="#9A633A" transform="translate(149,51)"/>
<path d="M0 0 C0.66 0.33 1.32 0.66 2 1 C2 1.66 2 2.32 2 3 C2.66 3 3.32 3 4 3 C3.34 4.32 2.68 5.64 2 7 C-2.62 7 -7.24 7 -12 7 C-12.33 7.99 -12.66 8.98 -13 10 C-13.99 9.67 -14.98 9.34 -16 9 C-14.59103494 6.09116891 -13.15024236 3.42700622 -11 1 C-7.1875 0.5 -7.1875 0.5 -4 1 C-3.67 1.66 -3.34 2.32 -3 3 C-2.01 2.01 -1.02 1.02 0 0 Z " fill="#5E9596" transform="translate(165,94)"/>
<path d="M0 0 C3.375 0.25 3.375 0.25 7 1 C8.94241961 3.5335908 9 4.78187214 9 8 C9.33 6.68 9.66 5.36 10 4 C10.99 4.33 11.98 4.66 13 5 C13 6.32 13 7.64 13 9 C8.375 11.125 8.375 11.125 5 10 C3.33637583 9.65179959 1.67004829 9.31595508 0 9 C2.625 5.125 2.625 5.125 6 4 C4.35 4 2.7 4 1 4 C0.67 2.68 0.34 1.36 0 0 Z " fill="#C39A43" transform="translate(132,77)"/>
<path d="M0 0 C0.62648437 0.22816406 1.25296875 0.45632812 1.8984375 0.69140625 C2.71570313 0.97886719 3.53296875 1.26632813 4.375 1.5625 C5.18710938 1.85253906 5.99921875 2.14257812 6.8359375 2.44140625 C9.02767749 3.25973028 9.02767749 3.25973028 11 2 C11 3.98 11 5.96 11 8 C11.33 8 11.66 8 12 8 C12 9.98 12 11.96 12 14 C1.98170732 7.88821138 1.98170732 7.88821138 0 3 C0 2.01 0 1.02 0 0 Z " fill="#F6F5F5" transform="translate(157,75)"/>
<path d="M0 0 C0.66 0 1.32 0 2 0 C2 0.99 2 1.98 2 3 C3.670625 2.9690625 3.670625 2.9690625 5.375 2.9375 C9 3 9 3 11 4 C11.33 3.34 11.66 2.68 12 2 C13.32 3.65 14.64 5.3 16 7 C15.01 7.495 15.01 7.495 14 8 C13.67 8.99 13.34 9.98 13 11 C12.67 10.34 12.34 9.68 12 9 C11.01 9 10.02 9 9 9 C9 8.01 9 7.02 9 6 C8.34 6 7.68 6 7 6 C7.33 7.32 7.66 8.64 8 10 C7.34 9.67 6.68 9.34 6 9 C6 8.34 6 7.68 6 7 C4.35 7.66 2.7 8.32 1 9 C0.67 8.01 0.34 7.02 0 6 C-0.99 6.33 -1.98 6.66 -3 7 C-2.1654738 4.49642139 -1.20628008 2.33214148 0 0 Z " fill="#A27042" transform="translate(158,65)"/>
<path d="M0 0 C3.96 0.33 7.92 0.66 12 1 C12 1.66 12 2.32 12 3 C9.69 3.33 7.38 3.66 5 4 C5 5.65 5 7.3 5 9 C3.68 9.33 2.36 9.66 1 10 C0.67 9.01 0.34 8.02 0 7 C-1.98 7 -3.96 7 -6 7 C-6 5 -6 3 -6 1 C-3.03 1.495 -3.03 1.495 0 2 C0 1.34 0 0.68 0 0 Z " fill="#4DBCD6" transform="translate(137,98)"/>
<path d="M0 0 C0.66 0 1.32 0 2 0 C4.18044585 3.27066878 4.09857402 4.25418727 4 8 C5.1490712 9.2981424 5.1490712 9.2981424 8 10 C7.67 12.64 7.34 15.28 7 18 C5.68 17.67 4.36 17.34 3 17 C3 17.66 3 18.32 3 19 C2.01 18.67 1.02 18.34 0 18 C0.17402344 17.48953125 0.34804687 16.9790625 0.52734375 16.453125 C1.16767376 13.12975935 0.84312439 10.11749265 0.5625 6.75 C0.46066406 5.48671875 0.35882813 4.2234375 0.25390625 2.921875 C0.17011719 1.95765625 0.08632812 0.9934375 0 0 Z " fill="#482918" transform="translate(147,59)"/>
<path d="M0 0 C1.2065625 0.0309375 1.2065625 0.0309375 2.4375 0.0625 C2.664375 0.784375 2.89125 1.50625 3.125 2.25 C4.69268867 5.60933287 6.69417145 7.60053848 9.4375 10.0625 C9.7675 10.0625 10.0975 10.0625 10.4375 10.0625 C10.4375 11.7125 10.4375 13.3625 10.4375 15.0625 C7.5 14.25 7.5 14.25 4.4375 13.0625 C4.1075 12.0725 3.7775 11.0825 3.4375 10.0625 C2.7775 10.0625 2.1175 10.0625 1.4375 10.0625 C1.4375 9.4025 1.4375 8.7425 1.4375 8.0625 C0.798125 7.423125 0.15875 6.78375 -0.5 6.125 C-2.5625 4.0625 -2.5625 4.0625 -3.5625 1.0625 C-2.5625 0.0625 -2.5625 0.0625 0 0 Z " fill="#8D9255" transform="translate(117.5625,92.9375)"/>
<path d="M0 0 C0.66 0.33 1.32 0.66 2 1 C1.7834375 2.03060547 1.7834375 2.03060547 1.5625 3.08203125 C1.376875 3.98308594 1.19125 4.88414063 1 5.8125 C0.814375 6.70582031 0.62875 7.59914063 0.4375 8.51953125 C-0.08684843 11.07260693 -0.08684843 11.07260693 0 14 C0.66 14 1.32 14 2 14 C2.33 16.31 2.66 18.62 3 21 C2.34 21 1.68 21 1 21 C0.34 19.02 -0.32 17.04 -1 15 C-3.97 14.505 -3.97 14.505 -7 14 C-6.50878726 9.57908535 -5.12893119 8.03411509 -2 5 C-0.74563813 2.36777038 -0.74563813 2.36777038 0 0 Z " fill="#F6F5F2" transform="translate(140,64)"/>
<path d="M0 0 C1.4835001 0.42257276 2.96176424 0.86356322 4.4375 1.3125 C5.67306641 1.67794922 5.67306641 1.67794922 6.93359375 2.05078125 C7.95646484 2.52064453 7.95646484 2.52064453 9 3 C9.33 3.99 9.66 4.98 10 6 C6.00439392 8.83022097 2.57262677 7.76210446 -2 7 C-1.125 2.25 -1.125 2.25 0 0 Z " fill="#358789" transform="translate(142,92)"/>
<path d="M0 0 C1.9375 0.75 1.9375 0.75 4 2 C4.625 3.8125 4.625 3.8125 5 6 C5.6469365 7.6744239 6.30959426 9.34302621 7 11 C5.72125 10.95875 4.4425 10.9175 3.125 10.875 C0.98128508 10.75787127 0.98128508 10.75787127 -1 11 C-1.66 11.66 -2.32 12.32 -3 13 C-3 9.05611769 -2.32331967 6.65858967 -1 3 C-0.67 2.01 -0.34 1.02 0 0 Z " fill="#63341C" transform="translate(162,58)"/>
<path d="M0 0 C2 1 2 1 4 3 C4.125 5.625 4.125 5.625 4 8 C4.66 8 5.32 8 6 8 C5.67 9.32 5.34 10.64 5 12 C3.35 12.33 1.7 12.66 0 13 C-2 10 -2 10 -1.7578125 7.51953125 C-1.54898438 6.62621094 -1.34015625 5.73289062 -1.125 4.8125 C-0.92132813 3.91144531 -0.71765625 3.01039062 -0.5078125 2.08203125 C-0.34023437 1.39496094 -0.17265625 0.70789063 0 0 Z " fill="#A97440" transform="translate(141,65)"/>
<path d="M0 0 C1.67542976 0.28604898 3.34385343 0.61781233 5 1 C5 1.99 5 2.98 5 4 C5.7425 4.103125 6.485 4.20625 7.25 4.3125 C10.17014018 5.04253504 11.73187554 6.06789398 14 8 C8.31906353 8.11139091 3.46249264 7.41620179 -2 6 C-1.125 1.125 -1.125 1.125 0 0 Z " fill="#F2EDD8" transform="translate(133,104)"/>
<path d="M0 0 C0.66 0 1.32 0 2 0 C2.33 1.32 2.66 2.64 3 4 C-0.20474376 6.83848733 -2.60921741 8.88445309 -7 9 C-8.8125 7.5625 -8.8125 7.5625 -10 6 C-7.875 3.9375 -7.875 3.9375 -5 2 C-1.6875 2.25 -1.6875 2.25 1 3 C0.67 2.01 0.34 1.02 0 0 Z " fill="#8E9455" transform="translate(164,107)"/>
<path d="M0 0 C0.99 0.99 1.98 1.98 3 3 C2.34 3.66 1.68 4.32 1 5 C1.99 5.99 2.98 6.98 4 8 C3.01 8.495 3.01 8.495 2 9 C1.27840576 10.64363134 0.60648579 12.31050386 0 14 C-0.45375 13.525625 -0.9075 13.05125 -1.375 12.5625 C-2.93258204 10.90972192 -2.93258204 10.90972192 -5 10 C-4.67 9.34 -4.34 8.68 -4 8 C-3.34 8 -2.68 8 -2 8 C-2.226875 7.4225 -2.45375 6.845 -2.6875 6.25 C-3 4 -3 4 -1.5625 1.75 C-1.046875 1.1725 -0.53125 0.595 0 0 Z " fill="#D3AE4F" transform="translate(138,56)"/>
<path d="M0 0 C1.65 1.32 3.3 2.64 5 4 C6.32 3.34 7.64 2.68 9 2 C9 2.66 9 3.32 9 4 C9.66 4 10.32 4 11 4 C11 4.66 11 5.32 11 6 C6.82229194 7.19363087 4.94244659 6.57697863 1 5 C-1.7336432 5.29519768 -1.7336432 5.29519768 -4 6 C-4.33 4.68 -4.66 3.36 -5 2 C-3.35 1.34 -1.7 0.68 0 0 Z " fill="#4C2B1C" transform="translate(156,86)"/>
<path d="M0 0 C0.66 0 1.32 0 2 0 C2.33 0.99 2.66 1.98 3 3 C3.825 3.433125 4.65 3.86625 5.5 4.3125 C8 6 8 6 8.9375 9 C9 12 9 12 7 15 C6.34 15 5.68 15 5 15 C4.90203125 14.37351562 4.8040625 13.74703125 4.703125 13.1015625 C4.55359375 12.28429687 4.4040625 11.46703125 4.25 10.625 C4.11078125 9.81289063 3.9715625 9.00078125 3.828125 8.1640625 C3.18250739 5.82290908 3.18250739 5.82290908 0.921875 4.7109375 C0.28765625 4.47632813 -0.3465625 4.24171875 -1 4 C-0.67 2.68 -0.34 1.36 0 0 Z " fill="#A16E38" transform="translate(146,52)"/>
<path d="M0 0 C2.96175123 0.61277612 4.38058783 1.25372522 7 3 C7 3.66 7 4.32 7 5 C5.02 5 3.04 5 1 5 C-0.32 7.31 -1.64 9.62 -3 12 C-5.31 11.67 -7.62 11.34 -10 11 C-10 10.67 -10 10.34 -10 10 C-8.02 10 -6.04 10 -4 10 C-3.67 9.01 -3.34 8.02 -3 7 C-2.34 7 -1.68 7 -1 7 C-1.99 5.35 -2.98 3.7 -4 2 C-2.68 2 -1.36 2 0 2 C0 1.34 0 0.68 0 0 Z " fill="#DFB237" transform="translate(153,91)"/>
<path d="M0 0 C0.04241723 2.33294775 0.04092937 4.66702567 0 7 C-1 8 -1 8 -3.72265625 8.09765625 C-5.37587891 8.08025391 -5.37587891 8.08025391 -7.0625 8.0625 C-8.16722656 8.05347656 -9.27195313 8.04445313 -10.41015625 8.03515625 C-11.69212891 8.01775391 -11.69212891 8.01775391 -13 8 C-13 7.67 -13 7.34 -13 7 C-9.535 6.505 -9.535 6.505 -6 6 C-6.33 4.68 -6.66 3.36 -7 2 C-4.35261084 0.5393715 -3.10551666 0 0 0 Z " fill="#BA9160" transform="translate(156,102)"/>
<path d="M0 0 C0.99 0 1.98 0 3 0 C3 0.66 3 1.32 3 2 C3.66 2.33 4.32 2.66 5 3 C2.53846154 7.8 2.53846154 7.8 -0.1875 8.8125 C-0.785625 8.874375 -1.38375 8.93625 -2 9 C-2.125 5.625 -2.125 5.625 -2 2 C-1.34 1.34 -0.68 0.68 0 0 Z " fill="#8E9356" transform="translate(178,92)"/>
<path d="M0 0 C0.66 0.99 1.32 1.98 2 3 C1.731875 3.515625 1.46375 4.03125 1.1875 4.5625 C-0.32349407 7.66401415 -1.65572726 10.82262806 -3 14 C-3.66 14 -4.32 14 -5 14 C-5.49304175 6.60437376 -5.49304175 6.60437376 -3.0625 3.625 C-2.0415625 2.820625 -2.0415625 2.820625 -1 2 C-0.67 1.34 -0.34 0.68 0 0 Z " fill="#B7B592" transform="translate(135,66)"/>
<path d="M0 0 C0.99 0.33 1.98 0.66 3 1 C3.8125 2.9375 3.8125 2.9375 4 5 C2 7 2 7 -1.125 7.125 C-2.548125 7.063125 -2.548125 7.063125 -4 7 C-3.43628586 3.73045798 -2.50037734 2.17424117 0 0 Z " fill="#8C9152" transform="translate(171,102)"/>
<path d="M0 0 C1.5778125 0.495 1.5778125 0.495 3.1875 1 C6.38873357 1.83966782 8.7411008 2.19750904 12 2 C11.67 2.99 11.34 3.98 11 5 C9.35 5 7.7 5 6 5 C5.67 5.99 5.34 6.98 5 8 C4.34 7.67 3.68 7.34 3 7 C3 6.34 3 5.68 3 5 C1.70766393 3.62689293 0.37562854 2.28965176 -1 1 C-0.67 0.67 -0.34 0.34 0 0 Z " fill="#E9E5E2" transform="translate(157,90)"/>
<path d="M0 0 C0.33 0.66 0.66 1.32 1 2 C1.99 2.33 2.98 2.66 4 3 C3.34 3.66 2.68 4.32 2 5 C2.32041397 7.60280568 2.32041397 7.60280568 3 10 C2.34 10 1.68 10 1 10 C0.67 11.65 0.34 13.3 0 15 C-0.99 14.01 -1.98 13.02 -3 12 C-2.34 12 -1.68 12 -1 12 C-0.87530901 6.42169984 -0.87530901 6.42169984 -2 1 C-1.34 0.67 -0.68 0.34 0 0 Z " fill="#3B2519" transform="translate(157,55)"/>
<path d="M0 0 C2 2 2 2 3 5 C3.66 5.33 4.32 5.66 5 6 C5 6.66 5 7.32 5 8 C5.66 8 6.32 8 7 8 C7 8.99 7 9.98 7 11 C6.401875 10.690625 5.80375 10.38125 5.1875 10.0625 C2.91043228 8.89790296 2.91043228 8.89790296 0 8 C-0.33 7.34 -0.66 6.68 -1 6 C-3.01669827 4.86649466 -3.01669827 4.86649466 -5 4 C-5 3.34 -5 2.68 -5 2 C-2.525 2.99 -2.525 2.99 0 4 C0 2.68 0 1.36 0 0 Z " fill="#BFB679" transform="translate(128,104)"/>
<path d="M0 0 C2.375 0.25 2.375 0.25 5 1 C7.17831524 3.90442032 7.19715281 6.45124947 7 10 C6.01 10 5.02 10 4 10 C3.06576355 6.98968256 2.95550089 6.13349732 4 3 C2.68 2.67 1.36 2.34 0 2 C0 1.34 0 0.68 0 0 Z " fill="#D3C99A" transform="translate(122,71)"/>
<path d="M0 0 C0.7425 0.474375 1.485 0.94875 2.25 1.4375 C4.61050015 2.77869327 6.36648477 3.512312 9 4 C8.01 5.485 8.01 5.485 7 7 C4.03 6.67 1.06 6.34 -2 6 C-2 5.01 -2 4.02 -2 3 C-1.34 3 -0.68 3 0 3 C0 2.01 0 1.02 0 0 Z " fill="#EDE8D8" transform="translate(130,94)"/>
<path d="M0 0 C0.66 0 1.32 0 2 0 C1.51171875 6.0546875 1.51171875 6.0546875 1 8 C0.01 8.66 -0.98 9.32 -2 10 C-2.99 8.35 -3.98 6.7 -5 5 C-4.34 5 -3.68 5 -3 5 C-2.67 4.34 -2.34 3.68 -2 3 C-1.34 2.01 -0.68 1.02 0 0 Z " fill="#402416" transform="translate(155,77)"/>
<path d="M0 0 C0.99 0.33 1.98 0.66 3 1 C3.125 3.375 3.125 3.375 3 6 C2.34 6.66 1.68 7.32 1 8 C1.33 8.66 1.66 9.32 2 10 C1.01 10 0.02 10 -1 10 C-1.9765625 3.9453125 -1.9765625 3.9453125 -2 2 C-1.34 1.34 -0.68 0.68 0 0 Z " fill="#919452" transform="translate(182,81)"/>
<path d="M0 0 C1.32 0.66 2.64 1.32 4 2 C4 3.32 4 4.64 4 6 C3.34 6.66 2.68 7.32 2 8 C-0.625 7.625 -0.625 7.625 -3 7 C-2.01 4.69 -1.02 2.38 0 0 Z " fill="#C28E82" transform="translate(149,111)"/>
<path d="M0 0 C0.99 0 1.98 0 3 0 C3 0.66 3 1.32 3 2 C2.34 2 1.68 2 1 2 C0.731875 2.61875 0.46375 3.2375 0.1875 3.875 C-1 6 -1 6 -4 8 C-4.99 8 -5.98 8 -7 8 C-7.33 7.01 -7.66 6.02 -8 5 C-7.13375 4.814375 -7.13375 4.814375 -6.25 4.625 C-3.97664233 3.99351176 -2.0746471 3.11141809 0 2 C0 1.34 0 0.68 0 0 Z " fill="#AD7D4B" transform="translate(154,75)"/>
<path d="M0 0 C1.65 1.65 3.3 3.3 5 5 C4.01 5.495 4.01 5.495 3 6 C2.67 6.99 2.34 7.98 2 9 C1.67 8.34 1.34 7.68 1 7 C0.01 7 -0.98 7 -2 7 C-2 5.68 -2 4.36 -2 3 C-2.66 3 -3.32 3 -4 3 C-4 2.34 -4 1.68 -4 1 C-2.68 1.33 -1.36 1.66 0 2 C0 1.34 0 0.68 0 0 Z " fill="#9C6838" transform="translate(169,67)"/>
<path d="M0 0 C1.98 0 3.96 0 6 0 C6 1.65 6 3.3 6 5 C4.02 5 2.04 5 0 5 C-0.33 4.34 -0.66 3.68 -1 3 C-0.67 2.01 -0.34 1.02 0 0 Z " fill="#69C1D9" transform="translate(156,103)"/>
<path d="M0 0 C6.875 0.875 6.875 0.875 8 2 C8.04080783 3.99958364 8.04254356 6.00045254 8 8 C7.34 7.67 6.68 7.34 6 7 C6 6.01 6 5.02 6 4 C4.35 4 2.7 4 1 4 C0.67 2.68 0.34 1.36 0 0 Z " fill="#C69738" transform="translate(132,77)"/>
<path d="M0 0 C0.33 0.66 0.66 1.32 1 2 C1.99 1.67 2.98 1.34 4 1 C4.99 1.99 5.98 2.98 7 4 C4.69 4.33 2.38 4.66 0 5 C-0.33 5.99 -0.66 6.98 -1 8 C-1.99 7.67 -2.98 7.34 -4 7 C-2.68 4.69 -1.36 2.38 0 0 Z " fill="#0D7B7F" transform="translate(153,96)"/>
<path d="M0 0 C0.99 0 1.98 0 3 0 C3 0.66 3 1.32 3 2 C2.34 2 1.68 2 1 2 C1.66 3.98 2.32 5.96 3 8 C1.35 7.67 -0.3 7.34 -2 7 C-2.125 4.625 -2.125 4.625 -2 2 C-1.34 1.34 -0.68 0.68 0 0 Z " fill="#BEBD93" transform="translate(130,58)"/>
<path d="M0 0 C1.9375 0.75 1.9375 0.75 4 2 C4.625 3.8125 4.625 3.8125 5 6 C5.6469365 7.6744239 6.30959426 9.34302621 7 11 C2.97841331 9.6594711 2.16886165 7.54247403 0 4 C-0.33 3.34 -0.66 2.68 -1 2 C-0.67 1.34 -0.34 0.68 0 0 Z " fill="#3F2619" transform="translate(162,58)"/>
<path d="M0 0 C2.1640625 0.0234375 2.1640625 0.0234375 4.625 0.375 C5.85089844 0.54128906 5.85089844 0.54128906 7.1015625 0.7109375 C7.72804687 0.80632812 8.35453125 0.90171875 9 1 C9 1.99 9 2.98 9 4 C5.37 3.34 1.74 2.68 -2 2 C-1.34 1.34 -0.68 0.68 0 0 Z " fill="#EEE9D7" transform="translate(155,100)"/>
<path d="M0 0 C0.33 0.66 0.66 1.32 1 2 C1.66 2 2.32 2 3 2 C2.34 3.32 1.68 4.64 1 6 C-1.31 6 -3.62 6 -6 6 C-4 4 -2 2 0 0 Z " fill="#1F8185" transform="translate(166,95)"/>
<path d="M0 0 C0.598125 0.165 1.19625 0.33 1.8125 0.5 C4.11344336 1.1114124 4.11344336 1.1114124 7 1 C7.33 1.99 7.66 2.98 8 4 C6.02 4.66 4.04 5.32 2 6 C1.34 4.02 0.68 2.04 0 0 Z " fill="#1A7476" transform="translate(144,94)"/>
<path d="M0 0 C0.33 0 0.66 0 1 0 C1.144375 1.051875 1.28875 2.10375 1.4375 3.1875 C1.9179186 6.85345837 1.9179186 6.85345837 2.6875 9.8125 C2.8421875 10.8953125 2.8421875 10.8953125 3 12 C2.34 12.66 1.68 13.32 1 14 C0.34 13.34 -0.32 12.68 -1 12 C-0.9765625 9.1796875 -0.9765625 9.1796875 -0.625 5.875 C-0.51414063 4.77929688 -0.40328125 3.68359375 -0.2890625 2.5546875 C-0.14597656 1.29011719 -0.14597656 1.29011719 0 0 Z " fill="#B4B4B4" transform="translate(172,77)"/>
<path d="M0 0 C2 1 2 1 4 3 C4.125 5.625 4.125 5.625 4 8 C4.66 8 5.32 8 6 8 C5.67 9.32 5.34 10.64 5 12 C3 10 3 10 2.875 7.375 C2.91625 6.59125 2.9575 5.8075 3 5 C1.68 5 0.36 5 -1 5 C-0.67 3.35 -0.34 1.7 0 0 Z " fill="#CA9C62" transform="translate(141,65)"/>
<path d="M0 0 C2.31 0.33 4.62 0.66 7 1 C7.33 1.99 7.66 2.98 8 4 C5.6875 4.625 5.6875 4.625 3 5 C2.01 4.34 1.02 3.68 0 3 C0 2.01 0 1.02 0 0 Z " fill="#0E7B7F" transform="translate(131,93)"/>
<path d="M0 0 C2.475 0.495 2.475 0.495 5 1 C5.33 2.65 5.66 4.3 6 6 C4.35 5.67 2.7 5.34 1 5 C0.67 3.35 0.34 1.7 0 0 Z " fill="#10797C" transform="translate(124,88)"/>
<path d="M0 0 C0.66 0 1.32 0 2 0 C2.33 0.99 2.66 1.98 3 3 C5.49759982 4.69882448 5.49759982 4.69882448 8 6 C7.67 7.32 7.34 8.64 7 10 C7 9.01 7 8.02 7 7 C6.01 7.33 5.02 7.66 4 8 C3.54625 7.525625 3.0925 7.05125 2.625 6.5625 C1.06741796 4.90972192 1.06741796 4.90972192 -1 4 C-0.67 2.68 -0.34 1.36 0 0 Z " fill="#B27E42" transform="translate(146,52)"/>
<path d="M0 0 C0.66 0 1.32 0 2 0 C2.33 1.32 2.66 2.64 3 4 C0.04335481 5.4783226 -2.74229737 5.06032783 -6 5 C-5.67 4.01 -5.34 3.02 -5 2 C-2.03 2.495 -2.03 2.495 1 3 C0.67 2.01 0.34 1.02 0 0 Z " fill="#AFAB71" transform="translate(164,107)"/>
<path d="M0 0 C1.10844919 3.32534757 0.84454356 5.62182575 0 9 C-1.32 7.68 -2.64 6.36 -4 5 C-2.25 1.125 -2.25 1.125 0 0 Z " fill="#888E4C" transform="translate(116,80)"/>
<path d="M0 0 C0.99 0.99 1.98 1.98 3 3 C2.34 3.66 1.68 4.32 1 5 C1.66 5.66 2.32 6.32 3 7 C1.35 7 -0.3 7 -2 7 C-2 3 -2 3 0 0 Z " fill="#C49A6E" transform="translate(138,56)"/>
<path d="M0 0 C3.82097239 0.53069061 6.06171403 1.49701566 9 4 C6.33333333 4 3.66666667 4 1 4 C0.67 2.68 0.34 1.36 0 0 Z " fill="#B48355" transform="translate(149,51)"/>
<path d="M0 0 C0.99 0 1.98 0 3 0 C3.103125 0.639375 3.20625 1.27875 3.3125 1.9375 C3.539375 2.618125 3.76625 3.29875 4 4 C4.99 4.33 5.98 4.66 7 5 C6.01 6.32 5.02 7.64 4 9 C3.67 8.01 3.34 7.02 3 6 C2.01 5.67 1.02 5.34 0 5 C0 3.35 0 1.7 0 0 Z " fill="#A58380" transform="translate(135,89)"/>
<path d="M0 0 C0.66 0.66 1.32 1.32 2 2 C1.34 2 0.68 2 0 2 C0.33 2.99 0.66 3.98 1 5 C-0.65 5.33 -2.3 5.66 -4 6 C-4.33 4.68 -4.66 3.36 -5 2 C-3.35 1.34 -1.7 0.68 0 0 Z " fill="#381F13" transform="translate(156,86)"/>
<path d="M0 0 C0.99 0.33 1.98 0.66 3 1 C3.99 1 4.98 1 6 1 C5.67 2.65 5.34 4.3 5 6 C4.01 6 3.02 6 2 6 C2 5.34 2 4.68 2 4 C1.34 4 0.68 4 0 4 C0 2.68 0 1.36 0 0 Z " fill="#E3D7A9" transform="translate(113,87)"/>
<path d="M0 0 C0.12375 0.639375 0.2475 1.27875 0.375 1.9375 C0.684375 2.9584375 0.684375 2.9584375 1 4 C1.66 4.33 2.32 4.66 3 5 C2.67 5.99 2.34 6.98 2 8 C1.34 8 0.68 8 0 8 C-1.98 4.535 -1.98 4.535 -4 1 C-2 0 -2 0 0 0 Z " fill="#754F39" transform="translate(164,72)"/>
<path d="M0 0 C0.33 0 0.66 0 1 0 C1.33 3.3 1.66 6.6 2 10 C1.01 10.495 1.01 10.495 0 11 C0 10.01 0 9.02 0 8 C-0.66 8 -1.32 8 -2 8 C-1.125 1.125 -1.125 1.125 0 0 Z " fill="#844E27" transform="translate(147,65)"/>
<path d="M0 0 C1.32 0.33 2.64 0.66 4 1 C4 2.65 4 4.3 4 6 C2.02 5.34 0.04 4.68 -2 4 C-1.34 2.68 -0.68 1.36 0 0 Z " fill="#848947" transform="translate(124,102)"/>
<path d="M0 0 C0.33 0 0.66 0 1 0 C1.12375 0.94875 1.2475 1.8975 1.375 2.875 C1.71687177 6.08667191 1.71687177 6.08667191 4 8 C2.68 8 1.36 8 0 8 C-0.33 8.66 -0.66 9.32 -1 10 C-1.33 7.69 -1.66 5.38 -2 3 C-1.34 3 -0.68 3 0 3 C0 2.01 0 1.02 0 0 Z " fill="#E0D4AB" transform="translate(175,95)"/>
<path d="M0 0 C0.99 0.99 1.98 1.98 3 3 C2.67 3.99 2.34 4.98 2 6 C0.35 5.67 -1.3 5.34 -3 5 C-2.67 4.34 -2.34 3.68 -2 3 C-1.34 3 -0.68 3 0 3 C0 2.01 0 1.02 0 0 Z " fill="#985625" transform="translate(145,83)"/>
<path d="M0 0 C3.35620271 1.38877354 5.07298728 2.91677965 7 6 C7 6.66 7 7.32 7 8 C6.34 8 5.68 8 5 8 C0 2.52380952 0 2.52380952 0 0 Z " fill="#935A35" transform="translate(165,58)"/>
<path d="M0 0 C2.9719385 1.12451727 5.33440687 2.22293791 8 4 C4.625 4.1875 4.625 4.1875 1 4 C0.34 3.01 -0.32 2.02 -1 1 C-0.67 0.67 -0.34 0.34 0 0 Z " fill="#F5F5F2" transform="translate(139,108)"/>
<path d="M0 0 C0.928125 0.2784375 0.928125 0.2784375 1.875 0.5625 C4.04160178 1.23686176 4.04160178 1.23686176 6 0 C6.33 1.65 6.66 3.3 7 5 C5.33333333 5 3.66666667 5 2 5 C2 4.34 2 3.68 2 3 C1.34 2.67 0.68 2.34 0 2 C0 1.34 0 0.68 0 0 Z " fill="#CABE81" transform="translate(117,98)"/>
<path d="M0 0 C3.3 0.33 6.6 0.66 10 1 C10 1.66 10 2.32 10 3 C6.7 3.33 3.4 3.66 0 4 C0 2.68 0 1.36 0 0 Z " fill="#EFF0EF" transform="translate(139,98)"/>
<path d="M0 0 C1.32 0.33 2.64 0.66 4 1 C2.6875 3.5 2.6875 3.5 1 6 C0.01 6 -0.98 6 -2 6 C-1.34 4.02 -0.68 2.04 0 0 Z " fill="#EA917C" transform="translate(169,91)"/>
<path d="M0 0 C2.475 0.99 2.475 0.99 5 2 C4.67 3.65 4.34 5.3 4 7 C3.01 6.67 2.02 6.34 1 6 C0.67 4.02 0.34 2.04 0 0 Z " fill="#6C4127" transform="translate(171,71)"/>
<path d="M0 0 C2 2 2 2 2 5 C-1 6 -1 6 -3.1875 5.0625 C-3.785625 4.711875 -4.38375 4.36125 -5 4 C-5 3.34 -5 2.68 -5 2 C-2.525 2.99 -2.525 2.99 0 4 C0 2.68 0 1.36 0 0 Z " fill="#A7AA7C" transform="translate(128,104)"/>
<path d="M0 0 C0 3 0 3 -1.125 4.75 C-3 6 -3 6 -6.1875 5.6875 C-7.115625 5.460625 -8.04375 5.23375 -9 5 C-9 4.67 -9 4.34 -9 4 C-7.02 4 -5.04 4 -3 4 C-2.67 3.01 -2.34 2.02 -2 1 C-1.34 0.67 -0.68 0.34 0 0 Z " fill="#91B1AC" transform="translate(152,97)"/>
<path d="M0 0 C2.64 0.33 5.28 0.66 8 1 C6.60804085 3.7839183 4.84424221 3.97898997 2 5 C1.34 3.35 0.68 1.7 0 0 Z " fill="#EFEDE6" transform="translate(130,80)"/>
<path d="M0 0 C1.32 0.66 2.64 1.32 4 2 C3.67 2.99 3.34 3.98 3 5 C1.02 4.34 -0.96 3.68 -3 3 C-2.01 2.01 -1.02 1.02 0 0 Z " fill="#8C4F25" transform="translate(141,59)"/>
<path d="M0 0 C0.928125 0.2784375 0.928125 0.2784375 1.875 0.5625 C4.04160178 1.23686176 4.04160178 1.23686176 6 0 C6 1.32 6 2.64 6 4 C3 5 3 5 0 4 C0 2.68 0 1.36 0 0 Z " fill="#D3CFCE" transform="translate(162,77)"/>
<path d="M0 0 C0.66 0.66 1.32 1.32 2 2 C4.58354218 2.16687448 4.58354218 2.16687448 7 2 C7 2.99 7 3.98 7 5 C6.01 5.33 5.02 5.66 4 6 C1.3125 4.0625 1.3125 4.0625 -1 2 C-0.67 1.34 -0.34 0.68 0 0 Z " fill="#7A401F" transform="translate(148,52)"/>
</svg>
