<?xml version="1.0" encoding="UTF-8"?>
<svg version="1.1" xmlns="http://www.w3.org/2000/svg" width="275" height="183">
<path d="M0 0 C90.75 0 181.5 0 275 0 C275 60.39 275 120.78 275 183 C184.25 183 93.5 183 0 183 C0 122.61 0 62.22 0 0 Z " fill="#FDFDFD" transform="translate(0,0)"/>
<path d="M0 0 C39.27 0 78.54 0 119 0 C119 24.09 119 48.18 119 73 C79.73 73 40.46 73 0 73 C0 48.91 0 24.82 0 0 Z " fill="#002C62" transform="translate(156,110)"/>
<path d="M0 0 C39.27 0 78.54 0 119 0 C119 24.09 119 48.18 119 73 C79.73 73 40.46 73 0 73 C0 48.91 0 24.82 0 0 Z " fill="#CE1125" transform="translate(0,110)"/>
<path d="M0 0 C39.27 0 78.54 0 119 0 C119 24.09 119 48.18 119 73 C79.73 73 40.46 73 0 73 C0 48.91 0 24.82 0 0 Z " fill="#CD1025" transform="translate(156,0)"/>
<path d="M0 0 C39.27 0 78.54 0 119 0 C119 24.09 119 48.18 119 73 C79.73 73 40.46 73 0 73 C0 48.91 0 24.82 0 0 Z " fill="#002C61" transform="translate(0,0)"/>
<path d="M0 0 C2.97 0 5.94 0 9 0 C9 0.66 9 1.32 9 2 C11.31 2.33 13.62 2.66 16 3 C16.33 3.99 16.66 4.98 17 6 C19.01508358 6.73323796 19.01508358 6.73323796 21 7 C20.34 7.66 19.68 8.32 19 9 C16.875 8.625 16.875 8.625 15 8 C15.33 9.32 15.66 10.64 16 12 C17.65 12 19.3 12 21 12 C23.08627681 19.15294905 23.53578613 24.99640021 21 32 C18.9375 33.3125 18.9375 33.3125 17 34 C16.67 34.99 16.34 35.98 16 37 C14.35 36.67 12.7 36.34 11 36 C11 35.34 11 34.68 11 34 C10.278125 34.309375 9.55625 34.61875 8.8125 34.9375 C6.19692691 35.92560539 3.74881018 36.5287754 1 37 C0.505 35.515 0.505 35.515 0 34 C-0.99 34 -1.98 34 -3 34 C-3.33 34.99 -3.66 35.98 -4 37 C-5.32 36.67 -6.64 36.34 -8 36 C-8 35.34 -8 34.68 -8 34 C-8.639375 33.731875 -9.27875 33.46375 -9.9375 33.1875 C-12 32 -12 32 -13 29 C-12.01 28.67 -11.02 28.34 -10 28 C-10.33 27.01 -10.66 26.02 -11 25 C-11.66 25 -12.32 25 -13 25 C-13.84454356 21.62182575 -14.10844919 19.32534757 -13 16 C-12.34 16 -11.68 16 -11 16 C-10.67 14.35 -10.34 12.7 -10 11 C-8.68 11.33 -7.36 11.66 -6 12 C-6.33 12.33 -6.66 12.66 -7 13 C-6.34 13.33 -5.68 13.66 -5 14 C-5.10828125 14.88751953 -5.10828125 14.88751953 -5.21875 15.79296875 C-5.69910023 19.88261722 -6.13310151 23.8738531 -6 28 C-2.32612505 28.85298376 1.0447393 29.10789471 4.8125 29.0625 C5.78832031 29.05347656 6.76414063 29.04445313 7.76953125 29.03515625 C8.50558594 29.02355469 9.24164063 29.01195313 10 29 C8.68 28.67 7.36 28.34 6 28 C6 26.68 6 25.36 6 24 C6.66 24 7.32 24 8 24 C8 22.68 8 21.36 8 20 C7.01 21.98 6.02 23.96 5 26 C4.34 26 3.68 26 3 26 C3 26.66 3 27.32 3 28 C0.625 28.125 0.625 28.125 -2 28 C-4 26 -4 26 -4.125 22.875 C-4.08375 21.92625 -4.0425 20.9775 -4 20 C-2.0625 20.3125 -2.0625 20.3125 0 21 C0.33 21.99 0.66 22.98 1 24 C1.66 24 2.32 24 3 24 C2.505 21.525 2.505 21.525 2 19 C2.99 19.33 3.98 19.66 5 20 C4.67 18.68 4.34 17.36 4 16 C3.34 16 2.68 16 2 16 C1.34 17.32 0.68 18.64 0 20 C-0.66 18.68 -1.32 17.36 -2 16 C-2.66 16 -3.32 16 -4 16 C-4 13.69 -4 11.38 -4 9 C-6.31 9 -8.62 9 -11 9 C-11 8.01 -11 7.02 -11 6 C-10.01 6 -9.02 6 -8 6 C-7.67 5.01 -7.34 4.02 -7 3 C-3.535 2.505 -3.535 2.505 0 2 C0 1.34 0 0.68 0 0 Z " fill="#D5D5D3" transform="translate(133,73)"/>
<path d="M0 0 C1.32 0.33 2.64 0.66 4 1 C3.67 1.33 3.34 1.66 3 2 C3.66 2.33 4.32 2.66 5 3 C4.9278125 3.59167969 4.855625 4.18335937 4.78125 4.79296875 C4.30089977 8.88261722 3.86689849 12.8738531 4 17 C10.39947087 18.42596905 17.24124501 19.54490279 23.125 16.25 C24.95275592 14.05669289 25.69895795 12.80972581 26 10 C25.34 9.67 24.68 9.34 24 9 C24.185625 8.443125 24.37125 7.88625 24.5625 7.3125 C25.07551165 4.600867 24.6640724 2.65628961 24 0 C26.31 0.33 28.62 0.66 31 1 C33.08627681 8.15294905 33.53578613 13.99640021 31 21 C28.9375 22.3125 28.9375 22.3125 27 23 C26.67 23.99 26.34 24.98 26 26 C24.35 25.67 22.7 25.34 21 25 C21 24.34 21 23.68 21 23 C19.9171875 23.4640625 19.9171875 23.4640625 18.8125 23.9375 C16.19692691 24.92560539 13.74881018 25.5287754 11 26 C10.67 25.01 10.34 24.02 10 23 C9.01 23 8.02 23 7 23 C6.67 23.99 6.34 24.98 6 26 C4.68 25.67 3.36 25.34 2 25 C2 24.34 2 23.68 2 23 C1.360625 22.731875 0.72125 22.46375 0.0625 22.1875 C-2 21 -2 21 -3 18 C-2.01 17.67 -1.02 17.34 0 17 C-0.33 16.01 -0.66 15.02 -1 14 C-1.66 14 -2.32 14 -3 14 C-3.84454356 10.62182575 -4.10844919 8.32534757 -3 5 C-2.34 5 -1.68 5 -1 5 C-0.67 3.35 -0.34 1.7 0 0 Z " fill="#B64D4D" transform="translate(123,84)"/>
<path d="M0 0 C2.31 0.33 4.62 0.66 7 1 C9.08627681 8.15294905 9.53578613 13.99640021 7 21 C4.9375 22.3125 4.9375 22.3125 3 23 C2.67 23.99 2.34 24.98 2 26 C0.35 25.67 -1.3 25.34 -3 25 C-3 24.34 -3 23.68 -3 23 C-3.99 22.67 -4.98 22.34 -6 22 C-4.68 22 -3.36 22 -2 22 C-2 21.34 -2 20.68 -2 20 C-2.66 20 -3.32 20 -4 20 C-3 17 -3 17 -1 15.5625 C1.29189635 13.77195598 1.61121002 12.81872737 2 10 C1.34 9.67 0.68 9.34 0 9 C0.185625 8.443125 0.37125 7.88625 0.5625 7.3125 C1.07551165 4.600867 0.6640724 2.65628961 0 0 Z " fill="#B74042" transform="translate(147,84)"/>
<path d="M0 0 C1.32 0.33 2.64 0.66 4 1 C3.67 1.33 3.34 1.66 3 2 C3.66 2.33 4.32 2.66 5 3 C4.9278125 3.59167969 4.855625 4.18335937 4.78125 4.79296875 C4.30089977 8.88261722 3.86689849 12.8738531 4 17 C5.32 17.33 6.64 17.66 8 18 C8 18.66 8 19.32 8 20 C5.69 19.67 3.38 19.34 1 19 C0.34 17.35 -0.32 15.7 -1 14 C-1.66 14 -2.32 14 -3 14 C-3.84454356 10.62182575 -4.10844919 8.32534757 -3 5 C-2.34 5 -1.68 5 -1 5 C-0.67 3.35 -0.34 1.7 0 0 Z " fill="#3C8A46" transform="translate(123,84)"/>
<path d="M0 0 C2.97 0 5.94 0 9 0 C9 0.66 9 1.32 9 2 C11.31 2.33 13.62 2.66 16 3 C16.33 3.99 16.66 4.98 17 6 C19.01508358 6.73323796 19.01508358 6.73323796 21 7 C20.34 7.66 19.68 8.32 19 9 C17.35 8.34 15.7 7.68 14 7 C14 6.34 14 5.68 14 5 C12.9275 5.020625 11.855 5.04125 10.75 5.0625 C7.8192941 5.0136549 5.76040886 4.743187 3 4 C2.67 4.33 2.34 4.66 2 5 C-0.33297433 5.04092937 -2.66705225 5.04241723 -5 5 C-5 5.66 -5 6.32 -5 7 C-6.98 7.66 -8.96 8.32 -11 9 C-11 8.01 -11 7.02 -11 6 C-10.01 6 -9.02 6 -8 6 C-7.67 5.01 -7.34 4.02 -7 3 C-3.535 2.505 -3.535 2.505 0 2 C0 1.34 0 0.68 0 0 Z " fill="#575F65" transform="translate(133,73)"/>
<path d="M0 0 C3.63 0 7.26 0 11 0 C10.01 0.495 10.01 0.495 9 1 C9.33 1.99 9.66 2.98 10 4 C9.34 4 8.68 4 8 4 C8.33 4.9075 8.66 5.815 9 6.75 C10.33378848 11.08481256 10.14049569 14.66611636 9 19 C7 21 7 21 3.375 21.125 C2.26125 21.08375 1.1475 21.0425 0 21 C0 19.68 0 18.36 0 17 C0.66 17 1.32 17 2 17 C2.309375 16.05125 2.61875 15.1025 2.9375 14.125 C4 11 4 11 5 9 C5.66 9 6.32 9 7 9 C7 6.69 7 4.38 7 2 C4.69 1.67 2.38 1.34 0 1 C0 0.67 0 0.34 0 0 Z " fill="#C8CDBE" transform="translate(139,80)"/>
<path d="M0 0 C0.99 0.33 1.98 0.66 3 1 C3.6875 3.0625 3.6875 3.0625 4 5 C3.01 5.495 3.01 5.495 2 6 C2 6.99 2 7.98 2 9 C1.34 9 0.68 9 0 9 C-0.66 8.01 -1.32 7.02 -2 6 C-2.99 5.67 -3.98 5.34 -5 5 C-4.34 7.31 -3.68 9.62 -3 12 C-1.35 12.33 0.3 12.66 2 13 C2 12.34 2 11.68 2 11 C2.66 11 3.32 11 4 11 C4.12375 10.401875 4.2475 9.80375 4.375 9.1875 C5 7 5 7 7 4 C7.66 4.66 8.32 5.32 9 6 C8.01 7.485 8.01 7.485 7 9 C6.34 9 5.68 9 5 9 C5 10.32 5 11.64 5 13 C6.65 13 8.3 13 10 13 C9.67 13.66 9.34 14.32 9 15 C2.88909517 15.09945415 -2.97403427 15.0712828 -9 14 C-8.34 13.67 -7.68 13.34 -7 13 C-7.20625 12.071875 -7.4125 11.14375 -7.625 10.1875 C-8 7 -8 7 -6 4 C-3.9375 3.25 -3.9375 3.25 -2 3 C-1.67 3.33 -1.34 3.66 -1 4 C-0.67 2.68 -0.34 1.36 0 0 Z " fill="#DCDFD8" transform="translate(134,88)"/>
<path d="M0 0 C0.66 0 1.32 0 2 0 C2 0.66 2 1.32 2 2 C2.66 2 3.32 2 4 2 C5.29925791 6.33085971 6.343621 10.51474352 7 15 C5.02 15.99 5.02 15.99 3 17 C3 17.66 3 18.32 3 19 C0.69 19.33 -1.62 19.66 -4 20 C-3 17 -3 17 -1 15.5625 C1.29189635 13.77195598 1.61121002 12.81872737 2 10 C1.34 9.67 0.68 9.34 0 9 C0.185625 8.443125 0.37125 7.88625 0.5625 7.3125 C1.07551165 4.600867 0.6640724 2.65628961 0 0 Z " fill="#0B7620" transform="translate(147,84)"/>
<path d="M0 0 C2.64 0 5.28 0 8 0 C7.67 2.64 7.34 5.28 7 8 C6.34 8 5.68 8 5 8 C4.67 9.32 4.34 10.64 4 12 C3.34 12 2.68 12 2 12 C2 10.68 2 9.36 2 8 C1.34 8 0.68 8 0 8 C0 5.36 0 2.72 0 0 Z " fill="#C83627" transform="translate(139,81)"/>
<path d="M0 0 C2.64 0 5.28 0 8 0 C8.36923077 7.38461538 8.36923077 7.38461538 6.5 10.5 C6.005 10.995 5.51 11.49 5 12 C4.34 10.68 3.68 9.36 3 8 C2.34 8 1.68 8 1 8 C0.67 5.36 0.34 2.72 0 0 Z " fill="#545A59" transform="translate(128,81)"/>
<path d="M0 0 C0.20086443 3.71599191 0.1519437 4.77208445 -2 8 C-2.66 8 -3.32 8 -4 8 C-4 8.66 -4 9.32 -4 10 C-6.375 10.125 -6.375 10.125 -9 10 C-11 8 -11 8 -11.125 4.875 C-11.08375 3.92625 -11.0425 2.9775 -11 2 C-9.0625 2.3125 -9.0625 2.3125 -7 3 C-6.67 3.99 -6.34 4.98 -6 6 C-5.34 6 -4.68 6 -4 6 C-4.33 4.35 -4.66 2.7 -5 1 C-1.125 0 -1.125 0 0 0 Z " fill="#C11D2E" transform="translate(140,91)"/>
<path d="M0 0 C1.86323318 0.25288812 3.71708432 0.57690153 5.5625 0.9375 C6.57441406 1.13214844 7.58632812 1.32679687 8.62890625 1.52734375 C9.80259766 1.76130859 9.80259766 1.76130859 11 2 C11 2.66 11 3.32 11 4 C4.73 4 -1.54 4 -8 4 C-8 3.34 -8 2.68 -8 2 C-6.865625 1.855625 -5.73125 1.71125 -4.5625 1.5625 C-1.19222799 1.38828522 -1.19222799 1.38828522 0 0 Z " fill="#FBFCFC" transform="translate(136,76)"/>
<path d="M0 0 C1.18851563 0.00902344 2.37703125 0.01804687 3.6015625 0.02734375 C4.51679688 0.03894531 5.43203125 0.05054687 6.375 0.0625 C6.375 0.7225 6.375 1.3825 6.375 2.0625 C1.08269231 5.13942308 1.08269231 5.13942308 -2.5 4.75 C-3.20125 4.523125 -3.9025 4.29625 -4.625 4.0625 C-4.625 3.4025 -4.625 2.7425 -4.625 2.0625 C-5.945 1.7325 -7.265 1.4025 -8.625 1.0625 C-5.74084117 -0.37957941 -3.20778472 -0.03144887 0 0 Z " fill="#CF420C" transform="translate(138.625,103.9375)"/>
<path d="M0 0 C1.32 0.33 2.64 0.66 4 1 C3.67 1.33 3.34 1.66 3 2 C3.66 2.33 4.32 2.66 5 3 C4.34 6.63 3.68 10.26 3 14 C2.34 13.67 1.68 13.34 1 13 C1.33 11.02 1.66 9.04 2 7 C0.35 7.33 -1.3 7.66 -3 8 C-3 7.01 -3 6.02 -3 5 C-2.34 5 -1.68 5 -1 5 C-0.67 3.35 -0.34 1.7 0 0 Z " fill="#2D863C" transform="translate(123,84)"/>
<path d="M0 0 C0.99 0.66 1.98 1.32 3 2 C2.01 3.485 2.01 3.485 1 5 C0.34 5 -0.32 5 -1 5 C-1 6.32 -1 7.64 -1 9 C0.65 9 2.3 9 4 9 C3.67 9.66 3.34 10.32 3 11 C1.20866022 11.05391993 -0.58313899 11.09275571 -2.375 11.125 C-3.37273437 11.14820312 -4.37046875 11.17140625 -5.3984375 11.1953125 C-8 11 -8 11 -10 9 C-8.02 9 -6.04 9 -4 9 C-4 8.34 -4 7.68 -4 7 C-3.34 7 -2.68 7 -2 7 C-1.855625 6.401875 -1.71125 5.80375 -1.5625 5.1875 C-1.1127561 3.43849596 -0.57107659 1.71322977 0 0 Z " fill="#FBFDFC" transform="translate(140,92)"/>
<path d="M0 0 C2.97 0.495 2.97 0.495 6 1 C6 3.31 6 5.62 6 8 C6.66 8 7.32 8 8 8 C8 8.99 8 9.98 8 11 C6.35 11.33 4.7 11.66 3 12 C3.33 11.01 3.66 10.02 4 9 C3.34 8.67 2.68 8.34 2 8 C2.99 8 3.98 8 5 8 C5 7.34 5 6.68 5 6 C3.68 5.67 2.36 5.34 1 5 C1.66 4.67 2.32 4.34 3 4 C2.01 3.67 1.02 3.34 0 3 C0 2.01 0 1.02 0 0 Z " fill="#F1F4F1" transform="translate(123,81)"/>
<path d="M0 0 C1.65 0 3.3 0 5 0 C6.47093248 5.04319708 7.85290416 9.99567523 5.75 14.9375 C4 17 4 17 1 18 C1 17.34 1 16.68 1 16 C1.99 15.34 2.98 14.68 4 14 C3.71926927 11.85270859 3.42511501 9.70716807 3.125 7.5625 C2.96257812 6.36753906 2.80015625 5.17257813 2.6328125 3.94140625 C2.42398438 2.97074219 2.21515625 2.00007813 2 1 C1.34 0.67 0.68 0.34 0 0 Z " fill="#9CBB91" transform="translate(149,85)"/>
<path d="M0 0 C0.99 0 1.98 0 3 0 C3.125 2.875 3.125 2.875 3 6 C1 8 1 8 -1.625 8.125 C-2.40875 8.08375 -3.1925 8.0425 -4 8 C-4 6.68 -4 5.36 -4 4 C-3.34 4 -2.68 4 -2 4 C-1.34 2.68 -0.68 1.36 0 0 Z " fill="#55294E" transform="translate(143,93)"/>
<path d="M0 0 C0.66 0 1.32 0 2 0 C2 0.66 2 1.32 2 2 C2.66 2 3.32 2 4 2 C6 8.75 6 8.75 6 11 C3.03 10.505 3.03 10.505 0 10 C0.185625 9.278125 0.37125 8.55625 0.5625 7.8125 C1.01995307 4.87173027 0.73516357 2.85896942 0 0 Z " fill="#1B802F" transform="translate(147,84)"/>
<path d="M0 0 C1.32 0 2.64 0 4 0 C3.773125 0.598125 3.54625 1.19625 3.3125 1.8125 C3.209375 2.534375 3.10625 3.25625 3 4 C3.474375 4.474375 3.94875 4.94875 4.4375 5.4375 C6 7 6 7 6.1875 9.6875 C6.125625 10.450625 6.06375 11.21375 6 12 C5.01 11.34 4.02 10.68 3 10 C3 9.34 3 8.68 3 8 C2.34 8 1.68 8 1 8 C0.67 5.36 0.34 2.72 0 0 Z " fill="#0E285C" transform="translate(128,81)"/>
<path d="M0 0 C0.99 0.33 1.98 0.66 3 1 C3.6875 3.0625 3.6875 3.0625 4 5 C3.01 5.495 3.01 5.495 2 6 C2 6.99 2 7.98 2 9 C1.34 9 0.68 9 0 9 C-0.66 7.68 -1.32 6.36 -2 5 C-1.34 5 -0.68 5 0 5 C0 3.35 0 1.7 0 0 Z " fill="#E4E0E0" transform="translate(134,88)"/>
<path d="M0 0 C0.99 0.66 1.98 1.32 3 2 C2.01 3.485 2.01 3.485 1 5 C0.34 5 -0.32 5 -1 5 C-1 6.65 -1 8.3 -1 10 C-1.99 10 -2.98 10 -4 10 C-4 9.01 -4 8.02 -4 7 C-3.34 7 -2.68 7 -2 7 C-1.855625 6.401875 -1.71125 5.80375 -1.5625 5.1875 C-1.1127561 3.43849596 -0.57107659 1.71322977 0 0 Z " fill="#EDECED" transform="translate(140,92)"/>
<path d="M0 0 C0.33 0 0.66 0 1 0 C1.125 6.75 1.125 6.75 0 9 C-0.66 9 -1.32 9 -2 9 C-2.125 5.625 -2.125 5.625 -2 2 C-1.34 1.34 -0.68 0.68 0 0 Z " fill="#324160" transform="translate(143,84)"/>
<path d="M0 0 C1.32 0.66 2.64 1.32 4 2 C3.34 2 2.68 2 2 2 C2 2.66 2 3.32 2 4 C0.02 4.66 -1.96 5.32 -4 6 C-4 5.01 -4 4.02 -4 3 C-3.01 3 -2.02 3 -1 3 C-0.67 2.01 -0.34 1.02 0 0 Z " fill="#1E315B" transform="translate(126,76)"/>
<path d="M0 0 C0.36923077 4.55384615 0.36923077 4.55384615 -1.5 6.8125 C-1.995 7.204375 -2.49 7.59625 -3 8 C-3.66 5.69 -4.32 3.38 -5 1 C-1.125 0 -1.125 0 0 0 Z " fill="#853C4D" transform="translate(140,91)"/>
<path d="M0 0 C0.99 0.33 1.98 0.66 3 1 C3 1.66 3 2.32 3 3 C4.32 3.33 5.64 3.66 7 4 C6.34 4.66 5.68 5.32 5 6 C2.5625 5.1875 2.5625 5.1875 0 4 C-0.33 3.01 -0.66 2.02 -1 1 C-0.67 0.67 -0.34 0.34 0 0 Z " fill="#303D54" transform="translate(147,76)"/>
<path d="M0 0 C-0.33 1.65 -0.66 3.3 -1 5 C-2.32 5 -3.64 5 -5 5 C-5.33 4.01 -5.66 3.02 -6 2 C-3 0 -3 0 0 0 Z " fill="#91B28D" transform="translate(125,91)"/>
<path d="M0 0 C2.31 0 4.62 0 7 0 C7.33 0.66 7.66 1.32 8 2 C5.69 2.33 3.38 2.66 1 3 C0.67 2.01 0.34 1.02 0 0 Z " fill="#8A1F16" transform="translate(134,106)"/>
<path d="M0 0 C2.64 0.99 5.28 1.98 8 3 C5 5 5 5 2.3125 4.625 C1.549375 4.41875 0.78625 4.2125 0 4 C-0.33 3.01 -0.66 2.02 -1 1 C-0.67 0.67 -0.34 0.34 0 0 Z " fill="#B3474C" transform="translate(121,101)"/>
<path d="M0 0 C0.33 0 0.66 0 1 0 C1 1.98 1 3.96 1 6 C1.99 6 2.98 6 4 6 C3.67 6.99 3.34 7.98 3 9 C2.01 8.67 1.02 8.34 0 8 C-1.09658936 4.71023192 -0.79953138 3.28696233 0 0 Z " fill="#D6CEA7" transform="translate(137,83)"/>
<path d="M0 0 C1.98 0 3.96 0 6 0 C6 0.66 6 1.32 6 2 C5.34 2 4.68 2 4 2 C4 2.66 4 3.32 4 4 C3.01 4 2.02 4 1 4 C0.67 2.68 0.34 1.36 0 0 Z " fill="#EFF1EC" transform="translate(148,81)"/>
</svg>
