<?xml version="1.0" encoding="UTF-8"?>
<svg version="1.1" xmlns="http://www.w3.org/2000/svg" width="284" height="177">
<path d="M0 0 C93.72 0 187.44 0 284 0 C284 58.41 284 116.82 284 177 C190.28 177 96.56 177 0 177 C0 118.59 0 60.18 0 0 Z " fill="#4997D0" transform="translate(0,0)"/>
<path d="M0 0 C31.35 0 62.7 0 95 0 C95 58.41 95 116.82 95 177 C63.65 177 32.3 177 0 177 C0 118.59 0 60.18 0 0 Z " fill="#4997D0" transform="translate(189,0)"/>
<path d="M0 0 C31.02 0 62.04 0 94 0 C94 58.41 94 116.82 94 177 C62.98 177 31.96 177 0 177 C0 118.59 0 60.18 0 0 Z " fill="#FEFEFE" transform="translate(95,0)"/>
<path d="M0 0 C0.99 0 1.98 0 3 0 C3.25007813 0.59167969 3.50015625 1.18335938 3.7578125 1.79296875 C5.16912841 4.30049545 6.59268992 5.57708309 8.875 7.3125 C9.89207031 8.11107422 9.89207031 8.11107422 10.9296875 8.92578125 C12.92315502 10.18738015 12.92315502 10.18738015 15.09765625 9.859375 C18.20355099 8.4563014 19.85449255 5.58561155 22 3 C22.99 3 23.98 3 25 3 C27.27837542 5.27837542 27.96646289 6.50812237 28.1875 9.75 C28.0946875 10.86375 28.0946875 10.86375 28 12 C28.99 11.34 29.98 10.68 31 10 C31 12.66666667 31 15.33333333 31 18 C31.3403125 19.423125 31.3403125 19.423125 31.6875 20.875 C32.06399793 24.63997935 31.19889056 26.00950884 29 29 C30.32 28.34 31.64 27.68 33 27 C33 29 33 31 33 33 C30.5 34.625 30.5 34.625 28 36 C29.1490712 37.2981424 29.1490712 37.2981424 32 38 C29 40 26 42 23 44 C23.66 44.66 24.32 45.32 25 46 C22.375 49.875 22.375 49.875 19 51 C18.67 51.99 18.34 52.98 18 54 C13.13958891 54.95302178 10.48021445 55.0160965 6 53 C3.67402489 52.6186926 1.34087842 52.27539746 -1 52 C0.32 50.68 1.64 49.36 3 48 C3.99 48.495 3.99 48.495 5 49 C4.67 49.33 4.34 49.66 4 50 C4.99 50.495 4.99 50.495 6 51 C6.59222907 47.98735648 7.05823431 45.07583023 7 42 C5.24905348 39.4094273 5.24905348 39.4094273 3 38 C0.13496932 39.2843241 -2.15427705 40.41598787 -4 43 C-4.25048636 46.12549017 -4.25048636 46.12549017 -4 49 C-5.32 49.66 -6.64 50.32 -8 51 C-7.34 51.33 -6.68 51.66 -6 52 C-6.66 52.66 -7.32 53.32 -8 54 C-11.625 53.625 -11.625 53.625 -15 53 C-14.34 52.01 -13.68 51.02 -13 50 C-15.31 49.67 -17.62 49.34 -20 49 C-20.309375 47.88625 -20.61875 46.7725 -20.9375 45.625 C-21.82326483 42.2054845 -21.82326483 42.2054845 -23 40 C-22.01 40 -21.02 40 -20 40 C-23.465 38.515 -23.465 38.515 -27 37 C-26.34 36.34 -25.68 35.68 -25 35 C-26.32 34.01 -27.64 33.02 -29 32 C-28.01 31.67 -27.02 31.34 -26 31 C-25.34 31.33 -24.68 31.66 -24 32 C-24 31.34 -24 30.68 -24 30 C-25.32 29.67 -26.64 29.34 -28 29 C-28 28.01 -28 27.02 -28 26 C-26.515 26.99 -26.515 26.99 -25 28 C-25.33 27.67 -25.66 27.34 -26 27 C-28.63150043 23.05274935 -27.8170559 21.60522418 -27 17 C-26.80129824 15.35548146 -26.61387833 13.70956232 -26.4375 12.0625 C-26.31181641 10.90427734 -26.31181641 10.90427734 -26.18359375 9.72265625 C-26.12300781 9.15417969 -26.06242187 8.58570312 -26 8 C-25.34 9.32 -24.68 10.64 -24 12 C-21.83125748 11.49396008 -20.00032373 11.00016187 -18 10 C-17.25 11.625 -17.25 11.625 -17 14 C-17.99 15.3303125 -17.99 15.3303125 -19 16.6875 C-21.43798627 20.72541475 -21.09115513 22.57248426 -20.26171875 27.046875 C-20 29 -20 29 -21 31 C-20.34 31 -19.68 31 -19 31 C-17.515 34.465 -17.515 34.465 -16 38 C-15.34 38 -14.68 38 -14 38 C-13.67 37.01 -13.34 36.02 -13 35 C-12.29875 34.38125 -11.5975 33.7625 -10.875 33.125 C-10.25625 32.42375 -9.6375 31.7225 -9 31 C-9.14025199 28.29294488 -9.14025199 28.29294488 -10 26 C-8.02 26.33 -6.04 26.66 -4 27 C-4 27.66 -4 28.32 -4 29 C-2.35 29 -0.7 29 1 29 C1 28.34 1 27.68 1 27 C8.625 25.875 8.625 25.875 12 27 C12.66 26.67 13.32 26.34 14 26 C14.08131463 24.56344146 14.13933559 23.1255517 14.1875 21.6875 C14.22230469 20.88699219 14.25710937 20.08648437 14.29296875 19.26171875 C13.93256507 16.47940234 12.99343154 15.86786105 11 14 C11 13.01 11 12.02 11 11 C10.113125 10.896875 9.22625 10.79375 8.3125 10.6875 C4.78861228 9.95612708 2.70502348 9.38678542 0 7 C-0.3125 3.3125 -0.3125 3.3125 0 0 Z " fill="#F0F2EE" transform="translate(140,61)"/>
<path d="M0 0 C0.33 0.66 0.66 1.32 1 2 C1.99 1.67 2.98 1.34 4 1 C4.28875 1.639375 4.5775 2.27875 4.875 2.9375 C5.82823451 5.15206079 5.82823451 5.15206079 8 6 C10.04537776 5.83196613 12.08695025 5.61616134 14.125 5.375 C20.05739955 4.84167662 23.68619802 5.39519511 29 8 C29 8.99 29 9.98 29 11 C29.99 11.33 30.98 11.66 32 12 C33.20272819 14.40545638 33.10071472 15.94996953 33.0625 18.625 C33.05347656 19.44226563 33.04445312 20.25953125 33.03515625 21.1015625 C33.02355469 21.72804688 33.01195312 22.35453125 33 23 C29.42979269 24.68593123 27.75593417 25.03611977 24 24 C23.34 24.66 22.68 25.32 22 26 C22 25.34 22 24.68 22 24 C21.01 24 20.02 24 19 24 C19 24.66 19 25.32 19 26 C17.35 26 15.7 26 14 26 C14 25.34 14 24.68 14 24 C12.35 24 10.7 24 9 24 C9.226875 24.763125 9.45375 25.52625 9.6875 26.3125 C10 29 10 29 8.6875 30.8125 C7 32 7 32 5 32 C4.8453125 32.9590625 4.8453125 32.9590625 4.6875 33.9375 C4.460625 34.618125 4.23375 35.29875 4 36 C2.515 36.495 2.515 36.495 1 37 C0.34 34.03 -0.32 31.06 -1 28 C-1.66 28 -2.32 28 -3 28 C-4.58295647 18.33020068 -4.58295647 18.33020068 -3.140625 15.0390625 C-2.12515157 13.6688689 -1.06539663 12.33174578 0 11 C-0.33 10.01 -0.66 9.02 -1 8 C-2.32 8 -3.64 8 -5 8 C-5 5.69 -5 3.38 -5 1 C-3.35 0.67 -1.7 0.34 0 0 Z " fill="#F5EBA4" transform="translate(122,64)"/>
<path d="M0 0 C0.99 0 1.98 0 3 0 C3.25007813 0.59167969 3.50015625 1.18335938 3.7578125 1.79296875 C5.16534521 4.29377372 6.63278284 5.53987927 8.875 7.3125 C13.74758412 11.52950007 16.58245105 14.73914157 17.41015625 21.203125 C17.74551014 29.14843252 16.70620366 35.45409855 12 42 C11.01 42.495 11.01 42.495 10 43 C10.32552083 40.98177083 10.65104167 38.96354167 10.9765625 36.9453125 C10.98429687 36.30335937 10.99203125 35.66140625 11 35 C9.24037679 32.82857996 9.24037679 32.82857996 7.08203125 32.76953125 C4.71863364 32.81427716 2.36119146 32.88774664 0 33 C-1.258125 33.04125 -2.51625 33.0825 -3.8125 33.125 C-7.26169811 33.74445517 -7.26169811 33.74445517 -9.4375 36.9375 C-11.15149011 39.72390927 -11.15149011 39.72390927 -11 42 C-10.01 42 -9.02 42 -8 42 C-7.67 42.66 -7.34 43.32 -7 44 C-6.34 44 -5.68 44 -5 44 C-4.67 45.65 -4.34 47.3 -4 49 C-5.32 49.66 -6.64 50.32 -8 51 C-7.34 51.33 -6.68 51.66 -6 52 C-6.66 52.66 -7.32 53.32 -8 54 C-11.625 53.625 -11.625 53.625 -15 53 C-14.34 52.01 -13.68 51.02 -13 50 C-15.31 49.67 -17.62 49.34 -20 49 C-20.309375 47.88625 -20.61875 46.7725 -20.9375 45.625 C-21.82326483 42.2054845 -21.82326483 42.2054845 -23 40 C-22.01 40 -21.02 40 -20 40 C-23.465 38.515 -23.465 38.515 -27 37 C-26.34 36.34 -25.68 35.68 -25 35 C-26.32 34.01 -27.64 33.02 -29 32 C-28.01 31.67 -27.02 31.34 -26 31 C-25.34 31.33 -24.68 31.66 -24 32 C-24 31.34 -24 30.68 -24 30 C-25.32 29.67 -26.64 29.34 -28 29 C-28 28.01 -28 27.02 -28 26 C-26.515 26.99 -26.515 26.99 -25 28 C-25.33 27.67 -25.66 27.34 -26 27 C-28.63150043 23.05274935 -27.8170559 21.60522418 -27 17 C-26.80129824 15.35548146 -26.61387833 13.70956232 -26.4375 12.0625 C-26.31181641 10.90427734 -26.31181641 10.90427734 -26.18359375 9.72265625 C-26.12300781 9.15417969 -26.06242187 8.58570312 -26 8 C-25.34 9.32 -24.68 10.64 -24 12 C-21.83125748 11.49396008 -20.00032373 11.00016187 -18 10 C-17.25 11.625 -17.25 11.625 -17 14 C-17.99 15.3303125 -17.99 15.3303125 -19 16.6875 C-21.43798627 20.72541475 -21.09115513 22.57248426 -20.26171875 27.046875 C-20 29 -20 29 -21 31 C-20.34 31 -19.68 31 -19 31 C-17.515 34.465 -17.515 34.465 -16 38 C-15.34 38 -14.68 38 -14 38 C-13.67 37.01 -13.34 36.02 -13 35 C-12.29875 34.38125 -11.5975 33.7625 -10.875 33.125 C-10.25625 32.42375 -9.6375 31.7225 -9 31 C-9.14025199 28.29294488 -9.14025199 28.29294488 -10 26 C-8.02 26.33 -6.04 26.66 -4 27 C-4 27.66 -4 28.32 -4 29 C-2.35 29 -0.7 29 1 29 C1 28.34 1 27.68 1 27 C8.625 25.875 8.625 25.875 12 27 C12.66 26.67 13.32 26.34 14 26 C14.08131463 24.56344146 14.13933559 23.1255517 14.1875 21.6875 C14.22230469 20.88699219 14.25710937 20.08648437 14.29296875 19.26171875 C13.93256507 16.47940234 12.99343154 15.86786105 11 14 C11 13.01 11 12.02 11 11 C10.113125 10.896875 9.22625 10.79375 8.3125 10.6875 C4.78861228 9.95612708 2.70502348 9.38678542 0 7 C-0.3125 3.3125 -0.3125 3.3125 0 0 Z " fill="#E3CF7D" transform="translate(140,61)"/>
<path d="M0 0 C0.99 0 1.98 0 3 0 C5.27837542 2.27837542 5.96646289 3.50812237 6.1875 6.75 C6.0946875 7.86375 6.0946875 7.86375 6 9 C6.99 8.34 7.98 7.68 9 7 C9 9.66666667 9 12.33333333 9 15 C9.3403125 16.423125 9.3403125 16.423125 9.6875 17.875 C10.06399793 21.63997935 9.19889056 23.00950884 7 26 C8.32 25.34 9.64 24.68 11 24 C11 26 11 28 11 30 C8.5 31.625 8.5 31.625 6 33 C7.1490712 34.2981424 7.1490712 34.2981424 10 35 C7 37 4 39 1 41 C1.66 41.66 2.32 42.32 3 43 C0.375 46.875 0.375 46.875 -3 48 C-3.33 48.99 -3.66 49.98 -4 51 C-8.86041109 51.95302178 -11.51978555 52.0160965 -16 50 C-18.32597511 49.6186926 -20.65912158 49.27539746 -23 49 C-21.68 47.68 -20.36 46.36 -19 45 C-18.34 45.33 -17.68 45.66 -17 46 C-17.495 46.495 -17.495 46.495 -18 47 C-17.34 47.33 -16.68 47.66 -16 48 C-15.773125 47.236875 -15.54625 46.47375 -15.3125 45.6875 C-13.73268318 42.45263699 -12.16717283 41.58358642 -9 40 C-8.67 41.32 -8.34 42.64 -8 44 C-7.34 41.36 -6.68 38.72 -6 36 C-4.02 35.505 -4.02 35.505 -2 35 C-1.34 34.01 -0.68 33.02 0 32 C0 33.98 0 35.96 0 38 C1.09621251 34.71136247 1.00119454 32.34522867 0.83984375 28.9375 C1 27 1 27 3 24 C2.69194605 20.6114066 1.88001115 17.58356811 0.9375 14.3125 C0 11 0 11 0 8 C-0.63106429 5.98848259 -1.29373761 3.98636298 -2 2 C-1.34 1.34 -0.68 0.68 0 0 Z " fill="#638445" transform="translate(162,64)"/>
<path d="M0 0 C5.55563105 2.77781552 6.89679076 4.71478341 9.125 10.5625 C9.40214844 11.27341797 9.67929688 11.98433594 9.96484375 12.71679688 C10.64942596 14.47546496 11.32551635 16.23743424 12 18 C10.68 18.33 9.36 18.66 8 19 C8 19.66 8 20.32 8 21 C7.75 23 7.75 23 7 25 C5.66666667 25.66666667 4.33333333 26.33333333 3 27 C2.63837971 28.32594105 2.30271961 29.65938457 2 31 C1.01 31.33 0.02 31.66 -1 32 C-1.66 29.03 -2.32 26.06 -3 23 C-3.66 23 -4.32 23 -5 23 C-6.5762718 13.37103529 -6.5762718 13.37103529 -5.17578125 10.0390625 C-4.17199182 8.65136763 -3.08992361 7.32111952 -2 6 C-2 5.01 -2 4.02 -2 3 C-1.34 2.01 -0.68 1.02 0 0 Z " fill="#FAFAF9" transform="translate(124,69)"/>
<path d="M0 0 C0.66 1.32 1.32 2.64 2 4 C4.16874252 3.49396008 5.99967627 3.00016187 8 2 C8.75 3.625 8.75 3.625 9 6 C8.01 7.3303125 8.01 7.3303125 7 8.6875 C4.56201373 12.72541475 4.90884487 14.57248426 5.73828125 19.046875 C6 21 6 21 5 23 C5.66 23 6.32 23 7 23 C7.99 25.31 8.98 27.62 10 30 C10.99 30 11.98 30 13 30 C12.67 32.97 12.34 35.94 12 39 C12.66 39 13.32 39 14 39 C14.33 38.01 14.66 37.02 15 36 C15.33 37.32 15.66 38.64 16 40 C16.66 40 17.32 40 18 40 C18 40.99 18 41.98 18 43 C18.66 43.33 19.32 43.66 20 44 C19.34 44.66 18.68 45.32 18 46 C14.375 45.625 14.375 45.625 11 45 C11.66 44.01 12.32 43.02 13 42 C10.69 41.67 8.38 41.34 6 41 C5.690625 39.88625 5.38125 38.7725 5.0625 37.625 C4.17673517 34.2054845 4.17673517 34.2054845 3 32 C3.99 32 4.98 32 6 32 C3.69 31.01 1.38 30.02 -1 29 C-0.34 28.34 0.32 27.68 1 27 C-0.32 26.01 -1.64 25.02 -3 24 C-2.01 23.67 -1.02 23.34 0 23 C0.66 23.33 1.32 23.66 2 24 C2 23.34 2 22.68 2 22 C0.68 21.67 -0.64 21.34 -2 21 C-2 20.01 -2 19.02 -2 18 C-0.515 18.99 -0.515 18.99 1 20 C0.67 19.67 0.34 19.34 0 19 C-2.63150043 15.05274935 -1.8170559 13.60522418 -1 9 C-0.80129824 7.35548146 -0.61387833 5.70956232 -0.4375 4.0625 C-0.31181641 2.90427734 -0.31181641 2.90427734 -0.18359375 1.72265625 C-0.12300781 1.15417969 -0.06242187 0.58570312 0 0 Z " fill="#668648" transform="translate(114,69)"/>
<path d="M0 0 C1.10601562 -0.03867188 1.10601562 -0.03867188 2.234375 -0.078125 C4.25 0.25 4.25 0.25 6.03515625 1.53515625 C7.25 3.25 7.25 3.25 6.9375 6.9375 C6.710625 8.030625 6.48375 9.12375 6.25 10.25 C7.57 7.94 8.89 5.63 10.25 3.25 C11.69977894 5.59112451 12.29314411 6.8296929 12.0078125 9.609375 C11.79898438 10.39828125 11.59015625 11.1871875 11.375 12 C11.17132813 12.79921875 10.96765625 13.5984375 10.7578125 14.421875 C10.59023437 15.02515625 10.42265625 15.6284375 10.25 16.25 C8.25 14.25 8.25 14.25 7.25 12.25 C6.59 12.91 5.93 13.57 5.25 14.25 C4.26 14.91 3.27 15.57 2.25 16.25 C1.92 15.59 1.59 14.93 1.25 14.25 C1.476875 13.63125 1.70375 13.0125 1.9375 12.375 C2.040625 11.67375 2.14375 10.9725 2.25 10.25 C0.39567913 7.97855926 0.39567913 7.97855926 -1.75 6.25 C-4.35466859 7.36628654 -5.7527962 8.25326223 -7.625 10.4375 C-9.75 12.25 -9.75 12.25 -13 12 C-14.36125 11.62875 -14.36125 11.62875 -15.75 11.25 C-15.75 6.93612153 -14.83852974 4.33852974 -11.75 1.25 C-7.83327655 0.51561435 -3.98287724 0.13666736 0 0 Z " fill="#AEB5AD" transform="translate(144.75,92.75)"/>
<path d="M0 0 C3.16115776 1.36983503 3.9927092 1.9890638 6 5 C6.99 5.66 7.98 6.32 9 7 C6.375 10.875 6.375 10.875 3 12 C2.67 12.99 2.34 13.98 2 15 C-2.86041109 15.95302178 -5.51978555 16.0160965 -10 14 C-12.32597511 13.6186926 -14.65912158 13.27539746 -17 13 C-15.68 11.68 -14.36 10.36 -13 9 C-12.34 9.33 -11.68 9.66 -11 10 C-11.33 10.33 -11.66 10.66 -12 11 C-11.34 11.33 -10.68 11.66 -10 12 C-9.773125 11.236875 -9.54625 10.47375 -9.3125 9.6875 C-7.73268318 6.45263699 -6.16717283 5.58358642 -3 4 C-2.67 5.32 -2.34 6.64 -2 8 C-1.34 5.36 -0.68 2.72 0 0 Z " fill="#89903B" transform="translate(156,100)"/>
<path d="M0 0 C2.87646644 1.28945047 5.07062586 2.47343863 7 5 C6.85546875 7.26171875 6.85546875 7.26171875 6.1875 9.6875 C5.97480469 10.49574219 5.76210937 11.30398437 5.54296875 12.13671875 C5.27419922 13.05904297 5.27419922 13.05904297 5 14 C4.01 13.67 3.02 13.34 2 13 C1.13375 13.495 1.13375 13.495 0.25 14 C-3.01439983 15.45084437 -5.56844494 14.65991443 -9 14 C-8.67 13.01 -8.34 12.02 -8 11 C-8 11.66 -8 12.32 -8 13 C-7.34 12.67 -6.68 12.34 -6 12 C-6.12375 11.13375 -6.2475 10.2675 -6.375 9.375 C-5.83448968 4.51040713 -3.62411966 3.17110471 0 0 Z " fill="#F4F5F2" transform="translate(141,98)"/>
<path d="M0 0 C0.99 0 1.98 0 3 0 C3.25007812 0.59167969 3.50015625 1.18335938 3.7578125 1.79296875 C5.16534521 4.29377372 6.63278284 5.53987927 8.875 7.3125 C13.74758412 11.52950007 16.58245105 14.73914157 17.41015625 21.203125 C17.74551014 29.14843252 16.70620366 35.45409855 12 42 C11.01 42.495 11.01 42.495 10 43 C10.26041667 41.01432292 10.52083333 39.02864583 10.78125 37.04296875 C11.053233 34.84528294 11.053233 34.84528294 11 32 C11.66 32.66 12.32 33.32 13 34 C14.50929383 30.98141234 14.22510073 27.87099046 14.25 24.5625 C14.270625 23.88123047 14.29125 23.19996094 14.3125 22.49804688 C14.40732428 18.53101555 14.40732428 18.53101555 12.484375 15.21484375 C11.99453125 14.81394531 11.5046875 14.41304687 11 14 C11 13.01 11 12.02 11 11 C9.6696875 10.8453125 9.6696875 10.8453125 8.3125 10.6875 C4.78861228 9.95612708 2.70502348 9.38678542 0 7 C-0.3125 3.3125 -0.3125 3.3125 0 0 Z " fill="#4F7B2E" transform="translate(140,61)"/>
<path d="M0 0 C0.33 0.66 0.66 1.32 1 2 C1.99 1.67 2.98 1.34 4 1 C4.28875 1.639375 4.5775 2.27875 4.875 2.9375 C5.82823451 5.15206079 5.82823451 5.15206079 8 6 C10.04537776 5.83196613 12.08695025 5.61616134 14.125 5.375 C20.05739955 4.84167662 23.68619802 5.39519511 29 8 C25.39821412 10.40119059 22.49133631 10.43771322 18.3125 10.625 C17.61060547 10.66367188 16.90871094 10.70234375 16.18554688 10.7421875 C14.45745345 10.8362334 12.72876325 10.9191968 11 11 C11 10.34 11 9.68 11 9 C10.01 9.33 9.02 9.66 8 10 C8 9.34 8 8.68 8 8 C6.02 7.34 4.04 6.68 2 6 C1.34 6.66 0.68 7.32 0 8 C-2.625 8.125 -2.625 8.125 -5 8 C-5 5.69 -5 3.38 -5 1 C-3.35 0.67 -1.7 0.34 0 0 Z " fill="#E4DAA0" transform="translate(122,64)"/>
<path d="M0 0 C0.99 0 1.98 0 3 0 C5.27837542 2.27837542 5.96646289 3.50812237 6.1875 6.75 C6.125625 7.4925 6.06375 8.235 6 9 C6.99 8.34 7.98 7.68 9 7 C9 9.66666667 9 12.33333333 9 15 C8.34 15 7.68 15 7 15 C7 16.32 7 17.64 7 19 C6.34 19 5.68 19 5 19 C4.67 18.01 4.34 17.02 4 16 C3.67 17.32 3.34 18.64 3 20 C2.49440092 18.56445975 1.9957251 17.1264798 1.5 15.6875 C1.2215625 14.88699219 0.943125 14.08648437 0.65625 13.26171875 C0 11 0 11 0 8 C-0.63106429 5.98848259 -1.29373761 3.98636298 -2 2 C-1.34 1.34 -0.68 0.68 0 0 Z " fill="#7D9667" transform="translate(162,64)"/>
<path d="M0 0 C0.99 0 1.98 0 3 0 C2.67 2.97 2.34 5.94 2 9 C2.66 9 3.32 9 4 9 C4.33 8.01 4.66 7.02 5 6 C5.33 7.32 5.66 8.64 6 10 C6.66 10 7.32 10 8 10 C8 10.99 8 11.98 8 13 C8.66 13.33 9.32 13.66 10 14 C9.34 14.66 8.68 15.32 8 16 C4.375 15.625 4.375 15.625 1 15 C1.66 14.01 2.32 13.02 3 12 C0.69 11.67 -1.62 11.34 -4 11 C-4.75 8.75 -4.75 8.75 -5 6 C-3.125 3.8125 -3.125 3.8125 -1 2 C-0.67 1.34 -0.34 0.68 0 0 Z " fill="#648138" transform="translate(124,99)"/>
<path d="M0 0 C0.69287109 0.00451172 1.38574219 0.00902344 2.09960938 0.01367188 C3.79561068 0.02536844 5.49156703 0.04330076 7.1875 0.0625 C5.1875 2.0625 5.1875 2.0625 3.26953125 2.22265625 C2.52058594 2.19042969 1.77164063 2.15820312 1 2.125 C-4.96014668 2.01732609 -4.96014668 2.01732609 -10.8125 3.0625 C-13.90154525 6.62046383 -13.90154525 6.62046383 -14.8125 11.0625 C-13.8225 11.0625 -12.8325 11.0625 -11.8125 11.0625 C-11.4825 11.7225 -11.1525 12.3825 -10.8125 13.0625 C-10.1525 13.0625 -9.4925 13.0625 -8.8125 13.0625 C-8.4825 14.7125 -8.1525 16.3625 -7.8125 18.0625 C-8.8025 18.3925 -9.7925 18.7225 -10.8125 19.0625 C-10.8125 18.4025 -10.8125 17.7425 -10.8125 17.0625 C-11.8025 17.0625 -12.7925 17.0625 -13.8125 17.0625 C-14.1425 16.4025 -14.4725 15.7425 -14.8125 15.0625 C-15.8025 15.3925 -16.7925 15.7225 -17.8125 16.0625 C-17.75239582 14.12414034 -17.66358283 12.18665509 -17.5625 10.25 C-17.51609375 9.17105469 -17.4696875 8.09210938 -17.421875 6.98046875 C-16.8125 4.0625 -16.8125 4.0625 -15.078125 2.23828125 C-10.23861944 -0.27325526 -5.3421434 -0.06645729 0 0 Z " fill="#BBA966" transform="translate(143.8125,91.9375)"/>
<path d="M0 0 C2 1 2 1 2.66796875 2.8125 C2.92513672 3.8953125 2.92513672 3.8953125 3.1875 5 C3.45626953 6.0828125 3.45626953 6.0828125 3.73046875 7.1875 C3.81941406 7.785625 3.90835938 8.38375 4 9 C3 10 3 10 0.71484375 10.09765625 C-0.65994141 10.08025391 -0.65994141 10.08025391 -2.0625 10.0625 C-2.98160156 10.05347656 -3.90070313 10.04445313 -4.84765625 10.03515625 C-5.55792969 10.02355469 -6.26820313 10.01195313 -7 10 C-6.34 9.34 -5.68 8.68 -5 8 C-5.66 7.34 -6.32 6.68 -7 6 C-6.67 5.67 -6.34 5.34 -6 5 C-8.31 4.67 -10.62 4.34 -13 4 C-12.67 3.34 -12.34 2.68 -12 2 C-9.53125 1.62109375 -9.53125 1.62109375 -6.5 1.4375 C-2.93669646 1.50678967 -2.93669646 1.50678967 0 0 Z " fill="#E9DA91" transform="translate(148,76)"/>
<path d="M0 0 C0.66 0.99 1.32 1.98 2 3 C0.8803014 4.00593243 -0.2459412 5.0045849 -1.375 6 C-2.31472656 6.8353125 -2.31472656 6.8353125 -3.2734375 7.6875 C-5 9 -5 9 -7 9 C-7.33 9.66 -7.66 10.32 -8 11 C-8.99 10.34 -9.98 9.68 -11 9 C-9.03780404 2.20778323 -7.59997994 -0.97021021 0 0 Z " fill="#FAFAFA" transform="translate(139,94)"/>
<path d="M0 0 C0.99 0 1.98 0 3 0 C3 0.66 3 1.32 3 2 C3.99 2.33 4.98 2.66 6 3 C7.20272819 5.40545638 7.10071472 6.94996953 7.0625 9.625 C7.05347656 10.44226563 7.04445312 11.25953125 7.03515625 12.1015625 C7.02355469 12.72804688 7.01195312 13.35453125 7 14 C6.01 14.495 6.01 14.495 5 15 C0.77676538 5.58997722 0.77676538 5.58997722 -1 1 C-0.67 0.67 -0.34 0.34 0 0 Z " fill="#F5F5F2" transform="translate(148,73)"/>
<path d="M0 0 C0.66 0.33 1.32 0.66 2 1 C1.67 1.33 1.34 1.66 1 2 C2.32 2.33 3.64 2.66 5 3 C5 2.34 5 1.68 5 1 C6.65 0.67 8.3 0.34 10 0 C10.33 0.66 10.66 1.32 11 2 C10.34 2 9.68 2 9 2 C9 2.66 9 3.32 9 4 C12.465 3.505 12.465 3.505 16 3 C15.67 3.99 15.34 4.98 15 6 C10.13958891 6.95302178 7.48021445 7.0160965 3 5 C0.67402489 4.6186926 -1.65912158 4.27539746 -4 4 C-2.68 2.68 -1.36 1.36 0 0 Z " fill="#9EAF8E" transform="translate(143,109)"/>
<path d="M0 0 C0.66 1.32 1.32 2.64 2 4 C4.16874252 3.49396008 5.99967627 3.00016187 8 2 C8.86172797 4.41283832 9.08724082 5.69465714 8.375 8.1875 C7 10 7 10 4.5625 10.875 C2 11 2 11 -1 9 C-0.67 6.03 -0.34 3.06 0 0 Z " fill="#9CAF89" transform="translate(114,69)"/>
<path d="M0 0 C4 2 4 2 6 5 C6.99 5.66 7.98 6.32 9 7 C7.8125 9 7.8125 9 6 11 C3.3125 11.25 3.3125 11.25 1 11 C1.66 10.34 2.32 9.68 3 9 C2.67 8.01 2.34 7.02 2 6 C1.34 6 0.68 6 0 6 C-0.33 6.99 -0.66 7.98 -1 9 C-0.67 6.03 -0.34 3.06 0 0 Z " fill="#5E4419" transform="translate(156,100)"/>
<path d="M0 0 C0.33 0 0.66 0 1 0 C1.65562699 8.47944244 0.92639118 14.87912547 -4 22 C-4.66 22.33 -5.32 22.66 -6 23 C-5.73958333 21.01432292 -5.47916667 19.02864583 -5.21875 17.04296875 C-4.946767 14.84528294 -4.946767 14.84528294 -5 12 C-4.34 12.66 -3.68 13.32 -3 14 C-1.69991107 11.39982215 -1.58125482 8.83436745 -1.25390625 5.9765625 C-0.99101058 3.93002084 -0.57778733 1.98098513 0 0 Z " fill="#487823" transform="translate(156,81)"/>
<path d="M0 0 C1.9375 0.8125 1.9375 0.8125 3.9375 2.8125 C3.5625 5.4375 3.5625 5.4375 2.9375 7.8125 C1.6175 7.8125 0.2975 7.8125 -1.0625 7.8125 C-3.3125 5.3125 -3.3125 5.3125 -5.0625 2.8125 C-2.62182203 -0.23834746 -2.62182203 -0.23834746 0 0 Z " fill="#FAFBFA" transform="translate(148.0625,93.1875)"/>
<path d="M0 0 C0.99 0 1.98 0 3 0 C5.27837542 2.27837542 5.96646289 3.50812237 6.1875 6.75 C6.125625 7.4925 6.06375 8.235 6 9 C5.01 8.01 4.02 7.02 3 6 C3 7.65 3 9.3 3 11 C3.66 11.33 4.32 11.66 5 12 C4.67 12.66 4.34 13.32 4 14 C2.68 13.34 1.36 12.68 0 12 C0.33 11.34 0.66 10.68 1 10 C0.484375 9.05125 -0.03125 8.1025 -0.5625 7.125 C-2 4 -2 4 -1.1875 1.625 C-0.795625 1.08875 -0.40375 0.5525 0 0 Z " fill="#6A8853" transform="translate(162,64)"/>
<path d="M0 0 C0.99 0 1.98 0 3 0 C2.5020163 3.73487777 2.12508244 5.81237635 0 9 C0.99 9.66 1.98 10.32 3 11 C0.69 11 -1.62 11 -4 11 C-4.75 8.75 -4.75 8.75 -5 6 C-3.125 3.8125 -3.125 3.8125 -1 2 C-0.67 1.34 -0.34 0.68 0 0 Z " fill="#5B421E" transform="translate(124,99)"/>
<path d="M0 0 C0.99 0.33 1.98 0.66 3 1 C3.99 1 4.98 1 6 1 C6 3.31 6 5.62 6 8 C4.68 8.33 3.36 8.66 2 9 C1.34 8.01 0.68 7.02 0 6 C0.99 6 1.98 6 3 6 C0.69 5.01 -1.62 4.02 -4 3 C-2.1875 1.4375 -2.1875 1.4375 0 0 Z " fill="#859B6E" transform="translate(117,95)"/>
<path d="M0 0 C1.625 1.6875 1.625 1.6875 3 4 C2.1875 6.75 2.1875 6.75 1 9 C0.01 8.67 -0.98 8.34 -2 8 C-2.33 8.66 -2.66 9.32 -3 10 C-3.66 9.01 -4.32 8.02 -5 7 C-4.33333333 5 -3.66666667 3 -3 1 C-2.34 1.33 -1.68 1.66 -1 2 C-1.33 2.66 -1.66 3.32 -2 4 C-1.34 4 -0.68 4 0 4 C0 2.68 0 1.36 0 0 Z " fill="#4D7529" transform="translate(169,79)"/>
<path d="M0 0 C0.33 0.66 0.66 1.32 1 2 C1.99 1.67 2.98 1.34 4 1 C3.67 1.99 3.34 2.98 3 4 C1.34795544 4.70211894 -0.31923769 5.36971413 -2 6 C-2.33 6.66 -2.66 7.32 -3 8 C-3.66 8 -4.32 8 -5 8 C-5 5.69 -5 3.38 -5 1 C-3.35 0.67 -1.7 0.34 0 0 Z " fill="#698A47" transform="translate(122,64)"/>
<path d="M0 0 C0.33 0.99 0.66 1.98 1 3 C1.66 3 2.32 3 3 3 C3 4.65 3 6.3 3 8 C-1.21912747 7.5205537 -3.79663178 6.83374881 -7 4 C-6.01 3.67 -5.02 3.34 -4 3 C-3.34 3.33 -2.68 3.66 -2 4 C-1.34 2.68 -0.68 1.36 0 0 Z " fill="#547933" transform="translate(118,89)"/>
<path d="M0 0 C1.485 0.99 1.485 0.99 3 2 C3 2.99 3 3.98 3 5 C4.32 4.34 5.64 3.68 7 3 C7 7 7 7 6 9 C4.35 9 2.7 9 1 9 C0.67 6.03 0.34 3.06 0 0 Z " fill="#9DAC8E" transform="translate(166,85)"/>
<path d="M0 0 C1.44977894 2.34112451 2.04314411 3.5796929 1.7578125 6.359375 C1.54898438 7.14828125 1.34015625 7.9371875 1.125 8.75 C0.92132813 9.54921875 0.71765625 10.3484375 0.5078125 11.171875 C0.34023437 11.77515625 0.17265625 12.3784375 0 13 C-2 11 -2 11 -3 9 C-3 5.30581799 -1.71820705 3.22163822 0 0 Z " fill="#C4CABC" transform="translate(155,96)"/>
<path d="M0 0 C2.97 0.495 2.97 0.495 6 1 C6 1.66 6 2.32 6 3 C6.99 3.33 7.98 3.66 9 4 C8.01 4 7.02 4 6 4 C6 4.66 6 5.32 6 6 C4.35 5.67 2.7 5.34 1 5 C0.67 3.35 0.34 1.7 0 0 Z " fill="#E3D89B" transform="translate(130,87)"/>
<path d="M0 0 C0 0.99 0 1.98 0 3 C-3.96 3 -7.92 3 -12 3 C-11.67 2.34 -11.34 1.68 -11 1 C-7.29882394 0.15882362 -3.78728969 -0.11139087 0 0 Z " fill="#E4D180" transform="translate(147,77)"/>
<path d="M0 0 C2.16874252 0.50603992 3.99967627 0.99983813 6 2 C6 2.66 6 3.32 6 4 C2.7 4 -0.6 4 -4 4 C-3.01 3.67 -2.02 3.34 -1 3 C-0.67 2.01 -0.34 1.02 0 0 Z " fill="#E9D88A" transform="translate(146,87)"/>
<path d="M0 0 C3.32462531 2.8956414 4.30151606 4.69268237 5 9 C5.66 9.33 6.32 9.66 7 10 C6.67 10.66 6.34 11.32 6 12 C4.68 11.34 3.36 10.68 2 10 C2.33 9.34 2.66 8.68 3 8 C2.0337499 5.98347806 1.03291676 3.98320018 0 2 C0 1.34 0 0.68 0 0 Z " fill="#5B8036" transform="translate(160,66)"/>
<path d="M0 0 C0.66 0.33 1.32 0.66 2 1 C2 2.32 2 3.64 2 5 C2.66 5.33 3.32 5.66 4 6 C3.01 6.99 2.02 7.98 1 9 C-1.09230769 4.56923077 -1.09230769 4.56923077 -0.625 1.6875 C-0.41875 1.130625 -0.2125 0.57375 0 0 Z " fill="#BFC5B5" transform="translate(165,69)"/>
<path d="M0 0 C0.99 0 1.98 0 3 0 C2.75 2.375 2.75 2.375 2 5 C0.0625 6.25 0.0625 6.25 -2 7 C-2.99 7.495 -2.99 7.495 -4 8 C-2.66666667 5.33333333 -1.33333333 2.66666667 0 0 Z " fill="#653A1C" transform="translate(124,99)"/>
<path d="M0 0 C1.53445094 3.06890187 0.54984289 5.70094266 0 9 C-0.99 8.34 -1.98 7.68 -3 7 C-2.625 4.0625 -2.625 4.0625 -2 1 C-1.34 0.67 -0.68 0.34 0 0 Z " fill="#B9C1A7" transform="translate(154,87)"/>
<path d="M0 0 C0.33 0.66 0.66 1.32 1 2 C1.66 2 2.32 2 3 2 C3.33 3.65 3.66 5.3 4 7 C3.01 7.33 2.02 7.66 1 8 C0.40267181 5.23735711 0 2.83967231 0 0 Z " fill="#5F7C40" transform="translate(132,103)"/>
<path d="M0 0 C-3.44069624 2.29379749 -4.72290301 3 -9 3 C-8.67 2.01 -8.34 1.02 -8 0 C-4.71303767 -0.79953138 -3.28976808 -1.09658936 0 0 Z " fill="#7F956A" transform="translate(172,99)"/>
<path d="M0 0 C0.66 1.32 1.32 2.64 2 4 C0.625 5.5 0.625 5.5 -1 7 C-1.66 7 -2.32 7 -3 7 C-2.25 2.25 -2.25 2.25 0 0 Z " fill="#467026" transform="translate(121,71)"/>
<path d="M0 0 C0.33 0.66 0.66 1.32 1 2 C1.66 2 2.32 2 3 2 C2.67 2.99 2.34 3.98 2 5 C1.01 4.67 0.02 4.34 -1 4 C-1 4.66 -1 5.32 -1 6 C-1.66 6 -2.32 6 -3 6 C-1.125 1.125 -1.125 1.125 0 0 Z " fill="#648541" transform="translate(149,106)"/>
<path d="M0 0 C1 3 1 3 0.0625 5.1875 C-0.4634375 6.0846875 -0.4634375 6.0846875 -1 7 C-1.66 6.67 -2.32 6.34 -3 6 C-3 4.68 -3 3.36 -3 2 C-2.01 1.34 -1.02 0.68 0 0 Z " fill="#B1B4B7" transform="translate(130,94)"/>
</svg>
