<?xml version="1.0" encoding="UTF-8"?>
<svg version="1.1" xmlns="http://www.w3.org/2000/svg" width="318" height="159">
<path d="M0 0 C104.94 0 209.88 0 318 0 C318 52.47 318 104.94 318 159 C213.06 159 108.12 159 0 159 C0 106.53 0 54.06 0 0 Z " fill="#FEFEFE" transform="translate(0,0)"/>
<path d="M0 0 C104.94 0 209.88 0 318 0 C318 17.49 318 34.98 318 53 C213.06 53 108.12 53 0 53 C0 35.51 0 18.02 0 0 Z " fill="#0C3A98" transform="translate(0,106)"/>
<path d="M0 0 C104.94 0 209.88 0 318 0 C318 17.49 318 34.98 318 53 C213.06 53 108.12 53 0 53 C0 35.51 0 18.02 0 0 Z " fill="#0C3A98" transform="translate(0,0)"/>
<path d="M0 0 C0.66 0.33 1.32 0.66 2 1 C2.33 1.99 2.66 2.98 3 4 C4.65 4.33 6.3 4.66 8 5 C7.01 6.485 7.01 6.485 6 8 C5.34 8 4.68 8 4 8 C4.33 9.98 4.66 11.96 5 14 C4.2575 13.62875 3.515 13.2575 2.75 12.875 C0.05716353 11.70484137 0.05716353 11.70484137 -2.3125 12.875 C-3.1478125 13.431875 -3.1478125 13.431875 -4 14 C-3.9071875 12.6078125 -3.9071875 12.6078125 -3.8125 11.1875 C-3.69105736 8.01604897 -3.69105736 8.01604897 -5.5 6.125 C-5.995 5.75375 -6.49 5.3825 -7 5 C-5.02 5 -3.04 5 -1 5 C-0.67 3.35 -0.34 1.7 0 0 Z " fill="#163F9C" transform="translate(114,85)"/>
<path d="M0 0 C0.66 0 1.32 0 2 0 C2.33 1.65 2.66 3.3 3 5 C4.65 5 6.3 5 8 5 C7.01 6.485 7.01 6.485 6 8 C5.34 8 4.68 8 4 8 C4.33 9.65 4.66 11.3 5 13 C3.88625 12.690625 3.88625 12.690625 2.75 12.375 C-0.32330841 11.95591249 -1.42786866 12.38050989 -4 14 C-3.34 12.02 -2.68 10.04 -2 8 C-3.32 7.34 -4.64 6.68 -6 6 C-6 5.67 -6 5.34 -6 5 C-4.35 5 -2.7 5 -1 5 C-0.67 3.35 -0.34 1.7 0 0 Z " fill="#173D9B" transform="translate(158,72)"/>
<path d="M0 0 C2 3 2 3 2 5 C3.98 5 5.96 5 8 5 C7.525625 5.391875 7.05125 5.78375 6.5625 6.1875 C4.64820367 8.40808374 4.38733012 10.13375709 4 13 C3.236875 12.79375 2.47375 12.5875 1.6875 12.375 C-1.21885944 11.66608797 -1.21885944 11.66608797 -4 14 C-3.67 12.02 -3.34 10.04 -3 8 C-4.32 7.34 -5.64 6.68 -7 6 C-7 5.67 -7 5.34 -7 5 C-5.824375 4.87625 -5.824375 4.87625 -4.625 4.75 C-1.85250896 4.27193661 -1.85250896 4.27193661 -0.6875 1.9375 C-0.460625 1.298125 -0.23375 0.65875 0 0 Z " fill="#123C9A" transform="translate(203,85)"/>
<path d="M0 0 C2 3 2 3 2 6 C3.65 6 5.3 6 7 6 C6.484375 6.556875 5.96875 7.11375 5.4375 7.6875 C3.70523302 9.94085007 3.70523302 9.94085007 4.3125 12.75 C4.6528125 13.86375 4.6528125 13.86375 5 15 C4.071875 14.649375 3.14375 14.29875 2.1875 13.9375 C-0.9802953 12.67617372 -0.9802953 12.67617372 -4 14 C-3.938125 13.236875 -3.87625 12.47375 -3.8125 11.6875 C-3.74101915 8.95474688 -3.74101915 8.95474688 -5.5 7.1875 C-5.995 6.795625 -6.49 6.40375 -7 6 C-6.21625 5.938125 -5.4325 5.87625 -4.625 5.8125 C-3.75875 5.544375 -2.8925 5.27625 -2 5 C-0.62533375 2.52363988 -0.62533375 2.52363988 0 0 Z " fill="#153D9B" transform="translate(203,58)"/>
<path d="M0 0 C0.66 0.33 1.32 0.66 2 1 C2.33 1.99 2.66 2.98 3 4 C4.65 4.33 6.3 4.66 8 5 C7.505 5.391875 7.01 5.78375 6.5 6.1875 C4.54406857 8.55091715 4.75792027 10.01435003 5 13 C3.88625 12.690625 3.88625 12.690625 2.75 12.375 C-0.32330841 11.95591249 -1.42786866 12.38050989 -4 14 C-3.67 11.69 -3.34 9.38 -3 7 C-3.99 6.67 -4.98 6.34 -6 6 C-6 5.67 -6 5.34 -6 5 C-4.35 5 -2.7 5 -1 5 C-0.67 3.35 -0.34 1.7 0 0 Z " fill="#143C9A" transform="translate(114,59)"/>
</svg>
