<?xml version="1.0" encoding="UTF-8"?>
<svg version="1.1" xmlns="http://www.w3.org/2000/svg" width="275" height="183">
<path d="M0 0 C90.75 0 181.5 0 275 0 C275 60.39 275 120.78 275 183 C184.25 183 93.5 183 0 183 C0 122.61 0 62.22 0 0 Z " fill="#DA281B" transform="translate(0,0)"/>
<path d="M0 0 C60.39 0 120.78 0 183 0 C183 30.36 183 60.72 183 92 C122.61 92 62.22 92 0 92 C0 61.64 0 31.28 0 0 Z " fill="#FEFEFE" transform="translate(92,0)"/>
<path d="M0 0 C30.36 0 60.72 0 92 0 C92 30.36 92 60.72 92 92 C61.64 92 31.28 92 0 92 C0 61.64 0 31.28 0 0 Z " fill="#0333A0" transform="translate(0,0)"/>
<path d="M0 0 C0.66 0 1.32 0 2 0 C2.6700834 2.12392506 3.33596797 4.24917524 4 6.375 C4.37125 7.55835938 4.7425 8.74171875 5.125 9.9609375 C6 13 6 13 6 15 C10.95 15 15.9 15 21 15 C17.12038353 18.87961647 14.43416733 21.2157554 10 24 C10.20496094 24.65226562 10.40992187 25.30453125 10.62109375 25.9765625 C12.05702306 30.63474466 13.36203916 35.15149758 14 40 C11.65688105 38.65093151 9.3928705 37.31680218 7.28515625 35.6171875 C5.57036577 34.24385421 3.93873717 33.03459292 2 32 C-2.3929338 32.56319664 -5.83497169 36.04401179 -9.23046875 38.7578125 C-11 40 -11 40 -13 40 C-12.79503906 39.43152344 -12.59007812 38.86304688 -12.37890625 38.27734375 C-10.70907331 33.4915546 -9.53623064 29.04056799 -9 24 C-9.7940625 23.43410156 -10.588125 22.86820313 -11.40625 22.28515625 C-12.4271875 21.55167969 -13.448125 20.81820312 -14.5 20.0625 C-15.5209375 19.33160156 -16.541875 18.60070312 -17.59375 17.84765625 C-18.78484375 16.93306641 -18.78484375 16.93306641 -20 16 C-20 15.67 -20 15.34 -20 15 C-14.72 15 -9.44 15 -4 15 C-3.67 12.69 -3.34 10.38 -3 8 C-2.14816137 5.25028257 -1.07924619 2.6746536 0 0 Z " fill="#F4F6FA" transform="translate(45,24)"/>
</svg>
