<?xml version="1.0" encoding="UTF-8"?>
<svg version="1.1" xmlns="http://www.w3.org/2000/svg" width="275" height="183">
<path d="M0 0 C90.75 0 181.5 0 275 0 C275 60.39 275 120.78 275 183 C184.25 183 93.5 183 0 183 C0 122.61 0 62.22 0 0 Z " fill="#C7102E" transform="translate(0,0)"/>
<path d="M0 0 C90.75 0 181.5 0 275 0 C275 30.03 275 60.06 275 91 C184.25 91 93.5 91 0 91 C0 60.97 0 30.94 0 0 Z " fill="#FFCD00" transform="translate(0,0)"/>
<path d="M0 0 C90.75 0 181.5 0 275 0 C275 15.18 275 30.36 275 46 C184.25 46 93.5 46 0 46 C0 30.82 0 15.64 0 0 Z " fill="#033186" transform="translate(0,91)"/>
</svg>
