<?xml version="1.0" encoding="UTF-8"?>
<svg version="1.1" xmlns="http://www.w3.org/2000/svg" width="272" height="185">
<path d="M0 0 C89.76 0 179.52 0 272 0 C272 61.05 272 122.1 272 185 C182.24 185 92.48 185 0 185 C0 123.95 0 62.9 0 0 Z " fill="#D32111" transform="translate(0,0)"/>
<path d="M0 0 C89.76 0 179.52 0 272 0 C272 20.46 272 40.92 272 62 C182.24 62 92.48 62 0 62 C0 41.54 0 21.08 0 0 Z " fill="#01702D" transform="translate(0,123)"/>
<path d="M0 0 C89.76 0 179.52 0 272 0 C272 20.13 272 40.26 272 61 C182.24 61 92.48 61 0 61 C0 40.87 0 20.74 0 0 Z " fill="#EFE43C" transform="translate(0,62)"/>
<path d="M0 0 C89.76 0 179.52 0 272 0 C272 20.13 272 40.26 272 61 C228.11 61 184.22 61 139 61 C139 60.01 139 59.02 139 58 C140.32 57.67 141.64 57.34 143 57 C142.67 54.69 142.34 52.38 142 50 C142.66 50 143.32 50 144 50 C144.433125 50.825 144.86625 51.65 145.3125 52.5 C145.869375 53.325 146.42625 54.15 147 55 C149.45769153 55.41679297 149.45769153 55.41679297 152 55 C156 55 156 55 159 57 C158.01 55.68 157.02 54.36 156 53 C157.093125 52.4225 158.18625 51.845 159.3125 51.25 C162.91618036 49.18243389 165.31093145 47.25356126 166.56420898 43.15478516 C167.02390187 40.8818163 167.11357583 38.84083903 167.09765625 36.5234375 C167.09443359 35.688125 167.09121094 34.8528125 167.08789062 33.9921875 C167.07951172 33.12851563 167.07113281 32.26484375 167.0625 31.375 C167.05573242 30.06789063 167.05573242 30.06789063 167.04882812 28.734375 C167.04011117 27.12547439 167.02934175 25.51658266 167.01586914 23.90771484 C167.00503411 22.60517755 167 21.30258236 167 20 C164.525 20.99 164.525 20.99 162 22 C162 20.68 162 19.36 162 18 C161.01 17.67 160.02 17.34 159 17 C159 15.68 159 14.36 159 13 C155.535 15.475 155.535 15.475 152 18 C152 17.34 152 16.68 152 16 C151.01 15.505 151.01 15.505 150 15 C150.66 13.68 151.32 12.36 152 11 C151.01 11.66 150.02 12.32 149 13 C149 12.01 149 11.02 149 10 C148.01 10.99 147.02 11.98 146 13 C146 9 146 5 146 1 C145.01 1 144.02 1 143 1 C143 1.99 143 2.98 143 4 C142.030625 4.28875 141.06125 4.5775 140.0625 4.875 C136.89335797 5.64214682 136.89335797 5.64214682 136 8 C133.03824877 7.38722388 131.61941217 6.74627478 129 5 C129.33 3.68 129.66 2.36 130 1 C87.1 1 44.2 1 0 1 C0 0.67 0 0.34 0 0 Z " fill="#EFE43C" transform="translate(0,62)"/>
<path d="M0 0 C0.04125 0.598125 0.0825 1.19625 0.125 1.8125 C0.87739901 4.35100832 0.87739901 4.35100832 4.0625 5.75 C5.5165625 6.36875 5.5165625 6.36875 7 7 C7.66 5.68 8.32 4.36 9 3 C10.65 3 12.3 3 14 3 C14 2.01 14 1.02 14 0 C14.99 0 15.98 0 17 0 C19.125 4.625 19.125 4.625 18 8 C18 8.99 18 9.98 18 11 C18.99 10.01 19.98 9.02 21 8 C21 8.99 21 9.98 21 11 C22.32 9.68 23.64 8.36 25 7 C24.67 7.763125 24.34 8.52625 24 9.3125 C22.82563314 11.99069135 22.82563314 11.99069135 23 15 C23.66 15 24.32 15 25 15 C25.495 14.505 25.99 14.01 26.5 13.5 C26.995 13.005 27.49 12.51 28 12 C28.66 12 29.32 12 30 12 C30.12375 12.639375 30.2475 13.27875 30.375 13.9375 C30.58125 14.618125 30.7875 15.29875 31 16 C31.66 16.33 32.32 16.66 33 17 C33 18.32 33 19.64 33 21 C34.98 20.01 36.96 19.02 39 18 C39 18.99 39 19.98 39 21 C39.02254494 22.42449357 39.04608585 23.84897154 39.0703125 25.2734375 C39.0889119 26.97395432 39.10712662 28.67447539 39.125 30.375 C39.14175781 31.22578125 39.15851563 32.0765625 39.17578125 32.953125 C39.23177573 40.14281671 37.98608147 44.58654012 33 50 C30.25 51.8125 30.25 51.8125 28 53 C28.99 53.99 29.98 54.98 31 56 C30.505 56.99 30.505 56.99 30 58 C29.525625 57.319375 29.05125 56.63875 28.5625 55.9375 C25.55312362 53.66211786 24.85716698 53.82395666 21.25 54.25 C19.82979799 54.47906484 18.41154099 54.72251758 17 55 C16.34 53.02 15.68 51.04 15 49 C14.34 49 13.68 49 13 49 C13.495 51.475 13.495 51.475 14 54 C13.01 54.495 13.01 54.495 12 55 C12 53.68 12 52.36 12 51 C10.906875 51.185625 9.81375 51.37125 8.6875 51.5625 C5 52 5 52 2 51 C1.67 52.32 1.34 53.64 1 55 C-0.125 51.25 -0.125 51.25 1 49 C0.34 49 -0.32 49 -1 49 C-1.66 50.98 -2.32 52.96 -3 55 C-6.33333333 55 -9.66666667 55 -13 55 C-15.22743787 56.41977909 -15.22743787 56.41977909 -17 58 C-16.67 57.360625 -16.34 56.72125 -16 56.0625 C-14.92728775 54.23205433 -14.92728775 54.23205433 -15 53 C-15.66 52.67 -16.32 52.34 -17 52 C-18.03684939 50.95188051 -19.03258446 49.86252788 -20 48.75 C-20.515625 48.16734375 -21.03125 47.5846875 -21.5625 46.984375 C-25.42302412 41.65517322 -25.24985021 36.71354905 -25.125 30.375 C-25.11597656 29.51648438 -25.10695313 28.65796875 -25.09765625 27.7734375 C-25.08027205 26.18402522 -25.05876797 24.5946486 -25.03173828 23.00537109 C-25.00533499 21.33708945 -25 19.66849057 -25 18 C-23.02 18.99 -21.04 19.98 -19 21 C-19 19.68 -19 18.36 -19 17 C-18.34 16.67 -17.68 16.34 -17 16 C-16.34786708 13.97536745 -16.34786708 13.97536745 -16 12 C-13.53199953 13.15173355 -11.95216435 14.04783565 -10 16 C-10.375 18.625 -10.375 18.625 -11 21 C-11.99 21 -12.98 21 -14 21 C-14.08733513 24.08315385 -14.14050127 27.16598827 -14.1875 30.25 C-14.21263672 31.12269531 -14.23777344 31.99539062 -14.26367188 32.89453125 C-14.36478152 39.02269692 -14.36478152 39.02269692 -11 44 C-10.8125 46.75 -10.8125 46.75 -11 49 C-6.52116304 48.55296014 -6.52116304 48.55296014 -3 46 C-3.33 45.01 -3.66 44.02 -4 43 C-4.34820041 41.33637583 -4.68404492 39.67004829 -5 38 C-5.99 38.66 -6.98 39.32 -8 40 C-9.18238788 34.32453816 -8.92865724 30.51044924 -7 25 C-4.875 23 -4.875 23 -3 22 C-2.34 22.33 -1.68 22.66 -1 23 C-1 22.34 -1 21.68 -1 21 C-0.01 21 0.98 21 2 21 C1.67 20.34 1.34 19.68 1 19 C1.33 18.34 1.66 17.68 2 17 C0.35 17 -1.3 17 -3 17 C-3.495 12.05 -3.495 12.05 -4 7 C-4.99 6.67 -5.98 6.34 -7 6 C-7 5.34 -7 4.68 -7 4 C-6.21625 3.71125 -5.4325 3.4225 -4.625 3.125 C-1.90328368 2.15087746 -1.90328368 2.15087746 0 0 Z " fill="#1E7535" transform="translate(129,63)"/>
<path d="M0 0 C0.061875 0.8971875 0.061875 0.8971875 0.125 1.8125 C0.87739901 4.35100832 0.87739901 4.35100832 4.0625 5.75 C5.5165625 6.36875 5.5165625 6.36875 7 7 C7.66 5.68 8.32 4.36 9 3 C10.65 3 12.3 3 14 3 C14 2.01 14 1.02 14 0 C14.99 0 15.98 0 17 0 C19.125 4.625 19.125 4.625 18 8 C18 8.99 18 9.98 18 11 C18.99 10.01 19.98 9.02 21 8 C21 8.99 21 9.98 21 11 C22.32 9.68 23.64 8.36 25 7 C24.67 7.763125 24.34 8.52625 24 9.3125 C22.82563314 11.99069135 22.82563314 11.99069135 23 15 C23.66 15 24.32 15 25 15 C25.495 14.505 25.99 14.01 26.5 13.5 C26.995 13.005 27.49 12.51 28 12 C28.66 12 29.32 12 30 12 C30.12375 12.639375 30.2475 13.27875 30.375 13.9375 C30.58125 14.618125 30.7875 15.29875 31 16 C31.66 16.33 32.32 16.66 33 17 C33 18.32 33 19.64 33 21 C34.98 20.01 36.96 19.02 39 18 C39 18.99 39 19.98 39 21 C39.02254494 22.42449357 39.04608585 23.84897154 39.0703125 25.2734375 C39.0889119 26.97395432 39.10712662 28.67447539 39.125 30.375 C39.14175781 31.22578125 39.15851563 32.0765625 39.17578125 32.953125 C39.23177573 40.14281671 37.98608147 44.58654012 33 50 C30.25 51.8125 30.25 51.8125 28 53 C28.99 53.99 29.98 54.98 31 56 C30.505 56.99 30.505 56.99 30 58 C29.39671875 57.45730469 28.7934375 56.91460937 28.171875 56.35546875 C27.37265625 55.64003906 26.5734375 54.92460938 25.75 54.1875 C24.96109375 53.47980469 24.1721875 52.77210937 23.359375 52.04296875 C20.7025759 49.74246224 18.15075803 47.57537902 15 46 C15.99 44.02 16.98 42.04 18 40 C17.34 39.67 16.68 39.34 16 39 C16.66 39 17.32 39 18 39 C18.33 38.34 18.66 37.68 19 37 C20.485 37.495 20.485 37.495 22 38 C21.88648483 36.18674449 21.75887039 34.37436643 21.625 32.5625 C21.55539063 31.55316406 21.48578125 30.54382813 21.4140625 29.50390625 C21.27742188 28.67761719 21.14078125 27.85132812 21 27 C20.34 26.67 19.68 26.34 19 26 C18.34 25.01 17.68 24.02 17 23 C16.34 23 15.68 23 15 23 C13.3125 21.1875 13.3125 21.1875 12 19 C12.33 18.01 12.66 17.02 13 16 C13.66 16 14.32 16 15 16 C15 15.34 15 14.68 15 14 C12.03 13.505 12.03 13.505 9 13 C9.60183749 10.97954558 10.27306096 8.97888961 11 7 C11.66 6.67 12.32 6.34 13 6 C11.68 6 10.36 6 9 6 C7.35 9.3 5.7 12.6 4 16 C3.34 16 2.68 16 2 16 C2 15.34 2 14.68 2 14 C1.01 13.67 0.02 13.34 -1 13 C-1 12.01 -1 11.02 -1 10 C-2.93823179 7.60028446 -3.99390037 7.00203321 -7 6 C-7 5.34 -7 4.68 -7 4 C-5.824375 3.566875 -5.824375 3.566875 -4.625 3.125 C-1.90328368 2.15087746 -1.90328368 2.15087746 0 0 Z " fill="#B7AF43" transform="translate(129,63)"/>
<path d="M0 0 C2.46800047 1.15173355 4.04783565 2.04783565 6 4 C5.625 6.625 5.625 6.625 5 9 C4.01 9 3.02 9 2 9 C1.91266487 12.08315385 1.85949873 15.16598827 1.8125 18.25 C1.78736328 19.12269531 1.76222656 19.99539062 1.73632812 20.89453125 C1.63521848 27.02269692 1.63521848 27.02269692 5 32 C5.1875 34.75 5.1875 34.75 5 37 C9.47883696 36.55296014 9.47883696 36.55296014 13 34 C13.99 34.99 14.98 35.98 16 37 C15.01 38.98 14.02 40.96 13 43 C9.66666667 43 6.33333333 43 3 43 C0.77256213 44.41977909 0.77256213 44.41977909 -1 46 C-0.67 45.360625 -0.34 44.72125 0 44.0625 C1.07271225 42.23205433 1.07271225 42.23205433 1 41 C0.34 40.67 -0.32 40.34 -1 40 C-2.03684939 38.95188051 -3.03258446 37.86252788 -4 36.75 C-4.515625 36.16734375 -5.03125 35.5846875 -5.5625 34.984375 C-9.42302412 29.65517322 -9.24985021 24.71354905 -9.125 18.375 C-9.11597656 17.51648438 -9.10695313 16.65796875 -9.09765625 15.7734375 C-9.08027205 14.18402522 -9.05876797 12.5946486 -9.03173828 11.00537109 C-9.00533499 9.33708945 -9 7.66849057 -9 6 C-7.02 6.99 -5.04 7.98 -3 9 C-3 7.68 -3 6.36 -3 5 C-2.34 4.67 -1.68 4.34 -1 4 C-0.34786708 1.97536745 -0.34786708 1.97536745 0 0 Z " fill="#C11F10" transform="translate(113,75)"/>
<path d="M0 0 C0.12375 0.639375 0.2475 1.27875 0.375 1.9375 C0.58125 2.618125 0.7875 3.29875 1 4 C1.66 4.33 2.32 4.66 3 5 C3 6.32 3 7.64 3 9 C4.98 8.01 6.96 7.02 9 6 C9 6.99 9 7.98 9 9 C9.02254494 10.42449357 9.04608585 11.84897154 9.0703125 13.2734375 C9.0889119 14.97395432 9.10712662 16.67447539 9.125 18.375 C9.14175781 19.22578125 9.15851563 20.0765625 9.17578125 20.953125 C9.23177573 28.14281671 7.98608147 32.58654012 3 38 C0.25 39.8125 0.25 39.8125 -2 41 C-1.01 41.99 -0.02 42.98 1 44 C0.67 44.66 0.34 45.32 0 46 C-2.97 43.36 -5.94 40.72 -9 38 C-7.02 37.505 -7.02 37.505 -5 37 C-5.061875 36.2575 -5.12375 35.515 -5.1875 34.75 C-5 32 -5 32 -3.5 30.4375 C-1.12612775 26.57995759 -1.68492697 22.67907396 -1.8125 18.25 C-1.83280273 16.91775391 -1.83280273 16.91775391 -1.85351562 15.55859375 C-1.88878691 13.37177422 -1.93807248 11.18620034 -2 9 C-2.99 9 -3.98 9 -5 9 C-5.75 6.75 -5.75 6.75 -6 4 C-2.86486486 0 -2.86486486 0 0 0 Z " fill="#B41B0E" transform="translate(159,75)"/>
<path d="M0 0 C0.99 0.66 1.98 1.32 3 2 C3 2.66 3 3.32 3 4 C3.66 4 4.32 4 5 4 C5.33 3.34 5.66 2.68 6 2 C6.66 2.33 7.32 2.66 8 3 C8.144375 3.66 8.28875 4.32 8.4375 5 C8.623125 5.66 8.80875 6.32 9 7 C9.99 7.33 10.98 7.66 12 8 C12.33 9.65 12.66 11.3 13 13 C11.68 12.67 10.36 12.34 9 12 C9.33 12.99 9.66 13.98 10 15 C8.68 14.67 7.36 14.34 6 14 C2.89809455 18.65285818 1.66153496 23.41532676 2 29 C4.0745356 29.1490712 4.0745356 29.1490712 6 28 C6.309375 29.093125 6.61875 30.18625 6.9375 31.3125 C7.58337897 33.55407994 8.2623117 35.7869351 9 38 C5.5980513 40.09350689 2.94727588 40.17942163 -1 40 C-1.28875 39.071875 -1.5775 38.14375 -1.875 37.1875 C-2.8875 33.90208333 -2.8875 33.90208333 -5 31 C-5.1693295 28.47727742 -5.23336826 26.08042584 -5.1875 23.5625 C-5.18105469 22.24378906 -5.17460938 20.92507812 -5.16796875 19.56640625 C-5.03837648 16.81483082 -4.83059751 14.59810901 -4 12 C-3.01 12 -2.02 12 -1 12 C0.86113056 8.85934217 1.27966763 6.63567914 1 3 C0.67 2.01 0.34 1.02 0 0 Z " fill="#D5CF57" transform="translate(119,72)"/>
<path d="M0 0 C3.48584286 0.03134751 6.09479083 0.60989542 9.25 2.1875 C8.92 3.1775 8.59 4.1675 8.25 5.1875 C8.21045766 7.52049825 8.20598268 9.85458189 8.25 12.1875 C5.94 12.1875 3.63 12.1875 1.25 12.1875 C1.25 14.4975 1.25 16.8075 1.25 19.1875 C2.24 19.1875 3.23 19.1875 4.25 19.1875 C3.92 20.8375 3.59 22.4875 3.25 24.1875 C2.59 24.1875 1.93 24.1875 1.25 24.1875 C1.25 23.1975 1.25 22.2075 1.25 21.1875 C0.26 21.5175 -0.73 21.8475 -1.75 22.1875 C-2.74 21.8575 -3.73 21.5275 -4.75 21.1875 C-4.75 20.1975 -4.75 19.2075 -4.75 18.1875 C-3.43 18.1875 -2.11 18.1875 -0.75 18.1875 C-0.75 17.5275 -0.75 16.8675 -0.75 16.1875 C-3.06 16.5175 -5.37 16.8475 -7.75 17.1875 C-8.12908343 10.99580398 -7.62999855 6.71709722 -4.75 1.1875 C-3.75 0.1875 -3.75 0.1875 0 0 Z " fill="#B4B805" transform="translate(135.75,84.8125)"/>
<path d="M0 0 C1.32 0.66 2.64 1.32 4 2 C3.50886719 2.98097656 3.01773438 3.96195312 2.51171875 4.97265625 C0.70421057 9.19017534 0.65088471 12.90812797 0.8125 17.4375 C0.82603516 18.16904297 0.83957031 18.90058594 0.85351562 19.65429688 C0.88846126 21.43652422 0.94225195 23.21836573 1 25 C4.3 25.66 7.6 26.32 11 27 C10.34 27.33 9.68 27.66 9 28 C9 28.66 9 29.32 9 30 C8.01 29.67 7.02 29.34 6 29 C3.48916886 30.25541557 3.12874554 31.50063488 2 34 C1.87625 33.443125 1.7525 32.88625 1.625 32.3125 C0.58259226 28.45559136 -0.77952498 25.33071252 -3 22 C-3.38499891 20.34450469 -3.72793135 18.6777567 -4 17 C-4.99 17.66 -5.98 18.32 -7 19 C-8.18238788 13.32453816 -7.92865724 9.51044924 -6 4 C-3.875 2 -3.875 2 -2 1 C-1.34 1.33 -0.68 1.66 0 2 C0 1.34 0 0.68 0 0 Z " fill="#719669" transform="translate(128,84)"/>
<path d="M0 0 C0.061875 0.8971875 0.061875 0.8971875 0.125 1.8125 C0.87739901 4.35100832 0.87739901 4.35100832 4.0625 5.75 C5.5165625 6.36875 5.5165625 6.36875 7 7 C7.66 5.68 8.32 4.36 9 3 C10.65 3 12.3 3 14 3 C14 2.01 14 1.02 14 0 C14.99 0 15.98 0 17 0 C18.47275496 2.48042941 19.16372022 4.20818948 18.5703125 7.078125 C17.83369968 9.18924215 17.1653512 11.08900262 16 13 C12.86650268 14.04449911 12.01031744 13.93423645 9 13 C9.60183749 10.97954558 10.27306096 8.97888961 11 7 C11.66 6.67 12.32 6.34 13 6 C11.68 6 10.36 6 9 6 C7.35 9.3 5.7 12.6 4 16 C3.34 16 2.68 16 2 16 C2 15.34 2 14.68 2 14 C1.01 13.67 0.02 13.34 -1 13 C-1 12.01 -1 11.02 -1 10 C-2.93823179 7.60028446 -3.99390037 7.00203321 -7 6 C-7 5.34 -7 4.68 -7 4 C-5.824375 3.566875 -5.824375 3.566875 -4.625 3.125 C-1.90328368 2.15087746 -1.90328368 2.15087746 0 0 Z " fill="#8E9B7B" transform="translate(129,63)"/>
<path d="M0 0 C2.46800047 1.15173355 4.04783565 2.04783565 6 4 C5.625 6.625 5.625 6.625 5 9 C4.01 9 3.02 9 2 9 C1.93941406 9.68707031 1.87882812 10.37414062 1.81640625 11.08203125 C1.73261719 11.98308594 1.64882812 12.88414063 1.5625 13.8125 C1.48128906 14.70582031 1.40007812 15.59914063 1.31640625 16.51953125 C1 19 1 19 0 22 C-1.9375 21.1875 -1.9375 21.1875 -4 20 C-4.33 19.01 -4.66 18.02 -5 17 C-5.66 16.67 -6.32 16.34 -7 16 C-7.33 16.99 -7.66 17.98 -8 19 C-8.16852247 17.39602723 -8.33474886 15.7918131 -8.5 14.1875 C-8.5928125 13.29417969 -8.685625 12.40085937 -8.78125 11.48046875 C-9 9 -9 9 -9 6 C-7.02 6.99 -5.04 7.98 -3 9 C-3 7.68 -3 6.36 -3 5 C-2.34 4.67 -1.68 4.34 -1 4 C-0.34786708 1.97536745 -0.34786708 1.97536745 0 0 Z " fill="#B71C0F" transform="translate(113,75)"/>
<path d="M0 0 C0.33 0.66 0.66 1.32 1 2 C-0.4375 4.625 -0.4375 4.625 -2 7 C-1.505 7.78375 -1.01 8.5675 -0.5 9.375 C1 12 1 12 1 14 C1.99 14 2.98 14 4 14 C4 15.65 4 17.3 4 19 C3.01 19 2.02 19 1 19 C0.319375 19.185625 -0.36125 19.37125 -1.0625 19.5625 C-3 20 -3 20 -5 19 C-5.66 18.01 -6.32 17.02 -7 16 C-7.66 16 -8.32 16 -9 16 C-10.6875 14.1875 -10.6875 14.1875 -12 12 C-11.67 11.01 -11.34 10.02 -11 9 C-10.34 9 -9.68 9 -9 9 C-9.33 8.01 -9.66 7.02 -10 6 C-9.401875 5.731875 -8.80375 5.46375 -8.1875 5.1875 C-6.02775192 4.01506533 -4.64209744 2.80630718 -3 1 C-3 1.99 -3 2.98 -3 4 C-2.01 2.68 -1.02 1.36 0 0 Z " fill="#D2C43A" transform="translate(153,70)"/>
<path d="M0 0 C1.98 0 3.96 0 6 0 C5.38125 0.391875 4.7625 0.78375 4.125 1.1875 C1.67503632 3.27717491 0.98120002 4.97463327 0 8 C2.97 8.495 2.97 8.495 6 9 C6 9.66 6 10.32 6 11 C5.01 11.495 5.01 11.495 4 12 C3.34227572 15.02934491 3.34227572 15.02934491 3 18 C1.54054712 17.91291331 0.08234132 17.80473093 -1.375 17.6875 C-2.18710938 17.62949219 -2.99921875 17.57148437 -3.8359375 17.51171875 C-6 17 -6 17 -8 14 C-7.67 13.34 -7.34 12.68 -7 12 C-8.65 12 -10.3 12 -12 12 C-12 9.36 -12 6.72 -12 4 C-10.02 4.99 -10.02 4.99 -8 6 C-8.33 6.66 -8.66 7.32 -9 8 C-8.34 8.33 -7.68 8.66 -7 9 C-7 9.66 -7 10.32 -7 11 C-4.18515955 9.59257978 -3.72516601 7.74442408 -2.375 4.9375 C-1.92898437 4.01839844 -1.48296875 3.09929687 -1.0234375 2.15234375 C-0.68570313 1.44207031 -0.34796875 0.73179688 0 0 Z " fill="#6E965D" transform="translate(138,68)"/>
<path d="M0 0 C1.485 0.99 1.485 0.99 3 2 C3 2.66 3 3.32 3 4 C3.99 3.67 4.98 3.34 6 3 C10.9306334 7.61252802 10.7770223 12.63398668 11 19 C9.35 19.33 7.7 19.66 6 20 C5.87625 20.7425 5.7525 21.485 5.625 22.25 C5.04513299 24.80141485 4.26291261 26.7267573 3 29 C1.68 28.67 0.36 28.34 -1 28 C-0.73445312 27.35933594 -0.46890625 26.71867187 -0.1953125 26.05859375 C0.89747375 23.38246393 1.95705074 20.69592546 3 18 C3.26941406 17.31292969 3.53882813 16.62585938 3.81640625 15.91796875 C4.55469579 13.93619632 4.55469579 13.93619632 5 11 C3.77661725 8.55853994 3.77661725 8.55853994 2 7 C2.33 6.67 2.66 6.34 3 6 C2.01 5.67 1.02 5.34 0 5 C0 3.35 0 1.7 0 0 Z " fill="#147356" transform="translate(141,82)"/>
<path d="M0 0 C0 1.65 0 3.3 0 5 C4.47883696 4.55296014 4.47883696 4.55296014 8 2 C8.99 2.99 9.98 3.98 11 5 C10.01 6.98 9.02 8.96 8 11 C4.66666667 11 1.33333333 11 -2 11 C-4.22743787 12.41977909 -4.22743787 12.41977909 -6 14 C-5.505 13.0409375 -5.505 13.0409375 -5 12.0625 C-3.92728775 10.23205433 -3.92728775 10.23205433 -4 9 C-4.66 8.67 -5.32 8.34 -6 8 C-9 3.38461538 -9 3.38461538 -9 2 C-7.68786298 1.66524067 -6.37527913 1.33223233 -5.0625 1 C-3.96615234 0.7215625 -3.96615234 0.7215625 -2.84765625 0.4375 C-1 0 -1 0 0 0 Z " fill="#B73716" transform="translate(118,107)"/>
<path d="M0 0 C0.12375 0.639375 0.2475 1.27875 0.375 1.9375 C0.684375 2.9584375 0.684375 2.9584375 1 4 C1.66 4.33 2.32 4.66 3 5 C3 6.32 3 7.64 3 9 C4.98 8.01 6.96 7.02 9 6 C9 8.77996107 8.78702071 11.42492567 8.5 14.1875 C8.4071875 15.08855469 8.314375 15.98960938 8.21875 16.91796875 C8.1465625 17.60503906 8.074375 18.29210937 8 19 C7.67 19 7.34 19 7 19 C6.67 17.02 6.34 15.04 6 13 C5.67 13.66 5.34 14.32 5 15 C4.01 15 3.02 15 2 15 C1.67 14.01 1.34 13.02 1 12 C0.01 13.32 -0.98 14.64 -2 16 C-2 13.69 -2 11.38 -2 9 C-2.99 9 -3.98 9 -5 9 C-5.75 6.75 -5.75 6.75 -6 4 C-2.86486486 0 -2.86486486 0 0 0 Z " fill="#C03D17" transform="translate(159,75)"/>
<path d="M0 0 C1.485 0.99 1.485 0.99 3 2 C3 2.66 3 3.32 3 4 C3.66 4 4.32 4 5 4 C5.33 3.34 5.66 2.68 6 2 C6.66 2.33 7.32 2.66 8 3 C8.144375 3.66 8.28875 4.32 8.4375 5 C8.623125 5.66 8.80875 6.32 9 7 C9.99 7.33 10.98 7.66 12 8 C12.33 9.65 12.66 11.3 13 13 C11.68 12.67 10.36 12.34 9 12 C9.33 12.99 9.66 13.98 10 15 C8.68 14.67 7.36 14.34 6 14 C5.01 15.485 5.01 15.485 4 17 C2.35 15.35 0.7 13.7 -1 12 C-0.67 11.443125 -0.34 10.88625 0 10.3125 C1.62060802 6.56484396 1.27335281 3.82005844 0 0 Z " fill="#CDBE48" transform="translate(119,72)"/>
<path d="M0 0 C5 1 5 1 6.9375 2.0625 C8 4 8 4 7.25 7.8125 C7.04117188 8.50988281 6.83234375 9.20726563 6.6171875 9.92578125 C5.82668233 12.58247901 5.41066002 15.26226651 5 18 C3.35 17.67 1.7 17.34 0 17 C0 11.39 0 5.78 0 0 Z " fill="#D9CF37" transform="translate(115,84)"/>
<path d="M0 0 C3.44025166 0.07519676 6.07651279 0.69450639 9.1875 2.25 C8.5275 4.23 7.8675 6.21 7.1875 8.25 C5.95 7.8375 4.7125 7.425 3.4375 7 C1.27260551 6.37830169 1.27260551 6.37830169 -0.8125 6.25 C-3.16772225 8.0212618 -3.16772225 8.0212618 -4.8125 10.25 C-5.8025 10.25 -6.7925 10.25 -7.8125 10.25 C-5.58061594 0.36594203 -5.58061594 0.36594203 0 0 Z " fill="#E1DA50" transform="translate(135.8125,84.75)"/>
<path d="M0 0 C0.66 0.66 1.32 1.32 2 2 C1.7578125 3.9453125 1.7578125 3.9453125 1.125 6.125 C0.92132813 6.84945312 0.71765625 7.57390625 0.5078125 8.3203125 C0.34023437 8.87460938 0.17265625 9.42890625 0 10 C0.66 10 1.32 10 2 10 C2 12.31 2 14.62 2 17 C0.68 17 -0.64 17 -2 17 C-2.66 17.33 -3.32 17.66 -4 18 C-5.18493535 12.31231034 -4.84649024 8.53947073 -3 3 C-1.375 1 -1.375 1 0 0 Z " fill="#14732E" transform="translate(125,85)"/>
<path d="M0 0 C4.455 0.99 4.455 0.99 9 2 C9 2.99 9 3.98 9 5 C6 7.1875 6 7.1875 3 9 C3.99 9.99 4.98 10.98 6 12 C5.67 12.66 5.34 13.32 5 14 C2.03 11.36 -0.94 8.72 -4 6 C-2.68 5.67 -1.36 5.34 0 5 C0 3.35 0 1.7 0 0 Z " fill="#B93315" transform="translate(154,107)"/>
<path d="M0 0 C2 2 2 2 2.1953125 4.8203125 C2.16050781 6.45613281 2.16050781 6.45613281 2.125 8.125 C2.10695312 9.22070312 2.08890625 10.31640625 2.0703125 11.4453125 C2.04710937 12.28835937 2.02390625 13.13140625 2 14 C0.35 14.33 -1.3 14.66 -3 15 C-3.27585566 13.06601192 -3.51987415 11.12746091 -3.75 9.1875 C-3.88921875 8.10855469 -4.0284375 7.02960938 -4.171875 5.91796875 C-4 3 -4 3 -2.015625 1.11328125 C-1.35046875 0.74589844 -0.6853125 0.37851563 0 0 Z " fill="#E1DA39" transform="translate(155,87)"/>
<path d="M0 0 C3.3 0 6.6 0 10 0 C10.66 1.65 11.32 3.3 12 5 C10.68 5.33 9.36 5.66 8 6 C8 6.66 8 7.32 8 8 C7.34 8 6.68 8 6 8 C6 7.34 6 6.68 6 6 C5.34 6 4.68 6 4 6 C4 6.66 4 7.32 4 8 C3.34 8 2.68 8 2 8 C2 7.34 2 6.68 2 6 C0.68 5.67 -0.64 5.34 -2 5 C-1.34 3.35 -0.68 1.7 0 0 Z " fill="#D0C636" transform="translate(131,114)"/>
<path d="M0 0 C1.98 0 3.96 0 6 0 C5.38125 0.391875 4.7625 0.78375 4.125 1.1875 C1.67503632 3.27717491 0.98120002 4.97463327 0 8 C2.97 8.495 2.97 8.495 6 9 C6 9.66 6 10.32 6 11 C3.26094655 12.36952673 1.02912668 12.12621361 -2 12 C-2.66 11.67 -3.32 11.34 -4 11 C-3.39301257 6.87248551 -1.96189209 3.6678852 0 0 Z " fill="#090E08" transform="translate(138,68)"/>
<path d="M0 0 C0.33 0.66 0.66 1.32 1 2 C0.03523618 4.01723344 -0.96838392 6.01612292 -2 8 C-2.2165625 9.11375 -2.2165625 9.11375 -2.4375 10.25 C-3 12 -3 12 -5.0625 13.25 C-5.701875 13.4975 -6.34125 13.745 -7 14 C-7.99 13.34 -8.98 12.68 -10 12 C-10 11.34 -10 10.68 -10 10 C-9.34 10 -8.68 10 -8 10 C-7.9175 9.2575 -7.835 8.515 -7.75 7.75 C-6.8603054 4.48778646 -5.51496251 3.19045122 -3 1 C-3 1.99 -3 2.98 -3 4 C-2.01 2.68 -1.02 1.36 0 0 Z " fill="#BBB779" transform="translate(153,70)"/>
<path d="M0 0 C2.97 0 5.94 0 9 0 C8.57742724 1.4835001 8.13643678 2.96176424 7.6875 4.4375 C7.32205078 5.67306641 7.32205078 5.67306641 6.94921875 6.93359375 C6.47935547 7.95646484 6.47935547 7.95646484 6 9 C2.86650268 10.04449911 2.01031744 9.93423645 -1 9 C-0.39816251 6.97954558 0.27306096 4.97888961 1 3 C1.66 2.67 2.32 2.34 3 2 C2.01 1.34 1.02 0.68 0 0 Z " fill="#5F8251" transform="translate(139,67)"/>
<path d="M0 0 C2.8475987 0.75548537 5.36772716 1.68386358 8 3 C8.33 2.01 8.66 1.02 9 0 C9 2.31 9 4.62 9 7 C4.71 6.34 0.42 5.68 -4 5 C-3 2 -3 2 0 0 Z " fill="#CCC14F" transform="translate(135,90)"/>
<path d="M0 0 C0.66 0 1.32 0 2 0 C2.26905686 6.59189297 1.24292328 12.20906558 -2 18 C-3.32 17.67 -4.64 17.34 -6 17 C-5.73445312 16.35933594 -5.46890625 15.71867187 -5.1953125 15.05859375 C-3.16454502 10.0854369 -1.35607166 5.19827469 0 0 Z " fill="#2F829A" transform="translate(146,93)"/>
<path d="M0 0 C0.33 0.66 0.66 1.32 1 2 C3.52733235 2.65555119 3.52733235 2.65555119 6 3 C6.73080266 4.97746603 7.39421747 6.98072489 8 9 C7.67 9.66 7.34 10.32 7 11 C5.02 11 3.04 11 1 11 C-0.17571451 7.32589215 -0.07366746 3.83070817 0 0 Z " fill="#C33915" transform="translate(104,96)"/>
<path d="M0 0 C1.485 0.99 1.485 0.99 3 2 C3 3.32 3 4.64 3 6 C6.3 6.66 9.6 7.32 13 8 C12.01 8.495 12.01 8.495 11 9 C11 9.66 11 10.32 11 11 C10.01 10.67 9.02 10.34 8 10 C5.48916886 11.25541557 5.12874554 12.50063488 4 15 C3.814375 14.1646875 3.814375 14.1646875 3.625 13.3125 C3.04287202 10.95334438 3.04287202 10.95334438 2 8.625 C0.90814525 5.75888129 0.42290178 3.0307961 0 0 Z " fill="#227B86" transform="translate(126,103)"/>
<path d="M0 0 C2.31 1.98 4.62 3.96 7 6 C6.67 6.99 6.34 7.98 6 9 C4.02 9 2.04 9 0 9 C-0.99 6.69 -1.98 4.38 -3 2 C-2.01 1.34 -1.02 0.68 0 0 Z " fill="#4F3824" transform="translate(146,109)"/>
<path d="M0 0 C1.32 0.66 2.64 1.32 4 2 C3.01 4.31 2.02 6.62 1 9 C-0.98 9 -2.96 9 -5 9 C-5.33 8.34 -5.66 7.68 -6 7 C-4.02 4.69 -2.04 2.38 0 0 Z " fill="#4E3724" transform="translate(125,109)"/>
<path d="M0 0 C1.32 0 2.64 0 4 0 C3.67 2.31 3.34 4.62 3 7 C2.01 7.33 1.02 7.66 0 8 C0 9.32 0 10.64 0 12 C-0.66 11.67 -1.32 11.34 -2 11 C-1.67 10.34 -1.34 9.68 -1 9 C-1.66 9 -2.32 9 -3 9 C-3.66 7.35 -4.32 5.7 -5 4 C-2.525 4.495 -2.525 4.495 0 5 C0 3.35 0 1.7 0 0 Z " fill="#C8BE49" transform="translate(110,72)"/>
<path d="M0 0 C0.33 0 0.66 0 1 0 C1 4.29 1 8.58 1 13 C2.98 13 4.96 13 7 13 C7.33 13.99 7.66 14.98 8 16 C7.01 16.99 6.02 17.98 5 19 C1.125 17.25 1.125 17.25 0 15 C-0.0716735 12.44842345 -0.09308442 9.92527029 -0.0625 7.375 C-0.05798828 6.66859375 -0.05347656 5.9621875 -0.04882812 5.234375 C-0.03703875 3.48954725 -0.01910324 1.744763 0 0 Z " fill="#CCAA2F" transform="translate(114,88)"/>
<path d="M0 0 C2.9375 1.125 2.9375 1.125 6 3 C6.875 6.1875 6.875 6.1875 7 9 C6.01 9 5.02 9 4 9 C4 8.34 4 7.68 4 7 C3.34 7 2.68 7 2 7 C2 8.98 2 10.96 2 13 C1.67 13 1.34 13 1 13 C0.83147753 11.39602723 0.66525114 9.7918131 0.5 8.1875 C0.4071875 7.29417969 0.314375 6.40085937 0.21875 5.48046875 C0 3 0 3 0 0 Z " fill="#B35F26" transform="translate(104,81)"/>
<path d="M0 0 C1.98 0 3.96 0 6 0 C6 2.31 6 4.62 6 7 C5.01 7 4.02 7 3 7 C1.66018514 7.3062434 0.32488113 7.63451555 -1 8 C-0.67 5.36 -0.34 2.72 0 0 Z " fill="#C62A13" transform="translate(162,96)"/>
<path d="M0 0 C0.66 0.66 1.32 1.32 2 2 C1.67 2.33 1.34 2.66 1 3 C0.76712992 4.68183948 0.58735834 6.3712416 0.4375 8.0625 C0.31181641 9.44115234 0.31181641 9.44115234 0.18359375 10.84765625 C0.12300781 11.55792969 0.06242188 12.26820312 0 13 C-0.33 13 -0.66 13 -1 13 C-1.33 11.02 -1.66 9.04 -2 7 C-2.33 7.66 -2.66 8.32 -3 9 C-3.99 9 -4.98 9 -6 9 C-5.8125 6.1875 -5.8125 6.1875 -5 3 C-2.4375 1.125 -2.4375 1.125 0 0 Z " fill="#B46127" transform="translate(167,81)"/>
<path d="M0 0 C0.99 0.33 1.98 0.66 3 1 C3 1.66 3 2.32 3 3 C3.99 3.33 4.98 3.66 6 4 C6 5.65 6 7.3 6 9 C4.02 9 2.04 9 0 9 C0.185625 8.443125 0.37125 7.88625 0.5625 7.3125 C1.07551165 4.600867 0.6640724 2.65628961 0 0 Z " fill="#D8CE4F" transform="translate(148,103)"/>
<path d="M0 0 C0.99 0.66 1.98 1.32 3 2 C2.34 4.31 1.68 6.62 1 9 C-1.64 9.33 -4.28 9.66 -7 10 C-7.33 9.34 -7.66 8.68 -8 8 C-7.67 7.34 -7.34 6.68 -7 6 C-2.52459016 4.73770492 -2.52459016 4.73770492 0 6 C0 4.02 0 2.04 0 0 Z " fill="#6D992C" transform="translate(144,91)"/>
<path d="M0 0 C2.125 0.375 2.125 0.375 4 1 C4.33 2.65 4.66 4.3 5 6 C3.68 5.67 2.36 5.34 1 5 C1.33 5.99 1.66 6.98 2 8 C0.35 7.67 -1.3 7.34 -3 7 C-2.25 2.25 -2.25 2.25 0 0 Z " fill="#A2A351" transform="translate(127,79)"/>
<path d="M0 0 C2.46800047 1.15173355 4.04783565 2.04783565 6 4 C5.625 6.125 5.625 6.125 5 8 C4.01 7.34 3.02 6.68 2 6 C1.34 7.32 0.68 8.64 0 10 C0 8.68 0 7.36 0 6 C-0.66 5.67 -1.32 5.34 -2 5 C-1.34 3.35 -0.68 1.7 0 0 Z " fill="#BE4419" transform="translate(113,75)"/>
<path d="M0 0 C1.27875 -0.061875 2.5575 -0.12375 3.875 -0.1875 C4.95394531 -0.23970703 4.95394531 -0.23970703 6.0546875 -0.29296875 C6.69664062 -0.19628906 7.33859375 -0.09960938 8 0 C8.66 0.99 9.32 1.98 10 3 C4.06 3.495 4.06 3.495 -2 4 C-1.34 2.68 -0.68 1.36 0 0 Z " fill="#E2EEEA" transform="translate(132,85)"/>
<path d="M0 0 C0.66 0.33 1.32 0.66 2 1 C2 1.99 2 2.98 2 4 C2.99 4 3.98 4 5 4 C4.67 5.65 4.34 7.3 4 9 C3.34 9 2.68 9 2 9 C2 8.01 2 7.02 2 6 C1.01 6.33 0.02 6.66 -1 7 C-1.99 6.67 -2.98 6.34 -4 6 C-4 5.01 -4 4.02 -4 3 C-2.68 3 -1.36 3 0 3 C0 2.01 0 1.02 0 0 Z " fill="#D3D99C" transform="translate(135,100)"/>
<path d="M0 0 C1.32 1.65 2.64 3.3 4 5 C3.01 5 2.02 5 1 5 C1 6.32 1 7.64 1 9 C0.01 8.67 -0.98 8.34 -2 8 C-2 7.34 -2 6.68 -2 6 C-2.66 6 -3.32 6 -4 6 C-4 4.35 -4 2.7 -4 1 C-3.01 1.33 -2.02 1.66 -1 2 C-0.67 1.34 -0.34 0.68 0 0 Z " fill="#CA2612" transform="translate(114,79)"/>
<path d="M0 0 C3.4375 1.1875 3.4375 1.1875 7 3 C7.9375 5.6875 7.9375 5.6875 8 8 C7.01 8.33 6.02 8.66 5 9 C5 8.34 5 7.68 5 7 C4.01 6.67 3.02 6.34 2 6 C2 5.01 2 4.02 2 3 C1.34 2.67 0.68 2.34 0 2 C0 1.34 0 0.68 0 0 Z " fill="#BAB57D" transform="translate(126,70)"/>
<path d="M0 0 C1.32 0.66 2.64 1.32 4 2 C4 3.65 4 5.3 4 7 C3.01 7.495 3.01 7.495 2 8 C2 6.68 2 5.36 2 4 C0.329375 4.309375 0.329375 4.309375 -1.375 4.625 C-2.57125 4.74875 -3.7675 4.8725 -5 5 C-5.66 4.34 -6.32 3.68 -7 3 C-6.01 2.67 -5.02 2.34 -4 2 C-4 2.66 -4 3.32 -4 4 C-3.34 4 -2.68 4 -2 4 C-2 3.34 -2 2.68 -2 2 C-1.34 2 -0.68 2 0 2 C0 1.34 0 0.68 0 0 Z " fill="#568460" transform="translate(139,110)"/>
<path d="M0 0 C0 2.31 0 4.62 0 7 C-1.65 7.33 -3.3 7.66 -5 8 C-5.25 5.6875 -5.25 5.6875 -5 3 C-1.79310345 0 -1.79310345 0 0 0 Z " fill="#D9D037" transform="translate(157,94)"/>
<path d="M0 0 C0 0.66 0 1.32 0 2 C-1.32 2 -2.64 2 -4 2 C-4 2.99 -4 3.98 -4 5 C-2.68 5.33 -1.36 5.66 0 6 C-0.33 6.66 -0.66 7.32 -1 8 C-2.66666667 8 -4.33333333 8 -6 8 C-6 7.01 -6 6.02 -6 5 C-6.66 4.67 -7.32 4.34 -8 4 C-7.34 4 -6.68 4 -6 4 C-6 3.01 -6 2.02 -6 1 C-3 0 -3 0 0 0 Z " fill="#3D8452" transform="translate(135,101)"/>
<path d="M0 0 C1.98 0.99 1.98 0.99 4 2 C3.67 2.66 3.34 3.32 3 4 C3.66 4.33 4.32 4.66 5 5 C5 5.66 5 6.32 5 7 C5.99 6.67 6.98 6.34 8 6 C8 6.66 8 7.32 8 8 C5.36 8 2.72 8 0 8 C0 5.36 0 2.72 0 0 Z " fill="#4A7D34" transform="translate(126,72)"/>
<path d="M0 0 C1.45792884 -0.05399736 2.91642712 -0.09279177 4.375 -0.125 C5.18710938 -0.14820312 5.99921875 -0.17140625 6.8359375 -0.1953125 C9 0 9 0 11 2 C9.2984375 2.433125 9.2984375 2.433125 7.5625 2.875 C6.386875 3.24625 5.21125 3.6175 4 4 C3.67 4.66 3.34 5.32 3 6 C0 2.25 0 2.25 0 0 Z " fill="#AB1F0F" transform="translate(106,106)"/>
<path d="M0 0 C0 1.98 0 3.96 0 6 C-2.6666419 7.33332095 -4.16680303 6.67102033 -7 6 C-5.96557526 2.89672578 -3.70631018 0 0 0 Z " fill="#BA2B12" transform="translate(167,101)"/>
<path d="M0 0 C1.32 0.66 2.64 1.32 4 2 C2.1875 5 2.1875 5 0 8 C-0.99 8 -1.98 8 -3 8 C-2.625 5.5625 -2.625 5.5625 -2 3 C-1.34 2.67 -0.68 2.34 0 2 C0 1.34 0 0.68 0 0 Z " fill="#3F868F" transform="translate(128,84)"/>
<path d="M0 0 C1.32 0 2.64 0 4 0 C3.67 1.65 3.34 3.3 3 5 C1.35 5.33 -0.3 5.66 -2 6 C-1.34 4.02 -0.68 2.04 0 0 Z " fill="#BAB85E" transform="translate(140,70)"/>
<path d="M0 0 C0.66 0 1.32 0 2 0 C2 0.99 2 1.98 2 3 C2.66 3 3.32 3 4 3 C4.33 2.01 4.66 1.02 5 0 C5.33 0.99 5.66 1.98 6 3 C5.34 3.66 4.68 4.32 4 5 C0.5 4.8125 0.5 4.8125 -3 4 C-3.66 3.01 -4.32 2.02 -5 1 C-3.68 1.33 -2.36 1.66 -1 2 C-0.67 1.34 -0.34 0.68 0 0 Z " fill="#2E7239" transform="translate(135,106)"/>
<path d="M0 0 C0.33 0 0.66 0 1 0 C1.02686553 1.97909398 1.04633375 3.95828971 1.0625 5.9375 C1.07410156 7.03964844 1.08570313 8.14179687 1.09765625 9.27734375 C1 12 1 12 0 13 C-1.66617115 13.04063832 -3.33388095 13.042721 -5 13 C-5 12.01 -5 11.02 -5 10 C-3.35 10 -1.7 10 0 10 C0 6.7 0 3.4 0 0 Z " fill="#CFAD2E" transform="translate(157,91)"/>
<path d="M0 0 C0 2.31 0 4.62 0 7 C-0.99 7.33 -1.98 7.66 -3 8 C-3.66 8.99 -4.32 9.98 -5 11 C-5.21952523 7.15830842 -4.72664863 4.45329726 -3 1 C-1 0 -1 0 0 0 Z " fill="#C62D14" transform="translate(162,80)"/>
<path d="M0 0 C0.33 0.66 0.66 1.32 1 2 C0.67 2.99 0.34 3.98 0 5 C-0.66 5 -1.32 5 -2 5 C-0.36587557 6.70840281 0.86906094 7.93453047 3 9 C2.67 9.66 2.34 10.32 2 11 C1.01 11 0.02 11 -1 11 C-2.75 9.1875 -2.75 9.1875 -4 7 C-3.67 6.01 -3.34 5.02 -3 4 C-2.34 4 -1.68 4 -1 4 C-1.33 3.01 -1.66 2.02 -2 1 C-1.34 0.67 -0.68 0.34 0 0 Z " fill="#B1AC3B" transform="translate(145,75)"/>
<path d="M0 0 C0 0.66 0 1.32 0 2 C1.65 1.67 3.3 1.34 5 1 C4.01 2.485 4.01 2.485 3 4 C0 4.375 0 4.375 -3 4 C-3.66 3.01 -4.32 2.02 -5 1 C-3 0 -3 0 0 0 Z " fill="#1E85AE" transform="translate(135,81)"/>
<path d="M0 0 C0.99 0 1.98 0 3 0 C3.66 1.65 4.32 3.3 5 5 C3.68 5.33 2.36 5.66 1 6 C1 6.66 1 7.32 1 8 C0.34 7.67 -0.32 7.34 -1 7 C-0.67 4.69 -0.34 2.38 0 0 Z " fill="#D0C636" transform="translate(138,114)"/>
<path d="M0 0 C6.4 0.49230769 6.4 0.49230769 9.4375 3.0625 C10.2109375 4.0215625 10.2109375 4.0215625 11 5 C6.62886504 4.49172849 3.61004338 3.54826592 0 1 C0 0.67 0 0.34 0 0 Z " fill="#1C1C1E" transform="translate(124,68)"/>
<path d="M0 0 C0.66 0 1.32 0 2 0 C2.125 6.75 2.125 6.75 1 9 C0.34 9 -0.32 9 -1 9 C-1.125 2.25 -1.125 2.25 0 0 Z " fill="#0577B3" transform="translate(146,93)"/>
<path d="M0 0 C0.66 0.66 1.32 1.32 2 2 C1.34 3.65 0.68 5.3 0 7 C-0.99 7 -1.98 7 -3 7 C-3.33 7.99 -3.66 8.98 -4 10 C-3.38461538 3.47692308 -3.38461538 3.47692308 -1.4375 1.0625 C-0.7259375 0.5365625 -0.7259375 0.5365625 0 0 Z " fill="#1F6F2A" transform="translate(125,85)"/>
<path d="M0 0 C0.33 0.66 0.66 1.32 1 2 C-0.75 4.5 -0.75 4.5 -3 7 C-4.32 7 -5.64 7 -7 7 C-5.25 2.125 -5.25 2.125 -3 1 C-3 1.99 -3 2.98 -3 4 C-2.01 2.68 -1.02 1.36 0 0 Z " fill="#CCC65C" transform="translate(153,70)"/>
<path d="M0 0 C0.99 0 1.98 0 3 0 C3.33 1.32 3.66 2.64 4 4 C1.02148438 4.29296875 1.02148438 4.29296875 -1.95703125 4.5859375 C-4.29988142 4.92665391 -4.29988142 4.92665391 -7 7 C-6.34 5.68 -5.68 4.36 -5 3 C-3.35 3 -1.7 3 0 3 C0 2.01 0 1.02 0 0 Z " fill="#A3B360" transform="translate(143,63)"/>
<path d="M0 0 C1.32 0 2.64 0 4 0 C4 1.98 4 3.96 4 6 C2.68 6 1.36 6 0 6 C0 4.02 0 2.04 0 0 Z " fill="#D45D1B" transform="translate(134,115)"/>
<path d="M0 0 C0.99 0.33 1.98 0.66 3 1 C3.33 1.99 3.66 2.98 4 4 C2.02 4.66 0.04 5.32 -2 6 C-2.66 5.34 -3.32 4.68 -4 4 C-3.34 4 -2.68 4 -2 4 C-2 3.34 -2 2.68 -2 2 C-1.34 2 -0.68 2 0 2 C0 1.34 0 0.68 0 0 Z " fill="#B2A63A" transform="translate(124,106)"/>
<path d="M0 0 C0.33 0.66 0.66 1.32 1 2 C1.66 2 2.32 2 3 2 C3 4.31 3 6.62 3 9 C2.34 9 1.68 9 1 9 C-0.4783226 6.04335481 -0.06032783 3.25770263 0 0 Z " fill="#0577B2" transform="translate(124,93)"/>
<path d="M0 0 C0.33 1.32 0.66 2.64 1 4 C0.01 4.33 -0.98 4.66 -2 5 C-2 4.34 -2 3.68 -2 3 C-2.66 3 -3.32 3 -4 3 C-4.66 4.32 -5.32 5.64 -6 7 C-6.33 6.01 -6.66 5.02 -7 4 C-6.34 4 -5.68 4 -5 4 C-4.67 3.01 -4.34 2.02 -4 1 C-1.9375 0.3125 -1.9375 0.3125 0 0 Z " fill="#CA2311" transform="translate(165,90)"/>
<path d="M0 0 C1.32 0 2.64 0 4 0 C3.67 1.65 3.34 3.3 3 5 C2.01 5 1.02 5 0 5 C0 3.35 0 1.7 0 0 Z " fill="#C51F16" transform="translate(122,77)"/>
<path d="M0 0 C2.72869407 0.03287583 5.2966618 0.56397771 8 1 C7.67 1.99 7.34 2.98 7 4 C2.545 3.01 2.545 3.01 -2 2 C-1.34 1.34 -0.68 0.68 0 0 Z " fill="#A71A0D" transform="translate(157,106)"/>
<path d="M0 0 C0.66 0.33 1.32 0.66 2 1 C1.3125 2.9375 1.3125 2.9375 0 5 C-2.625 5.75 -2.625 5.75 -5 6 C-2.25 1.125 -2.25 1.125 0 0 Z " fill="#C31F10" transform="translate(160,101)"/>
<path d="M0 0 C2.475 0.495 2.475 0.495 5 1 C5 3.31 5 5.62 5 8 C4.34 7.67 3.68 7.34 3 7 C3.33 6.34 3.66 5.68 4 5 C3.34 5 2.68 5 2 5 C1.34 3.35 0.68 1.7 0 0 Z " fill="#B6A84F" transform="translate(105,76)"/>
<path d="M0 0 C1.32 0 2.64 0 4 0 C3.67 1.65 3.34 3.3 3 5 C1.68 4.34 0.36 3.68 -1 3 C-0.67 2.01 -0.34 1.02 0 0 Z " fill="#B0A033" transform="translate(160,113)"/>
<path d="M0 0 C-0.33 1.32 -0.66 2.64 -1 4 C-1.66 4 -2.32 4 -3 4 C-4.33783393 4.31478446 -5.67203709 4.64587656 -7 5 C-6.1875 3.0625 -6.1875 3.0625 -5 1 C-2 0 -2 0 0 0 Z " fill="#D04F1A" transform="translate(168,99)"/>
<path d="M0 0 C2.0625 0.4375 2.0625 0.4375 4 1 C3.67 1.99 3.34 2.98 3 4 C1.35 4.33 -0.3 4.66 -2 5 C-1.125 1.125 -1.125 1.125 0 0 Z " fill="#CBC658" transform="translate(127,79)"/>
<path d="M0 0 C2.475 0.495 2.475 0.495 5 1 C4.34 2.32 3.68 3.64 3 5 C2.34 5 1.68 5 1 5 C0.67 3.35 0.34 1.7 0 0 Z " fill="#B6A634" transform="translate(108,113)"/>
<path d="M0 0 C3.26954202 0.56371414 4.82575883 1.49962266 7 4 C3 4 3 4 0 2 C0 1.34 0 0.68 0 0 Z " fill="#EBDC39" transform="translate(116,84)"/>
<path d="M0 0 C0.66 0.66 1.32 1.32 2 2 C1.625 4.125 1.625 4.125 1 6 C0.34 6 -0.32 6 -1 6 C-1.33 4.35 -1.66 2.7 -2 1 C-1.34 0.67 -0.68 0.34 0 0 Z " fill="#BCBCB2" transform="translate(149,76)"/>
<path d="M0 0 C0.33 0.66 0.66 1.32 1 2 C0.67 2.99 0.34 3.98 0 5 C-1.32 4.67 -2.64 4.34 -4 4 C-4 3.01 -4 2.02 -4 1 C-2.68 0.67 -1.36 0.34 0 0 Z " fill="#B4AE54" transform="translate(162,71)"/>
</svg>
