<?xml version="1.0" encoding="UTF-8"?>
<svg version="1.1" xmlns="http://www.w3.org/2000/svg" width="318" height="159">
<path d="M0 0 C104.94 0 209.88 0 318 0 C318 52.47 318 104.94 318 159 C213.06 159 108.12 159 0 159 C0 106.53 0 54.06 0 0 Z " fill="#FFFCFC" transform="translate(0,0)"/>
<path d="M0 0 C26.07 0 52.14 0 79 0 C79 52.47 79 104.94 79 159 C52.93 159 26.86 159 0 159 C0 106.53 0 54.06 0 0 Z " fill="#FF0000" transform="translate(239,0)"/>
<path d="M0 0 C26.07 0 52.14 0 79 0 C79 52.47 79 104.94 79 159 C52.93 159 26.86 159 0 159 C0 106.53 0 54.06 0 0 Z " fill="#FF0000" transform="translate(0,0)"/>
<path d="M0 0 C0.66 0 1.32 0 2 0 C3.67313323 3.28841876 5.33739607 6.58124682 7 9.875 C7.47695312 10.81214844 7.95390625 11.74929687 8.4453125 12.71484375 C8.89648438 13.61074219 9.34765625 14.50664062 9.8125 15.4296875 C10.23144531 16.25710449 10.65039062 17.08452148 11.08203125 17.93701172 C12 20 12 20 12 22 C15.46430347 20.5735221 18.62815301 19.23137146 21.8125 17.25 C22.534375 16.8375 23.25625 16.425 24 16 C24.66 16.33 25.32 16.66 26 17 C25.81824219 17.88260498 25.63648438 18.76520996 25.44921875 19.67456055 C24.77440977 22.96317289 24.10400406 26.25262028 23.43652344 29.54272461 C23.14725708 30.96398019 22.85626228 32.38488517 22.56347656 33.80541992 C22.14188262 35.85244491 21.72660984 37.90066833 21.3125 39.94921875 C21.06113281 41.17987061 20.80976563 42.41052246 20.55078125 43.6784668 C20.07606364 46.54129177 19.88486878 49.10972674 20 52 C23.00943713 52.34909549 23.00943713 52.34909549 24.578125 50.4609375 C25.12984375 49.77257813 25.6815625 49.08421875 26.25 48.375 C29.538906 44.43392287 33.02711068 41.24317496 37 38 C38.32 40.64 39.64 43.28 41 46 C47.39205856 45.27637073 53.68027076 44.19656638 60 43 C58.55613874 50.21930632 56.42211826 57.05110733 54 64 C54.94875 64.28875 55.8975 64.5775 56.875 64.875 C60 66 60 66 62 68 C55.36619289 74.19053428 48.46822768 79.87420541 41.296875 85.421875 C40.75232666 85.84855469 40.20777832 86.27523437 39.64672852 86.71484375 C38.52073563 87.59360232 37.38525986 88.46030813 36.24194336 89.31640625 C34.36919904 90.72879373 34.36919904 90.72879373 32 93 C31.92232871 96.54024142 31.92232871 96.54024142 33 100 C33.185625 100.969375 33.37125 101.93875 33.5625 102.9375 C33.706875 103.618125 33.85125 104.29875 34 105 C28.10386497 105.18425422 22.71308671 104.28956441 16.9609375 103.06640625 C12.57164035 102.17668386 8.4767649 101.77159363 4 102 C2.66384627 103.10224427 2.66384627 103.10224427 2.97827148 105.86743164 C3.02540283 107.11903076 3.07253418 108.37062988 3.12109375 109.66015625 C3.14470474 110.32462265 3.16831573 110.98908905 3.19264221 111.6736908 C3.26943685 113.80350279 3.35339213 115.93296546 3.4375 118.0625 C3.49070494 119.50323791 3.54344543 120.94399305 3.59570312 122.38476562 C3.72507286 125.92339313 3.86086741 129.46174141 4 133 C2.02 133 0.04 133 -2 133 C-1.94670532 131.64467163 -1.94670532 131.64467163 -1.89233398 130.26196289 C-1.76338203 126.92062184 -1.63902513 123.57917641 -1.51782227 120.23754883 C-1.46433763 118.78923699 -1.40900341 117.34099225 -1.35180664 115.89282227 C-1.27007488 113.81541418 -1.19492232 111.7378583 -1.12109375 109.66015625 C-1.0739624 108.40855713 -1.02683105 107.15695801 -0.97827148 105.86743164 C-0.66384627 103.10224427 -0.66384627 103.10224427 -2 102 C-9.31096263 102.14532495 -16.45006535 103.17682211 -23.609375 104.58984375 C-26.43333985 105.07434752 -29.14102122 105.15453939 -32 105 C-31.505 103.4221875 -31.505 103.4221875 -31 101.8125 C-29.77075841 97.41142453 -29.77075841 97.41142453 -30 93 C-31.92347108 90.98306872 -33.69675703 89.38024554 -35.875 87.6875 C-36.46490723 87.20966064 -37.05481445 86.73182129 -37.66259766 86.23950195 C-39.43076314 84.81191984 -41.2136498 83.40472084 -43 82 C-44.79177842 80.56263929 -46.58345888 79.12515646 -48.375 77.6875 C-49.16390625 77.06230469 -49.9528125 76.43710938 -50.765625 75.79296875 C-53.91041687 73.26943821 -56.95753639 70.64562053 -60 68 C-57.34262343 65.81715496 -55.34430737 64.72366315 -52 64 C-52.18699463 63.47043701 -52.37398926 62.94087402 -52.56665039 62.39526367 C-53.40800834 59.99585494 -54.23537426 57.59184998 -55.0625 55.1875 C-55.35705078 54.35412109 -55.65160156 53.52074219 -55.95507812 52.66210938 C-56.22900391 51.85966797 -56.50292969 51.05722656 -56.78515625 50.23046875 C-57.04176025 49.49207764 -57.29836426 48.75368652 -57.56274414 47.99291992 C-58 46 -58 46 -57 43 C-56.03578125 43.2165625 -55.0715625 43.433125 -54.078125 43.65625 C-52.81484375 43.9346875 -51.5515625 44.213125 -50.25 44.5 C-48.99703125 44.7784375 -47.7440625 45.056875 -46.453125 45.34375 C-42.93087755 46.12446903 -42.93087755 46.12446903 -39 46 C-37.68 43.36 -36.36 40.72 -35 38 C-30.3062987 41.8315929 -26.36945463 45.73063371 -22.578125 50.4609375 C-21.00943713 52.34909549 -21.00943713 52.34909549 -18 52 C-18.54451639 43.77852571 -19.87711805 35.87117503 -21.5625 27.8125 C-21.79646484 26.66974609 -22.03042969 25.52699219 -22.27148438 24.34960938 C-22.84233371 21.56526262 -23.41858235 18.78215551 -24 16 C-21.30829973 17.03803466 -18.90758072 18.05635322 -16.4375 19.5625 C-14.21853522 20.87112025 -12.50924843 21.53532436 -10 22 C-9.75507813 21.18273437 -9.51015625 20.36546875 -9.2578125 19.5234375 C-7.77452388 15.36838676 -5.88199051 11.54678711 -3.875 7.625 C-3.50246094 6.88894531 -3.12992188 6.15289062 -2.74609375 5.39453125 C-1.8343878 3.59449642 -0.91770068 1.79698598 0 0 Z " fill="#FF0101" transform="translate(158,14)"/>
</svg>
