<?xml version="1.0" encoding="UTF-8"?>
<svg version="1.1" xmlns="http://www.w3.org/2000/svg" width="512" height="512">
<path d="M0 0 C1.03624512 0.19867676 2.07249023 0.39735352 3.14013672 0.60205078 C62.98014396 12.33452393 119.18563797 38.54220024 165 79 C165.84433594 79.74507813 166.68867188 80.49015625 167.55859375 81.2578125 C170.0558586 83.48737056 172.5288707 85.74151981 175 88 C176.16904072 89.05233902 177.33832712 90.10440516 178.5078125 91.15625 C179.71386655 92.24964175 180.91959847 93.34338893 182.125 94.4375 C182.70636719 94.95820068 183.28773438 95.47890137 183.88671875 96.01538086 C185.29618628 97.30279359 186.65334941 98.6470172 188 100 C188 100.66 188 101.32 188 102 C188.66 102 189.32 102 190 102 C191.3046875 103.29296875 191.3046875 103.29296875 192.875 105.1875 C195.57699903 108.37720425 198.35231271 111.46132711 201.22070312 114.49975586 C207.38515368 121.05096073 213.07486388 127.85287072 218.50341797 135.0234375 C219.54722184 136.40200784 220.59613254 137.77671992 221.64892578 139.1484375 C249.35274799 175.30493592 268.40788497 216.58355197 279.3125 260.75 C279.54291992 261.66966553 279.77333984 262.58933105 280.01074219 263.53686523 C283.84651374 279.81636411 285.50904605 296.10115133 285.39111328 312.80224609 C285.37499888 315.50018813 285.39110537 318.19663315 285.41015625 320.89453125 C285.43070049 337.03363211 284.0148251 353.33435814 279.1875 368.8125 C278.92743164 369.67665527 278.66736328 370.54081055 278.39941406 371.43115234 C277.62400436 373.96269199 276.81999246 376.48258724 276 379 C275.65412842 380.07241943 275.65412842 380.07241943 275.30126953 381.16650391 C267.49178726 404.86717668 253.75809488 425.69787545 237 444 C235.71029297 445.41539062 235.71029297 445.41539062 234.39453125 446.859375 C222.43383743 459.38100907 208.37600616 469.15477804 193 477 C192.40574219 477.31130859 191.81148438 477.62261719 191.19921875 477.94335938 C174.00583827 486.88315477 155.06497021 491.9674757 136 495 C135.29004883 495.11714355 134.58009766 495.23428711 133.84863281 495.35498047 C82.81119178 503.37651195 27.68388758 492.80721416 -19 472 C-20.22855713 471.45690186 -20.22855713 471.45690186 -21.48193359 470.90283203 C-50.84113216 457.80918264 -77.42700499 439.61040431 -102 419 C-103.00619385 418.163479 -104.0123877 417.32695801 -105.04907227 416.46508789 C-113.56214297 409.32456355 -121.54996564 401.76243466 -129.37915039 393.8815918 C-131.32150484 391.92844512 -133.27442958 389.9863238 -135.22851562 388.04492188 C-142.28091145 381.0002836 -148.83740218 373.84396705 -155 366 C-156.04801258 364.74030225 -157.10088782 363.48462265 -158.16015625 362.234375 C-198.007901 314.64277482 -226.64449261 253.5068188 -227.23828125 190.56640625 C-227.2480751 189.69895279 -227.25786896 188.83149933 -227.26795959 187.9377594 C-227.69469374 140.32171687 -219.77333209 93.02627827 -186 57 C-185.4215332 56.37383789 -184.84306641 55.74767578 -184.24707031 55.10253906 C-174.45577726 44.59318366 -163.96230083 35.93032018 -152 28 C-151.40590332 27.60345215 -150.81180664 27.2069043 -150.19970703 26.79833984 C-130.34619461 13.68884836 -108.18202722 5.08001214 -85 0 C-83.90268555 -0.2477417 -83.90268555 -0.2477417 -82.78320312 -0.50048828 C-56.77649746 -6.06924036 -25.98935355 -5.11514598 0 0 Z M-124 57 C-125.53527344 58.12148437 -125.53527344 58.12148437 -127.1015625 59.265625 C-158.46146148 82.28362119 -175.68299121 115.42408672 -181.65625 153.51123047 C-190.36427349 216.5578153 -167.98156962 279.06297421 -130.47216797 329.06396484 C-127.10840365 333.48762173 -123.60300457 337.77012132 -120 342 C-119.02063014 343.16519382 -118.0414771 344.33056992 -117.0625 345.49609375 C-112.13014169 351.33806385 -107.16128934 357.01944604 -101.66015625 362.33984375 C-100 364 -100 364 -97.5 367.0625 C-94.96590325 370.04006368 -92.30716422 372.44877036 -89.3359375 374.97265625 C-86.67230037 377.28440821 -84.12736524 379.70418883 -81.5625 382.125 C-74.16128913 388.99866376 -66.1065959 394.99196798 -58 401 C-57.40461426 401.44730469 -56.80922852 401.89460938 -56.19580078 402.35546875 C-41.19664081 413.61024968 -24.96466766 423.04264492 -8 431 C-7.31292969 431.3295166 -6.62585938 431.6590332 -5.91796875 431.99853516 C13.18740441 441.12772512 33.25227252 446.94711486 54 451 C54.80115234 451.16516113 55.60230469 451.33032227 56.42773438 451.50048828 C82.14933613 456.62678443 113.40348333 456.92654942 139 451 C139.88413574 450.80132324 140.76827148 450.60264648 141.67919922 450.39794922 C165.31599093 444.92817683 186.71015289 435.07713972 205 419 C205.85207031 418.28070313 206.70414062 417.56140625 207.58203125 416.8203125 C213.82699853 411.42911187 219.00762686 405.55676404 224 399 C224.4021875 398.47809082 224.804375 397.95618164 225.21875 397.41845703 C240.05709232 378.03007615 249.46685693 355.96005476 254 332 C254.22558594 330.84757812 254.45117188 329.69515625 254.68359375 328.5078125 C260.60001182 291.21397723 253.23591325 253.86172344 240 219 C239.73106934 218.28714844 239.46213867 217.57429687 239.18505859 216.83984375 C228.98635199 190.14231208 214.71732538 165.39165613 197 143 C196.23171875 142.01902344 195.4634375 141.03804688 194.671875 140.02734375 C180.72621974 122.59527467 164.71663561 105.60430705 147 92 C145.94971747 91.15103563 144.90166294 90.29930993 143.85546875 89.4453125 C105.61447373 58.43039366 58.65173986 36.92074666 10 29 C8.93918213 28.81969238 8.93918213 28.81969238 7.85693359 28.63574219 C3.9146334 27.97331851 -0.02668022 27.43640549 -4 27 C-4.99902344 26.88914062 -5.99804688 26.77828125 -7.02734375 26.6640625 C-48.14576947 22.82703412 -90.96386996 31.22988096 -124 57 Z " fill="#D41E4C" transform="translate(227,9)"/>
<path d="M0 0 C1.19238281 0.10957031 2.38476562 0.21914063 3.61328125 0.33203125 C11.57111109 1.1767171 15.68333866 2.38148652 21.5 7.875 C27.47414306 17.6896636 28.95208754 38.49161376 27.25 49.75 C25.15219061 53.36691275 24.20125774 54.43291409 20.25 55.75 C11.62267067 56.31898031 2.91888948 55.63748503 -5.6875 55 C-6.67008789 54.9383667 -7.65267578 54.8767334 -8.66503906 54.81323242 C-16.09417823 54.20300886 -20.7074042 52.82833098 -26.078125 47.39453125 C-29.1744979 42.13432846 -28.99761685 35.36266601 -29.5 29.4375 C-29.62503906 28.15681641 -29.75007812 26.87613281 -29.87890625 25.55664062 C-31.55662818 7.64557623 -31.55662818 7.64557623 -29.5 2.8125 C-22.92274284 -4.93926737 -8.83107416 -0.93824118 0 0 Z " fill="#D4204E" transform="translate(213.75,308.25)"/>
<path d="M0 0 C2.13349042 0.27970649 4.26879886 0.53904136 6.4050293 0.796875 C7.77563063 0.97272642 9.14607951 1.14977094 10.51635742 1.328125 C12.36958618 1.56547363 12.36958618 1.56547363 14.26025391 1.80761719 C19.97029276 3.00615519 24.08413228 5.13463109 27.68774414 9.81689453 C30.97074253 15.33465774 31.21590332 22.70407809 31.83276367 28.96875 C31.91913086 29.76345703 32.00549805 30.55816406 32.09448242 31.37695312 C33.75285586 47.552675 33.75285586 47.552675 29.70776367 52.53125 C22.55909067 56.1055865 9.55657224 53.42226526 1.77026367 52.78125 C0.89523193 52.7196167 0.0202002 52.6579834 -0.88134766 52.59448242 C-7.39971065 51.99659847 -13.25381039 50.81708926 -17.85131836 45.84521484 C-21.49710855 40.6640793 -22.23078117 35.61720687 -22.60473633 29.40625 C-22.67249268 28.4884375 -22.74024902 27.570625 -22.81005859 26.625 C-22.99680317 23.92794561 -23.14777942 21.23085243 -23.29223633 18.53125 C-23.34283203 17.7877832 -23.39342773 17.04431641 -23.44555664 16.27832031 C-24.13799918 5.8119766 -24.13799918 5.8119766 -21.10473633 1.21875 C-14.39207021 -2.80884967 -7.3835507 -0.9766736 0 0 Z " fill="#D4204E" transform="translate(201.292236328125,248.46875)"/>
<path d="M0 0 C2.04230687 0.30648002 4.08705304 0.58050654 6.13452148 0.85009766 C21.8365229 3.07215229 21.8365229 3.07215229 26.93481445 9.69238281 C29.24196228 14.0672676 29.63671103 19.02736004 30.29663086 23.86962891 C30.46485352 24.94277344 30.63307617 26.01591797 30.80639648 27.12158203 C33.53249712 45.51441614 33.53249712 45.51441614 30.10913086 50.30712891 C25.92266971 53.01601554 22.70437209 52.67183003 17.85913086 52.36962891 C16.65981934 52.29578979 16.65981934 52.29578979 15.4362793 52.22045898 C10.02680493 51.86356171 4.62488411 51.44552038 -0.76586914 50.86962891 C-2.01883789 50.73943359 -3.27180664 50.60923828 -4.56274414 50.47509766 C-9.43553891 49.35611877 -12.62581651 46.95634382 -16.26586914 43.61962891 C-20.62695197 36.29923987 -20.52109387 26.15299296 -21.26586914 17.80712891 C-21.36899414 16.80166016 -21.47211914 15.79619141 -21.57836914 14.76025391 C-21.66602539 13.78830078 -21.75368164 12.81634766 -21.84399414 11.81494141 C-21.92552734 10.94756348 -22.00706055 10.08018555 -22.09106445 9.18652344 C-22.00268413 6.24299972 -21.35600852 4.29633078 -20.01586914 1.68212891 C-13.79939405 -2.75174707 -7.20424752 -1.08674683 0 0 Z " fill="#D4204E" transform="translate(260.015869140625,256.31787109375)"/>
<path d="M0 0 C3.23075279 0.41109731 6.43865223 0.90232023 9.65332031 1.42382812 C10.74128906 1.58109375 11.82925781 1.73835937 12.95019531 1.90039062 C20.21896563 3.05557417 24.80580909 4.66598994 30.07910156 10.00195312 C32.12796412 13.22361287 32.54135633 15.64147583 32.96582031 19.42382812 C33.11148438 20.66390625 33.25714844 21.90398437 33.40722656 23.18164062 C33.59091797 24.91027344 33.59091797 24.91027344 33.77832031 26.67382812 C33.89046875 27.49625 34.00261719 28.31867188 34.11816406 29.16601562 C34.68759617 33.42505581 34.94062864 37.69291789 35.09082031 41.98632812 C35.14689453 43.46552734 35.14689453 43.46552734 35.20410156 44.97460938 C34.64947352 48.49064587 33.52879187 49.4682805 30.77832031 51.67382812 C22.59679065 53.12713648 13.52690302 51.18519554 5.40332031 49.92382812 C3.69982422 49.68792969 3.69982422 49.68792969 1.96191406 49.44726562 C-5.55887837 48.30107217 -10.39779491 46.93954521 -15.51855469 41.01757812 C-17.71488064 36.70552533 -18.12576338 32.95310229 -18.47167969 28.17382812 C-18.58116943 26.85511719 -18.58116943 26.85511719 -18.69287109 25.50976562 C-18.8960224 22.89877185 -19.06616771 20.2880557 -19.22167969 17.67382812 C-19.2684082 16.93777344 -19.31513672 16.20171875 -19.36328125 15.44335938 C-19.97582057 4.63384205 -19.97582057 4.63384205 -17.53320312 1.52441406 C-12.73419264 -2.31763278 -5.80005584 -0.5872139 0 0 Z " fill="#D4204E" transform="translate(192.2216796875,192.326171875)"/>
<path d="M0 0 C1.24547607 0.21148682 1.24547607 0.21148682 2.51611328 0.42724609 C5.1813283 0.89039796 7.84077792 1.37866716 10.5 1.875 C11.34812256 2.02412842 12.19624512 2.17325684 13.07006836 2.3269043 C19.65047621 3.60434286 24.25185555 5.52346202 28.25 11.1875 C31.27387679 17.91562585 31.46679252 25.72502861 32 33 C32.08507812 34.11246094 32.17015625 35.22492188 32.2578125 36.37109375 C32.42706731 40.52912028 32.28512082 43.33903811 30.625 47.1875 C23.91051201 51.82369409 12.45760567 48.4511997 4.875 47.3125 C3.74707031 47.16361328 2.61914062 47.01472656 1.45703125 46.86132812 C-5.20879491 45.86730142 -10.92272819 44.66386356 -16 40 C-18.98854662 35.63538831 -19.67577551 31.17338099 -20.1875 26 C-20.26500488 25.26177002 -20.34250977 24.52354004 -20.42236328 23.76293945 C-22.29070648 4.63397948 -22.29070648 4.63397948 -19.1640625 0.67578125 C-13.46217842 -3.73957664 -6.58771776 -1.12682762 0 0 Z " fill="#D4204E" transform="translate(189,140)"/>
<path d="M0 0 C1.10150391 0.15726562 2.20300781 0.31453125 3.33789062 0.4765625 C10.48102766 1.59739269 15.25855441 2.63330489 20.05078125 8.30859375 C21.99028639 12.83010264 22.70695538 17.47450206 23.5 22.3125 C23.67217041 23.34149414 23.84434082 24.37048828 24.02172852 25.43066406 C26.91742108 43.54055149 26.91742108 43.54055149 24.28515625 47.984375 C18.51014809 51.68952875 10.35587632 50.15416199 3.875 49.5 C2.98490234 49.42523438 2.09480469 49.35046875 1.17773438 49.2734375 C-6.25442638 48.55682302 -13.74742817 47.634391 -19.125 42.0625 C-21.89307092 38.38698985 -23.00124254 34.75447716 -23.6875 30.25 C-23.87054688 29.21746094 -24.05359375 28.18492187 -24.2421875 27.12109375 C-27.74764447 5.63216231 -27.74764447 5.63216231 -24.2265625 -0.1484375 C-17.65165747 -4.29568529 -7.26401302 -1.15124512 0 0 Z " fill="#D4204E" transform="translate(321.6875,264.75)"/>
<path d="M0 0 C1.37381836 0.17607788 1.37381836 0.17607788 2.77539062 0.35571289 C11.72576043 1.64574504 11.72576043 1.64574504 15.125 4.6875 C19.42414143 10.75943346 20.52644922 18.02067354 21.875 25.1875 C22.09542969 26.27675781 22.31585938 27.36601562 22.54296875 28.48828125 C25.4182335 43.2574983 25.4182335 43.2574983 22.54296875 48.66015625 C19.33446196 51.35032592 17.59050827 51.2641819 13.4375 51.125 C12.46586914 51.0945459 12.46586914 51.0945459 11.47460938 51.06347656 C9.35382813 50.97755359 7.24196143 50.84050482 5.125 50.6875 C4.3829834 50.63674316 3.6409668 50.58598633 2.87646484 50.53369141 C0.62218531 50.36453562 -1.62538106 50.15985903 -3.875 49.9375 C-4.91466919 49.84553345 -4.91466919 49.84553345 -5.9753418 49.75170898 C-10.9579266 49.17071785 -15.07503712 47.98555817 -18.875 44.6875 C-23.26671504 38.95760355 -24.06728277 31.75702053 -25.125 24.8125 C-25.29773438 23.78769531 -25.47046875 22.76289063 -25.6484375 21.70703125 C-28.35120598 4.82545349 -28.35120598 4.82545349 -25.0625 0.0625 C-17.20769224 -3.32584845 -8.23032185 -1.09092718 0 0 Z " fill="#D4204E" transform="translate(385.875,326.3125)"/>
<path d="M0 0 C2.37565764 0.50784464 4.74933909 1.02501016 7.12109375 1.55078125 C8.31412109 1.79505859 9.50714844 2.03933594 10.73632812 2.29101562 C17.43585942 3.76200777 22.55046931 5.06125246 27.55859375 9.86328125 C32.62920704 18.93085596 34.15537465 34.50995993 32.55859375 44.86328125 C30.29495511 47.67527612 29.474203 47.88210159 25.72265625 48.71875 C19.26536474 49.23486294 13.18427945 47.63950623 6.93359375 46.17578125 C5.74507812 45.91861328 4.5565625 45.66144531 3.33203125 45.39648438 C-10.85540709 42.17422578 -10.85540709 42.17422578 -15.30859375 36.47265625 C-17.47749745 31.47669875 -17.84363738 26.23771695 -18.44140625 20.86328125 C-18.52729004 20.14333984 -18.61317383 19.42339844 -18.70166016 18.68164062 C-18.9608582 16.410851 -19.1758456 14.13972383 -19.37890625 11.86328125 C-19.46092285 11.1455957 -19.54293945 10.42791016 -19.62744141 9.68847656 C-19.90906177 5.88883676 -19.57219168 4.05984331 -17.4453125 0.86328125 C-11.79527181 -2.89851437 -6.31748769 -1.18652396 0 0 Z " fill="#D41F4D" transform="translate(182.44140625,89.13671875)"/>
<path d="M0 0 C0.85078125 0.10957031 1.7015625 0.21914063 2.578125 0.33203125 C9.76233598 1.37881046 15.74276825 2.83756507 20.328125 8.75390625 C22.75875717 13.76608346 23.69000369 19.25751888 24.75 24.6875 C24.97042969 25.73357422 25.19085938 26.77964844 25.41796875 27.85742188 C28.2544066 41.87224368 28.2544066 41.87224368 25.9375 47.1875 C21.7578478 50.55818726 16.33677253 49.79725807 11.27734375 49.296875 C9.16286297 49.04097402 7.04956923 48.77509605 4.9375 48.5 C3.34325195 48.31630859 3.34325195 48.31630859 1.71679688 48.12890625 C-5.2065476 47.25537996 -10.33346857 46.10646964 -15.6875 41.375 C-19.35414421 36.62716583 -19.9547515 30.50539954 -21 24.75 C-21.20625 23.70714844 -21.4125 22.66429687 -21.625 21.58984375 C-24.0436806 8.57263913 -24.0436806 8.57263913 -23 2.75 C-17.81419601 -4.05636774 -7.4873917 -1.10041969 0 0 Z " fill="#D4214E" transform="translate(372,271.25)"/>
<path d="M0 0 C0.85851562 0.144375 1.71703125 0.28875 2.6015625 0.4375 C8.36329762 1.53666178 11.77979952 2.84668675 15.75 7.25 C18.84919718 12.90874505 19.81809123 19.54032503 21 25.8125 C21.185625 26.71935547 21.37125 27.62621094 21.5625 28.56054688 C22.54334668 33.68398462 23.20107301 38.12507394 21.75 43.25 C20.10546875 45.1953125 20.10546875 45.1953125 17.75 46.25 C9.78187272 46.71573552 1.4871229 45.19208498 -6.375 43.9375 C-7.08487061 43.83228027 -7.79474121 43.72706055 -8.52612305 43.61865234 C-13.12945838 42.8148692 -15.99464552 41.61541095 -19.25 38.25 C-22.61188674 33.08570312 -23.40566034 27.40771622 -24.4375 21.4375 C-24.61474609 20.49068359 -24.79199219 19.54386719 -24.97460938 18.56835938 C-26.01780153 12.71601108 -26.69821246 7.19318084 -26.25 1.25 C-20.4812302 -6.05908317 -7.86618436 -1.4914478 0 0 Z " fill="#D4214F" transform="translate(366.25,220.75)"/>
<path d="M0 0 C1.42834293 0.20342352 2.85673116 0.40652919 4.28515625 0.609375 C5.79470311 0.84094951 7.30382301 1.07532452 8.8125 1.3125 C9.88806152 1.47020874 9.88806152 1.47020874 10.98535156 1.63110352 C16.91545746 2.64132067 20.78457713 4.91420294 25.203125 9.07421875 C27.85793205 13.39693719 28.7101917 17.88485499 29.75 22.8125 C30.08064453 24.25206055 30.08064453 24.25206055 30.41796875 25.72070312 C31.63466904 31.2563116 32.4093868 36.33255143 32 42 C30.25 44.5625 30.25 44.5625 27 46 C22.92027707 46.19868781 19.02924338 45.60810513 15 45 C14.30632324 44.90799316 13.61264648 44.81598633 12.89794922 44.72119141 C10.65680952 44.42220805 8.42259084 44.091107 6.1875 43.75 C5.48270508 43.65323975 4.77791016 43.55647949 4.05175781 43.45678711 C-1.22788282 42.57124625 -5.12131973 40.74066508 -9 37 C-12.36201806 32.03354815 -13.14166494 26.36952969 -14.1875 20.5625 C-14.36474609 19.64662109 -14.54199219 18.73074219 -14.72460938 17.78710938 C-15.65333461 12.79207363 -16.38418447 8.08050841 -16 3 C-11.82549528 -2.75793754 -6.20142177 -1.00369832 0 0 Z " fill="#D4224F" transform="translate(347,170)"/>
<path d="M0 0 C3.58592679 0.5829732 7.09575199 1.39275368 10.625 2.25 C11.99785156 2.55744141 11.99785156 2.55744141 13.3984375 2.87109375 C20.95634984 4.67319713 26.61354104 7.27673671 31 14 C32.01171875 17.12109375 32.01171875 17.12109375 32.6875 20.4375 C33.03361328 22.07525391 33.03361328 22.07525391 33.38671875 23.74609375 C34.29523112 28.56641734 35.1677988 33.27527493 35.3125 38.1875 C35.36857422 39.44626953 35.36857422 39.44626953 35.42578125 40.73046875 C35 43 35 43 33.234375 44.8046875 C29.16398305 46.98220487 25.4123011 45.76306854 21 45 C20.27135742 44.87705566 19.54271484 44.75411133 18.79199219 44.62744141 C16.29333964 44.19422758 13.80309988 43.72723926 11.3125 43.25 C10.10098267 43.03331665 10.10098267 43.03331665 8.86499023 42.81225586 C2.09672222 41.43357322 -2.90151921 39.11863776 -6.83203125 33.27734375 C-8.32909786 29.07654479 -9.05734189 24.96671976 -9.6875 20.5625 C-9.81705078 19.74201172 -9.94660156 18.92152344 -10.08007812 18.07617188 C-11.87981874 6.14455818 -11.87981874 6.14455818 -10 1.5625 C-6.93195675 -0.83440879 -3.71621464 -0.30281116 0 0 Z " fill="#D4214F" transform="translate(334,122)"/>
<path d="M0 0 C3.72916212 1.51523517 5.72147813 3.71256761 8.3125 6.75 C11.96481141 10.9223425 15.69246271 14.51731028 20 18 C19.34 18.66 18.68 19.32 18 20 C14.99196428 17.04974274 11.9949821 14.08850331 9 11.125 C8.14148438 10.28324219 7.28296875 9.44148438 6.3984375 8.57421875 C5.58632812 7.76855469 4.77421875 6.96289062 3.9375 6.1328125 C2.80634766 5.01737061 2.80634766 5.01737061 1.65234375 3.87939453 C0 2 0 2 0 0 Z " fill="#DB426A" transform="translate(119,366)"/>
<path d="M0 0 C2.24609375 1.02734375 2.24609375 1.02734375 4 2 C3.24074219 2.03738281 2.48148438 2.07476562 1.69921875 2.11328125 C0.70535156 2.17902344 -0.28851563 2.24476562 -1.3125 2.3125 C-2.29863281 2.37050781 -3.28476563 2.42851563 -4.30078125 2.48828125 C-7.29854867 3.05659895 -8.0526105 3.76499605 -10 6 C-10.66 6 -11.32 6 -12 6 C-12 7.98 -12 9.96 -12 12 C-12.33 12 -12.66 12 -13 12 C-13.41668469 7.74981621 -13.44022082 5.64657432 -11 2.0625 C-6.88380367 -0.76738497 -4.9322673 -0.5480297 0 0 Z " fill="#E16484" transform="translate(176,88)"/>
<path d="M0 0 C5.19453651 1.41669178 8.66182883 4.92108191 12 9 C12 9.66 12 10.32 12 11 C12.66 11 13.32 11 14 11 C14 11.66 14 12.32 14 13 C10.12060491 11.41379873 7.66638913 8.90079013 4.75 5.9375 C3.85796875 5.03902344 2.9659375 4.14054687 2.046875 3.21484375 C0 1 0 1 0 0 Z " fill="#DA4268" transform="translate(403,100)"/>
<path d="M0 0 C3.62613199 0.56959153 5.25517741 1.92374534 7.75 4.5625 C8.36359375 5.20316406 8.9771875 5.84382813 9.609375 6.50390625 C10.06828125 6.99761719 10.5271875 7.49132812 11 8 C10.34 8.66 9.68 9.32 9 10 C7.49702124 8.52386015 5.99768715 7.04400843 4.5 5.5625 C3.6646875 4.73878906 2.829375 3.91507812 1.96875 3.06640625 C0 1 0 1 0 0 Z " fill="#DD4F73" transform="translate(393,118)"/>
</svg>
